G04 Layer: TopSilkscreenLayer*
G04 EasyEDA v6.5.14, 2022-08-24 17:06:53*
G04 77cd11f6e3b44a54979dfea80d6f7020,401f954c81374b6587e5d63e119e93f9,10*
G04 Gerber Generator version 0.2*
G04 Scale: 100 percent, Rotated: No, Reflected: No *
G04 Dimensions in millimeters *
G04 leading zeros omitted , absolute positions ,4 integer and 5 decimal *
%FSLAX45Y45*%
%MOMM*%

%ADD10C,0.1524*%
%ADD11C,0.2540*%
%ADD12C,0.2030*%
%ADD13C,0.1270*%
%ADD14C,0.2000*%
%ADD15C,0.1016*%
%ADD16C,0.1500*%
%ADD17C,0.2030*%
%ADD18C,0.2032*%
%ADD19C,0.3000*%
%ADD20C,0.1000*%
%ADD21C,0.0144*%

%LPD*%
G36*
X-2375255Y-324154D02*
G01*
X-2386533Y-324764D01*
X-2397709Y-325983D01*
X-2410053Y-328269D01*
X-2422448Y-331571D01*
X-2434894Y-335737D01*
X-2447137Y-340766D01*
X-2459126Y-346608D01*
X-2470658Y-353161D01*
X-2481681Y-360324D01*
X-2491994Y-368096D01*
X-2496870Y-372160D01*
X-2505913Y-380644D01*
X-2510078Y-385064D01*
X-2517140Y-393954D01*
X-2520137Y-400913D01*
X-2519222Y-406806D01*
X-2514549Y-412242D01*
X-2512110Y-414070D01*
X-2509621Y-415543D01*
X-2507335Y-416509D01*
X-2505608Y-416864D01*
X-2502865Y-415594D01*
X-2497937Y-412038D01*
X-2491587Y-406755D01*
X-2479243Y-395579D01*
X-2468829Y-386892D01*
X-2458415Y-379323D01*
X-2447848Y-372872D01*
X-2442514Y-369976D01*
X-2431491Y-364998D01*
X-2425852Y-362813D01*
X-2414117Y-359105D01*
X-2401773Y-356209D01*
X-2395270Y-355041D01*
X-2382672Y-353517D01*
X-2376322Y-353110D01*
X-2363724Y-353110D01*
X-2351227Y-354126D01*
X-2338832Y-356108D01*
X-2326640Y-359105D01*
X-2320645Y-360934D01*
X-2308860Y-365302D01*
X-2297328Y-370636D01*
X-2291740Y-373634D01*
X-2280818Y-380339D01*
X-2275535Y-383997D01*
X-2265324Y-392023D01*
X-2255672Y-400862D01*
X-2249932Y-406400D01*
X-2244699Y-411022D01*
X-2240534Y-414375D01*
X-2238044Y-415950D01*
X-2233726Y-416001D01*
X-2229002Y-414070D01*
X-2224786Y-410718D01*
X-2221941Y-406450D01*
X-2220925Y-401218D01*
X-2222703Y-395681D01*
X-2227986Y-388721D01*
X-2237282Y-379222D01*
X-2243429Y-373481D01*
X-2249474Y-368198D01*
X-2255469Y-363321D01*
X-2261463Y-358851D01*
X-2267559Y-354736D01*
X-2273757Y-350875D01*
X-2280208Y-347218D01*
X-2292146Y-341325D01*
X-2302764Y-336905D01*
X-2313584Y-333146D01*
X-2324557Y-330047D01*
X-2335733Y-327558D01*
X-2346960Y-325729D01*
X-2358288Y-324612D01*
X-2369616Y-324154D01*
G37*
G36*
X-2372715Y-378764D02*
G01*
X-2378964Y-378968D01*
X-2385212Y-379526D01*
X-2391765Y-380390D01*
X-2398318Y-381609D01*
X-2404872Y-383235D01*
X-2411323Y-385114D01*
X-2417724Y-387350D01*
X-2424023Y-389940D01*
X-2430221Y-392785D01*
X-2436266Y-395986D01*
X-2442210Y-399440D01*
X-2447950Y-403199D01*
X-2453538Y-407263D01*
X-2458923Y-411581D01*
X-2468575Y-420370D01*
X-2474823Y-427786D01*
X-2477922Y-434238D01*
X-2478074Y-439978D01*
X-2477312Y-442214D01*
X-2476042Y-444500D01*
X-2474417Y-446481D01*
X-2472639Y-448005D01*
X-2467152Y-450545D01*
X-2461666Y-450138D01*
X-2455113Y-446328D01*
X-2441600Y-434543D01*
X-2432354Y-427278D01*
X-2427681Y-424078D01*
X-2423007Y-421233D01*
X-2418232Y-418642D01*
X-2408529Y-414426D01*
X-2403500Y-412699D01*
X-2393188Y-410159D01*
X-2387803Y-409295D01*
X-2376576Y-408381D01*
X-2364689Y-408432D01*
X-2357526Y-408990D01*
X-2350668Y-409803D01*
X-2344115Y-411022D01*
X-2337866Y-412597D01*
X-2331821Y-414578D01*
X-2325979Y-416966D01*
X-2320290Y-419760D01*
X-2314702Y-423011D01*
X-2309215Y-426720D01*
X-2303780Y-430885D01*
X-2298293Y-435559D01*
X-2292858Y-440740D01*
X-2285187Y-447395D01*
X-2278938Y-450545D01*
X-2273350Y-450392D01*
X-2267610Y-447090D01*
X-2263394Y-442061D01*
X-2262682Y-436168D01*
X-2265629Y-429259D01*
X-2272182Y-421132D01*
X-2276602Y-416661D01*
X-2286000Y-408432D01*
X-2290978Y-404672D01*
X-2296109Y-401167D01*
X-2306828Y-394817D01*
X-2312416Y-392023D01*
X-2318105Y-389483D01*
X-2323896Y-387197D01*
X-2335733Y-383438D01*
X-2341778Y-381965D01*
X-2347874Y-380746D01*
X-2354021Y-379831D01*
X-2360218Y-379171D01*
X-2366467Y-378815D01*
G37*
G36*
X-2370023Y-433273D02*
G01*
X-2375408Y-433324D01*
X-2380792Y-433781D01*
X-2386076Y-434593D01*
X-2391257Y-435762D01*
X-2396236Y-437286D01*
X-2401112Y-439115D01*
X-2405837Y-441248D01*
X-2410409Y-443738D01*
X-2414879Y-446481D01*
X-2419197Y-449529D01*
X-2423363Y-452831D01*
X-2427325Y-456488D01*
X-2431745Y-461060D01*
X-2434437Y-464566D01*
X-2435758Y-467817D01*
X-2436114Y-471373D01*
X-2434996Y-476961D01*
X-2431999Y-481838D01*
X-2427732Y-485241D01*
X-2422855Y-486511D01*
X-2420315Y-485952D01*
X-2417064Y-484327D01*
X-2413254Y-481736D01*
X-2404160Y-474167D01*
X-2399588Y-470763D01*
X-2395118Y-468071D01*
X-2390597Y-465937D01*
X-2385974Y-464413D01*
X-2381097Y-463346D01*
X-2375814Y-462737D01*
X-2370023Y-462534D01*
X-2364536Y-462737D01*
X-2359456Y-463346D01*
X-2354732Y-464362D01*
X-2350262Y-465835D01*
X-2345994Y-467766D01*
X-2341930Y-470204D01*
X-2337917Y-473151D01*
X-2326284Y-483209D01*
X-2320086Y-486105D01*
X-2314651Y-485393D01*
X-2309164Y-481279D01*
X-2305100Y-475996D01*
X-2304186Y-470763D01*
X-2306421Y-465023D01*
X-2312009Y-458114D01*
X-2315768Y-454406D01*
X-2319832Y-450951D01*
X-2324100Y-447801D01*
X-2328621Y-444906D01*
X-2333396Y-442366D01*
X-2338273Y-440080D01*
X-2343353Y-438099D01*
X-2348534Y-436473D01*
X-2353818Y-435152D01*
X-2359202Y-434187D01*
X-2364587Y-433527D01*
G37*
G36*
X-2369718Y-487680D02*
G01*
X-2373579Y-487832D01*
X-2379573Y-489864D01*
X-2384755Y-492455D01*
X-2389174Y-495604D01*
X-2392781Y-499313D01*
X-2395524Y-503428D01*
X-2397353Y-507949D01*
X-2398217Y-512876D01*
X-2398115Y-518058D01*
X-2396490Y-525119D01*
X-2393492Y-531164D01*
X-2389327Y-536092D01*
X-2384196Y-539851D01*
X-2378354Y-542239D01*
X-2371953Y-543153D01*
X-2365248Y-542493D01*
X-2358491Y-540105D01*
X-2354224Y-537514D01*
X-2350617Y-534263D01*
X-2347722Y-530504D01*
X-2345537Y-526288D01*
X-2344064Y-521817D01*
X-2343302Y-517194D01*
X-2343302Y-512521D01*
X-2344064Y-507898D01*
X-2345588Y-503529D01*
X-2347823Y-499414D01*
X-2350871Y-495757D01*
X-2354732Y-492709D01*
X-2359304Y-490372D01*
X-2364638Y-488594D01*
G37*
G36*
X-489915Y-39268D02*
G01*
X-489915Y-46126D01*
X-469595Y-46126D01*
X-461670Y-46786D01*
X-455980Y-48920D01*
X-452475Y-52781D01*
X-451307Y-58572D01*
X-452323Y-63906D01*
X-455625Y-67868D01*
X-461467Y-70408D01*
X-470103Y-71272D01*
X-481533Y-71272D01*
X-481533Y-46126D01*
X-489915Y-46126D01*
X-489915Y-77622D01*
X-468071Y-77622D01*
X-459079Y-78486D01*
X-452475Y-81076D01*
X-448360Y-85445D01*
X-446989Y-91592D01*
X-448411Y-98501D01*
X-452577Y-103327D01*
X-459181Y-106172D01*
X-468071Y-107086D01*
X-481533Y-107086D01*
X-481533Y-77622D01*
X-489915Y-77622D01*
X-489915Y-113690D01*
X-466801Y-113690D01*
X-460756Y-113385D01*
X-455320Y-112369D01*
X-450494Y-110693D01*
X-446379Y-108305D01*
X-443077Y-105257D01*
X-440639Y-101498D01*
X-439115Y-97028D01*
X-438607Y-91846D01*
X-439724Y-85039D01*
X-442925Y-79806D01*
X-447801Y-76149D01*
X-454101Y-74066D01*
X-454101Y-73558D01*
X-449326Y-71120D01*
X-445820Y-67462D01*
X-443636Y-62839D01*
X-442925Y-57556D01*
X-443382Y-53035D01*
X-444754Y-49225D01*
X-446989Y-46075D01*
X-449986Y-43586D01*
X-453694Y-41656D01*
X-458012Y-40335D01*
X-462940Y-39522D01*
X-468325Y-39268D01*
G37*
G36*
X-408127Y-39268D02*
G01*
X-423297Y-83718D01*
X-415493Y-83718D01*
X-409498Y-65328D01*
X-403809Y-46380D01*
X-403555Y-46380D01*
X-399796Y-59080D01*
X-391871Y-83718D01*
X-423297Y-83718D01*
X-433527Y-113690D01*
X-425145Y-113690D01*
X-417525Y-90322D01*
X-389839Y-90322D01*
X-382473Y-113690D01*
X-373329Y-113690D01*
X-398983Y-39268D01*
G37*
G36*
X-375615Y-39268D02*
G01*
X-375615Y-46380D01*
X-353009Y-46380D01*
X-353009Y-113690D01*
X-344373Y-113690D01*
X-344373Y-46380D01*
X-321767Y-46380D01*
X-321767Y-39268D01*
G37*
G36*
X-315417Y-39268D02*
G01*
X-315417Y-46380D01*
X-292557Y-46380D01*
X-292557Y-113690D01*
X-284175Y-113690D01*
X-284175Y-46380D01*
X-261315Y-46380D01*
X-261315Y-39268D01*
G37*
G36*
X-1572361Y-227685D02*
G01*
X-1578965Y-233527D01*
X-1574393Y-238252D01*
X-1571040Y-243433D01*
X-1569008Y-249174D01*
X-1568297Y-255625D01*
X-1569008Y-262128D01*
X-1571040Y-267970D01*
X-1574393Y-273050D01*
X-1578914Y-277317D01*
X-1584553Y-280720D01*
X-1591259Y-283260D01*
X-1598879Y-284784D01*
X-1607413Y-285343D01*
X-1615948Y-284784D01*
X-1623517Y-283159D01*
X-1630121Y-280568D01*
X-1635658Y-277063D01*
X-1640128Y-272694D01*
X-1643329Y-267512D01*
X-1645361Y-261670D01*
X-1646021Y-255117D01*
X-1645412Y-249326D01*
X-1643583Y-244195D01*
X-1640789Y-239725D01*
X-1637131Y-235813D01*
X-1643989Y-229971D01*
X-1648256Y-234543D01*
X-1651914Y-240385D01*
X-1654454Y-247294D01*
X-1655419Y-255371D01*
X-1655064Y-261061D01*
X-1653946Y-266496D01*
X-1652117Y-271576D01*
X-1649577Y-276250D01*
X-1646377Y-280568D01*
X-1642516Y-284429D01*
X-1638046Y-287782D01*
X-1633016Y-290626D01*
X-1627327Y-292912D01*
X-1621129Y-294589D01*
X-1614424Y-295656D01*
X-1607159Y-296011D01*
X-1599946Y-295656D01*
X-1593189Y-294640D01*
X-1587042Y-292963D01*
X-1581404Y-290728D01*
X-1576374Y-287934D01*
X-1571904Y-284632D01*
X-1568094Y-280822D01*
X-1564944Y-276606D01*
X-1562455Y-271983D01*
X-1560626Y-267004D01*
X-1559509Y-261721D01*
X-1559153Y-256133D01*
X-1560068Y-247548D01*
X-1562608Y-240080D01*
X-1566773Y-233527D01*
G37*
G36*
X-1560677Y-302615D02*
G01*
X-1653641Y-334619D01*
X-1653641Y-340715D01*
X-1645005Y-340715D01*
X-1645005Y-340207D01*
X-1629054Y-335534D01*
X-1598269Y-325729D01*
X-1598269Y-355193D01*
X-1621282Y-347776D01*
X-1636826Y-343001D01*
X-1645005Y-340715D01*
X-1653641Y-340715D01*
X-1653641Y-346049D01*
X-1560677Y-377799D01*
X-1560677Y-367385D01*
X-1590141Y-357733D01*
X-1590141Y-323189D01*
X-1560677Y-313791D01*
G37*
G36*
X-1607667Y-384657D02*
G01*
X-1614728Y-384962D01*
X-1621231Y-385876D01*
X-1627174Y-387400D01*
X-1632559Y-389534D01*
X-1637385Y-392277D01*
X-1641602Y-395579D01*
X-1645208Y-399542D01*
X-1648206Y-404063D01*
X-1650593Y-409194D01*
X-1652270Y-414883D01*
X-1653286Y-421182D01*
X-1653641Y-428091D01*
X-1653641Y-440283D01*
X-1645005Y-440283D01*
X-1645005Y-428853D01*
X-1644751Y-423418D01*
X-1643888Y-418490D01*
X-1642516Y-414070D01*
X-1640586Y-410108D01*
X-1638147Y-406603D01*
X-1635201Y-403606D01*
X-1631746Y-401066D01*
X-1627835Y-398983D01*
X-1623466Y-397357D01*
X-1618640Y-396240D01*
X-1613357Y-395528D01*
X-1607667Y-395325D01*
X-1601927Y-395528D01*
X-1596542Y-396240D01*
X-1591614Y-397357D01*
X-1587093Y-398983D01*
X-1583080Y-401066D01*
X-1579524Y-403606D01*
X-1576476Y-406603D01*
X-1573936Y-410108D01*
X-1571955Y-414070D01*
X-1570482Y-418490D01*
X-1569618Y-423418D01*
X-1569313Y-428853D01*
X-1569313Y-440283D01*
X-1653641Y-440283D01*
X-1653641Y-450951D01*
X-1560677Y-450951D01*
X-1560677Y-427583D01*
X-1561033Y-420776D01*
X-1562150Y-414578D01*
X-1563928Y-408940D01*
X-1566367Y-403910D01*
X-1569466Y-399440D01*
X-1573225Y-395528D01*
X-1577594Y-392226D01*
X-1582521Y-389483D01*
X-1588008Y-387400D01*
X-1594053Y-385876D01*
X-1600606Y-384962D01*
G37*
G36*
X-1710385Y-277114D02*
G01*
X-1710334Y-307390D01*
X-1709623Y-319024D01*
X-1720138Y-308305D01*
X-1725269Y-303479D01*
X-1735328Y-295148D01*
X-1740306Y-291642D01*
X-1745183Y-288594D01*
X-1750060Y-286105D01*
X-1754835Y-284073D01*
X-1759610Y-282600D01*
X-1764334Y-281736D01*
X-1769059Y-281432D01*
X-1774952Y-281889D01*
X-1780286Y-283260D01*
X-1784908Y-285496D01*
X-1788820Y-288544D01*
X-1791970Y-292404D01*
X-1794306Y-296976D01*
X-1795729Y-302209D01*
X-1796237Y-308102D01*
X-1795221Y-316179D01*
X-1792427Y-323189D01*
X-1788109Y-329438D01*
X-1782521Y-335280D01*
X-1776679Y-329184D01*
X-1781098Y-324916D01*
X-1784654Y-320141D01*
X-1786991Y-314909D01*
X-1787855Y-309372D01*
X-1786382Y-301447D01*
X-1782318Y-295910D01*
X-1776171Y-292658D01*
X-1768551Y-291592D01*
X-1764487Y-291846D01*
X-1760270Y-292709D01*
X-1755952Y-294132D01*
X-1751431Y-296113D01*
X-1746757Y-298704D01*
X-1741932Y-301904D01*
X-1736852Y-305714D01*
X-1731518Y-310184D01*
X-1726031Y-315264D01*
X-1720240Y-321005D01*
X-1714195Y-327406D01*
X-1707845Y-334518D01*
X-1701495Y-334518D01*
X-1701495Y-277114D01*
G37*
G36*
X-1713179Y-344932D02*
G01*
X-1719783Y-350774D01*
X-1715211Y-355498D01*
X-1711858Y-360680D01*
X-1709826Y-366420D01*
X-1709115Y-372872D01*
X-1709826Y-379374D01*
X-1711858Y-385216D01*
X-1715211Y-390296D01*
X-1719732Y-394563D01*
X-1725371Y-398018D01*
X-1732025Y-400507D01*
X-1739696Y-402031D01*
X-1748231Y-402590D01*
X-1756765Y-402031D01*
X-1764334Y-400405D01*
X-1770938Y-397814D01*
X-1776475Y-394309D01*
X-1780895Y-389940D01*
X-1784146Y-384810D01*
X-1786178Y-378917D01*
X-1786839Y-372364D01*
X-1786178Y-366572D01*
X-1784400Y-361442D01*
X-1781606Y-356971D01*
X-1777949Y-353060D01*
X-1784807Y-347218D01*
X-1789074Y-351840D01*
X-1792732Y-357632D01*
X-1795272Y-364540D01*
X-1796237Y-372618D01*
X-1795881Y-378307D01*
X-1794764Y-383743D01*
X-1792884Y-388823D01*
X-1790395Y-393547D01*
X-1787194Y-397814D01*
X-1783334Y-401675D01*
X-1778863Y-405079D01*
X-1773783Y-407924D01*
X-1768144Y-410159D01*
X-1761947Y-411835D01*
X-1755241Y-412902D01*
X-1747977Y-413258D01*
X-1740712Y-412902D01*
X-1734007Y-411886D01*
X-1727809Y-410209D01*
X-1722221Y-407974D01*
X-1717192Y-405180D01*
X-1712722Y-401878D01*
X-1708912Y-398068D01*
X-1705762Y-393852D01*
X-1703273Y-389229D01*
X-1701444Y-384251D01*
X-1700326Y-378968D01*
X-1699971Y-373380D01*
X-1700834Y-364794D01*
X-1703425Y-357327D01*
X-1707591Y-350774D01*
G37*
G36*
X-1860194Y-285242D02*
G01*
X-1860194Y-304038D01*
X-1944522Y-304038D01*
X-1944522Y-311912D01*
X-1942592Y-315772D01*
X-1940864Y-320192D01*
X-1939442Y-325120D01*
X-1938172Y-330708D01*
X-1931568Y-330708D01*
X-1931568Y-314452D01*
X-1860194Y-314452D01*
X-1860194Y-335280D01*
X-1851558Y-335280D01*
X-1851558Y-285242D01*
G37*
G36*
X-1863242Y-351282D02*
G01*
X-1869846Y-357124D01*
X-1865274Y-361899D01*
X-1861972Y-367030D01*
X-1859889Y-372668D01*
X-1859178Y-378968D01*
X-1859889Y-385521D01*
X-1861921Y-391363D01*
X-1865274Y-396443D01*
X-1869795Y-400710D01*
X-1875434Y-404114D01*
X-1882139Y-406654D01*
X-1889760Y-408178D01*
X-1898294Y-408686D01*
X-1906828Y-408178D01*
X-1914398Y-406552D01*
X-1921002Y-403961D01*
X-1926539Y-400456D01*
X-1931009Y-396138D01*
X-1934260Y-391007D01*
X-1936242Y-385216D01*
X-1936902Y-378714D01*
X-1936292Y-372973D01*
X-1934464Y-367842D01*
X-1931670Y-363321D01*
X-1928012Y-359410D01*
X-1934870Y-353568D01*
X-1939137Y-358190D01*
X-1942795Y-363982D01*
X-1945335Y-370840D01*
X-1946300Y-378714D01*
X-1945944Y-384505D01*
X-1944827Y-389940D01*
X-1942998Y-395071D01*
X-1940458Y-399846D01*
X-1937257Y-404164D01*
X-1933397Y-408025D01*
X-1928977Y-411429D01*
X-1923897Y-414274D01*
X-1918258Y-416559D01*
X-1912010Y-418236D01*
X-1905304Y-419252D01*
X-1898040Y-419608D01*
X-1890826Y-419252D01*
X-1884070Y-418236D01*
X-1877923Y-416610D01*
X-1872284Y-414375D01*
X-1867255Y-411530D01*
X-1862785Y-408228D01*
X-1858975Y-404418D01*
X-1855825Y-400151D01*
X-1853336Y-395528D01*
X-1851507Y-390499D01*
X-1850440Y-385114D01*
X-1850034Y-379476D01*
X-1850948Y-371043D01*
X-1853488Y-363575D01*
X-1857654Y-357022D01*
G37*
G36*
X-2022398Y-230479D02*
G01*
X-2029002Y-236321D01*
X-2024430Y-241046D01*
X-2021078Y-246227D01*
X-2018995Y-251967D01*
X-2018334Y-258419D01*
X-2018995Y-264922D01*
X-2021078Y-270764D01*
X-2024380Y-275844D01*
X-2028901Y-280111D01*
X-2034539Y-283514D01*
X-2041245Y-286054D01*
X-2048916Y-287578D01*
X-2057450Y-288137D01*
X-2065934Y-287578D01*
X-2073554Y-285953D01*
X-2080158Y-283362D01*
X-2085695Y-279857D01*
X-2090115Y-275488D01*
X-2093366Y-270306D01*
X-2095347Y-264464D01*
X-2096058Y-257911D01*
X-2095398Y-252120D01*
X-2093569Y-246989D01*
X-2090775Y-242519D01*
X-2087168Y-238607D01*
X-2094026Y-232765D01*
X-2098243Y-237337D01*
X-2101900Y-243179D01*
X-2104491Y-250088D01*
X-2105456Y-258165D01*
X-2105050Y-263855D01*
X-2103932Y-269290D01*
X-2102104Y-274370D01*
X-2099564Y-279044D01*
X-2096414Y-283362D01*
X-2092553Y-287223D01*
X-2088083Y-290576D01*
X-2083003Y-293420D01*
X-2077364Y-295706D01*
X-2071166Y-297383D01*
X-2064410Y-298450D01*
X-2057196Y-298805D01*
X-2049932Y-298450D01*
X-2043226Y-297434D01*
X-2037029Y-295757D01*
X-2031390Y-293522D01*
X-2026361Y-290728D01*
X-2021941Y-287426D01*
X-2018131Y-283616D01*
X-2014931Y-279400D01*
X-2012442Y-274777D01*
X-2010664Y-269798D01*
X-2009546Y-264515D01*
X-2009190Y-258927D01*
X-2010054Y-250342D01*
X-2012645Y-242874D01*
X-2016760Y-236321D01*
G37*
G36*
X-2057704Y-313791D02*
G01*
X-2064715Y-314096D01*
X-2071217Y-315010D01*
X-2077212Y-316534D01*
X-2082596Y-318719D01*
X-2087422Y-321462D01*
X-2091639Y-324815D01*
X-2095246Y-328777D01*
X-2098243Y-333298D01*
X-2100580Y-338429D01*
X-2102256Y-344119D01*
X-2103323Y-350367D01*
X-2103678Y-357225D01*
X-2103678Y-369671D01*
X-2095042Y-369671D01*
X-2095042Y-358241D01*
X-2094738Y-352806D01*
X-2093874Y-347878D01*
X-2092502Y-343458D01*
X-2090572Y-339496D01*
X-2088134Y-335991D01*
X-2085187Y-332994D01*
X-2081784Y-330454D01*
X-2077872Y-328371D01*
X-2073503Y-326745D01*
X-2068677Y-325628D01*
X-2063394Y-324916D01*
X-2057704Y-324713D01*
X-2051913Y-324916D01*
X-2046528Y-325628D01*
X-2041601Y-326745D01*
X-2037130Y-328371D01*
X-2033117Y-330454D01*
X-2029561Y-332994D01*
X-2026513Y-335991D01*
X-2023973Y-339496D01*
X-2021941Y-343458D01*
X-2020519Y-347878D01*
X-2019604Y-352806D01*
X-2019350Y-358241D01*
X-2019350Y-369671D01*
X-2103678Y-369671D01*
X-2103678Y-380085D01*
X-2010714Y-380085D01*
X-2010714Y-356971D01*
X-2011070Y-350164D01*
X-2012137Y-343966D01*
X-2013915Y-338328D01*
X-2016404Y-333248D01*
X-2019503Y-328726D01*
X-2023211Y-324764D01*
X-2027580Y-321462D01*
X-2032507Y-318719D01*
X-2037994Y-316534D01*
X-2044039Y-315010D01*
X-2050643Y-314096D01*
G37*
G36*
X-2010714Y-393547D02*
G01*
X-2103678Y-425551D01*
X-2103678Y-431647D01*
X-2095042Y-431647D01*
X-2095042Y-431139D01*
X-2079091Y-426466D01*
X-2048306Y-416661D01*
X-2048306Y-446125D01*
X-2071268Y-438708D01*
X-2086864Y-433933D01*
X-2095042Y-431647D01*
X-2103678Y-431647D01*
X-2103678Y-436981D01*
X-2010714Y-468731D01*
X-2010714Y-458317D01*
X-2040178Y-448665D01*
X-2040178Y-414121D01*
X-2010714Y-404723D01*
G37*
G36*
X922223Y-164541D02*
G01*
X915162Y-164846D01*
X908659Y-165760D01*
X902665Y-167284D01*
X897280Y-169418D01*
X892403Y-172161D01*
X888136Y-175463D01*
X884529Y-179425D01*
X881481Y-183946D01*
X879094Y-189077D01*
X877417Y-194767D01*
X876350Y-201066D01*
X875995Y-207975D01*
X875995Y-220167D01*
X884631Y-220167D01*
X884631Y-208737D01*
X884936Y-203301D01*
X885748Y-198374D01*
X887171Y-193954D01*
X889050Y-189992D01*
X891540Y-186486D01*
X894486Y-183489D01*
X897940Y-180949D01*
X901852Y-178866D01*
X906271Y-177241D01*
X911148Y-176123D01*
X916482Y-175412D01*
X922223Y-175209D01*
X927912Y-175412D01*
X933246Y-176123D01*
X938123Y-177241D01*
X942594Y-178866D01*
X946607Y-180949D01*
X950112Y-183489D01*
X953160Y-186486D01*
X955700Y-189992D01*
X957681Y-193954D01*
X959154Y-198374D01*
X960018Y-203301D01*
X960323Y-208737D01*
X960323Y-220167D01*
X875995Y-220167D01*
X875995Y-230835D01*
X968959Y-230835D01*
X968959Y-207467D01*
X968603Y-200660D01*
X967536Y-194462D01*
X965758Y-188823D01*
X963320Y-183794D01*
X960272Y-179324D01*
X956564Y-175412D01*
X952246Y-172110D01*
X947318Y-169367D01*
X941832Y-167284D01*
X935837Y-165760D01*
X929284Y-164846D01*
G37*
G36*
X921461Y-253187D02*
G01*
X921461Y-283159D01*
X930097Y-283159D01*
X930097Y-263093D01*
X955497Y-263093D01*
X958037Y-266446D01*
X959866Y-270713D01*
X960983Y-275488D01*
X961339Y-280619D01*
X960628Y-287782D01*
X958646Y-294132D01*
X955344Y-299567D01*
X950823Y-304088D01*
X945184Y-307644D01*
X938530Y-310235D01*
X930859Y-311810D01*
X922223Y-312369D01*
X913688Y-311759D01*
X906119Y-310083D01*
X899515Y-307390D01*
X893978Y-303733D01*
X889558Y-299110D01*
X886307Y-293725D01*
X884275Y-287528D01*
X883615Y-280619D01*
X884326Y-274015D01*
X886256Y-268528D01*
X889101Y-264007D01*
X892505Y-260299D01*
X885647Y-254457D01*
X881634Y-259029D01*
X878078Y-264871D01*
X875487Y-272135D01*
X874471Y-280873D01*
X874826Y-286867D01*
X875944Y-292506D01*
X877773Y-297840D01*
X880313Y-302717D01*
X883513Y-307187D01*
X887323Y-311150D01*
X891794Y-314655D01*
X896823Y-317550D01*
X902462Y-319887D01*
X908608Y-321614D01*
X915314Y-322681D01*
X922477Y-323037D01*
X929792Y-322681D01*
X936548Y-321665D01*
X942797Y-319989D01*
X948436Y-317703D01*
X953465Y-314858D01*
X957935Y-311454D01*
X961745Y-307543D01*
X964946Y-303174D01*
X967435Y-298348D01*
X969264Y-293166D01*
X970381Y-287528D01*
X970737Y-281635D01*
X969924Y-272796D01*
X967689Y-265023D01*
X964285Y-258419D01*
X960069Y-253187D01*
G37*
G36*
X880059Y-387299D02*
G01*
X880059Y-454863D01*
X888949Y-454863D01*
X888949Y-426415D01*
X973023Y-426415D01*
X973023Y-415747D01*
X888949Y-415747D01*
X888949Y-387299D01*
G37*
G36*
X973023Y-452069D02*
G01*
X880059Y-483819D01*
X880059Y-490169D01*
X888695Y-490169D01*
X888695Y-489661D01*
X904646Y-484936D01*
X935431Y-475183D01*
X935431Y-504393D01*
X912469Y-497128D01*
X888695Y-490169D01*
X880059Y-490169D01*
X880059Y-495503D01*
X973023Y-527253D01*
X973023Y-516585D01*
X943559Y-507187D01*
X943559Y-472389D01*
X973023Y-463245D01*
G37*
G36*
X945845Y-533603D02*
G01*
X937260Y-535025D01*
X930656Y-538988D01*
X926033Y-545084D01*
X923493Y-552907D01*
X922985Y-552907D01*
X919835Y-546963D01*
X915212Y-542594D01*
X909370Y-539902D01*
X902665Y-538937D01*
X897077Y-539546D01*
X892403Y-541274D01*
X888492Y-544017D01*
X885342Y-547776D01*
X883005Y-552399D01*
X881329Y-557784D01*
X880364Y-563930D01*
X880059Y-570687D01*
X880059Y-587197D01*
X888441Y-587197D01*
X888441Y-572211D01*
X889253Y-562305D01*
X891895Y-555193D01*
X896670Y-550824D01*
X903935Y-549351D01*
X910590Y-550672D01*
X915669Y-554888D01*
X918819Y-562203D01*
X919937Y-572973D01*
X919937Y-587197D01*
X928065Y-587197D01*
X928065Y-570433D01*
X928319Y-564388D01*
X929081Y-559104D01*
X930402Y-554532D01*
X932230Y-550722D01*
X934618Y-547725D01*
X937615Y-545541D01*
X941171Y-544220D01*
X945337Y-543763D01*
X949960Y-544220D01*
X953922Y-545592D01*
X957224Y-547878D01*
X959916Y-550926D01*
X961999Y-554736D01*
X963472Y-559308D01*
X964336Y-564540D01*
X964641Y-570433D01*
X964641Y-587197D01*
X880059Y-587197D01*
X880059Y-597611D01*
X973023Y-597611D01*
X973023Y-568655D01*
X972616Y-561187D01*
X971296Y-554380D01*
X969162Y-548436D01*
X966216Y-543306D01*
X962355Y-539191D01*
X957681Y-536143D01*
X952195Y-534263D01*
G37*
G36*
X-610108Y18440D02*
G01*
X-610108Y-25247D01*
X-645668Y-25247D01*
X-645668Y10312D01*
X-654558Y10312D01*
X-654558Y-25247D01*
X-685292Y-25247D01*
X-685292Y17170D01*
X-694182Y17170D01*
X-694182Y-35915D01*
X-601218Y-35915D01*
X-601218Y18440D01*
G37*
G36*
X-612902Y-53441D02*
G01*
X-619506Y-59283D01*
X-614934Y-64058D01*
X-611581Y-69189D01*
X-609549Y-74930D01*
X-608838Y-81381D01*
X-609549Y-87934D01*
X-611581Y-93776D01*
X-614832Y-98856D01*
X-619353Y-103124D01*
X-624992Y-106527D01*
X-631647Y-109067D01*
X-639368Y-110591D01*
X-647954Y-111099D01*
X-656488Y-110591D01*
X-664057Y-108966D01*
X-670661Y-106375D01*
X-676198Y-102870D01*
X-680669Y-98501D01*
X-683869Y-93319D01*
X-685901Y-87426D01*
X-686562Y-80873D01*
X-685901Y-75133D01*
X-684123Y-70002D01*
X-681329Y-65481D01*
X-677672Y-61569D01*
X-684530Y-55727D01*
X-688746Y-60350D01*
X-692302Y-66141D01*
X-694791Y-73101D01*
X-695706Y-81127D01*
X-695350Y-86868D01*
X-694232Y-92252D01*
X-692404Y-97332D01*
X-689864Y-102057D01*
X-686663Y-106375D01*
X-682853Y-110235D01*
X-678383Y-113588D01*
X-673354Y-116433D01*
X-667766Y-118719D01*
X-661568Y-120396D01*
X-654913Y-121412D01*
X-647700Y-121767D01*
X-640384Y-121412D01*
X-633628Y-120396D01*
X-627430Y-118770D01*
X-621741Y-116535D01*
X-616712Y-113741D01*
X-612241Y-110439D01*
X-608431Y-106629D01*
X-605231Y-102412D01*
X-602742Y-97790D01*
X-600913Y-92811D01*
X-599795Y-87477D01*
X-599440Y-81889D01*
X-600354Y-73355D01*
X-602945Y-65887D01*
X-607161Y-59283D01*
G37*
G36*
X-606145Y-222453D02*
G01*
X-606145Y-266395D01*
X-641705Y-266395D01*
X-641705Y-230581D01*
X-650595Y-230581D01*
X-650595Y-266395D01*
X-681329Y-266395D01*
X-681329Y-223977D01*
X-690219Y-223977D01*
X-690219Y-276809D01*
X-597255Y-276809D01*
X-597255Y-222453D01*
G37*
G36*
X-597255Y-293573D02*
G01*
X-638403Y-317449D01*
X-639724Y-312775D01*
X-641604Y-308610D01*
X-643991Y-304901D01*
X-646988Y-301802D01*
X-650494Y-299262D01*
X-654558Y-297383D01*
X-659130Y-296214D01*
X-664311Y-295859D01*
X-670864Y-296468D01*
X-676402Y-298196D01*
X-680872Y-301040D01*
X-684428Y-304850D01*
X-687019Y-309524D01*
X-688848Y-315010D01*
X-689864Y-321259D01*
X-690219Y-328117D01*
X-690219Y-345897D01*
X-681583Y-345897D01*
X-681583Y-329641D01*
X-680669Y-319684D01*
X-677722Y-312470D01*
X-672338Y-308000D01*
X-664311Y-306527D01*
X-656183Y-308000D01*
X-650494Y-312470D01*
X-647141Y-319684D01*
X-646023Y-329641D01*
X-646023Y-345897D01*
X-690219Y-345897D01*
X-690219Y-356565D01*
X-597255Y-356565D01*
X-597255Y-345897D01*
X-637387Y-345897D01*
X-637387Y-328625D01*
X-597255Y-305257D01*
G37*
G36*
X-603707Y-457758D02*
G01*
X-603707Y-501700D01*
X-639521Y-501700D01*
X-639521Y-465886D01*
X-648411Y-465886D01*
X-648411Y-501700D01*
X-678891Y-501700D01*
X-678891Y-459282D01*
X-687781Y-459282D01*
X-687781Y-512114D01*
X-594817Y-512114D01*
X-594817Y-457758D01*
G37*
G36*
X-687781Y-528624D02*
G01*
X-687781Y-538784D01*
X-635965Y-549198D01*
X-605993Y-554532D01*
X-605993Y-555040D01*
X-635965Y-562152D01*
X-687781Y-575360D01*
X-687781Y-585266D01*
X-635965Y-598220D01*
X-605993Y-605078D01*
X-605993Y-605586D01*
X-635965Y-611174D01*
X-687781Y-621588D01*
X-687781Y-632256D01*
X-594817Y-612190D01*
X-594817Y-599998D01*
X-658063Y-584301D01*
X-673811Y-580694D01*
X-673811Y-580186D01*
X-652729Y-575614D01*
X-594817Y-560882D01*
X-594817Y-548436D01*
G37*
G36*
X-38100Y1016762D02*
G01*
X-44043Y1016304D01*
X-49530Y1014984D01*
X-54406Y1012850D01*
X-58623Y1009954D01*
X-62026Y1006398D01*
X-64617Y1002334D01*
X-66243Y997712D01*
X-66802Y992632D01*
X-65074Y983792D01*
X-60604Y977239D01*
X-54457Y972413D01*
X-47752Y969010D01*
X-28143Y960170D01*
X-23114Y956716D01*
X-19710Y952195D01*
X-18542Y945896D01*
X-19913Y939342D01*
X-23926Y934313D01*
X-30327Y931062D01*
X-38862Y929894D01*
X-46126Y930757D01*
X-53086Y933094D01*
X-59436Y936752D01*
X-65024Y941578D01*
X-71374Y934466D01*
X-64719Y928674D01*
X-57150Y924255D01*
X-48564Y921461D01*
X-39116Y920496D01*
X-32207Y921054D01*
X-26060Y922578D01*
X-20726Y924966D01*
X-16256Y928166D01*
X-12649Y932027D01*
X-10007Y936498D01*
X-8382Y941374D01*
X-7873Y946658D01*
X-9347Y955802D01*
X-13512Y962660D01*
X-19659Y967689D01*
X-27178Y971550D01*
X-40640Y977137D01*
X-46024Y979678D01*
X-51054Y982878D01*
X-54711Y987348D01*
X-56134Y993394D01*
X-54813Y999286D01*
X-51104Y1003757D01*
X-45415Y1006652D01*
X-38100Y1007618D01*
X-31750Y1007008D01*
X-26162Y1005179D01*
X-21082Y1002385D01*
X-16510Y998728D01*
X-11176Y1005586D01*
X-16459Y1010158D01*
X-22809Y1013663D01*
X-30073Y1015949D01*
G37*
G36*
X110235Y1016762D02*
G01*
X102717Y1015949D01*
X96012Y1013714D01*
X90017Y1010361D01*
X84582Y1006094D01*
X90170Y999236D01*
X94437Y1002944D01*
X99110Y1005840D01*
X104241Y1007719D01*
X109728Y1008380D01*
X116585Y1007313D01*
X121666Y1004214D01*
X124917Y999388D01*
X125983Y993140D01*
X125679Y989380D01*
X124612Y985926D01*
X122834Y982776D01*
X120142Y980084D01*
X116585Y977900D01*
X112064Y976274D01*
X106527Y975207D01*
X99822Y974852D01*
X99822Y966469D01*
X107289Y966114D01*
X113537Y965098D01*
X118668Y963472D01*
X122682Y961237D01*
X125679Y958494D01*
X127762Y955243D01*
X128930Y951534D01*
X129285Y947419D01*
X127863Y939901D01*
X123850Y934212D01*
X117754Y930656D01*
X109982Y929386D01*
X102362Y930300D01*
X96113Y932637D01*
X90881Y936040D01*
X86360Y940053D01*
X81026Y933196D01*
X86207Y928573D01*
X92659Y924458D01*
X100634Y921613D01*
X110489Y920496D01*
X116433Y920953D01*
X121920Y922324D01*
X126898Y924509D01*
X131216Y927506D01*
X134772Y931316D01*
X137464Y935837D01*
X139141Y941069D01*
X139700Y946912D01*
X138176Y955751D01*
X133908Y962761D01*
X127609Y967841D01*
X119887Y970787D01*
X119887Y971296D01*
X126695Y974699D01*
X132029Y979576D01*
X135432Y985977D01*
X136652Y993902D01*
X136144Y999083D01*
X134670Y1003604D01*
X132334Y1007516D01*
X129184Y1010767D01*
X125323Y1013358D01*
X120802Y1015237D01*
X115773Y1016406D01*
G37*
G36*
X179070Y1016762D02*
G01*
X171094Y1015796D01*
X164084Y1013104D01*
X157784Y1008837D01*
X151892Y1003300D01*
X157988Y997458D01*
X162306Y1001776D01*
X167081Y1005230D01*
X172364Y1007567D01*
X178054Y1008380D01*
X185826Y1006957D01*
X191312Y1002944D01*
X194564Y996950D01*
X195580Y989330D01*
X195326Y985266D01*
X194462Y981100D01*
X193090Y976731D01*
X191058Y972210D01*
X188468Y967486D01*
X185267Y962558D01*
X181457Y957478D01*
X177038Y952144D01*
X166166Y940765D01*
X159766Y934719D01*
X152654Y928369D01*
X152654Y922274D01*
X210058Y922274D01*
X210058Y931164D01*
X179832Y931113D01*
X168402Y930402D01*
X179019Y940917D01*
X188163Y951077D01*
X192074Y956056D01*
X195580Y960983D01*
X198577Y965860D01*
X201117Y970737D01*
X203098Y975512D01*
X204571Y980338D01*
X205435Y985113D01*
X205740Y989837D01*
X205282Y995680D01*
X203911Y1000912D01*
X201676Y1005535D01*
X198628Y1009396D01*
X194767Y1012545D01*
X190246Y1014882D01*
X184962Y1016304D01*
G37*
G36*
X256032Y1016762D02*
G01*
X250088Y1016304D01*
X244602Y1014984D01*
X239725Y1012850D01*
X235508Y1009954D01*
X232105Y1006398D01*
X229514Y1002334D01*
X227888Y997712D01*
X227329Y992632D01*
X229057Y983792D01*
X233527Y977239D01*
X239572Y972413D01*
X246125Y969010D01*
X259588Y963168D01*
X265988Y960170D01*
X271018Y956716D01*
X274421Y952195D01*
X275590Y945896D01*
X274218Y939342D01*
X270205Y934313D01*
X263804Y931062D01*
X255270Y929894D01*
X248005Y930757D01*
X241046Y933094D01*
X234696Y936752D01*
X229108Y941578D01*
X222758Y934466D01*
X229412Y928674D01*
X236982Y924255D01*
X245567Y921461D01*
X255016Y920496D01*
X261924Y921054D01*
X268071Y922578D01*
X273405Y924966D01*
X277876Y928166D01*
X281482Y932027D01*
X284124Y936498D01*
X285750Y941374D01*
X286258Y946658D01*
X284784Y955802D01*
X280619Y962660D01*
X274472Y967689D01*
X266954Y971550D01*
X253492Y977137D01*
X248107Y979678D01*
X243078Y982878D01*
X239420Y987348D01*
X237998Y993394D01*
X239318Y999286D01*
X243027Y1003757D01*
X248716Y1006652D01*
X256032Y1007618D01*
X262382Y1007008D01*
X267970Y1005179D01*
X273050Y1002385D01*
X277622Y998728D01*
X282956Y1005586D01*
X277672Y1010158D01*
X271322Y1013663D01*
X264058Y1015949D01*
G37*
G36*
X589280Y1016762D02*
G01*
X581761Y1015949D01*
X575056Y1013714D01*
X569061Y1010361D01*
X563626Y1006094D01*
X569214Y999236D01*
X573481Y1002944D01*
X578154Y1005840D01*
X583285Y1007719D01*
X588772Y1008380D01*
X595630Y1007313D01*
X600710Y1004214D01*
X603961Y999388D01*
X605028Y993140D01*
X604723Y989380D01*
X603707Y985926D01*
X601929Y982776D01*
X599287Y980084D01*
X595782Y977900D01*
X591210Y976274D01*
X585622Y975207D01*
X578866Y974852D01*
X578866Y966469D01*
X586333Y966114D01*
X592582Y965098D01*
X597712Y963472D01*
X601726Y961237D01*
X604723Y958494D01*
X606806Y955243D01*
X607974Y951534D01*
X608330Y947419D01*
X606907Y939901D01*
X602894Y934212D01*
X596798Y930656D01*
X589026Y929386D01*
X581406Y930300D01*
X575157Y932637D01*
X569925Y936040D01*
X565404Y940053D01*
X560070Y933196D01*
X565251Y928573D01*
X571703Y924458D01*
X579678Y921613D01*
X589534Y920496D01*
X595477Y920953D01*
X600964Y922324D01*
X605942Y924509D01*
X610260Y927506D01*
X613816Y931316D01*
X616508Y935837D01*
X618185Y941069D01*
X618744Y946912D01*
X617220Y955751D01*
X612952Y962761D01*
X606653Y967841D01*
X598932Y970787D01*
X598932Y971296D01*
X605739Y974699D01*
X611073Y979576D01*
X614476Y985977D01*
X615696Y993902D01*
X615188Y999083D01*
X613714Y1003604D01*
X611378Y1007516D01*
X608228Y1010767D01*
X604367Y1013358D01*
X599846Y1015237D01*
X594817Y1016406D01*
G37*
G36*
X-138684Y1015237D02*
G01*
X-138684Y922274D01*
X-84328Y922274D01*
X-84328Y931164D01*
X-128016Y931164D01*
X-128016Y966978D01*
X-92456Y966978D01*
X-92456Y975868D01*
X-128016Y975868D01*
X-128016Y1006348D01*
X-85598Y1006348D01*
X-85598Y1015237D01*
G37*
G36*
X10668Y1015237D02*
G01*
X10668Y1006602D01*
X35052Y1006602D01*
X41046Y1006398D01*
X46278Y1005738D01*
X50647Y1004519D01*
X54305Y1002690D01*
X57099Y1000252D01*
X59131Y997102D01*
X60299Y993140D01*
X60706Y988314D01*
X60350Y983487D01*
X59131Y979322D01*
X57200Y975918D01*
X54406Y973175D01*
X50850Y971092D01*
X46482Y969670D01*
X41300Y968806D01*
X35306Y968502D01*
X21336Y968502D01*
X21336Y1006602D01*
X10668Y1006602D01*
X10668Y922274D01*
X21336Y922274D01*
X21336Y959866D01*
X37084Y959866D01*
X44399Y960323D01*
X51003Y961593D01*
X56794Y963777D01*
X61722Y966876D01*
X65735Y970838D01*
X68681Y975766D01*
X70510Y981557D01*
X71120Y988314D01*
X70510Y995273D01*
X68681Y1001014D01*
X65684Y1005687D01*
X61671Y1009294D01*
X56641Y1012037D01*
X50698Y1013866D01*
X43891Y1014933D01*
X36322Y1015237D01*
G37*
G36*
X489712Y1015237D02*
G01*
X489712Y1006602D01*
X516382Y1006602D01*
X526389Y1005687D01*
X533704Y1002741D01*
X538226Y997407D01*
X539750Y989330D01*
X538226Y981354D01*
X533704Y975614D01*
X526389Y972210D01*
X516382Y971042D01*
X500126Y971042D01*
X500126Y1006602D01*
X489712Y1006602D01*
X489712Y922274D01*
X500126Y922274D01*
X500126Y962406D01*
X517651Y962406D01*
X540766Y922274D01*
X552704Y922274D01*
X528574Y963421D01*
X533298Y964844D01*
X537565Y966724D01*
X541223Y969162D01*
X544322Y972108D01*
X546862Y975614D01*
X548690Y979627D01*
X549808Y984199D01*
X550164Y989330D01*
X549605Y995934D01*
X547827Y1001420D01*
X545033Y1005941D01*
X541223Y1009446D01*
X536549Y1012088D01*
X531114Y1013866D01*
X524967Y1014933D01*
X518159Y1015237D01*
G37*
G36*
X674370Y1015237D02*
G01*
X671322Y972058D01*
X677164Y968502D01*
X681024Y970889D01*
X684682Y972667D01*
X688543Y973734D01*
X692912Y974090D01*
X701090Y972616D01*
X707339Y968349D01*
X711352Y961440D01*
X712724Y952246D01*
X711149Y942695D01*
X706780Y935482D01*
X700328Y930960D01*
X692404Y929386D01*
X684834Y930249D01*
X678535Y932535D01*
X673404Y935837D01*
X669036Y939800D01*
X663956Y932942D01*
X669086Y928420D01*
X675436Y924458D01*
X683361Y921613D01*
X693166Y920496D01*
X698906Y921054D01*
X704392Y922629D01*
X709472Y925271D01*
X713994Y928878D01*
X717753Y933399D01*
X720648Y938834D01*
X722528Y945134D01*
X723138Y952246D01*
X722579Y959459D01*
X720953Y965606D01*
X718413Y970787D01*
X715010Y974953D01*
X710946Y978153D01*
X706221Y980440D01*
X701040Y981811D01*
X695452Y982218D01*
X691337Y981964D01*
X687679Y981151D01*
X684276Y979881D01*
X680974Y978153D01*
X683514Y1006348D01*
X718820Y1006348D01*
X718820Y1015237D01*
G37*
G36*
X798830Y1015237D02*
G01*
X795020Y1013307D01*
X790702Y1011580D01*
X785723Y1010158D01*
X780034Y1008887D01*
X780034Y1002030D01*
X796544Y1002030D01*
X796544Y930910D01*
X775716Y930910D01*
X775716Y922274D01*
X825753Y922274D01*
X825753Y930910D01*
X806704Y930910D01*
X806704Y1015237D01*
G37*
G36*
X304038Y1010412D02*
G01*
X302768Y990853D01*
X292100Y990346D01*
X292100Y982218D01*
X302514Y982218D01*
X302514Y943102D01*
X302768Y938276D01*
X303479Y933907D01*
X304749Y930046D01*
X306628Y926744D01*
X309219Y924102D01*
X312521Y922172D01*
X316636Y920953D01*
X321564Y920496D01*
X324408Y920750D01*
X333502Y923036D01*
X331470Y930910D01*
X327660Y929640D01*
X323596Y929132D01*
X318465Y930097D01*
X315112Y932738D01*
X313283Y936955D01*
X312674Y942594D01*
X312674Y982218D01*
X331724Y982218D01*
X331724Y990853D01*
X312674Y990853D01*
X312674Y1010412D01*
G37*
G36*
X417068Y1010412D02*
G01*
X415798Y990853D01*
X405130Y990346D01*
X405130Y982218D01*
X415543Y982218D01*
X415543Y943102D01*
X416509Y933907D01*
X419608Y926744D01*
X425450Y922172D01*
X434340Y920496D01*
X437337Y920750D01*
X446532Y923036D01*
X444500Y930910D01*
X440690Y929640D01*
X436626Y929132D01*
X431393Y930097D01*
X428040Y932738D01*
X426262Y936955D01*
X425704Y942594D01*
X425704Y982218D01*
X444754Y982218D01*
X444754Y990853D01*
X425704Y990853D01*
X425704Y1010412D01*
G37*
G36*
X369570Y992632D02*
G01*
X361645Y991768D01*
X354330Y989584D01*
X348030Y986637D01*
X342900Y983487D01*
X347218Y976376D01*
X351434Y979169D01*
X356362Y981608D01*
X361899Y983335D01*
X367792Y983996D01*
X375158Y982421D01*
X379679Y978255D01*
X381914Y972312D01*
X382524Y965453D01*
X372262Y964031D01*
X363474Y962202D01*
X356158Y959866D01*
X350266Y957071D01*
X345795Y953719D01*
X342595Y949807D01*
X340766Y945235D01*
X340170Y940562D01*
X350012Y940562D01*
X350418Y943914D01*
X351739Y946962D01*
X353974Y949655D01*
X357225Y952093D01*
X361645Y954176D01*
X367284Y955954D01*
X374243Y957427D01*
X382524Y958596D01*
X382524Y938530D01*
X377545Y934364D01*
X372719Y931316D01*
X367842Y929487D01*
X362712Y928878D01*
X357835Y929538D01*
X353822Y931570D01*
X351078Y935228D01*
X350012Y940562D01*
X340170Y940562D01*
X340106Y940053D01*
X341630Y931671D01*
X345846Y925525D01*
X352145Y921766D01*
X359918Y920496D01*
X366268Y921308D01*
X372262Y923493D01*
X377850Y926744D01*
X383032Y930656D01*
X383540Y930656D01*
X384302Y922274D01*
X392938Y922274D01*
X392938Y964946D01*
X392633Y970838D01*
X391668Y976172D01*
X389991Y980846D01*
X387553Y984910D01*
X384352Y988161D01*
X380339Y990600D01*
X375412Y992124D01*
G37*
G36*
X643128Y937260D02*
G01*
X640080Y936650D01*
X637590Y934872D01*
X635914Y932230D01*
X635254Y928878D01*
X635914Y925525D01*
X637590Y922883D01*
X640080Y921156D01*
X643128Y920496D01*
X646226Y921156D01*
X648716Y922883D01*
X650392Y925525D01*
X651002Y928878D01*
X650392Y932230D01*
X648716Y934872D01*
X646226Y936650D01*
G37*
G36*
X747014Y937260D02*
G01*
X744118Y936650D01*
X741680Y934872D01*
X740054Y932230D01*
X739394Y928878D01*
X740054Y925525D01*
X741680Y922883D01*
X744118Y921156D01*
X747014Y920496D01*
X750112Y921156D01*
X752602Y922883D01*
X754278Y925525D01*
X754888Y928878D01*
X754278Y932230D01*
X752602Y934872D01*
X750112Y936650D01*
G37*
G36*
X-441706Y-352806D02*
G01*
X-448513Y-353466D01*
X-454710Y-355498D01*
X-460248Y-358749D01*
X-465023Y-363169D01*
X-468884Y-368706D01*
X-471779Y-375310D01*
X-473608Y-382879D01*
X-474218Y-391414D01*
X-473608Y-399897D01*
X-471830Y-407466D01*
X-468985Y-414020D01*
X-465175Y-419557D01*
X-460501Y-423926D01*
X-455015Y-427126D01*
X-448919Y-429107D01*
X-442214Y-429768D01*
X-435406Y-429056D01*
X-429463Y-427024D01*
X-424230Y-423672D01*
X-419608Y-419100D01*
X-424434Y-413766D01*
X-428193Y-417474D01*
X-432257Y-420166D01*
X-436778Y-421843D01*
X-441959Y-422401D01*
X-447141Y-421843D01*
X-451764Y-420217D01*
X-455777Y-417525D01*
X-459181Y-413918D01*
X-461924Y-409397D01*
X-463905Y-404063D01*
X-465175Y-397967D01*
X-465582Y-391160D01*
X-465124Y-384352D01*
X-463905Y-378256D01*
X-461822Y-372973D01*
X-459079Y-368503D01*
X-455625Y-364947D01*
X-451561Y-362356D01*
X-446887Y-360730D01*
X-441706Y-360172D01*
X-437032Y-360680D01*
X-432917Y-362102D01*
X-429310Y-364337D01*
X-426212Y-367284D01*
X-421385Y-361950D01*
X-425094Y-358495D01*
X-429717Y-355549D01*
X-435305Y-353568D01*
G37*
G36*
X-302768Y-352806D02*
G01*
X-307543Y-353110D01*
X-312064Y-354025D01*
X-316280Y-355498D01*
X-320243Y-357530D01*
X-323799Y-360070D01*
X-326999Y-363169D01*
X-329793Y-366725D01*
X-332130Y-370789D01*
X-334010Y-375310D01*
X-335381Y-380288D01*
X-336245Y-385622D01*
X-336550Y-391414D01*
X-335940Y-399897D01*
X-334111Y-407466D01*
X-331216Y-414020D01*
X-327304Y-419557D01*
X-322478Y-423926D01*
X-316839Y-427126D01*
X-310489Y-429107D01*
X-303530Y-429768D01*
X-296367Y-429158D01*
X-290118Y-427380D01*
X-284835Y-424738D01*
X-280670Y-421385D01*
X-280670Y-390398D01*
X-304546Y-390398D01*
X-304546Y-397510D01*
X-288544Y-397510D01*
X-288544Y-417830D01*
X-291236Y-419709D01*
X-294589Y-421182D01*
X-298399Y-422097D01*
X-302514Y-422401D01*
X-308254Y-421843D01*
X-313334Y-420217D01*
X-317703Y-417525D01*
X-321310Y-413918D01*
X-324154Y-409397D01*
X-326237Y-404063D01*
X-327507Y-397967D01*
X-327914Y-391160D01*
X-327456Y-384352D01*
X-326136Y-378256D01*
X-323951Y-372973D01*
X-321005Y-368503D01*
X-317347Y-364947D01*
X-313029Y-362356D01*
X-308051Y-360730D01*
X-302514Y-360172D01*
X-297281Y-360730D01*
X-292963Y-362305D01*
X-289356Y-364540D01*
X-286258Y-367284D01*
X-281686Y-361950D01*
X-285242Y-358597D01*
X-289915Y-355650D01*
X-295757Y-353568D01*
G37*
G36*
X-405638Y-354076D02*
G01*
X-405638Y-428498D01*
X-397002Y-428498D01*
X-397002Y-392938D01*
X-361188Y-392938D01*
X-361188Y-428498D01*
X-352806Y-428498D01*
X-352806Y-354076D01*
X-361188Y-354076D01*
X-361188Y-385572D01*
X-397002Y-385572D01*
X-397002Y-354076D01*
G37*
G36*
X-469900Y-176276D02*
G01*
X-469900Y-250698D01*
X-461518Y-250698D01*
X-461518Y-216662D01*
X-432816Y-216662D01*
X-432816Y-209550D01*
X-461518Y-209550D01*
X-461518Y-183388D01*
X-427735Y-183388D01*
X-427735Y-176276D01*
G37*
G36*
X-414782Y-176276D02*
G01*
X-414782Y-220471D01*
X-414274Y-228600D01*
X-412750Y-235356D01*
X-410311Y-240842D01*
X-407111Y-245059D01*
X-403199Y-248208D01*
X-398729Y-250393D01*
X-393750Y-251561D01*
X-388366Y-251967D01*
X-383082Y-251561D01*
X-378155Y-250393D01*
X-373735Y-248208D01*
X-369874Y-245059D01*
X-366674Y-240842D01*
X-364236Y-235356D01*
X-362712Y-228600D01*
X-362204Y-220471D01*
X-362204Y-176276D01*
X-370078Y-176276D01*
X-370078Y-220725D01*
X-370433Y-227025D01*
X-371551Y-232156D01*
X-373227Y-236321D01*
X-375513Y-239521D01*
X-378206Y-241858D01*
X-381304Y-243433D01*
X-384759Y-244348D01*
X-388366Y-244602D01*
X-395376Y-243433D01*
X-401116Y-239521D01*
X-404977Y-232156D01*
X-406400Y-220725D01*
X-406400Y-176276D01*
G37*
G36*
X-341630Y-176276D02*
G01*
X-341630Y-250698D01*
X-300482Y-250698D01*
X-300482Y-243586D01*
X-333248Y-243586D01*
X-333248Y-176276D01*
G37*
G36*
X-287274Y-176276D02*
G01*
X-287274Y-250698D01*
X-245871Y-250698D01*
X-245871Y-243586D01*
X-278892Y-243586D01*
X-278892Y-176276D01*
G37*
G36*
X-469900Y-531876D02*
G01*
X-469900Y-538734D01*
X-450596Y-538734D01*
X-441604Y-539445D01*
X-435152Y-541934D01*
X-431292Y-546455D01*
X-430022Y-553466D01*
X-431241Y-560628D01*
X-435000Y-565505D01*
X-441248Y-568299D01*
X-450088Y-569214D01*
X-461518Y-569214D01*
X-461518Y-538734D01*
X-469900Y-538734D01*
X-469900Y-606298D01*
X-461518Y-606298D01*
X-461518Y-576326D01*
X-448818Y-576326D01*
X-442976Y-575970D01*
X-437692Y-574954D01*
X-433070Y-573176D01*
X-429158Y-570687D01*
X-425958Y-567486D01*
X-423621Y-563575D01*
X-422148Y-558901D01*
X-421640Y-553466D01*
X-422148Y-547928D01*
X-423621Y-543356D01*
X-425958Y-539597D01*
X-429209Y-536651D01*
X-433222Y-534466D01*
X-437946Y-532993D01*
X-443331Y-532130D01*
X-449326Y-531876D01*
G37*
G36*
X-414020Y-531876D02*
G01*
X-398018Y-606298D01*
X-388112Y-606298D01*
X-375462Y-555752D01*
X-372618Y-543052D01*
X-372110Y-543052D01*
X-368554Y-560070D01*
X-356616Y-606298D01*
X-346710Y-606298D01*
X-330962Y-531876D01*
X-339090Y-531876D01*
X-351790Y-597408D01*
X-352298Y-597408D01*
X-357632Y-573278D01*
X-368300Y-531876D01*
X-376174Y-531876D01*
X-386842Y-573278D01*
X-392176Y-597408D01*
X-392430Y-597408D01*
X-395884Y-579221D01*
X-405384Y-531876D01*
G37*
G36*
X-317754Y-531876D02*
G01*
X-317754Y-538734D01*
X-296418Y-538734D01*
X-288340Y-539445D01*
X-282448Y-541782D01*
X-278841Y-545998D01*
X-277622Y-552450D01*
X-278841Y-559054D01*
X-282448Y-563626D01*
X-288340Y-566318D01*
X-296418Y-567182D01*
X-309372Y-567182D01*
X-309372Y-538734D01*
X-317754Y-538734D01*
X-317754Y-606298D01*
X-309372Y-606298D01*
X-309372Y-574294D01*
X-295402Y-574294D01*
X-276860Y-606298D01*
X-267462Y-606298D01*
X-286512Y-573278D01*
X-279400Y-570687D01*
X-273964Y-566369D01*
X-270459Y-560324D01*
X-269240Y-552450D01*
X-269748Y-547166D01*
X-271119Y-542798D01*
X-273405Y-539242D01*
X-276453Y-536448D01*
X-280212Y-534365D01*
X-284581Y-532942D01*
X-289509Y-532130D01*
X-294894Y-531876D01*
G37*
G36*
X-402082Y358394D02*
G01*
X-411226Y356971D01*
X-418439Y352958D01*
X-423214Y346811D01*
X-424942Y339090D01*
X-423570Y331927D01*
X-419963Y326593D01*
X-415086Y322783D01*
X-409701Y320040D01*
X-394055Y312928D01*
X-390042Y310286D01*
X-387299Y306628D01*
X-386334Y301498D01*
X-387451Y296316D01*
X-390652Y292303D01*
X-395782Y289712D01*
X-402590Y288798D01*
X-408533Y289458D01*
X-414070Y291287D01*
X-419049Y294284D01*
X-423418Y298196D01*
X-428498Y292354D01*
X-423265Y287883D01*
X-417169Y284429D01*
X-410362Y282194D01*
X-402844Y281432D01*
X-397306Y281838D01*
X-392379Y283057D01*
X-388061Y284937D01*
X-384454Y287477D01*
X-381558Y290525D01*
X-379425Y294081D01*
X-378155Y297992D01*
X-377698Y302260D01*
X-378917Y309422D01*
X-382320Y314807D01*
X-387248Y318922D01*
X-393192Y322072D01*
X-404114Y326644D01*
X-408381Y328676D01*
X-412292Y331216D01*
X-415188Y334721D01*
X-416306Y339598D01*
X-415290Y344373D01*
X-412445Y347980D01*
X-407924Y350266D01*
X-402082Y351028D01*
X-397002Y350520D01*
X-392480Y349097D01*
X-388416Y346862D01*
X-384810Y343916D01*
X-380238Y349250D01*
X-384505Y352907D01*
X-389636Y355803D01*
X-395528Y357733D01*
G37*
G36*
X-546100Y357124D02*
G01*
X-546100Y350266D01*
X-524764Y350266D01*
X-516839Y349554D01*
X-510997Y347218D01*
X-507441Y343001D01*
X-506222Y336550D01*
X-507441Y329946D01*
X-510997Y325374D01*
X-516839Y322681D01*
X-524764Y321818D01*
X-537718Y321818D01*
X-537718Y350266D01*
X-546100Y350266D01*
X-546100Y282702D01*
X-537718Y282702D01*
X-537718Y314706D01*
X-523748Y314706D01*
X-505206Y282702D01*
X-495808Y282702D01*
X-514858Y315722D01*
X-507746Y318312D01*
X-502310Y322630D01*
X-498805Y328676D01*
X-497585Y336550D01*
X-498093Y341833D01*
X-499516Y346202D01*
X-501751Y349758D01*
X-504799Y352552D01*
X-508609Y354634D01*
X-513029Y356057D01*
X-518007Y356870D01*
X-523493Y357124D01*
G37*
G36*
X-482346Y357124D02*
G01*
X-482346Y282702D01*
X-438912Y282702D01*
X-438912Y289814D01*
X-473964Y289814D01*
X-473964Y318262D01*
X-445516Y318262D01*
X-445516Y325374D01*
X-473964Y325374D01*
X-473964Y350012D01*
X-440182Y350012D01*
X-440182Y357124D01*
G37*
G36*
X-362966Y357124D02*
G01*
X-362966Y282702D01*
X-319532Y282702D01*
X-319532Y289814D01*
X-354584Y289814D01*
X-354584Y318262D01*
X-325882Y318262D01*
X-325882Y325374D01*
X-354584Y325374D01*
X-354584Y350012D01*
X-320548Y350012D01*
X-320548Y357124D01*
G37*
G36*
X-310642Y357124D02*
G01*
X-310642Y350012D01*
X-288036Y350012D01*
X-288036Y282702D01*
X-279654Y282702D01*
X-279654Y350012D01*
X-256794Y350012D01*
X-256794Y357124D01*
G37*
G36*
X-779170Y356006D02*
G01*
X-785774Y355346D01*
X-791819Y353364D01*
X-797204Y350164D01*
X-801776Y345795D01*
X-805535Y340309D01*
X-808329Y333806D01*
X-810056Y326339D01*
X-810666Y317906D01*
X-802030Y317906D01*
X-801624Y324612D01*
X-800404Y330606D01*
X-798423Y335889D01*
X-795731Y340309D01*
X-792429Y343865D01*
X-788517Y346456D01*
X-784098Y348081D01*
X-779170Y348640D01*
X-774242Y348081D01*
X-769823Y346456D01*
X-765911Y343865D01*
X-762609Y340309D01*
X-759917Y335889D01*
X-757986Y330606D01*
X-756716Y324612D01*
X-756310Y317906D01*
X-756716Y310997D01*
X-757986Y304850D01*
X-759917Y299466D01*
X-762609Y294894D01*
X-765911Y291287D01*
X-769823Y288594D01*
X-774242Y286969D01*
X-779170Y286410D01*
X-784098Y286969D01*
X-788517Y288594D01*
X-792429Y291287D01*
X-795731Y294894D01*
X-798423Y299466D01*
X-800404Y304850D01*
X-801624Y310997D01*
X-802030Y317906D01*
X-810666Y317906D01*
X-810056Y309372D01*
X-808329Y301752D01*
X-805535Y295097D01*
X-801776Y289509D01*
X-797204Y285038D01*
X-791819Y281736D01*
X-785774Y279704D01*
X-779170Y279044D01*
X-772515Y279704D01*
X-766419Y281736D01*
X-761085Y285038D01*
X-756462Y289509D01*
X-752754Y295097D01*
X-750011Y301752D01*
X-748284Y309372D01*
X-747674Y317906D01*
X-748284Y326339D01*
X-750011Y333806D01*
X-752754Y340309D01*
X-756462Y345795D01*
X-761085Y350164D01*
X-766419Y353364D01*
X-772515Y355346D01*
G37*
G36*
X-704240Y356006D02*
G01*
X-710946Y355346D01*
X-716991Y353364D01*
X-722376Y350164D01*
X-726948Y345795D01*
X-730656Y340309D01*
X-733450Y333806D01*
X-735177Y326339D01*
X-735736Y317906D01*
X-727100Y317906D01*
X-726694Y324612D01*
X-725474Y330606D01*
X-723493Y335889D01*
X-720801Y340309D01*
X-717499Y343865D01*
X-713587Y346456D01*
X-709168Y348081D01*
X-704240Y348640D01*
X-699312Y348081D01*
X-694893Y346456D01*
X-690981Y343865D01*
X-687679Y340309D01*
X-684987Y335889D01*
X-683056Y330606D01*
X-681786Y324612D01*
X-681380Y317906D01*
X-681786Y310997D01*
X-683056Y304850D01*
X-684987Y299466D01*
X-687679Y294894D01*
X-690981Y291287D01*
X-694893Y288594D01*
X-699312Y286969D01*
X-704240Y286410D01*
X-709168Y286969D01*
X-713587Y288594D01*
X-717499Y291287D01*
X-720801Y294894D01*
X-723493Y299466D01*
X-725474Y304850D01*
X-726694Y310997D01*
X-727100Y317906D01*
X-735736Y317906D01*
X-735177Y309372D01*
X-733450Y301752D01*
X-730656Y295097D01*
X-726948Y289509D01*
X-722376Y285038D01*
X-716991Y281736D01*
X-710946Y279704D01*
X-704240Y279044D01*
X-697585Y279704D01*
X-691489Y281736D01*
X-686155Y285038D01*
X-681532Y289509D01*
X-677824Y295097D01*
X-675081Y301752D01*
X-673354Y309372D01*
X-672744Y317906D01*
X-673354Y326339D01*
X-675081Y333806D01*
X-677824Y340309D01*
X-681532Y345795D01*
X-686155Y350164D01*
X-691489Y353364D01*
X-697585Y355346D01*
G37*
G36*
X-872388Y354736D02*
G01*
X-872388Y347878D01*
X-852068Y347878D01*
X-844194Y347218D01*
X-838453Y345084D01*
X-834948Y341223D01*
X-833780Y335432D01*
X-834847Y330098D01*
X-838149Y326136D01*
X-843991Y323596D01*
X-852576Y322732D01*
X-864006Y322732D01*
X-864006Y347878D01*
X-872388Y347878D01*
X-872388Y316382D01*
X-850544Y316382D01*
X-841603Y315518D01*
X-834948Y312928D01*
X-830884Y308559D01*
X-829462Y302412D01*
X-830884Y295503D01*
X-835050Y290677D01*
X-841705Y287832D01*
X-850544Y286918D01*
X-864006Y286918D01*
X-864006Y316382D01*
X-872388Y316382D01*
X-872388Y280314D01*
X-849274Y280314D01*
X-843280Y280619D01*
X-837793Y281635D01*
X-833018Y283311D01*
X-828903Y285699D01*
X-825601Y288747D01*
X-823163Y292506D01*
X-821639Y296976D01*
X-821080Y302158D01*
X-822248Y308965D01*
X-825398Y314198D01*
X-830326Y317804D01*
X-836574Y319938D01*
X-836574Y320446D01*
X-831850Y322884D01*
X-828344Y326542D01*
X-826160Y331165D01*
X-825398Y336448D01*
X-825906Y340918D01*
X-827278Y344779D01*
X-829513Y347929D01*
X-832510Y350418D01*
X-836168Y352348D01*
X-840536Y353669D01*
X-845413Y354482D01*
X-850798Y354736D01*
G37*
G36*
X-666140Y354736D02*
G01*
X-666140Y347624D01*
X-643534Y347624D01*
X-643534Y280314D01*
X-634898Y280314D01*
X-634898Y347624D01*
X-612292Y347624D01*
X-612292Y354736D01*
G37*
D10*
X-129984Y1171399D02*
G01*
X-129984Y1028143D01*
X-129984Y1171399D02*
G01*
X-68516Y1171399D01*
X-48196Y1164541D01*
X-41338Y1157683D01*
X-34480Y1144221D01*
X-34480Y1130505D01*
X-41338Y1116789D01*
X-48196Y1109931D01*
X-68516Y1103073D01*
X-129984Y1103073D02*
G01*
X-68516Y1103073D01*
X-48196Y1096469D01*
X-41338Y1089611D01*
X-34480Y1075895D01*
X-34480Y1055575D01*
X-41338Y1041859D01*
X-48196Y1035001D01*
X-68516Y1028143D01*
X-129984Y1028143D01*
X10477Y1123647D02*
G01*
X10477Y1055575D01*
X17335Y1035001D01*
X31051Y1028143D01*
X51371Y1028143D01*
X65087Y1035001D01*
X85407Y1055575D01*
X85407Y1123647D02*
G01*
X85407Y1028143D01*
X130365Y1123647D02*
G01*
X130365Y1028143D01*
X130365Y1082753D02*
G01*
X137223Y1103073D01*
X150939Y1116789D01*
X164655Y1123647D01*
X184975Y1123647D01*
X229933Y1171399D02*
G01*
X229933Y1028143D01*
X298259Y1123647D02*
G01*
X229933Y1055575D01*
X257365Y1082753D02*
G01*
X305117Y1028143D01*
X350075Y1082753D02*
G01*
X431863Y1082753D01*
X431863Y1096469D01*
X425005Y1109931D01*
X418147Y1116789D01*
X404685Y1123647D01*
X384111Y1123647D01*
X370395Y1116789D01*
X356933Y1103073D01*
X350075Y1082753D01*
X350075Y1069037D01*
X356933Y1048717D01*
X370395Y1035001D01*
X384111Y1028143D01*
X404685Y1028143D01*
X418147Y1035001D01*
X431863Y1048717D01*
X476821Y1171399D02*
G01*
X476821Y1028143D01*
X476821Y1028143D02*
G01*
X558609Y1028143D01*
X685355Y1123647D02*
G01*
X685355Y1028143D01*
X685355Y1103073D02*
G01*
X671893Y1116789D01*
X658177Y1123647D01*
X637857Y1123647D01*
X624141Y1116789D01*
X610425Y1103073D01*
X603567Y1082753D01*
X603567Y1069037D01*
X610425Y1048717D01*
X624141Y1035001D01*
X637857Y1028143D01*
X658177Y1028143D01*
X671893Y1035001D01*
X685355Y1048717D01*
X730567Y1171399D02*
G01*
X730567Y1028143D01*
X730567Y1103073D02*
G01*
X744029Y1116789D01*
X757745Y1123647D01*
X778319Y1123647D01*
X791781Y1116789D01*
X805497Y1103073D01*
X812355Y1082753D01*
X812355Y1069037D01*
X805497Y1048717D01*
X791781Y1035001D01*
X778319Y1028143D01*
X757745Y1028143D01*
X744029Y1035001D01*
X730567Y1048717D01*
X508073Y560664D02*
G01*
X430095Y560664D01*
X414601Y555584D01*
X404187Y545170D01*
X399107Y529422D01*
X399107Y519008D01*
X404187Y503514D01*
X414601Y493100D01*
X430095Y488020D01*
X508073Y488020D01*
X508073Y391246D02*
G01*
X508073Y443316D01*
X461337Y448396D01*
X466417Y443316D01*
X471751Y427568D01*
X471751Y412074D01*
X466417Y396580D01*
X456257Y386166D01*
X440509Y380832D01*
X430095Y380832D01*
X414601Y386166D01*
X404187Y396580D01*
X399107Y412074D01*
X399107Y427568D01*
X404187Y443316D01*
X409267Y448396D01*
X419681Y453730D01*
X-1305847Y-583493D02*
G01*
X-1305847Y-505515D01*
X-1310927Y-490021D01*
X-1321341Y-479607D01*
X-1337089Y-474527D01*
X-1347503Y-474527D01*
X-1362997Y-479607D01*
X-1373411Y-490021D01*
X-1378491Y-505515D01*
X-1378491Y-583493D01*
X-1464851Y-583493D02*
G01*
X-1412781Y-510849D01*
X-1490759Y-510849D01*
X-1464851Y-583493D02*
G01*
X-1464851Y-474527D01*
G36*
X-1361084Y631240D02*
G01*
X-1365605Y630631D01*
X-1369923Y629208D01*
X-1373936Y627024D01*
X-1377492Y624179D01*
X-1380439Y620776D01*
X-1382776Y616864D01*
X-1384401Y612597D01*
X-1385214Y608126D01*
X-1385214Y603605D01*
X-1384401Y599135D01*
X-1382776Y594868D01*
X-1380439Y590956D01*
X-1377492Y587502D01*
X-1373936Y584708D01*
X-1369923Y582523D01*
X-1365605Y581101D01*
X-1361084Y580491D01*
X-1356563Y580694D01*
X-1352143Y581660D01*
X-1347927Y583438D01*
X-1344117Y585927D01*
X-1340815Y589076D01*
X-1338122Y592734D01*
X-1336141Y596849D01*
X-1334922Y601218D01*
X-1334516Y605739D01*
X-1334617Y608279D01*
X-1335430Y612749D01*
X-1337056Y616966D01*
X-1339392Y620877D01*
X-1342390Y624281D01*
X-1345996Y627126D01*
X-1350010Y629259D01*
X-1354328Y630631D01*
X-1358798Y631240D01*
G37*
D11*
X-737626Y-670933D02*
G01*
X-553725Y-670933D01*
X-553725Y91066D01*
X-737626Y91066D01*
X869188Y-353313D02*
G01*
X985265Y-354076D01*
X862329Y-623823D02*
G01*
X969772Y-625602D01*
X985265Y-625602D01*
X985265Y-115823D01*
X862329Y-115823D01*
X-2122683Y-503036D02*
G01*
X-2127768Y-497956D01*
X-2127768Y-195953D01*
X-1537726Y-195953D01*
X-1532889Y-200779D01*
X-1532889Y-503036D01*
X-1982475Y-195953D02*
G01*
X-1984509Y-503036D01*
X-1821690Y-195953D02*
G01*
X-1820674Y-503036D01*
X-1680540Y-195996D02*
G01*
X-1676780Y-199760D01*
X-1676780Y-502998D01*
X-737626Y-421863D02*
G01*
X-732541Y-416783D01*
X-553725Y-416783D01*
X-737626Y-179290D02*
G01*
X-733805Y-175483D01*
X-553725Y-175483D01*
X29100Y616590D02*
G01*
X29100Y462589D01*
X350898Y620595D02*
G01*
X350893Y460593D01*
X146700Y636595D02*
G01*
X235079Y636595D01*
X-241300Y-303529D02*
G01*
X-241300Y-476250D01*
X-241300Y-476250D02*
G01*
X-93979Y-476250D01*
X-241300Y-303529D02*
G01*
X-93979Y-303529D01*
X-35559Y-476250D02*
G01*
X81279Y-476250D01*
X-33020Y-303529D02*
G01*
X81279Y-303529D01*
X81279Y-303529D02*
G01*
X116840Y-339089D01*
X116840Y-440689D01*
X81279Y-476250D01*
D12*
X-72389Y-349250D02*
G01*
X-72389Y-427989D01*
X-72389Y-389094D02*
G01*
X-54853Y-389094D01*
D11*
X-241300Y-123697D02*
G01*
X-241300Y-296418D01*
X-241300Y-296418D02*
G01*
X-93979Y-296418D01*
X-241300Y-123697D02*
G01*
X-93979Y-123697D01*
X-35559Y-296418D02*
G01*
X81279Y-296418D01*
X-33020Y-123697D02*
G01*
X81279Y-123697D01*
X81279Y-123697D02*
G01*
X116840Y-159257D01*
X116840Y-260857D01*
X81279Y-296418D01*
D12*
X-72389Y-169418D02*
G01*
X-72389Y-248157D01*
X-72389Y-209262D02*
G01*
X-54853Y-209262D01*
D11*
X-1651254Y436372D02*
G01*
X-1651254Y263652D01*
X-1651254Y263652D02*
G01*
X-1503934Y263652D01*
X-1651254Y436372D02*
G01*
X-1503934Y436372D01*
X-1445513Y263652D02*
G01*
X-1328673Y263652D01*
X-1442973Y436372D02*
G01*
X-1328673Y436372D01*
X-1328673Y436372D02*
G01*
X-1293113Y400812D01*
X-1293113Y299212D01*
X-1328673Y263652D01*
D12*
X-1482343Y390652D02*
G01*
X-1482343Y311912D01*
X-1482343Y350807D02*
G01*
X-1464807Y350807D01*
D11*
X-241300Y-493521D02*
G01*
X-241300Y-666242D01*
X-241300Y-666242D02*
G01*
X-93979Y-666242D01*
X-241300Y-493521D02*
G01*
X-93979Y-493521D01*
X-35559Y-666242D02*
G01*
X81279Y-666242D01*
X-33020Y-493521D02*
G01*
X81279Y-493521D01*
X81279Y-493521D02*
G01*
X116840Y-529081D01*
X116840Y-630681D01*
X81279Y-666242D01*
D12*
X-72389Y-539242D02*
G01*
X-72389Y-617981D01*
X-72389Y-579086D02*
G01*
X-54853Y-579086D01*
D13*
X-1474718Y590108D02*
G01*
X-1474718Y730107D01*
X-1694718Y590108D02*
G01*
X-1694718Y730107D01*
X-1694718Y730107D02*
G01*
X-1686483Y730107D01*
X-1482953Y730107D02*
G01*
X-1474718Y730107D01*
X-1694718Y590108D02*
G01*
X-1686483Y590108D01*
X-1482953Y590108D02*
G01*
X-1474718Y590108D01*
D11*
X-44208Y603902D02*
G01*
X42191Y603902D01*
X42191Y603902D02*
G01*
X42191Y503900D01*
X-139204Y463903D02*
G01*
X-76410Y463903D01*
X-257807Y603902D02*
G01*
X-171406Y603902D01*
X-257807Y603902D02*
G01*
X-257807Y503900D01*
X580212Y-189933D02*
G01*
X580212Y-369935D01*
X270210Y-189933D02*
G01*
X270210Y-369935D01*
X689198Y840999D02*
G01*
X1050648Y840999D01*
X1050648Y758840D02*
G01*
X1050648Y840999D01*
X1050648Y134995D02*
G01*
X1050648Y78999D01*
X739998Y78999D02*
G01*
X1044798Y78999D01*
X739998Y78999D02*
G01*
X684961Y78999D01*
X1050648Y134995D02*
G01*
X1050648Y785002D01*
X550646Y633112D02*
G01*
X550646Y641883D01*
X550646Y286885D02*
G01*
X550646Y278114D01*
X959337Y539633D02*
G01*
X959337Y547248D01*
X964422Y547248D01*
X972037Y547248D01*
X994895Y547248D01*
X994895Y613290D01*
X972037Y613290D01*
X964422Y613290D01*
X964422Y547248D01*
X949180Y529475D02*
G01*
X923780Y529475D01*
X903452Y547248D02*
G01*
X827252Y547248D01*
X817095Y557405D02*
G01*
X817095Y603133D01*
X827252Y613290D02*
G01*
X903452Y613290D01*
X923780Y631075D02*
G01*
X949180Y631075D01*
X959337Y620905D02*
G01*
X959337Y613290D01*
X964422Y613290D01*
X972037Y613290D02*
G01*
X972037Y547248D01*
X959337Y279631D02*
G01*
X959337Y287246D01*
X964422Y287246D01*
X972037Y287246D01*
X994895Y287246D01*
X994895Y353288D01*
X972037Y353288D01*
X964422Y353288D01*
X964422Y287246D01*
X949180Y269473D02*
G01*
X923780Y269473D01*
X903465Y287246D02*
G01*
X827265Y287246D01*
X817095Y297416D02*
G01*
X817095Y343131D01*
X827265Y353288D02*
G01*
X903465Y353288D01*
X923780Y371073D02*
G01*
X949180Y371073D01*
X959337Y360916D02*
G01*
X959337Y353288D01*
X964422Y353288D01*
X972037Y353288D02*
G01*
X972037Y287246D01*
D14*
X-978537Y684860D02*
G01*
X-978537Y644850D01*
X-1018539Y644850D01*
X-1368554Y644850D02*
G01*
X-1408551Y644850D01*
X-1408551Y684860D01*
X-1408551Y1034867D02*
G01*
X-1408551Y1074877D01*
X-1368554Y1074877D01*
X-978537Y1034867D02*
G01*
X-978537Y1074877D01*
X-1018539Y1074877D01*
D15*
X-1110000Y-10025D02*
G01*
X-1110000Y-410024D01*
X-1110000Y-410024D02*
G01*
X-1130536Y-410024D01*
X-1489463Y-410024D02*
G01*
X-1509999Y-410024D01*
X-1509999Y-410024D02*
G01*
X-1509999Y-10025D01*
X-1110000Y-10025D02*
G01*
X-1130536Y-10025D01*
X-1489463Y-10025D02*
G01*
X-1509999Y-10025D01*
D11*
X-554956Y459892D02*
G01*
X-554956Y859891D01*
X-264955Y459892D02*
G01*
X-264955Y859891D01*
X-554956Y459892D02*
G01*
X-533069Y459892D01*
X-286842Y459892D02*
G01*
X-264955Y459892D01*
X-554956Y859891D02*
G01*
X-533069Y859891D01*
X-286842Y859891D02*
G01*
X-264955Y859891D01*
D16*
X-514987Y969998D02*
G01*
X-514987Y1090002D01*
X-437987Y969998D02*
G01*
X-514987Y969998D01*
X-324985Y969998D02*
G01*
X-324985Y1090002D01*
X-401985Y969998D02*
G01*
X-324985Y969998D01*
X-401985Y1090002D02*
G01*
X-324985Y1090002D01*
X-437987Y1090002D02*
G01*
X-514987Y1090002D01*
X-834989Y969998D02*
G01*
X-834989Y1090002D01*
X-757989Y969998D02*
G01*
X-834989Y969998D01*
X-644987Y969998D02*
G01*
X-644987Y1090002D01*
X-721987Y969998D02*
G01*
X-644987Y969998D01*
X-721987Y1090002D02*
G01*
X-644987Y1090002D01*
X-757989Y1090002D02*
G01*
X-834989Y1090002D01*
X255292Y-284987D02*
G01*
X135288Y-284987D01*
X255292Y-207987D02*
G01*
X255292Y-284987D01*
X255292Y-94985D02*
G01*
X135288Y-94985D01*
X255292Y-171985D02*
G01*
X255292Y-94985D01*
X135288Y-171985D02*
G01*
X135288Y-94985D01*
X135288Y-207987D02*
G01*
X135288Y-284987D01*
X-119997Y-104988D02*
G01*
X-240002Y-104988D01*
X-119997Y-27988D02*
G01*
X-119997Y-104988D01*
X-119997Y85013D02*
G01*
X-240002Y85013D01*
X-119997Y8013D02*
G01*
X-119997Y85013D01*
X-240002Y8013D02*
G01*
X-240002Y85013D01*
X-240002Y-27988D02*
G01*
X-240002Y-104988D01*
D11*
X-875002Y460001D02*
G01*
X-875002Y860000D01*
X-585000Y460001D02*
G01*
X-585000Y860000D01*
X-875002Y460001D02*
G01*
X-853114Y460001D01*
X-606887Y460001D02*
G01*
X-585000Y460001D01*
X-875002Y860000D02*
G01*
X-853114Y860000D01*
X-606887Y860000D02*
G01*
X-585000Y860000D01*
D16*
X-939718Y610003D02*
G01*
X-939718Y489999D01*
X-1016718Y610003D02*
G01*
X-939718Y610003D01*
X-1129720Y610003D02*
G01*
X-1129720Y489999D01*
X-1052720Y610003D02*
G01*
X-1129720Y610003D01*
X-1052720Y489999D02*
G01*
X-1129720Y489999D01*
X-1016718Y489999D02*
G01*
X-939718Y489999D01*
X-1289697Y289999D02*
G01*
X-1289697Y410004D01*
X-1212697Y289999D02*
G01*
X-1289697Y289999D01*
X-1099695Y289999D02*
G01*
X-1099695Y410004D01*
X-1176695Y289999D02*
G01*
X-1099695Y289999D01*
X-1176695Y410004D02*
G01*
X-1099695Y410004D01*
X-1212697Y410004D02*
G01*
X-1289697Y410004D01*
X-100007Y-27995D02*
G01*
X-100007Y-89999D01*
X-100007Y8008D02*
G01*
X-100007Y69999D01*
X19997Y8008D02*
G01*
X19997Y69999D01*
X-2Y85008D02*
G01*
X-79999Y85008D01*
X19997Y-27995D02*
G01*
X19997Y-89999D01*
X-2Y-104995D02*
G01*
X-79999Y-104995D01*
X4988Y85008D02*
G01*
X-2Y85008D01*
X-84998Y85008D02*
G01*
X-79999Y85008D01*
X5001Y-104995D02*
G01*
X-2Y-104995D01*
X-85011Y-104995D02*
G01*
X-79999Y-104995D01*
X387294Y-549993D02*
G01*
X325290Y-549993D01*
X423298Y-549993D02*
G01*
X485289Y-549993D01*
X423298Y-669998D02*
G01*
X485289Y-669998D01*
X500298Y-649998D02*
G01*
X500298Y-570001D01*
X387294Y-669998D02*
G01*
X325290Y-669998D01*
X310294Y-649998D02*
G01*
X310294Y-570001D01*
X500298Y-654989D02*
G01*
X500298Y-649998D01*
X500298Y-565002D02*
G01*
X500298Y-570001D01*
X310294Y-655002D02*
G01*
X310294Y-649998D01*
X310294Y-564989D02*
G01*
X310294Y-570001D01*
D17*
X615294Y-111998D02*
G01*
X615294Y-429498D01*
D18*
X615294Y-111998D02*
G01*
X869294Y-111998D01*
X869294Y-619998D01*
X615294Y-619998D01*
X615294Y-429498D01*
D16*
X-2787716Y146004D02*
G01*
X-2787716Y84000D01*
X-2787716Y182008D02*
G01*
X-2787716Y244000D01*
X-2667711Y182008D02*
G01*
X-2667711Y244000D01*
X-2687711Y259008D02*
G01*
X-2767708Y259008D01*
X-2667711Y146004D02*
G01*
X-2667711Y84000D01*
X-2687711Y69004D02*
G01*
X-2767708Y69004D01*
X-2682720Y259008D02*
G01*
X-2687711Y259008D01*
X-2772707Y259008D02*
G01*
X-2767708Y259008D01*
X-2682707Y69004D02*
G01*
X-2687711Y69004D01*
X-2772719Y69004D02*
G01*
X-2767708Y69004D01*
X193288Y19994D02*
G01*
X255292Y19994D01*
X157284Y19994D02*
G01*
X95293Y19994D01*
X157284Y139999D02*
G01*
X95293Y139999D01*
X80284Y119999D02*
G01*
X80284Y40002D01*
X193288Y139999D02*
G01*
X255292Y139999D01*
X270289Y119999D02*
G01*
X270289Y40002D01*
X80284Y124990D02*
G01*
X80284Y119999D01*
X80284Y35003D02*
G01*
X80284Y40002D01*
X270289Y125003D02*
G01*
X270289Y119999D01*
X270289Y34991D02*
G01*
X270289Y40002D01*
X157995Y749993D02*
G01*
X219999Y749993D01*
X121991Y749993D02*
G01*
X59999Y749993D01*
X121991Y869998D02*
G01*
X59999Y869998D01*
X44991Y849998D02*
G01*
X44991Y770001D01*
X157995Y869998D02*
G01*
X219999Y869998D01*
X234995Y849998D02*
G01*
X234995Y770001D01*
X44991Y854989D02*
G01*
X44991Y849998D01*
X44991Y765002D02*
G01*
X44991Y770001D01*
X234995Y855002D02*
G01*
X234995Y849998D01*
X234995Y764989D02*
G01*
X234995Y770001D01*
D11*
X-113908Y230002D02*
G01*
X-215508Y189362D01*
X-215508Y189362D02*
G01*
X-215508Y270642D01*
X-215508Y270642D02*
G01*
X-113908Y230002D01*
X-14709Y130002D02*
G01*
X-314708Y130002D01*
X-14709Y330001D02*
G01*
X-314708Y330001D01*
X-113908Y179202D02*
G01*
X-113908Y280802D01*
X-88508Y230002D02*
G01*
X-240908Y230002D01*
D16*
X-1734715Y902007D02*
G01*
X-1734715Y840003D01*
X-1734715Y938011D02*
G01*
X-1734715Y1000003D01*
X-1614711Y938011D02*
G01*
X-1614711Y1000003D01*
X-1634710Y1015011D02*
G01*
X-1714708Y1015011D01*
X-1614711Y902007D02*
G01*
X-1614711Y840003D01*
X-1634710Y825007D02*
G01*
X-1714708Y825007D01*
X-1629719Y1015011D02*
G01*
X-1634710Y1015011D01*
X-1719706Y1015011D02*
G01*
X-1714708Y1015011D01*
X-1629707Y825007D02*
G01*
X-1634710Y825007D01*
X-1719719Y825007D02*
G01*
X-1714708Y825007D01*
D18*
X-737618Y-99433D02*
G01*
X-737618Y91066D01*
X-991618Y91066D01*
X-991618Y-670933D01*
X-737618Y-670933D01*
D17*
X-737618Y-670933D02*
G01*
X-737618Y-99433D01*
D16*
X-2326716Y79994D02*
G01*
X-2264712Y79994D01*
X-2362720Y79994D02*
G01*
X-2424711Y79994D01*
X-2362720Y199999D02*
G01*
X-2424711Y199999D01*
X-2439720Y179999D02*
G01*
X-2439720Y100002D01*
X-2326716Y199999D02*
G01*
X-2264712Y199999D01*
X-2249716Y179999D02*
G01*
X-2249716Y100002D01*
X-2439720Y184990D02*
G01*
X-2439720Y179999D01*
X-2439720Y95003D02*
G01*
X-2439720Y100002D01*
X-2249716Y185003D02*
G01*
X-2249716Y179999D01*
X-2249716Y94990D02*
G01*
X-2249716Y100002D01*
X-2579712Y264985D02*
G01*
X-2489710Y264985D01*
X-2594709Y187985D02*
G01*
X-2594709Y254990D01*
X-2579712Y74980D02*
G01*
X-2489710Y74980D01*
X-2594709Y151980D02*
G01*
X-2594709Y84988D01*
X-2474704Y151980D02*
G01*
X-2474704Y84988D01*
X-2474704Y187985D02*
G01*
X-2474704Y254990D01*
X-2579712Y74980D02*
G01*
X-2584701Y74980D01*
X-2594709Y84988D01*
X-2579712Y264985D02*
G01*
X-2584714Y264985D01*
X-2594709Y254990D01*
X-2489710Y264985D02*
G01*
X-2484699Y264985D01*
X-2474704Y254990D01*
X-2489710Y74980D02*
G01*
X-2484711Y74980D01*
X-2474704Y84988D01*
D11*
X-2814607Y-157896D02*
G01*
X-2814607Y-665896D01*
X-2560607Y-157896D02*
G01*
X-2560607Y-665896D01*
X-2560607Y-265673D02*
G01*
X-2814607Y-265673D01*
D16*
X-1469699Y59999D02*
G01*
X-1469699Y180004D01*
X-1392699Y59999D02*
G01*
X-1469699Y59999D01*
X-1279697Y59999D02*
G01*
X-1279697Y180004D01*
X-1356697Y59999D02*
G01*
X-1279697Y59999D01*
X-1356697Y180004D02*
G01*
X-1279697Y180004D01*
X-1392699Y180004D02*
G01*
X-1469699Y180004D01*
X-1069720Y180004D02*
G01*
X-1069720Y59999D01*
X-1146721Y180004D02*
G01*
X-1069720Y180004D01*
X-1259723Y180004D02*
G01*
X-1259723Y59999D01*
X-1182723Y180004D02*
G01*
X-1259723Y180004D01*
X-1182723Y59999D02*
G01*
X-1259723Y59999D01*
X-1146721Y59999D02*
G01*
X-1069720Y59999D01*
X-1864705Y-14985D02*
G01*
X-1984710Y-14985D01*
X-1864705Y62014D02*
G01*
X-1864705Y-14985D01*
X-1864705Y175016D02*
G01*
X-1984710Y175016D01*
X-1864705Y98016D02*
G01*
X-1864705Y175016D01*
X-1984710Y98016D02*
G01*
X-1984710Y175016D01*
X-1984710Y62014D02*
G01*
X-1984710Y-14985D01*
X110302Y-670003D02*
G01*
X110302Y-549998D01*
X187302Y-670003D02*
G01*
X110302Y-670003D01*
X300304Y-670003D02*
G01*
X300304Y-549998D01*
X223304Y-670003D02*
G01*
X300304Y-670003D01*
X223304Y-549998D02*
G01*
X300304Y-549998D01*
X187302Y-549998D02*
G01*
X110302Y-549998D01*
X-1546715Y59994D02*
G01*
X-1484711Y59994D01*
X-1582719Y59994D02*
G01*
X-1644710Y59994D01*
X-1582719Y179999D02*
G01*
X-1644710Y179999D01*
X-1659719Y159999D02*
G01*
X-1659719Y80002D01*
X-1546715Y179999D02*
G01*
X-1484711Y179999D01*
X-1469715Y159999D02*
G01*
X-1469715Y80002D01*
X-1659719Y164990D02*
G01*
X-1659719Y159999D01*
X-1659719Y75003D02*
G01*
X-1659719Y80002D01*
X-1469715Y165003D02*
G01*
X-1469715Y159999D01*
X-1469715Y74990D02*
G01*
X-1469715Y80002D01*
X-2797716Y326003D02*
G01*
X-2797716Y263999D01*
X-2797716Y362008D02*
G01*
X-2797716Y423999D01*
X-2677711Y362008D02*
G01*
X-2677711Y423999D01*
X-2697711Y439008D02*
G01*
X-2777708Y439008D01*
X-2677711Y326003D02*
G01*
X-2677711Y263999D01*
X-2697711Y249003D02*
G01*
X-2777708Y249003D01*
X-2692720Y439008D02*
G01*
X-2697711Y439008D01*
X-2782707Y439008D02*
G01*
X-2777708Y439008D01*
X-2692707Y249003D02*
G01*
X-2697711Y249003D01*
X-2782719Y249003D02*
G01*
X-2777708Y249003D01*
X-2004700Y97998D02*
G01*
X-2004700Y160002D01*
X-2004700Y61993D02*
G01*
X-2004700Y2D01*
X-2124704Y61993D02*
G01*
X-2124704Y2D01*
X-2104704Y-15006D02*
G01*
X-2024707Y-15006D01*
X-2124704Y97998D02*
G01*
X-2124704Y160002D01*
X-2104704Y174998D02*
G01*
X-2024707Y174998D01*
X-2109696Y-15006D02*
G01*
X-2104704Y-15006D01*
X-2019708Y-15006D02*
G01*
X-2024707Y-15006D01*
X-2109708Y174998D02*
G01*
X-2104704Y174998D01*
X-2019696Y174998D02*
G01*
X-2024707Y174998D01*
D14*
X-1947214Y297522D02*
G01*
X-1902231Y297522D01*
X-1902231Y342506D01*
X-1902231Y997521D02*
G01*
X-1902231Y1042504D01*
X-1947214Y1042504D01*
X-2647213Y997521D02*
G01*
X-2647213Y1042504D01*
X-2602229Y1042504D01*
X-2602229Y297522D02*
G01*
X-2647213Y297522D01*
X-2647213Y342506D01*
D18*
X-2122708Y-756998D02*
G01*
X-2122708Y-502998D01*
X-1106708Y-502998D01*
X-1106708Y-756998D01*
X-1297208Y-756998D01*
D17*
X-2122708Y-756998D02*
G01*
X-1297208Y-756998D01*
D16*
X-974699Y407997D02*
G01*
X-974699Y470001D01*
X-974699Y371993D02*
G01*
X-974699Y310001D01*
X-1094704Y371993D02*
G01*
X-1094704Y310001D01*
X-1074704Y294993D02*
G01*
X-994707Y294993D01*
X-1094704Y407997D02*
G01*
X-1094704Y470001D01*
X-1074704Y484997D02*
G01*
X-994707Y484997D01*
X-1079695Y294993D02*
G01*
X-1074704Y294993D01*
X-989708Y294993D02*
G01*
X-994707Y294993D01*
X-1079708Y484997D02*
G01*
X-1074704Y484997D01*
X-989695Y484997D02*
G01*
X-994707Y484997D01*
D11*
G75*
G01*
X948141Y529994D02*
G03*
X958144Y539994I-5J10007D01*
G75*
G01*
X913143Y538795D02*
G03*
X903242Y547479I-9898J-1298D01*
G75*
G01*
X818144Y557494D02*
G03*
X828144Y547494I10008J8D01*
G75*
G01*
X828144Y612493D02*
G03*
X818144Y602493I8J-10008D01*
G75*
G01*
X903242Y612493D02*
G03*
X913166Y621294I-11J10008D01*
G75*
G01*
X913242Y539793D02*
G03*
X923242Y529793I10007J8D01*
G75*
G01*
X958042Y620093D02*
G03*
X948042Y630093I-10007J-8D01*
G75*
G01*
X923242Y629895D02*
G03*
X913242Y619895I7J-10008D01*
G75*
G01*
X948139Y269994D02*
G03*
X958141Y279994I-5J10008D01*
G75*
G01*
X913140Y278795D02*
G03*
X903239Y287480I-9897J-1297D01*
G75*
G01*
X818142Y297495D02*
G03*
X828142Y287495I10007J8D01*
G75*
G01*
X828142Y352494D02*
G03*
X818142Y342494I7J-10008D01*
G75*
G01*
X903239Y352494D02*
G03*
X913163Y361295I-11J10007D01*
G75*
G01*
X913239Y279794D02*
G03*
X923239Y269794I10008J7D01*
G75*
G01*
X958040Y360093D02*
G03*
X948040Y370093I-10008J-7D01*
G75*
G01*
X923239Y369895D02*
G03*
X913239Y359895I8J-10007D01*
D16*
G75*
G01*
X19997Y70000D02*
G03*
X4989Y85009I-15008J0D01*
G75*
G01*
X-100007Y70000D02*
G02*
X-84999Y85009I15008J0D01*
G75*
G01*
X19997Y-90000D02*
G02*
X5001Y-104996I-14996J0D01*
G75*
G01*
X-100007Y-90000D02*
G03*
X-85011Y-104996I14996J0D01*
G75*
G01*
X485290Y-669999D02*
G03*
X500299Y-654990I0J15009D01*
G75*
G01*
X485290Y-549994D02*
G02*
X500299Y-565003I0J-15009D01*
G75*
G01*
X325290Y-669999D02*
G02*
X310294Y-655002I0J14997D01*
G75*
G01*
X325290Y-549994D02*
G03*
X310294Y-564990I0J-14996D01*
G75*
G01*
X-2667711Y244000D02*
G03*
X-2682720Y259009I-15009J0D01*
G75*
G01*
X-2787716Y244000D02*
G02*
X-2772707Y259009I15009J0D01*
G75*
G01*
X-2667711Y84000D02*
G02*
X-2682707Y69004I-14996J0D01*
G75*
G01*
X-2787716Y84000D02*
G03*
X-2772720Y69004I14996J0D01*
G75*
G01*
X95293Y140000D02*
G03*
X80284Y124991I0J-15009D01*
G75*
G01*
X95293Y19995D02*
G02*
X80284Y35004I0J15009D01*
G75*
G01*
X255293Y140000D02*
G02*
X270289Y125004I0J-14996D01*
G75*
G01*
X255293Y19995D02*
G03*
X270289Y34991I0J14996D01*
G75*
G01*
X60000Y869998D02*
G03*
X44991Y854989I0J-15009D01*
G75*
G01*
X60000Y749993D02*
G02*
X44991Y765002I0J15009D01*
G75*
G01*
X220000Y869998D02*
G02*
X234996Y855002I0J-14996D01*
G75*
G01*
X220000Y749993D02*
G03*
X234996Y764990I0J14997D01*
G75*
G01*
X-1614711Y1000003D02*
G03*
X-1629720Y1015012I-15009J0D01*
G75*
G01*
X-1734716Y1000003D02*
G02*
X-1719707Y1015012I15009J0D01*
G75*
G01*
X-1614711Y840003D02*
G02*
X-1629707Y825007I-14996J0D01*
G75*
G01*
X-1734716Y840003D02*
G03*
X-1719720Y825007I14996J0D01*
G75*
G01*
X-2424712Y200000D02*
G03*
X-2439721Y184991I0J-15009D01*
G75*
G01*
X-2424712Y79995D02*
G02*
X-2439721Y95004I0J15009D01*
G75*
G01*
X-2264712Y200000D02*
G02*
X-2249716Y185003I0J-14997D01*
G75*
G01*
X-2264712Y79995D02*
G03*
X-2249716Y94991I0J14996D01*
G75*
G01*
X-1644711Y180000D02*
G03*
X-1659720Y164991I0J-15009D01*
G75*
G01*
X-1644711Y59995D02*
G02*
X-1659720Y75004I0J15009D01*
G75*
G01*
X-1484711Y180000D02*
G02*
X-1469715Y165003I0J-14997D01*
G75*
G01*
X-1484711Y59995D02*
G03*
X-1469715Y74991I0J14996D01*
G75*
G01*
X-2677711Y424000D02*
G03*
X-2692720Y439009I-15009J0D01*
G75*
G01*
X-2797716Y424000D02*
G02*
X-2782707Y439009I15009J0D01*
G75*
G01*
X-2677711Y264000D02*
G02*
X-2692707Y249004I-14996J0D01*
G75*
G01*
X-2797716Y264000D02*
G03*
X-2782720Y249004I14996J0D01*
G75*
G01*
X-2124705Y3D02*
G03*
X-2109696Y-15006I15009J0D01*
G75*
G01*
X-2004700Y3D02*
G02*
X-2019709Y-15006I-15009J0D01*
G75*
G01*
X-2124705Y160002D02*
G02*
X-2109709Y174998I14996J0D01*
G75*
G01*
X-2004700Y160002D02*
G03*
X-2019696Y174998I-14996J0D01*
D19*
G75*
G01*
X-2627274Y260058D02*
G03*
X-2627020Y260058I127J-15001D01*
D16*
G75*
G01*
X-1094704Y310002D02*
G03*
X-1079696Y294993I15008J0D01*
G75*
G01*
X-974700Y310002D02*
G02*
X-989708Y294993I-15008J0D01*
G75*
G01*
X-1094704Y470002D02*
G02*
X-1079708Y484998I14996J0D01*
G75*
G01*
X-974700Y470002D02*
G03*
X-989696Y484998I-14996J0D01*
D11*
G75*
G01
X37490Y394386D02*
G03X37490Y394386I-6401J0D01*
D14*
G75*
G01
X-1688694Y561111D02*
G03X-1688694Y561111I-10008J0D01*
D11*
G75*
G01
X272821Y-419633D02*
G03X272821Y-419633I-12700J0D01*
D20*
G75*
G01
X-1144981Y39980D02*
G03X-1144981Y39980I-15011J0D01*
D11*
G75*
G01
X-324942Y659892D02*
G03X-324942Y659892I-85014J0D01*
G75*
G01
X-644982Y660019D02*
G03X-644982Y660019I-85014J0D01*
X-2577617Y-111912D02*
G01*
X-2177618Y-111912D01*
X-2177618Y-761923D01*
X-2577617Y-761923D01*
X-2577617Y-111912D01*
X-2809722Y-115011D02*
G01*
X-2179726Y-115011D01*
X-2179726Y-765022D01*
X-2809722Y-765022D01*
X-2809722Y-115011D01*
X-2809722Y79984D02*
G01*
X-2179726Y79984D01*
X-2179726Y-120014D01*
X-2809722Y-120014D01*
X-2809722Y79984D01*
M02*
