G04 Layer: InnerLayer2*
G04 EasyEDA v6.5.14, 2022-08-24 17:06:53*
G04 77cd11f6e3b44a54979dfea80d6f7020,401f954c81374b6587e5d63e119e93f9,10*
G04 Gerber Generator version 0.2*
G04 Scale: 100 percent, Rotated: No, Reflected: No *
G04 Dimensions in millimeters *
G04 leading zeros omitted , absolute positions ,4 integer and 5 decimal *
%FSLAX45Y45*%
%MOMM*%

%ADD10O,1.9999959999999999X1.1999976*%
%ADD11R,1.5748X1.7000*%
%ADD12C,1.7000*%
%ADD13C,1.5748*%
%ADD14R,1.5748X1.5748*%
%ADD15C,0.6110*%
%ADD16C,0.6100*%
%ADD17C,0.6200*%
%ADD18C,1.0000*%
%ADD19C,0.0140*%

%LPD*%
G36*
X-2171090Y-764082D02*
G01*
X-2174951Y-763320D01*
X-2178202Y-761136D01*
X-2180437Y-757885D01*
X-2181250Y-754024D01*
X-2189886Y61518D01*
X-2189226Y65379D01*
X-2187092Y68630D01*
X-2183892Y70916D01*
X-2178456Y73355D01*
X-2168702Y79654D01*
X-2160016Y87376D01*
X-2152650Y96367D01*
X-2146706Y106324D01*
X-2142337Y117094D01*
X-2139696Y128422D01*
X-2138832Y140004D01*
X-2139696Y151587D01*
X-2142337Y162915D01*
X-2146706Y173685D01*
X-2152650Y183642D01*
X-2160016Y192633D01*
X-2168702Y200355D01*
X-2178456Y206654D01*
X-2189073Y211429D01*
X-2200249Y214477D01*
X-2211781Y215849D01*
X-2223414Y215392D01*
X-2234793Y213156D01*
X-2245766Y209245D01*
X-2255926Y203708D01*
X-2265172Y196646D01*
X-2273249Y188264D01*
X-2279904Y178765D01*
X-2285085Y168351D01*
X-2288590Y157276D01*
X-2290368Y145796D01*
X-2290368Y134213D01*
X-2288590Y122732D01*
X-2285085Y111658D01*
X-2279904Y101244D01*
X-2273249Y91744D01*
X-2268880Y87223D01*
X-2266746Y83921D01*
X-2266035Y80010D01*
X-2266848Y76200D01*
X-2269083Y72948D01*
X-2272334Y70764D01*
X-2276195Y70002D01*
X-2339848Y70002D01*
X-2343708Y70764D01*
X-2347010Y72999D01*
X-2349246Y76250D01*
X-2350008Y80162D01*
X-2350008Y188976D01*
X-2351024Y189992D01*
X-2455773Y189992D01*
X-2459685Y190754D01*
X-2462987Y192989D01*
X-2477008Y207010D01*
X-2479243Y210312D01*
X-2480005Y214223D01*
X-2480005Y258978D01*
X-2480716Y260705D01*
X-2489301Y269290D01*
X-2490978Y270002D01*
X-2589022Y270002D01*
X-2590698Y269290D01*
X-2599283Y260705D01*
X-2599994Y258978D01*
X-2599994Y216763D01*
X-2600960Y212496D01*
X-2603652Y208991D01*
X-2607513Y206959D01*
X-2611932Y206756D01*
X-2625394Y212953D01*
X-2634894Y215493D01*
X-2644698Y216357D01*
X-2654503Y215493D01*
X-2664002Y212953D01*
X-2672892Y208788D01*
X-2680919Y203200D01*
X-2687878Y196240D01*
X-2693517Y188163D01*
X-2697683Y179273D01*
X-2700223Y169773D01*
X-2701086Y159969D01*
X-2700223Y150215D01*
X-2697683Y140716D01*
X-2693517Y131826D01*
X-2687878Y123748D01*
X-2680919Y116789D01*
X-2672892Y111201D01*
X-2664002Y107035D01*
X-2654503Y104495D01*
X-2644698Y103632D01*
X-2634894Y104495D01*
X-2625394Y107035D01*
X-2615996Y111556D01*
X-2611932Y113233D01*
X-2607513Y113030D01*
X-2603652Y110998D01*
X-2600960Y107492D01*
X-2599994Y103225D01*
X-2599994Y90170D01*
X-2600756Y86258D01*
X-2602992Y82956D01*
X-2606294Y80772D01*
X-2610154Y80010D01*
X-2848660Y80010D01*
X-2852521Y80772D01*
X-2855823Y82956D01*
X-2858008Y86258D01*
X-2858820Y90170D01*
X-2858820Y1083970D01*
X-2857906Y1097534D01*
X-2855722Y1109268D01*
X-2852064Y1120698D01*
X-2847086Y1131570D01*
X-2840837Y1141730D01*
X-2833420Y1151128D01*
X-2824886Y1159510D01*
X-2815437Y1166825D01*
X-2805176Y1172972D01*
X-2794254Y1177798D01*
X-2782824Y1181303D01*
X-2771038Y1183386D01*
X-2758643Y1184097D01*
X889253Y1184097D01*
X902817Y1183233D01*
X914603Y1180998D01*
X925982Y1177340D01*
X936853Y1172362D01*
X947013Y1166114D01*
X956411Y1158697D01*
X964793Y1150213D01*
X972108Y1140714D01*
X978255Y1130452D01*
X983081Y1119530D01*
X986586Y1108100D01*
X988669Y1096314D01*
X989380Y1083970D01*
X989380Y-663956D01*
X988517Y-677519D01*
X986282Y-689305D01*
X982624Y-700684D01*
X977696Y-711555D01*
X971448Y-721766D01*
X963980Y-731113D01*
X955497Y-739495D01*
X946048Y-746810D01*
X935736Y-752957D01*
X924814Y-757783D01*
X913384Y-761288D01*
X901598Y-763371D01*
X889253Y-764082D01*
G37*

%LPC*%
G36*
X-1311859Y-734669D02*
G01*
X-1155547Y-734669D01*
X-1149197Y-733907D01*
X-1143762Y-732028D01*
X-1138834Y-728929D01*
X-1134770Y-724865D01*
X-1131671Y-719937D01*
X-1129792Y-714502D01*
X-1129080Y-708152D01*
X-1129080Y-616864D01*
X-1128217Y-612800D01*
X-1125829Y-609447D01*
X-1122273Y-607263D01*
X-1118158Y-606755D01*
X-1114145Y-607872D01*
X-1110945Y-610565D01*
X-1109065Y-614222D01*
X-1107744Y-619302D01*
X-1103579Y-628243D01*
X-1097940Y-636270D01*
X-1090980Y-643229D01*
X-1082903Y-648868D01*
X-1074013Y-653034D01*
X-1064514Y-655574D01*
X-1054709Y-656437D01*
X-1044905Y-655574D01*
X-1035405Y-653034D01*
X-1026515Y-648868D01*
X-1018438Y-643229D01*
X-1011478Y-636270D01*
X-1005840Y-628243D01*
X-1001674Y-619302D01*
X-999134Y-609803D01*
X-998270Y-600049D01*
X-999134Y-590245D01*
X-1001674Y-580745D01*
X-1005840Y-571804D01*
X-1011478Y-563778D01*
X-1018438Y-556818D01*
X-1026515Y-551180D01*
X-1035405Y-547014D01*
X-1044905Y-544474D01*
X-1054709Y-543610D01*
X-1064514Y-544474D01*
X-1074013Y-547014D01*
X-1082903Y-551180D01*
X-1090980Y-556818D01*
X-1097940Y-563778D01*
X-1103579Y-571804D01*
X-1107744Y-580745D01*
X-1109065Y-585825D01*
X-1110945Y-589483D01*
X-1114145Y-592175D01*
X-1118158Y-593293D01*
X-1122273Y-592785D01*
X-1125829Y-590600D01*
X-1128217Y-587248D01*
X-1129080Y-583184D01*
X-1129080Y-551840D01*
X-1129792Y-545490D01*
X-1131671Y-540054D01*
X-1134770Y-535127D01*
X-1138834Y-531063D01*
X-1143762Y-527964D01*
X-1149197Y-526084D01*
X-1155547Y-525373D01*
X-1311859Y-525373D01*
X-1318209Y-526084D01*
X-1323644Y-527964D01*
X-1328572Y-531063D01*
X-1332636Y-535127D01*
X-1335735Y-540054D01*
X-1337665Y-545490D01*
X-1338376Y-551840D01*
X-1338376Y-708152D01*
X-1337665Y-714502D01*
X-1335735Y-719937D01*
X-1332636Y-724865D01*
X-1328572Y-728929D01*
X-1323644Y-732028D01*
X-1318209Y-733907D01*
G37*
G36*
X-1487728Y-734618D02*
G01*
X-1474063Y-733704D01*
X-1460652Y-731062D01*
X-1447647Y-726643D01*
X-1435404Y-720598D01*
X-1424025Y-712978D01*
X-1413713Y-703986D01*
X-1404721Y-693674D01*
X-1397101Y-682294D01*
X-1391056Y-670052D01*
X-1386636Y-657098D01*
X-1383995Y-643636D01*
X-1383080Y-630021D01*
X-1383995Y-616356D01*
X-1386636Y-602894D01*
X-1391056Y-589940D01*
X-1397101Y-577697D01*
X-1404721Y-566318D01*
X-1413713Y-556006D01*
X-1424025Y-547014D01*
X-1435404Y-539394D01*
X-1447647Y-533349D01*
X-1460652Y-528929D01*
X-1474063Y-526288D01*
X-1487728Y-525373D01*
X-1501343Y-526288D01*
X-1514805Y-528929D01*
X-1527759Y-533349D01*
X-1540002Y-539394D01*
X-1551381Y-547014D01*
X-1561693Y-556006D01*
X-1570736Y-566318D01*
X-1578305Y-577697D01*
X-1584350Y-589940D01*
X-1588770Y-602894D01*
X-1591462Y-616356D01*
X-1592326Y-630021D01*
X-1591462Y-643636D01*
X-1588770Y-657098D01*
X-1584350Y-670052D01*
X-1578305Y-682294D01*
X-1570736Y-693674D01*
X-1561693Y-703986D01*
X-1551381Y-712978D01*
X-1540002Y-720598D01*
X-1527759Y-726643D01*
X-1514805Y-731062D01*
X-1501343Y-733704D01*
G37*
G36*
X-1995728Y-734618D02*
G01*
X-1982063Y-733704D01*
X-1968652Y-731062D01*
X-1955647Y-726643D01*
X-1943404Y-720598D01*
X-1932025Y-712978D01*
X-1921713Y-703986D01*
X-1912721Y-693674D01*
X-1905101Y-682294D01*
X-1899056Y-670052D01*
X-1894636Y-657098D01*
X-1891995Y-643636D01*
X-1891080Y-630021D01*
X-1891995Y-616356D01*
X-1894636Y-602894D01*
X-1899056Y-589940D01*
X-1905101Y-577697D01*
X-1912721Y-566318D01*
X-1921713Y-556006D01*
X-1932025Y-547014D01*
X-1943404Y-539394D01*
X-1955647Y-533349D01*
X-1968652Y-528929D01*
X-1982063Y-526288D01*
X-1995728Y-525373D01*
X-2009343Y-526288D01*
X-2022805Y-528929D01*
X-2035759Y-533349D01*
X-2048002Y-539394D01*
X-2059381Y-547014D01*
X-2069693Y-556006D01*
X-2078736Y-566318D01*
X-2086305Y-577697D01*
X-2092350Y-589940D01*
X-2096770Y-602894D01*
X-2099462Y-616356D01*
X-2100326Y-630021D01*
X-2099462Y-643636D01*
X-2096770Y-657098D01*
X-2092350Y-670052D01*
X-2086305Y-682294D01*
X-2078736Y-693674D01*
X-2069693Y-703986D01*
X-2059381Y-712978D01*
X-2048002Y-720598D01*
X-2035759Y-726643D01*
X-2022805Y-731062D01*
X-2009343Y-733704D01*
G37*
G36*
X-1741728Y-734618D02*
G01*
X-1728063Y-733704D01*
X-1714652Y-731062D01*
X-1701647Y-726643D01*
X-1689404Y-720598D01*
X-1678025Y-712978D01*
X-1667713Y-703986D01*
X-1658721Y-693674D01*
X-1651101Y-682294D01*
X-1645056Y-670052D01*
X-1640636Y-657098D01*
X-1637995Y-643636D01*
X-1637080Y-630021D01*
X-1637995Y-616356D01*
X-1640636Y-602894D01*
X-1645056Y-589940D01*
X-1651101Y-577697D01*
X-1658721Y-566318D01*
X-1667713Y-556006D01*
X-1678025Y-547014D01*
X-1689404Y-539394D01*
X-1701647Y-533349D01*
X-1714652Y-528929D01*
X-1728063Y-526288D01*
X-1741728Y-525373D01*
X-1755343Y-526288D01*
X-1768805Y-528929D01*
X-1781759Y-533349D01*
X-1794002Y-539394D01*
X-1805381Y-547014D01*
X-1815693Y-556006D01*
X-1824736Y-566318D01*
X-1832305Y-577697D01*
X-1838350Y-589940D01*
X-1842770Y-602894D01*
X-1845462Y-616356D01*
X-1846325Y-630021D01*
X-1845462Y-643636D01*
X-1842770Y-657098D01*
X-1838350Y-670052D01*
X-1832305Y-682294D01*
X-1824736Y-693674D01*
X-1815693Y-703986D01*
X-1805381Y-712978D01*
X-1794002Y-720598D01*
X-1781759Y-726643D01*
X-1768805Y-731062D01*
X-1755343Y-733704D01*
G37*
G36*
X-864616Y-648563D02*
G01*
X-850950Y-647649D01*
X-837539Y-645007D01*
X-824585Y-640588D01*
X-812292Y-634542D01*
X-800912Y-626922D01*
X-790651Y-617931D01*
X-781608Y-607618D01*
X-773988Y-596239D01*
X-767943Y-583946D01*
X-763574Y-570992D01*
X-760882Y-557580D01*
X-759968Y-543915D01*
X-760882Y-530250D01*
X-763574Y-516839D01*
X-767943Y-503885D01*
X-773988Y-491642D01*
X-781608Y-480263D01*
X-790651Y-469950D01*
X-800912Y-460908D01*
X-812292Y-453339D01*
X-824585Y-447293D01*
X-837539Y-442874D01*
X-850950Y-440182D01*
X-864616Y-439318D01*
X-878281Y-440182D01*
X-891692Y-442874D01*
X-904646Y-447293D01*
X-916940Y-453339D01*
X-928319Y-460908D01*
X-938580Y-469950D01*
X-947623Y-480263D01*
X-955243Y-491642D01*
X-961288Y-503885D01*
X-965657Y-516839D01*
X-968349Y-530250D01*
X-969264Y-543915D01*
X-968349Y-557580D01*
X-965657Y-570992D01*
X-961288Y-583946D01*
X-955243Y-596239D01*
X-947623Y-607618D01*
X-938580Y-617931D01*
X-928319Y-626922D01*
X-916940Y-634542D01*
X-904646Y-640588D01*
X-891692Y-645007D01*
X-878281Y-647649D01*
G37*
G36*
X664108Y-603910D02*
G01*
X820470Y-603910D01*
X826769Y-603199D01*
X832256Y-601268D01*
X837133Y-598220D01*
X841248Y-594106D01*
X844296Y-589229D01*
X846226Y-583742D01*
X846937Y-577443D01*
X846937Y-408584D01*
X846226Y-402234D01*
X844296Y-396798D01*
X841248Y-391871D01*
X837133Y-387807D01*
X832256Y-384708D01*
X826769Y-382778D01*
X820470Y-382066D01*
X664108Y-382066D01*
X657809Y-382778D01*
X652322Y-384708D01*
X647446Y-387807D01*
X643331Y-391871D01*
X640283Y-396798D01*
X638352Y-402234D01*
X637641Y-408584D01*
X637641Y-488848D01*
X636778Y-493014D01*
X634238Y-496417D01*
X630529Y-498551D01*
X626313Y-498957D01*
X622300Y-497585D01*
X611530Y-486765D01*
X603504Y-481126D01*
X594563Y-476961D01*
X585063Y-474421D01*
X575310Y-473557D01*
X565505Y-474421D01*
X556006Y-476961D01*
X547065Y-481126D01*
X539038Y-486765D01*
X532079Y-493725D01*
X526440Y-501802D01*
X522274Y-510692D01*
X519734Y-520192D01*
X518871Y-529996D01*
X519734Y-539800D01*
X522274Y-549300D01*
X526440Y-558190D01*
X532079Y-566267D01*
X539038Y-573227D01*
X547065Y-578866D01*
X556006Y-583031D01*
X565505Y-585571D01*
X575310Y-586435D01*
X585063Y-585571D01*
X594563Y-583031D01*
X603504Y-578866D01*
X611530Y-573227D01*
X622300Y-562406D01*
X626313Y-561035D01*
X630529Y-561441D01*
X634238Y-563575D01*
X636778Y-566978D01*
X637641Y-571144D01*
X637641Y-577443D01*
X638352Y-583742D01*
X640283Y-589229D01*
X643331Y-594106D01*
X647446Y-598220D01*
X652322Y-601268D01*
X657809Y-603199D01*
G37*
G36*
X425297Y-566369D02*
G01*
X435101Y-565505D01*
X444601Y-562965D01*
X453491Y-558800D01*
X461518Y-553212D01*
X468477Y-546252D01*
X474116Y-538175D01*
X478282Y-529285D01*
X480822Y-519785D01*
X481685Y-510032D01*
X480822Y-500227D01*
X478282Y-490728D01*
X474116Y-481838D01*
X468477Y-473760D01*
X461518Y-466801D01*
X453491Y-461213D01*
X444601Y-457047D01*
X435101Y-454507D01*
X425297Y-453643D01*
X415493Y-454507D01*
X405993Y-457047D01*
X397103Y-461213D01*
X389077Y-466801D01*
X382117Y-473760D01*
X376478Y-481838D01*
X372313Y-490728D01*
X369773Y-500227D01*
X368909Y-510032D01*
X369773Y-519785D01*
X372313Y-529285D01*
X376478Y-538175D01*
X382117Y-546252D01*
X389077Y-553212D01*
X397103Y-558800D01*
X405993Y-562965D01*
X415493Y-565505D01*
G37*
G36*
X-1992274Y-486867D02*
G01*
X-1982724Y-485597D01*
X-1973529Y-482803D01*
X-1964893Y-478434D01*
X-1957120Y-472693D01*
X-1950466Y-465734D01*
X-1945081Y-457758D01*
X-1941068Y-448970D01*
X-1938680Y-439623D01*
X-1937816Y-430022D01*
X-1938680Y-420420D01*
X-1941068Y-411073D01*
X-1945081Y-402285D01*
X-1950466Y-394309D01*
X-1957120Y-387350D01*
X-1964893Y-381609D01*
X-1973529Y-377240D01*
X-1982724Y-374446D01*
X-1992274Y-373176D01*
X-2001926Y-373634D01*
X-2011375Y-375666D01*
X-2020316Y-379222D01*
X-2028545Y-384302D01*
X-2035759Y-390652D01*
X-2041855Y-398170D01*
X-2046528Y-406603D01*
X-2049729Y-415696D01*
X-2051354Y-425196D01*
X-2051354Y-434848D01*
X-2049729Y-444347D01*
X-2046528Y-453440D01*
X-2041855Y-461873D01*
X-2035759Y-469392D01*
X-2028545Y-475742D01*
X-2020316Y-480822D01*
X-2011375Y-484378D01*
X-2001926Y-486409D01*
G37*
G36*
X195326Y-396392D02*
G01*
X205079Y-395528D01*
X214579Y-392988D01*
X223469Y-388823D01*
X231546Y-383184D01*
X238506Y-376224D01*
X244094Y-368198D01*
X248259Y-359308D01*
X250799Y-349808D01*
X251663Y-340004D01*
X250799Y-330200D01*
X248259Y-320700D01*
X244094Y-311810D01*
X238506Y-303784D01*
X231546Y-296824D01*
X223469Y-291185D01*
X214579Y-287020D01*
X205079Y-284480D01*
X195326Y-283616D01*
X185521Y-284480D01*
X176022Y-287020D01*
X167132Y-291185D01*
X159054Y-296824D01*
X152095Y-303784D01*
X146507Y-311810D01*
X142341Y-320700D01*
X139801Y-330200D01*
X138938Y-340004D01*
X139801Y-349808D01*
X142341Y-359308D01*
X146507Y-368198D01*
X152095Y-376224D01*
X159054Y-383184D01*
X167132Y-388823D01*
X176022Y-392988D01*
X185521Y-395528D01*
G37*
G36*
X-864616Y-394563D02*
G01*
X-850950Y-393649D01*
X-837539Y-391007D01*
X-824585Y-386588D01*
X-812292Y-380542D01*
X-800912Y-372922D01*
X-790651Y-363931D01*
X-781608Y-353618D01*
X-773988Y-342239D01*
X-767943Y-329946D01*
X-763574Y-316992D01*
X-760882Y-303580D01*
X-759968Y-289915D01*
X-760882Y-276250D01*
X-763574Y-262839D01*
X-767943Y-249885D01*
X-773988Y-237642D01*
X-781608Y-226263D01*
X-790651Y-215950D01*
X-800912Y-206908D01*
X-812292Y-199339D01*
X-824585Y-193294D01*
X-837539Y-188874D01*
X-850950Y-186182D01*
X-864616Y-185318D01*
X-878281Y-186182D01*
X-891692Y-188874D01*
X-904646Y-193294D01*
X-916940Y-199339D01*
X-928319Y-206908D01*
X-938580Y-215950D01*
X-947623Y-226263D01*
X-955243Y-237642D01*
X-961288Y-249885D01*
X-965657Y-262839D01*
X-968349Y-276250D01*
X-969264Y-289915D01*
X-968349Y-303580D01*
X-965657Y-316992D01*
X-961288Y-329946D01*
X-955243Y-342239D01*
X-947623Y-353618D01*
X-938580Y-363931D01*
X-928319Y-372922D01*
X-916940Y-380542D01*
X-904646Y-386588D01*
X-891692Y-391007D01*
X-878281Y-393649D01*
G37*
G36*
X735177Y-349656D02*
G01*
X749401Y-349656D01*
X763473Y-347827D01*
X777240Y-344220D01*
X790397Y-338886D01*
X802792Y-331927D01*
X814171Y-323443D01*
X824382Y-313537D01*
X833221Y-302412D01*
X840587Y-290271D01*
X846378Y-277317D01*
X850392Y-263652D01*
X852678Y-249631D01*
X853135Y-235458D01*
X851763Y-221284D01*
X848614Y-207467D01*
X843686Y-194106D01*
X837133Y-181508D01*
X829005Y-169875D01*
X819454Y-159359D01*
X808634Y-150114D01*
X796696Y-142392D01*
X783894Y-136194D01*
X770432Y-131724D01*
X756462Y-129032D01*
X742289Y-128117D01*
X728116Y-129032D01*
X714146Y-131724D01*
X700684Y-136194D01*
X687882Y-142392D01*
X675995Y-150114D01*
X665175Y-159359D01*
X655624Y-169875D01*
X647446Y-181508D01*
X640892Y-194106D01*
X636016Y-207467D01*
X632815Y-221284D01*
X631444Y-235458D01*
X631901Y-249631D01*
X634187Y-263652D01*
X638251Y-277317D01*
X643991Y-290271D01*
X651357Y-302412D01*
X660196Y-313537D01*
X670407Y-323443D01*
X681786Y-331927D01*
X694182Y-338886D01*
X707339Y-344220D01*
X721106Y-347827D01*
G37*
G36*
X-1874672Y-196443D02*
G01*
X-1864918Y-195580D01*
X-1855419Y-193040D01*
X-1846478Y-188874D01*
X-1838452Y-183235D01*
X-1831492Y-176276D01*
X-1825853Y-168198D01*
X-1821688Y-159308D01*
X-1819148Y-149809D01*
X-1818284Y-140004D01*
X-1819148Y-130200D01*
X-1821688Y-120700D01*
X-1825853Y-111810D01*
X-1831492Y-103733D01*
X-1833016Y-102209D01*
X-1835200Y-98907D01*
X-1836013Y-94996D01*
X-1835200Y-91135D01*
X-1833016Y-87833D01*
X-1831492Y-86258D01*
X-1825853Y-78232D01*
X-1821688Y-69291D01*
X-1819148Y-59791D01*
X-1818284Y-50038D01*
X-1819148Y-40233D01*
X-1821688Y-30733D01*
X-1825853Y-21793D01*
X-1831492Y-13766D01*
X-1838452Y-6807D01*
X-1846478Y-1168D01*
X-1855419Y2997D01*
X-1864918Y5537D01*
X-1874672Y6400D01*
X-1884476Y5537D01*
X-1893976Y2997D01*
X-1902917Y-1168D01*
X-1910943Y-6807D01*
X-1917903Y-13766D01*
X-1923542Y-21793D01*
X-1927707Y-30733D01*
X-1930247Y-40233D01*
X-1931111Y-50038D01*
X-1930247Y-59791D01*
X-1927707Y-69291D01*
X-1923542Y-78232D01*
X-1917903Y-86258D01*
X-1916379Y-87833D01*
X-1914194Y-91135D01*
X-1913382Y-94996D01*
X-1914194Y-98907D01*
X-1916379Y-102209D01*
X-1917903Y-103733D01*
X-1923542Y-111810D01*
X-1927707Y-120700D01*
X-1930247Y-130200D01*
X-1931111Y-140004D01*
X-1930247Y-149809D01*
X-1927707Y-159308D01*
X-1923542Y-168198D01*
X-1917903Y-176276D01*
X-1910943Y-183235D01*
X-1902917Y-188874D01*
X-1893976Y-193040D01*
X-1884476Y-195580D01*
G37*
G36*
X-1664716Y-196443D02*
G01*
X-1654911Y-195580D01*
X-1645412Y-193040D01*
X-1636522Y-188874D01*
X-1628444Y-183235D01*
X-1621485Y-176276D01*
X-1615846Y-168198D01*
X-1611680Y-159308D01*
X-1609140Y-149809D01*
X-1608277Y-140004D01*
X-1609140Y-130200D01*
X-1611680Y-120700D01*
X-1615846Y-111810D01*
X-1621485Y-103733D01*
X-1628546Y-96723D01*
X-1630527Y-93827D01*
X-1631442Y-90424D01*
X-1631137Y-86868D01*
X-1629664Y-83718D01*
X-1625854Y-78232D01*
X-1621688Y-69291D01*
X-1619148Y-59791D01*
X-1618284Y-50038D01*
X-1619148Y-40233D01*
X-1621688Y-30733D01*
X-1625854Y-21793D01*
X-1631492Y-13766D01*
X-1638452Y-6807D01*
X-1646478Y-1168D01*
X-1655419Y2997D01*
X-1664919Y5537D01*
X-1674672Y6400D01*
X-1684477Y5537D01*
X-1693976Y2997D01*
X-1702917Y-1168D01*
X-1710943Y-6807D01*
X-1717903Y-13766D01*
X-1723542Y-21793D01*
X-1727707Y-30733D01*
X-1730248Y-40233D01*
X-1731111Y-50038D01*
X-1730248Y-59791D01*
X-1727707Y-69291D01*
X-1723542Y-78232D01*
X-1717903Y-86258D01*
X-1710893Y-93319D01*
X-1708861Y-96215D01*
X-1707946Y-99618D01*
X-1708251Y-103124D01*
X-1709724Y-106324D01*
X-1713585Y-111810D01*
X-1717751Y-120700D01*
X-1720291Y-130200D01*
X-1721154Y-140004D01*
X-1720291Y-149809D01*
X-1717751Y-159308D01*
X-1713585Y-168198D01*
X-1707946Y-176276D01*
X-1700987Y-183235D01*
X-1692910Y-188874D01*
X-1684020Y-193040D01*
X-1674520Y-195580D01*
G37*
G36*
X-942797Y-140563D02*
G01*
X-786434Y-140563D01*
X-780135Y-139852D01*
X-774649Y-137972D01*
X-769772Y-134874D01*
X-765657Y-130759D01*
X-762609Y-125882D01*
X-760679Y-120446D01*
X-759968Y-114096D01*
X-759968Y42214D01*
X-760679Y48564D01*
X-762609Y54000D01*
X-765657Y58928D01*
X-769772Y62991D01*
X-774649Y66090D01*
X-780135Y68021D01*
X-786434Y68732D01*
X-942797Y68732D01*
X-949096Y68021D01*
X-954582Y66090D01*
X-959459Y62991D01*
X-963574Y58928D01*
X-966622Y54000D01*
X-968552Y48564D01*
X-969264Y42214D01*
X-969264Y-114096D01*
X-968552Y-120446D01*
X-966622Y-125882D01*
X-963574Y-130759D01*
X-959459Y-134874D01*
X-954582Y-137972D01*
X-949096Y-139852D01*
G37*
G36*
X59994Y-126441D02*
G01*
X69799Y-125577D01*
X79298Y-123037D01*
X88188Y-118872D01*
X96266Y-113233D01*
X103225Y-106273D01*
X108864Y-98196D01*
X113030Y-89306D01*
X115570Y-79806D01*
X116433Y-70002D01*
X115570Y-60198D01*
X113030Y-50698D01*
X108864Y-41808D01*
X103225Y-33731D01*
X96266Y-26771D01*
X88188Y-21132D01*
X79298Y-16967D01*
X69799Y-14427D01*
X59994Y-13563D01*
X50190Y-14427D01*
X40690Y-16967D01*
X31800Y-21132D01*
X23723Y-26771D01*
X16764Y-33731D01*
X11125Y-41808D01*
X6959Y-50698D01*
X4419Y-60198D01*
X3556Y-70002D01*
X4419Y-79806D01*
X6959Y-89306D01*
X11125Y-98196D01*
X16764Y-106273D01*
X23723Y-113233D01*
X31800Y-118872D01*
X40690Y-123037D01*
X50190Y-125577D01*
G37*
G36*
X745286Y-106426D02*
G01*
X755091Y-105562D01*
X764590Y-103022D01*
X773480Y-98856D01*
X781558Y-93218D01*
X788517Y-86258D01*
X794156Y-78232D01*
X798322Y-69291D01*
X800862Y-59791D01*
X801725Y-50038D01*
X800862Y-40233D01*
X798322Y-30733D01*
X794156Y-21793D01*
X788517Y-13766D01*
X781558Y-6807D01*
X773480Y-1168D01*
X764590Y2997D01*
X755091Y5537D01*
X745286Y6400D01*
X735482Y5537D01*
X725982Y2997D01*
X717092Y-1168D01*
X709015Y-6807D01*
X702056Y-13766D01*
X696417Y-21793D01*
X692251Y-30733D01*
X689711Y-40233D01*
X688848Y-50038D01*
X689711Y-59791D01*
X692251Y-69291D01*
X696417Y-78232D01*
X702056Y-86258D01*
X709015Y-93218D01*
X717092Y-98856D01*
X725982Y-103022D01*
X735482Y-105562D01*
G37*
G36*
X-1524711Y-56388D02*
G01*
X-1514906Y-55524D01*
X-1505407Y-52984D01*
X-1496517Y-48818D01*
X-1488490Y-43180D01*
X-1481531Y-36220D01*
X-1475892Y-28194D01*
X-1471726Y-19304D01*
X-1469186Y-9804D01*
X-1468323Y0D01*
X-1469186Y9804D01*
X-1471726Y19304D01*
X-1475892Y28194D01*
X-1481531Y36220D01*
X-1488490Y43180D01*
X-1496517Y48818D01*
X-1505407Y52984D01*
X-1514906Y55524D01*
X-1524711Y56388D01*
X-1534515Y55524D01*
X-1544015Y52984D01*
X-1552905Y48818D01*
X-1560931Y43180D01*
X-1567891Y36220D01*
X-1573530Y28194D01*
X-1577695Y19304D01*
X-1580235Y9804D01*
X-1581099Y0D01*
X-1580235Y-9804D01*
X-1577695Y-19304D01*
X-1573530Y-28194D01*
X-1567891Y-36220D01*
X-1560931Y-43180D01*
X-1552905Y-48818D01*
X-1544015Y-52984D01*
X-1534515Y-55524D01*
G37*
G36*
X-1074674Y-56388D02*
G01*
X-1064920Y-55524D01*
X-1055420Y-52984D01*
X-1046530Y-48818D01*
X-1038453Y-43180D01*
X-1031494Y-36220D01*
X-1025906Y-28194D01*
X-1021740Y-19304D01*
X-1019200Y-9804D01*
X-1018336Y0D01*
X-1019200Y9804D01*
X-1021740Y19304D01*
X-1025906Y28194D01*
X-1031494Y36220D01*
X-1038453Y43180D01*
X-1046530Y48818D01*
X-1055420Y52984D01*
X-1064920Y55524D01*
X-1074674Y56388D01*
X-1084478Y55524D01*
X-1093978Y52984D01*
X-1102868Y48818D01*
X-1110945Y43180D01*
X-1117904Y36220D01*
X-1123492Y28194D01*
X-1127658Y19304D01*
X-1130198Y9804D01*
X-1131062Y0D01*
X-1130198Y-9804D01*
X-1127658Y-19304D01*
X-1123492Y-28194D01*
X-1117904Y-36220D01*
X-1110945Y-43180D01*
X-1102868Y-48818D01*
X-1093978Y-52984D01*
X-1084478Y-55524D01*
G37*
G36*
X295300Y23571D02*
G01*
X305104Y24434D01*
X314604Y26974D01*
X323494Y31140D01*
X331571Y36779D01*
X338531Y43738D01*
X344170Y51816D01*
X348335Y60706D01*
X350875Y70205D01*
X351739Y80010D01*
X350875Y89814D01*
X348335Y99314D01*
X344170Y108204D01*
X338531Y116281D01*
X331571Y123240D01*
X323494Y128879D01*
X314604Y133045D01*
X305104Y135585D01*
X295300Y136448D01*
X285496Y135585D01*
X275996Y133045D01*
X267106Y128879D01*
X259029Y123240D01*
X252069Y116281D01*
X246430Y108204D01*
X242265Y99314D01*
X239725Y89814D01*
X238861Y80010D01*
X239725Y70205D01*
X242265Y60706D01*
X246430Y51816D01*
X252069Y43738D01*
X259029Y36779D01*
X267106Y31140D01*
X275996Y26974D01*
X285496Y24434D01*
G37*
G36*
X792226Y91592D02*
G01*
X871474Y91592D01*
X884072Y92506D01*
X896061Y95097D01*
X907542Y99364D01*
X918260Y105257D01*
X928065Y112572D01*
X936752Y121259D01*
X944118Y131064D01*
X949960Y141833D01*
X954227Y153314D01*
X956868Y165303D01*
X957732Y177495D01*
X956868Y189738D01*
X954227Y201676D01*
X949960Y213156D01*
X944118Y223926D01*
X936752Y233730D01*
X928065Y242417D01*
X918260Y249732D01*
X907542Y255625D01*
X896061Y259892D01*
X884072Y262483D01*
X871474Y263398D01*
X792226Y263398D01*
X779627Y262483D01*
X767638Y259892D01*
X756158Y255625D01*
X745439Y249732D01*
X735584Y242417D01*
X726948Y233730D01*
X719582Y223926D01*
X713740Y213156D01*
X709422Y201676D01*
X706831Y189738D01*
X705967Y177495D01*
X706831Y165303D01*
X709422Y153314D01*
X713740Y141833D01*
X719582Y131064D01*
X726948Y121259D01*
X735584Y112572D01*
X745439Y105257D01*
X756158Y99364D01*
X767638Y95097D01*
X779627Y92506D01*
G37*
G36*
X-109982Y133553D02*
G01*
X-100228Y134416D01*
X-90728Y136956D01*
X-81788Y141122D01*
X-73761Y146761D01*
X-66802Y153720D01*
X-61163Y161798D01*
X-56997Y170688D01*
X-54457Y180187D01*
X-53593Y189992D01*
X-54457Y199796D01*
X-56997Y209296D01*
X-61163Y218186D01*
X-66802Y226263D01*
X-73761Y233222D01*
X-81788Y238861D01*
X-90728Y243027D01*
X-100228Y245567D01*
X-109982Y246430D01*
X-119786Y245567D01*
X-129285Y243027D01*
X-138226Y238861D01*
X-146253Y233222D01*
X-153212Y226263D01*
X-158851Y218186D01*
X-163017Y209296D01*
X-165557Y199796D01*
X-166420Y189992D01*
X-165557Y180187D01*
X-163017Y170688D01*
X-158851Y161798D01*
X-153212Y153720D01*
X-146253Y146761D01*
X-138226Y141122D01*
X-129285Y136956D01*
X-119786Y134416D01*
G37*
G36*
X-1224686Y143560D02*
G01*
X-1214932Y144424D01*
X-1205433Y146964D01*
X-1196492Y151130D01*
X-1188466Y156768D01*
X-1181506Y163728D01*
X-1175867Y171805D01*
X-1171702Y180695D01*
X-1170736Y184200D01*
X-1169009Y187807D01*
X-1165961Y190398D01*
X-1162202Y191668D01*
X-1158240Y191414D01*
X-1147470Y188417D01*
X-1137716Y187553D01*
X-1127912Y188417D01*
X-1118412Y190957D01*
X-1109522Y195122D01*
X-1101445Y200761D01*
X-1094486Y207721D01*
X-1088847Y215798D01*
X-1084681Y224688D01*
X-1082141Y234188D01*
X-1081278Y243992D01*
X-1082141Y253796D01*
X-1084681Y263296D01*
X-1088847Y272186D01*
X-1094486Y280263D01*
X-1101445Y287223D01*
X-1109522Y292862D01*
X-1118412Y297027D01*
X-1127912Y299567D01*
X-1137716Y300431D01*
X-1147521Y299567D01*
X-1157020Y297027D01*
X-1165910Y292862D01*
X-1173988Y287223D01*
X-1180947Y280263D01*
X-1186586Y272186D01*
X-1190752Y263296D01*
X-1191666Y259791D01*
X-1193444Y256184D01*
X-1196441Y253593D01*
X-1200200Y252323D01*
X-1204214Y252577D01*
X-1214932Y255574D01*
X-1224686Y256438D01*
X-1234490Y255574D01*
X-1243990Y253034D01*
X-1252931Y248869D01*
X-1260957Y243230D01*
X-1263243Y240944D01*
X-1266952Y238607D01*
X-1271320Y238048D01*
X-1275486Y239369D01*
X-1278737Y242316D01*
X-1281480Y246227D01*
X-1288440Y253187D01*
X-1296517Y258825D01*
X-1305407Y262991D01*
X-1314907Y265531D01*
X-1324711Y266395D01*
X-1334516Y265531D01*
X-1344015Y262991D01*
X-1352905Y258825D01*
X-1360982Y253187D01*
X-1367942Y246227D01*
X-1373581Y238201D01*
X-1377746Y229260D01*
X-1380286Y219760D01*
X-1381150Y209956D01*
X-1380286Y200202D01*
X-1377746Y190703D01*
X-1373581Y181762D01*
X-1367942Y173736D01*
X-1360982Y166776D01*
X-1352905Y161137D01*
X-1344015Y156972D01*
X-1334516Y154432D01*
X-1324711Y153568D01*
X-1314907Y154432D01*
X-1305407Y156972D01*
X-1296517Y161137D01*
X-1288440Y166776D01*
X-1286205Y169011D01*
X-1282496Y171399D01*
X-1278128Y171958D01*
X-1273911Y170637D01*
X-1270660Y167640D01*
X-1267917Y163728D01*
X-1260957Y156768D01*
X-1252931Y151130D01*
X-1243990Y146964D01*
X-1234490Y144424D01*
G37*
G36*
X-1864715Y163626D02*
G01*
X-1854911Y164490D01*
X-1845411Y167030D01*
X-1836521Y171196D01*
X-1828495Y176834D01*
X-1821535Y183794D01*
X-1815896Y191820D01*
X-1811731Y200710D01*
X-1809191Y210210D01*
X-1808327Y220014D01*
X-1809191Y229819D01*
X-1811731Y239318D01*
X-1815896Y248208D01*
X-1821535Y256235D01*
X-1828495Y263194D01*
X-1836521Y268833D01*
X-1845411Y272999D01*
X-1854911Y275539D01*
X-1864715Y276402D01*
X-1874520Y275539D01*
X-1884019Y272999D01*
X-1892909Y268833D01*
X-1900936Y263194D01*
X-1907895Y256235D01*
X-1913534Y248208D01*
X-1917700Y239318D01*
X-1920239Y229819D01*
X-1921103Y220014D01*
X-1920239Y210210D01*
X-1917700Y200710D01*
X-1913534Y191820D01*
X-1907895Y183794D01*
X-1900936Y176834D01*
X-1892909Y171196D01*
X-1884019Y167030D01*
X-1874520Y164490D01*
G37*
G36*
X-1614678Y173634D02*
G01*
X-1604924Y174498D01*
X-1595424Y177038D01*
X-1586534Y181203D01*
X-1578457Y186791D01*
X-1571498Y193751D01*
X-1565910Y201828D01*
X-1561744Y210718D01*
X-1559204Y220217D01*
X-1558340Y229971D01*
X-1559204Y239775D01*
X-1561744Y249275D01*
X-1565910Y258165D01*
X-1571498Y266242D01*
X-1578457Y273202D01*
X-1586534Y278790D01*
X-1595424Y282956D01*
X-1604924Y285496D01*
X-1614678Y286359D01*
X-1624482Y285496D01*
X-1633982Y282956D01*
X-1642872Y278790D01*
X-1650949Y273202D01*
X-1657908Y266242D01*
X-1663496Y258165D01*
X-1667662Y249275D01*
X-1670202Y239775D01*
X-1671066Y229971D01*
X-1670202Y220217D01*
X-1667662Y210718D01*
X-1663496Y201828D01*
X-1657908Y193751D01*
X-1650949Y186791D01*
X-1642872Y181203D01*
X-1633982Y177038D01*
X-1624482Y174498D01*
G37*
G36*
X618134Y201676D02*
G01*
X627938Y202946D01*
X637387Y205841D01*
X646226Y210312D01*
X654202Y216154D01*
X661060Y223316D01*
X666597Y231546D01*
X670661Y240538D01*
X673201Y250139D01*
X674014Y259994D01*
X673201Y269849D01*
X670661Y279450D01*
X666597Y288442D01*
X661060Y296672D01*
X654202Y303834D01*
X646226Y309676D01*
X637387Y314147D01*
X627938Y317042D01*
X618134Y318312D01*
X608228Y317906D01*
X598576Y315823D01*
X589381Y312115D01*
X580948Y306933D01*
X573481Y300380D01*
X567283Y292658D01*
X562457Y284022D01*
X559155Y274726D01*
X557479Y264922D01*
X557479Y255066D01*
X559155Y245262D01*
X562457Y235966D01*
X567283Y227329D01*
X573481Y219608D01*
X580948Y213055D01*
X589381Y207873D01*
X598576Y204165D01*
X608228Y202082D01*
G37*
G36*
X192328Y237591D02*
G01*
X202082Y238455D01*
X211582Y240995D01*
X220522Y245160D01*
X228549Y250799D01*
X235508Y257759D01*
X241147Y265785D01*
X245313Y274726D01*
X247853Y284226D01*
X248716Y293979D01*
X247853Y303784D01*
X245313Y313283D01*
X241147Y322224D01*
X235508Y330250D01*
X228549Y337210D01*
X220522Y342849D01*
X211582Y347014D01*
X202082Y349554D01*
X192328Y350418D01*
X182524Y349554D01*
X173024Y347014D01*
X164084Y342849D01*
X156057Y337210D01*
X149098Y330250D01*
X143459Y322224D01*
X139293Y313283D01*
X136753Y303784D01*
X135890Y293979D01*
X136753Y284226D01*
X139293Y274726D01*
X143459Y265785D01*
X149098Y257759D01*
X156057Y250799D01*
X164084Y245160D01*
X173024Y240995D01*
X182524Y238455D01*
G37*
G36*
X-559968Y303580D02*
G01*
X-550214Y304444D01*
X-540715Y306984D01*
X-531774Y311150D01*
X-523748Y316788D01*
X-516788Y323748D01*
X-511149Y331774D01*
X-506984Y340715D01*
X-504443Y350215D01*
X-503580Y359968D01*
X-504443Y369773D01*
X-506984Y379272D01*
X-511149Y388213D01*
X-516788Y396240D01*
X-523748Y403199D01*
X-531774Y408838D01*
X-540715Y413004D01*
X-550214Y415543D01*
X-559968Y416407D01*
X-569772Y415543D01*
X-579272Y413004D01*
X-588213Y408838D01*
X-596239Y403199D01*
X-603199Y396240D01*
X-608838Y388213D01*
X-613003Y379272D01*
X-615543Y369773D01*
X-616407Y359968D01*
X-615543Y350215D01*
X-613003Y340715D01*
X-608838Y331774D01*
X-603199Y323748D01*
X-596239Y316788D01*
X-588213Y311150D01*
X-579272Y306984D01*
X-569772Y304444D01*
G37*
G36*
X-1834692Y303631D02*
G01*
X-1824888Y304495D01*
X-1815388Y307035D01*
X-1806498Y311200D01*
X-1798472Y316788D01*
X-1791512Y323748D01*
X-1785874Y331825D01*
X-1781708Y340715D01*
X-1779168Y350215D01*
X-1778304Y359968D01*
X-1779168Y369773D01*
X-1781708Y379272D01*
X-1785874Y388162D01*
X-1791512Y396240D01*
X-1798472Y403199D01*
X-1806498Y408787D01*
X-1815388Y412953D01*
X-1824888Y415493D01*
X-1834692Y416356D01*
X-1844497Y415493D01*
X-1853996Y412953D01*
X-1862886Y408787D01*
X-1870913Y403199D01*
X-1877872Y396240D01*
X-1883511Y388162D01*
X-1887677Y379272D01*
X-1890217Y369773D01*
X-1891080Y359968D01*
X-1890217Y350215D01*
X-1887677Y340715D01*
X-1883511Y331825D01*
X-1877872Y323748D01*
X-1870913Y316788D01*
X-1862886Y311200D01*
X-1853996Y307035D01*
X-1844497Y304495D01*
G37*
G36*
X-1697685Y307594D02*
G01*
X-1687931Y308457D01*
X-1678432Y310997D01*
X-1669491Y315163D01*
X-1661464Y320802D01*
X-1654505Y327761D01*
X-1648866Y335788D01*
X-1644700Y344728D01*
X-1642160Y354228D01*
X-1641297Y363982D01*
X-1642160Y373786D01*
X-1644700Y383286D01*
X-1647850Y390042D01*
X-1648764Y393903D01*
X-1648155Y397814D01*
X-1646123Y401218D01*
X-1642922Y403555D01*
X-1639519Y405130D01*
X-1631442Y410768D01*
X-1624482Y417728D01*
X-1618843Y425805D01*
X-1614678Y434695D01*
X-1612138Y444195D01*
X-1611274Y453999D01*
X-1612138Y463804D01*
X-1614678Y473303D01*
X-1618843Y482193D01*
X-1624482Y490270D01*
X-1631442Y497230D01*
X-1639519Y502869D01*
X-1648409Y507034D01*
X-1657908Y509574D01*
X-1667713Y510438D01*
X-1677517Y509574D01*
X-1687017Y507034D01*
X-1695907Y502869D01*
X-1703984Y497230D01*
X-1710943Y490270D01*
X-1716582Y482193D01*
X-1720748Y473303D01*
X-1723288Y463804D01*
X-1724152Y453999D01*
X-1723288Y444195D01*
X-1720748Y434695D01*
X-1717598Y427939D01*
X-1716633Y424129D01*
X-1717243Y420217D01*
X-1719325Y416814D01*
X-1722526Y414477D01*
X-1725930Y412851D01*
X-1733956Y407212D01*
X-1740916Y400253D01*
X-1746554Y392226D01*
X-1750720Y383286D01*
X-1753260Y373786D01*
X-1754124Y363982D01*
X-1753260Y354228D01*
X-1750720Y344728D01*
X-1746554Y335788D01*
X-1740916Y327761D01*
X-1733956Y320802D01*
X-1725930Y315163D01*
X-1716989Y310997D01*
X-1707489Y308457D01*
G37*
G36*
X372313Y327558D02*
G01*
X382066Y328422D01*
X391566Y330962D01*
X400507Y335127D01*
X408533Y340766D01*
X415493Y347726D01*
X421132Y355803D01*
X425297Y364693D01*
X427837Y374192D01*
X428701Y383997D01*
X427837Y393801D01*
X425297Y403301D01*
X421132Y412191D01*
X416966Y418185D01*
X415340Y421944D01*
X415340Y426059D01*
X416966Y429818D01*
X421132Y435813D01*
X425297Y444703D01*
X427837Y454202D01*
X428701Y464007D01*
X427837Y473811D01*
X425297Y483311D01*
X421132Y492201D01*
X415493Y500278D01*
X408533Y507238D01*
X400507Y512876D01*
X391566Y517042D01*
X382066Y519582D01*
X372313Y520446D01*
X362508Y519582D01*
X353009Y517042D01*
X344068Y512876D01*
X336042Y507238D01*
X329082Y500278D01*
X323443Y492201D01*
X319278Y483311D01*
X316738Y473811D01*
X315874Y464007D01*
X316738Y454202D01*
X319278Y444703D01*
X323443Y435813D01*
X327609Y429818D01*
X329234Y426059D01*
X329234Y421944D01*
X327609Y418185D01*
X323443Y412191D01*
X319278Y403301D01*
X316738Y393801D01*
X315874Y383997D01*
X316738Y374192D01*
X319278Y364693D01*
X323443Y355803D01*
X329082Y347726D01*
X336042Y340766D01*
X344068Y335127D01*
X353009Y330962D01*
X362508Y328422D01*
G37*
G36*
X-929995Y373583D02*
G01*
X-920191Y374446D01*
X-910691Y376986D01*
X-901801Y381152D01*
X-893724Y386791D01*
X-886764Y393750D01*
X-881126Y401777D01*
X-876960Y410718D01*
X-874420Y420217D01*
X-873556Y429971D01*
X-874420Y439775D01*
X-876960Y449275D01*
X-881126Y458216D01*
X-886764Y466242D01*
X-893724Y473201D01*
X-901801Y478840D01*
X-910691Y483006D01*
X-920191Y485546D01*
X-929995Y486409D01*
X-939800Y485546D01*
X-949299Y483006D01*
X-958189Y478840D01*
X-966266Y473201D01*
X-973226Y466242D01*
X-978865Y458216D01*
X-983030Y449275D01*
X-985570Y439775D01*
X-986434Y429971D01*
X-985570Y420217D01*
X-983030Y410718D01*
X-978865Y401777D01*
X-973226Y393750D01*
X-966266Y386791D01*
X-958189Y381152D01*
X-949299Y376986D01*
X-939800Y374446D01*
G37*
G36*
X-2757678Y407619D02*
G01*
X-2747924Y408482D01*
X-2738424Y411022D01*
X-2729534Y415188D01*
X-2721457Y420827D01*
X-2714498Y427786D01*
X-2708910Y435813D01*
X-2704744Y444703D01*
X-2702204Y454202D01*
X-2701340Y464007D01*
X-2702204Y473811D01*
X-2704744Y483311D01*
X-2708910Y492201D01*
X-2714498Y500227D01*
X-2721457Y507187D01*
X-2729534Y512826D01*
X-2738424Y516991D01*
X-2747924Y519531D01*
X-2757678Y520395D01*
X-2767482Y519531D01*
X-2776982Y516991D01*
X-2785872Y512826D01*
X-2793949Y507187D01*
X-2800908Y500227D01*
X-2806496Y492201D01*
X-2810662Y483311D01*
X-2813202Y473811D01*
X-2814066Y464007D01*
X-2813202Y454202D01*
X-2810662Y444703D01*
X-2806496Y435813D01*
X-2800908Y427786D01*
X-2793949Y420827D01*
X-2785872Y415188D01*
X-2776982Y411022D01*
X-2767482Y408482D01*
G37*
G36*
X-1807718Y437591D02*
G01*
X-1797913Y438454D01*
X-1788414Y440994D01*
X-1779524Y445160D01*
X-1771446Y450799D01*
X-1764487Y457758D01*
X-1758848Y465785D01*
X-1754682Y474726D01*
X-1752142Y484225D01*
X-1751279Y493979D01*
X-1752142Y503783D01*
X-1754682Y513283D01*
X-1758848Y522224D01*
X-1764487Y530250D01*
X-1771446Y537210D01*
X-1779524Y542848D01*
X-1788414Y547014D01*
X-1797913Y549554D01*
X-1807718Y550418D01*
X-1817522Y549554D01*
X-1827022Y547014D01*
X-1835912Y542848D01*
X-1843989Y537210D01*
X-1850948Y530250D01*
X-1856587Y522224D01*
X-1860753Y513283D01*
X-1863293Y503783D01*
X-1864156Y493979D01*
X-1863293Y484225D01*
X-1860753Y474726D01*
X-1856587Y465785D01*
X-1850948Y457758D01*
X-1843989Y450799D01*
X-1835912Y445160D01*
X-1827022Y440994D01*
X-1817522Y438454D01*
G37*
G36*
X-1157681Y437591D02*
G01*
X-1147927Y438454D01*
X-1138428Y440994D01*
X-1129487Y445160D01*
X-1121460Y450799D01*
X-1114501Y457758D01*
X-1108862Y465785D01*
X-1104696Y474726D01*
X-1102156Y484225D01*
X-1101293Y493979D01*
X-1102156Y503783D01*
X-1104696Y513283D01*
X-1108862Y522224D01*
X-1114501Y530250D01*
X-1121460Y537210D01*
X-1129487Y542848D01*
X-1138428Y547014D01*
X-1147927Y549554D01*
X-1157681Y550418D01*
X-1167485Y549554D01*
X-1168908Y549198D01*
X-1173276Y548995D01*
X-1177340Y550672D01*
X-1180338Y553923D01*
X-1181658Y558139D01*
X-1182166Y563778D01*
X-1184706Y573278D01*
X-1188872Y582218D01*
X-1194511Y590245D01*
X-1201470Y597204D01*
X-1209497Y602843D01*
X-1218438Y607009D01*
X-1227937Y609549D01*
X-1237691Y610412D01*
X-1247495Y609549D01*
X-1256995Y607009D01*
X-1267002Y602284D01*
X-1271016Y601319D01*
X-1275080Y602030D01*
X-1278483Y604316D01*
X-1281430Y607212D01*
X-1289507Y612851D01*
X-1298397Y617016D01*
X-1307896Y619556D01*
X-1317701Y620420D01*
X-1327505Y619556D01*
X-1337005Y617016D01*
X-1345895Y612851D01*
X-1353972Y607212D01*
X-1360932Y600252D01*
X-1366570Y592226D01*
X-1370736Y583285D01*
X-1373276Y573836D01*
X-1374190Y562965D01*
X-1375308Y559104D01*
X-1377848Y555955D01*
X-1381252Y554177D01*
X-1379982Y554278D01*
X-1376121Y553059D01*
X-1373073Y550418D01*
X-1371295Y546811D01*
X-1370736Y544728D01*
X-1366570Y535787D01*
X-1360932Y527761D01*
X-1353972Y520801D01*
X-1345895Y515162D01*
X-1337005Y510997D01*
X-1327505Y508457D01*
X-1317701Y507593D01*
X-1307896Y508457D01*
X-1298448Y510997D01*
X-1288440Y515721D01*
X-1284427Y516686D01*
X-1280363Y515975D01*
X-1276908Y513689D01*
X-1273962Y510793D01*
X-1265936Y505155D01*
X-1256995Y500989D01*
X-1247495Y498449D01*
X-1237691Y497585D01*
X-1227937Y498449D01*
X-1226515Y498805D01*
X-1222146Y499008D01*
X-1218082Y497332D01*
X-1215085Y494080D01*
X-1213764Y489864D01*
X-1213256Y484225D01*
X-1210716Y474726D01*
X-1206550Y465785D01*
X-1200912Y457758D01*
X-1193952Y450799D01*
X-1185926Y445160D01*
X-1176985Y440994D01*
X-1167485Y438454D01*
G37*
G36*
X-1447698Y487578D02*
G01*
X-1437894Y488442D01*
X-1428394Y490982D01*
X-1419504Y495147D01*
X-1411427Y500786D01*
X-1404467Y507746D01*
X-1398828Y515772D01*
X-1394663Y524713D01*
X-1392123Y534162D01*
X-1391208Y545033D01*
X-1390091Y548894D01*
X-1387551Y552043D01*
X-1384147Y553821D01*
X-1385417Y553720D01*
X-1389278Y554939D01*
X-1392326Y557580D01*
X-1394104Y561187D01*
X-1394663Y563270D01*
X-1398828Y572211D01*
X-1404467Y580237D01*
X-1411427Y587197D01*
X-1419504Y592836D01*
X-1428394Y597001D01*
X-1437894Y599541D01*
X-1447698Y600405D01*
X-1457502Y599541D01*
X-1467002Y597001D01*
X-1475892Y592836D01*
X-1483969Y587197D01*
X-1490929Y580237D01*
X-1496568Y572211D01*
X-1500733Y563270D01*
X-1503273Y553770D01*
X-1504137Y543966D01*
X-1503273Y534212D01*
X-1500733Y524713D01*
X-1496568Y515772D01*
X-1490929Y507746D01*
X-1483969Y500786D01*
X-1475892Y495147D01*
X-1467002Y490982D01*
X-1457502Y488442D01*
G37*
G36*
X-909980Y563626D02*
G01*
X-900226Y564489D01*
X-890727Y567029D01*
X-881837Y571195D01*
X-873760Y576783D01*
X-866800Y583742D01*
X-861212Y591820D01*
X-857046Y600710D01*
X-854506Y610209D01*
X-853643Y619963D01*
X-854506Y629767D01*
X-857046Y639267D01*
X-861212Y648157D01*
X-866800Y656234D01*
X-873760Y663194D01*
X-881837Y668782D01*
X-890727Y672947D01*
X-900226Y675487D01*
X-909980Y676351D01*
X-919784Y675487D01*
X-929284Y672947D01*
X-938174Y668782D01*
X-946251Y663194D01*
X-953211Y656234D01*
X-958799Y648157D01*
X-962964Y639267D01*
X-965504Y629767D01*
X-966368Y619963D01*
X-965504Y610209D01*
X-962964Y600710D01*
X-958799Y591820D01*
X-953211Y583742D01*
X-946251Y576783D01*
X-938174Y571195D01*
X-929284Y567029D01*
X-919784Y564489D01*
G37*
G36*
X618134Y601675D02*
G01*
X627938Y602945D01*
X637387Y605840D01*
X646226Y610311D01*
X654202Y616153D01*
X661060Y623316D01*
X666597Y631545D01*
X670661Y640537D01*
X673201Y650138D01*
X674014Y659993D01*
X673201Y669848D01*
X670661Y679450D01*
X666597Y688441D01*
X661060Y696671D01*
X654202Y703834D01*
X646226Y709676D01*
X637387Y714146D01*
X627938Y717042D01*
X618134Y718312D01*
X608228Y717905D01*
X598576Y715822D01*
X589381Y712114D01*
X580948Y706932D01*
X573481Y700379D01*
X567283Y692658D01*
X562457Y684022D01*
X559155Y674725D01*
X557479Y664921D01*
X557479Y655066D01*
X559155Y645261D01*
X562457Y635965D01*
X567283Y627329D01*
X573481Y619607D01*
X580948Y613054D01*
X589381Y607872D01*
X598576Y604164D01*
X608228Y602081D01*
G37*
G36*
X-2757678Y607568D02*
G01*
X-2747924Y608431D01*
X-2738424Y610971D01*
X-2729484Y615137D01*
X-2721457Y620776D01*
X-2714498Y627735D01*
X-2708859Y635812D01*
X-2704693Y644702D01*
X-2702153Y654202D01*
X-2701290Y664006D01*
X-2702153Y673811D01*
X-2704693Y683310D01*
X-2707132Y688594D01*
X-2708097Y692607D01*
X-2707386Y696671D01*
X-2705150Y700074D01*
X-2701493Y703732D01*
X-2695854Y711809D01*
X-2691688Y720699D01*
X-2689148Y730199D01*
X-2688285Y740003D01*
X-2689148Y749808D01*
X-2691688Y759307D01*
X-2695854Y768197D01*
X-2700020Y774192D01*
X-2701645Y777951D01*
X-2701645Y782066D01*
X-2700020Y785825D01*
X-2695854Y791768D01*
X-2691688Y800709D01*
X-2689148Y810209D01*
X-2688285Y819962D01*
X-2689148Y829767D01*
X-2691688Y839266D01*
X-2695854Y848207D01*
X-2701493Y856234D01*
X-2708452Y863193D01*
X-2713380Y866648D01*
X-2716072Y869442D01*
X-2717495Y873048D01*
X-2717495Y876909D01*
X-2716072Y880516D01*
X-2713380Y883310D01*
X-2708452Y886764D01*
X-2701493Y893724D01*
X-2695854Y901801D01*
X-2691688Y910691D01*
X-2689148Y920191D01*
X-2688285Y929995D01*
X-2689148Y939800D01*
X-2691688Y949299D01*
X-2695854Y958189D01*
X-2701493Y966266D01*
X-2708452Y973226D01*
X-2716479Y978865D01*
X-2725420Y983030D01*
X-2734919Y985570D01*
X-2744724Y986434D01*
X-2754477Y985570D01*
X-2763977Y983030D01*
X-2772918Y978865D01*
X-2780944Y973226D01*
X-2787904Y966266D01*
X-2793542Y958189D01*
X-2797708Y949299D01*
X-2800248Y939800D01*
X-2801112Y929995D01*
X-2800248Y920191D01*
X-2797708Y910691D01*
X-2793542Y901801D01*
X-2787904Y893724D01*
X-2780944Y886764D01*
X-2776016Y883310D01*
X-2773324Y880516D01*
X-2771902Y876909D01*
X-2771902Y873048D01*
X-2773324Y869442D01*
X-2776016Y866648D01*
X-2780944Y863193D01*
X-2787904Y856234D01*
X-2793542Y848207D01*
X-2797708Y839266D01*
X-2800248Y829767D01*
X-2801112Y819962D01*
X-2800248Y810209D01*
X-2797708Y800709D01*
X-2793542Y791768D01*
X-2789377Y785825D01*
X-2787751Y782066D01*
X-2787751Y777951D01*
X-2789377Y774192D01*
X-2793542Y768197D01*
X-2797708Y759307D01*
X-2800248Y749808D01*
X-2801112Y740003D01*
X-2800248Y730199D01*
X-2797708Y720699D01*
X-2795270Y715416D01*
X-2794304Y711403D01*
X-2795016Y707339D01*
X-2797251Y703935D01*
X-2800908Y700278D01*
X-2806547Y692200D01*
X-2810713Y683310D01*
X-2813253Y673811D01*
X-2814116Y664006D01*
X-2813253Y654202D01*
X-2810713Y644702D01*
X-2806547Y635812D01*
X-2800908Y627735D01*
X-2793949Y620776D01*
X-2785922Y615137D01*
X-2776982Y610971D01*
X-2767482Y608431D01*
G37*
G36*
X-2274722Y613613D02*
G01*
X-2264918Y614476D01*
X-2255418Y617016D01*
X-2246528Y621182D01*
X-2238502Y626821D01*
X-2231542Y633780D01*
X-2225903Y641807D01*
X-2221738Y650697D01*
X-2219198Y660196D01*
X-2218334Y670001D01*
X-2219198Y679805D01*
X-2221738Y689305D01*
X-2225903Y698195D01*
X-2231542Y706221D01*
X-2238502Y713181D01*
X-2246528Y718820D01*
X-2255418Y722985D01*
X-2264918Y725525D01*
X-2274722Y726389D01*
X-2284526Y725525D01*
X-2294026Y722985D01*
X-2302916Y718820D01*
X-2310942Y713181D01*
X-2317902Y706221D01*
X-2323541Y698195D01*
X-2327706Y689305D01*
X-2330246Y679805D01*
X-2331110Y670001D01*
X-2330246Y660196D01*
X-2327706Y650697D01*
X-2323541Y641807D01*
X-2317902Y633780D01*
X-2310942Y626821D01*
X-2302916Y621182D01*
X-2294026Y617016D01*
X-2284526Y614476D01*
G37*
G36*
X792226Y656590D02*
G01*
X871474Y656590D01*
X884072Y657504D01*
X896061Y660095D01*
X907542Y664362D01*
X918260Y670255D01*
X928065Y677570D01*
X936752Y686257D01*
X944118Y696061D01*
X949960Y706831D01*
X954227Y718312D01*
X956868Y730300D01*
X957732Y742492D01*
X956868Y754735D01*
X954227Y766673D01*
X949960Y778154D01*
X944118Y788924D01*
X936752Y798728D01*
X928065Y807415D01*
X918260Y814730D01*
X907542Y820623D01*
X896061Y824890D01*
X884072Y827481D01*
X871474Y828395D01*
X792226Y828395D01*
X779627Y827481D01*
X767638Y824890D01*
X756158Y820623D01*
X745439Y814730D01*
X735584Y807415D01*
X726948Y798728D01*
X719582Y788924D01*
X713740Y778154D01*
X709422Y766673D01*
X706831Y754735D01*
X705967Y742492D01*
X706831Y730300D01*
X709422Y718312D01*
X713740Y706831D01*
X719582Y696061D01*
X726948Y686257D01*
X735584Y677570D01*
X745439Y670255D01*
X756158Y664362D01*
X767638Y660095D01*
X779627Y657504D01*
G37*
G36*
X-410006Y703580D02*
G01*
X-400202Y704443D01*
X-390702Y706983D01*
X-381812Y711149D01*
X-373735Y716788D01*
X-366776Y723747D01*
X-361137Y731774D01*
X-356971Y740714D01*
X-354431Y750214D01*
X-353568Y759968D01*
X-354431Y769772D01*
X-356971Y779272D01*
X-361137Y788212D01*
X-366776Y796239D01*
X-373735Y803198D01*
X-381812Y808837D01*
X-390702Y813003D01*
X-400202Y815543D01*
X-410006Y816406D01*
X-419811Y815543D01*
X-429310Y813003D01*
X-438200Y808837D01*
X-446278Y803198D01*
X-453237Y796239D01*
X-458876Y788212D01*
X-463042Y779272D01*
X-465582Y769772D01*
X-466445Y759968D01*
X-465582Y750214D01*
X-463042Y740714D01*
X-458876Y731774D01*
X-453237Y723747D01*
X-446278Y716788D01*
X-438200Y711149D01*
X-429310Y706983D01*
X-419811Y704443D01*
G37*
G36*
X-729996Y703580D02*
G01*
X-720191Y704443D01*
X-710692Y706983D01*
X-701802Y711149D01*
X-693724Y716788D01*
X-686765Y723747D01*
X-681126Y731774D01*
X-676960Y740714D01*
X-674420Y750214D01*
X-673557Y759968D01*
X-674420Y769772D01*
X-676960Y779272D01*
X-681126Y788212D01*
X-686765Y796239D01*
X-693724Y803198D01*
X-701802Y808837D01*
X-710692Y813003D01*
X-720191Y815543D01*
X-729996Y816406D01*
X-739800Y815543D01*
X-749300Y813003D01*
X-758190Y808837D01*
X-766267Y803198D01*
X-773226Y796239D01*
X-778865Y788212D01*
X-783031Y779272D01*
X-785571Y769772D01*
X-786434Y759968D01*
X-785571Y750214D01*
X-783031Y740714D01*
X-778865Y731774D01*
X-773226Y723747D01*
X-766267Y716788D01*
X-758190Y711149D01*
X-749300Y706983D01*
X-739800Y704443D01*
G37*
G36*
X-1804670Y733602D02*
G01*
X-1794916Y734466D01*
X-1785416Y737006D01*
X-1776475Y741172D01*
X-1768449Y746810D01*
X-1761489Y753770D01*
X-1755851Y761796D01*
X-1751685Y770737D01*
X-1749145Y780237D01*
X-1748282Y789990D01*
X-1749145Y799795D01*
X-1751177Y807516D01*
X-1751482Y811022D01*
X-1750568Y814425D01*
X-1748536Y817321D01*
X-1745691Y819353D01*
X-1741779Y821131D01*
X-1733753Y826769D01*
X-1726793Y833729D01*
X-1721154Y841806D01*
X-1716989Y850696D01*
X-1714449Y860196D01*
X-1713585Y870000D01*
X-1714449Y879805D01*
X-1716989Y889304D01*
X-1721154Y898194D01*
X-1726793Y906271D01*
X-1733753Y913231D01*
X-1741779Y918870D01*
X-1750720Y923036D01*
X-1758797Y925169D01*
X-1762709Y927201D01*
X-1765350Y930706D01*
X-1766316Y934974D01*
X-1765350Y939292D01*
X-1762709Y942797D01*
X-1758797Y944829D01*
X-1750720Y946962D01*
X-1741779Y951128D01*
X-1733753Y956767D01*
X-1726793Y963726D01*
X-1721154Y971803D01*
X-1716989Y980694D01*
X-1713280Y995171D01*
X-1710893Y998219D01*
X-1707489Y1000150D01*
X-1703679Y1000709D01*
X-1699920Y999744D01*
X-1693976Y997000D01*
X-1684477Y994460D01*
X-1674672Y993597D01*
X-1664919Y994460D01*
X-1655419Y997000D01*
X-1646478Y1001166D01*
X-1638452Y1006805D01*
X-1631492Y1013764D01*
X-1625854Y1021791D01*
X-1621688Y1030732D01*
X-1619148Y1040231D01*
X-1618284Y1049985D01*
X-1619148Y1059789D01*
X-1621688Y1069289D01*
X-1625854Y1078230D01*
X-1631492Y1086256D01*
X-1638452Y1093216D01*
X-1646478Y1098854D01*
X-1655419Y1103020D01*
X-1664919Y1105560D01*
X-1674672Y1106424D01*
X-1684477Y1105560D01*
X-1693976Y1103020D01*
X-1702917Y1098854D01*
X-1710943Y1093216D01*
X-1717903Y1086256D01*
X-1723542Y1078230D01*
X-1727707Y1069289D01*
X-1731416Y1054862D01*
X-1733804Y1051814D01*
X-1737207Y1049832D01*
X-1741017Y1049324D01*
X-1744776Y1050239D01*
X-1750720Y1053033D01*
X-1760220Y1055573D01*
X-1769973Y1056436D01*
X-1779778Y1055573D01*
X-1789277Y1053033D01*
X-1798218Y1048867D01*
X-1806244Y1043228D01*
X-1813204Y1036269D01*
X-1818843Y1028192D01*
X-1823008Y1019302D01*
X-1825548Y1009802D01*
X-1826412Y999998D01*
X-1825548Y990193D01*
X-1823008Y980694D01*
X-1818843Y971803D01*
X-1813204Y963726D01*
X-1806244Y956767D01*
X-1798218Y951128D01*
X-1789277Y946962D01*
X-1781200Y944829D01*
X-1777288Y942797D01*
X-1774647Y939292D01*
X-1773682Y934974D01*
X-1774647Y930706D01*
X-1777288Y927201D01*
X-1781200Y925169D01*
X-1789277Y923036D01*
X-1798218Y918870D01*
X-1806244Y913231D01*
X-1813204Y906271D01*
X-1818843Y898194D01*
X-1823008Y889304D01*
X-1825548Y879805D01*
X-1826412Y870000D01*
X-1825548Y860196D01*
X-1823516Y852525D01*
X-1823212Y849020D01*
X-1824126Y845616D01*
X-1826158Y842721D01*
X-1829003Y840689D01*
X-1832914Y838860D01*
X-1840941Y833221D01*
X-1847900Y826262D01*
X-1853539Y818235D01*
X-1857705Y809294D01*
X-1860245Y799795D01*
X-1861108Y789990D01*
X-1860245Y780237D01*
X-1857705Y770737D01*
X-1853539Y761796D01*
X-1847900Y753770D01*
X-1840941Y746810D01*
X-1832914Y741172D01*
X-1823974Y737006D01*
X-1814474Y734466D01*
G37*
G36*
X295300Y753567D02*
G01*
X305104Y754430D01*
X314604Y756970D01*
X323494Y761136D01*
X331571Y766775D01*
X338531Y773734D01*
X344170Y781812D01*
X348335Y790702D01*
X350875Y800201D01*
X351739Y810006D01*
X350875Y819810D01*
X348335Y829310D01*
X344170Y838200D01*
X338531Y846277D01*
X331571Y853236D01*
X323494Y858875D01*
X314604Y863041D01*
X305104Y865581D01*
X295300Y866444D01*
X285496Y865581D01*
X275996Y863041D01*
X267106Y858875D01*
X259029Y853236D01*
X252069Y846277D01*
X246430Y838200D01*
X242265Y829310D01*
X239725Y819810D01*
X238861Y810006D01*
X239725Y800201D01*
X242265Y790702D01*
X246430Y781812D01*
X252069Y773734D01*
X259029Y766775D01*
X267106Y761136D01*
X275996Y756970D01*
X285496Y754430D01*
G37*
G36*
X-1489964Y803554D02*
G01*
X-1480210Y804418D01*
X-1470710Y806958D01*
X-1461770Y811123D01*
X-1453743Y816762D01*
X-1446784Y823721D01*
X-1441145Y831799D01*
X-1436979Y840689D01*
X-1434439Y850188D01*
X-1433576Y859993D01*
X-1434439Y869797D01*
X-1436979Y879246D01*
X-1441704Y889304D01*
X-1442669Y893318D01*
X-1441958Y897382D01*
X-1439722Y900836D01*
X-1436776Y903732D01*
X-1431137Y911809D01*
X-1426972Y920699D01*
X-1424432Y930198D01*
X-1423568Y940003D01*
X-1424432Y949807D01*
X-1426972Y959307D01*
X-1431137Y968197D01*
X-1436776Y976274D01*
X-1443736Y983234D01*
X-1451813Y988872D01*
X-1460703Y993038D01*
X-1470202Y995578D01*
X-1480007Y996442D01*
X-1489811Y995578D01*
X-1499311Y993038D01*
X-1508201Y988872D01*
X-1516278Y983234D01*
X-1523238Y976274D01*
X-1528876Y968197D01*
X-1533042Y959307D01*
X-1535582Y949807D01*
X-1536446Y940003D01*
X-1535582Y930198D01*
X-1533042Y920750D01*
X-1528267Y910691D01*
X-1527302Y906678D01*
X-1528013Y902614D01*
X-1530299Y899160D01*
X-1533194Y896264D01*
X-1538833Y888187D01*
X-1542999Y879297D01*
X-1545539Y869797D01*
X-1546402Y859993D01*
X-1545539Y850188D01*
X-1542999Y840689D01*
X-1538833Y831799D01*
X-1533194Y823721D01*
X-1526235Y816762D01*
X-1518208Y811123D01*
X-1509268Y806958D01*
X-1499768Y804418D01*
G37*
G36*
X-899972Y833628D02*
G01*
X-890219Y834491D01*
X-880719Y837031D01*
X-871829Y841197D01*
X-863752Y846785D01*
X-856792Y853744D01*
X-851204Y861821D01*
X-847039Y870712D01*
X-844499Y880211D01*
X-843635Y889965D01*
X-844499Y899769D01*
X-847039Y909269D01*
X-851204Y918159D01*
X-856792Y926236D01*
X-863752Y933196D01*
X-871829Y938784D01*
X-880719Y942949D01*
X-890219Y945489D01*
X-899972Y946353D01*
X-909777Y945489D01*
X-919276Y942949D01*
X-928166Y938784D01*
X-936244Y933196D01*
X-943203Y926236D01*
X-948791Y918159D01*
X-952957Y909269D01*
X-955497Y899769D01*
X-956360Y889965D01*
X-955497Y880211D01*
X-952957Y870712D01*
X-948791Y861821D01*
X-943203Y853744D01*
X-936244Y846785D01*
X-928166Y841197D01*
X-919276Y837031D01*
X-909777Y834491D01*
G37*

%LPD*%
D10*
G01*
X831850Y177495D03*
G01*
X831850Y742492D03*
D11*
G01*
X742289Y-492988D03*
D12*
G01*
X742289Y-238988D03*
D13*
G01*
X-864615Y-543940D03*
G01*
X-864615Y-289940D03*
D14*
G01*
X-864615Y-35940D03*
G01*
X-1233703Y-629996D03*
D13*
G01*
X-1487703Y-630021D03*
G01*
X-1741703Y-630021D03*
G01*
X-1995703Y-630021D03*
D15*
G01*
X59994Y-70002D03*
G01*
X575284Y-529996D03*
D16*
G01*
X195300Y-340004D03*
D15*
G01*
X-110007Y189992D03*
G01*
X-1667713Y453999D03*
G01*
X-1807718Y494004D03*
G01*
X-559993Y359994D03*
G01*
X-1697710Y364007D03*
G01*
X-929995Y429996D03*
G01*
X-1317701Y564006D03*
G01*
X-1237716Y553999D03*
G01*
X-1157706Y494004D03*
G01*
X372287Y383997D03*
G01*
X372287Y464007D03*
G01*
X295300Y810006D03*
G01*
X-1137716Y243992D03*
G01*
X-989990Y659993D03*
G01*
X-340004Y-510006D03*
G01*
X295300Y80010D03*
G01*
X-4698Y810006D03*
G01*
X192303Y294005D03*
G01*
X745286Y-50012D03*
G01*
X-1674698Y1050010D03*
G01*
X-1804695Y790016D03*
G01*
X-729995Y759993D03*
G01*
X-1447698Y543991D03*
G01*
X-1489989Y859993D03*
G01*
X-1480007Y940003D03*
D16*
G01*
X-2024710Y-70002D03*
G01*
X-2757703Y464007D03*
G01*
X-1614703Y229997D03*
G01*
X-1864715Y220014D03*
D17*
G01*
X-1994712Y-430021D03*
D16*
G01*
X-2274722Y670001D03*
D15*
G01*
X-2744698Y740003D03*
G01*
X-2744698Y819988D03*
D16*
G01*
X-2404694Y229997D03*
G01*
X-2624709Y329996D03*
D18*
G01*
X-2214702Y140004D03*
D16*
G01*
X-1524711Y0D03*
G01*
X-1514703Y229997D03*
G01*
X-2644698Y159994D03*
G01*
X-2624709Y999997D03*
G01*
X-2757703Y543991D03*
G01*
X425297Y-510006D03*
G01*
X-1804695Y699998D03*
D15*
G01*
X-1054709Y-600024D03*
D16*
G01*
X-1834692Y359994D03*
G01*
X-1074699Y0D03*
D15*
G01*
X-1324711Y209981D03*
G01*
X-1224711Y199999D03*
G01*
X-1664715Y-140004D03*
G01*
X-1674698Y-50012D03*
G01*
X-1874697Y-50012D03*
G01*
X-1874697Y-140004D03*
G01*
X-2757703Y664006D03*
G01*
X-2744698Y929995D03*
D16*
G01*
X-1044702Y119989D03*
D15*
G01*
X-410006Y759993D03*
D16*
G01*
X-899998Y889990D03*
G01*
X-910005Y619988D03*
D15*
G01*
X-1769998Y870000D03*
G01*
X-1769998Y999997D03*
M02*
