G04 Layer: BottomSilkscreenLayer*
G04 EasyEDA v6.5.14, 2022-08-24 17:06:53*
G04 77cd11f6e3b44a54979dfea80d6f7020,401f954c81374b6587e5d63e119e93f9,10*
G04 Gerber Generator version 0.2*
G04 Scale: 100 percent, Rotated: No, Reflected: No *
G04 Dimensions in millimeters *
G04 leading zeros omitted , absolute positions ,4 integer and 5 decimal *
%FSLAX45Y45*%
%MOMM*%

%ADD10C,0.1000*%
%ADD11C,0.1524*%

%LPD*%
G36*
X214985Y684326D02*
G01*
X204317Y684072D01*
X193649Y683412D01*
X186385Y682447D01*
X178816Y680364D01*
X171653Y677926D01*
X164896Y675081D01*
X158496Y671728D01*
X152349Y667969D01*
X146405Y663651D01*
X140665Y658825D01*
X134975Y653389D01*
X127152Y645414D01*
X105867Y644702D01*
X100939Y644296D01*
X97434Y643686D01*
X94538Y642670D01*
X88900Y640130D01*
X83820Y637235D01*
X79197Y633882D01*
X75082Y630123D01*
X71424Y625906D01*
X68224Y621233D01*
X65481Y616102D01*
X63093Y610412D01*
X62331Y607415D01*
X61874Y602488D01*
X61671Y580288D01*
X71424Y580288D01*
X71475Y592480D01*
X71729Y599846D01*
X72237Y604316D01*
X73202Y607822D01*
X75285Y612902D01*
X77876Y617474D01*
X81026Y621639D01*
X84683Y625297D01*
X88798Y628396D01*
X93421Y630986D01*
X98450Y633069D01*
X103936Y634542D01*
X111252Y635254D01*
X123139Y635711D01*
X137363Y635863D01*
X151485Y635660D01*
X163220Y635203D01*
X170180Y634492D01*
X178765Y631342D01*
X186486Y626465D01*
X192989Y620014D01*
X197967Y612292D01*
X198672Y610870D01*
X226821Y610870D01*
X228244Y614527D01*
X231444Y616966D01*
X235051Y617728D01*
X238556Y617524D01*
X241554Y616508D01*
X243789Y614629D01*
X244518Y612952D01*
X252933Y612952D01*
X252984Y613765D01*
X254000Y614222D01*
X261467Y614476D01*
X270408Y614476D01*
X274472Y589584D01*
X275386Y582777D01*
X276250Y578358D01*
X276555Y577697D01*
X277164Y579323D01*
X278892Y590600D01*
X283413Y613765D01*
X285750Y614273D01*
X299415Y614476D01*
X301498Y605891D01*
X307035Y577088D01*
X312775Y614476D01*
X327202Y614375D01*
X329844Y613765D01*
X330403Y612038D01*
X315671Y550367D01*
X303631Y550418D01*
X301142Y550621D01*
X299821Y551078D01*
X299262Y551840D01*
X297789Y558038D01*
X293674Y580085D01*
X292760Y587400D01*
X292303Y588619D01*
X291947Y588822D01*
X291338Y588060D01*
X290880Y583285D01*
X286004Y558495D01*
X284226Y550367D01*
X268071Y550367D01*
X252933Y612952D01*
X244518Y612952D01*
X244805Y612292D01*
X244906Y609498D01*
X244195Y606755D01*
X242671Y604570D01*
X240029Y603097D01*
X236575Y602437D01*
X233019Y602691D01*
X230022Y603808D01*
X227380Y606958D01*
X226821Y610870D01*
X198672Y610870D01*
X200914Y606348D01*
X201144Y596493D01*
X244094Y596493D01*
X244094Y550367D01*
X227838Y550367D01*
X227838Y596493D01*
X201144Y596493D01*
X201777Y572770D01*
X202590Y557784D01*
X202996Y554228D01*
X204927Y548182D01*
X207924Y541832D01*
X211734Y535889D01*
X215900Y530860D01*
X221183Y525526D01*
X101803Y525983D01*
X96824Y528015D01*
X89001Y532180D01*
X82346Y537870D01*
X76962Y544830D01*
X73253Y552704D01*
X72288Y556209D01*
X71729Y560679D01*
X71475Y568045D01*
X71424Y580288D01*
X61671Y580288D01*
X61925Y556463D01*
X62484Y551891D01*
X63550Y548741D01*
X65989Y543356D01*
X68935Y538378D01*
X72237Y533857D01*
X75946Y529742D01*
X80060Y526135D01*
X84582Y522935D01*
X89408Y520242D01*
X94640Y518058D01*
X98450Y516839D01*
X102311Y516077D01*
X115874Y515467D01*
X130860Y515162D01*
X140716Y505459D01*
X145897Y501142D01*
X151282Y497281D01*
X156870Y493725D01*
X162712Y490626D01*
X168757Y487934D01*
X174955Y485597D01*
X181356Y483666D01*
X187909Y482193D01*
X194614Y481126D01*
X201422Y480466D01*
X208432Y480263D01*
X217728Y480517D01*
X225856Y481431D01*
X233629Y483057D01*
X241960Y485597D01*
X247396Y487578D01*
X252526Y489813D01*
X257403Y492251D01*
X262077Y494944D01*
X266649Y497992D01*
X271170Y501396D01*
X280466Y509524D01*
X286512Y515315D01*
X299872Y515315D01*
X311150Y515620D01*
X319532Y516890D01*
X326593Y519379D01*
X333857Y523493D01*
X340664Y528726D01*
X346405Y534924D01*
X350977Y542086D01*
X354533Y550265D01*
X355600Y553923D01*
X356209Y558596D01*
X356463Y580288D01*
X356209Y601370D01*
X355701Y606044D01*
X354888Y609346D01*
X352552Y615137D01*
X349758Y620471D01*
X346506Y625398D01*
X342798Y629818D01*
X338683Y633780D01*
X334111Y637184D01*
X329184Y640080D01*
X323900Y642416D01*
X320344Y643636D01*
X316636Y644347D01*
X311505Y644753D01*
X289356Y645414D01*
X285394Y650087D01*
X277723Y657707D01*
X272897Y661974D01*
X268427Y665581D01*
X264312Y668274D01*
X258571Y671525D01*
X252425Y674674D01*
X246989Y677113D01*
X241147Y679246D01*
X234492Y681228D01*
X227939Y682904D01*
X222300Y684022D01*
G37*
G36*
X57759Y640943D02*
G01*
X57150Y640588D01*
X56896Y639673D01*
X57150Y638759D01*
X57759Y638403D01*
X58369Y638759D01*
X58623Y639673D01*
X58369Y640588D01*
G37*
G36*
X104698Y618642D02*
G01*
X102158Y618388D01*
X99669Y617474D01*
X95250Y613054D01*
X94945Y607822D01*
X98094Y603453D01*
X104292Y601624D01*
X110591Y603351D01*
X113893Y607415D01*
X113741Y612495D01*
X109626Y617067D01*
X107187Y618185D01*
G37*
G36*
X122732Y614476D02*
G01*
X122732Y599084D01*
X161188Y599084D01*
X161188Y585419D01*
X127000Y585419D01*
X127000Y569163D01*
X161188Y569163D01*
X161188Y549503D01*
X179984Y549503D01*
X179984Y614476D01*
G37*
G36*
X96215Y597357D02*
G01*
X96215Y549503D01*
X113334Y549503D01*
X113334Y597357D01*
G37*
G36*
X-97028Y673709D02*
G01*
X-103174Y673608D01*
X-109321Y673049D01*
X-115366Y672134D01*
X-121361Y670814D01*
X-127304Y669137D01*
X-133096Y667105D01*
X-138734Y664718D01*
X-144221Y661974D01*
X-149555Y658926D01*
X-154736Y655523D01*
X-159664Y651814D01*
X-164388Y647852D01*
X-168808Y643585D01*
X-173024Y639013D01*
X-176936Y634187D01*
X-180594Y629107D01*
X-183845Y623773D01*
X-186842Y618185D01*
X-191820Y606958D01*
X-193598Y601878D01*
X-194919Y596900D01*
X-195884Y591820D01*
X-196494Y586486D01*
X-196850Y580593D01*
X-196850Y567740D01*
X-196545Y562051D01*
X-195986Y556869D01*
X-195122Y551942D01*
X-194005Y547268D01*
X-192512Y542594D01*
X-140309Y542594D01*
X-139192Y544372D01*
X-131521Y552856D01*
X-120396Y564184D01*
X-112725Y572363D01*
X-111607Y573938D01*
X-115824Y578967D01*
X-136093Y600202D01*
X-139192Y603808D01*
X-140309Y605536D01*
X-138988Y607466D01*
X-129997Y617270D01*
X-116179Y631088D01*
X-110439Y636371D01*
X-106426Y639673D01*
X-104343Y640842D01*
X-101600Y640181D01*
X-100126Y636676D01*
X-99568Y627938D01*
X-99466Y585063D01*
X-72491Y611835D01*
X-66294Y617575D01*
X-62179Y620979D01*
X-59994Y622046D01*
X-57912Y621436D01*
X-56388Y619912D01*
X-55778Y617829D01*
X-56235Y615696D01*
X-62839Y608482D01*
X-97231Y574040D01*
X-68072Y544728D01*
X-56896Y533044D01*
X-55270Y531063D01*
X-55575Y529844D01*
X-56388Y528066D01*
X-58623Y525983D01*
X-62484Y527405D01*
X-69443Y533247D01*
X-99466Y562914D01*
X-99568Y519480D01*
X-100279Y510590D01*
X-102006Y507390D01*
X-105257Y507542D01*
X-107594Y509168D01*
X-112014Y513029D01*
X-123901Y524510D01*
X-135280Y536295D01*
X-138938Y540461D01*
X-140309Y542594D01*
X-192512Y542594D01*
X-188518Y532942D01*
X-183032Y522681D01*
X-180035Y517956D01*
X-176885Y513486D01*
X-173482Y509270D01*
X-169926Y505307D01*
X-166116Y501548D01*
X-162102Y497992D01*
X-153263Y491439D01*
X-148437Y488442D01*
X-143357Y485597D01*
X-138277Y483108D01*
X-133096Y480923D01*
X-127863Y479043D01*
X-122529Y477469D01*
X-111760Y475284D01*
X-100888Y474319D01*
X-95402Y474319D01*
X-89966Y474573D01*
X-84531Y475183D01*
X-79146Y476046D01*
X-73812Y477266D01*
X-68478Y478790D01*
X-63246Y480568D01*
X-58115Y482650D01*
X-53035Y485089D01*
X-48056Y487781D01*
X-43180Y490778D01*
X-38455Y494080D01*
X-34086Y497535D01*
X-29870Y501243D01*
X-25857Y505206D01*
X-22098Y509422D01*
X-18542Y513842D01*
X-15189Y518515D01*
X-12141Y523341D01*
X-9347Y528320D01*
X-6807Y533450D01*
X-4572Y538734D01*
X-2641Y544169D01*
X-965Y549706D01*
X101Y554888D01*
X914Y560832D01*
X1371Y567283D01*
X1524Y573989D01*
X1371Y580694D01*
X914Y587146D01*
X101Y593140D01*
X-965Y598322D01*
X-3098Y605282D01*
X-5740Y612038D01*
X-8788Y618540D01*
X-12293Y624840D01*
X-16205Y630834D01*
X-20523Y636524D01*
X-25196Y641908D01*
X-30276Y646938D01*
X-35610Y651560D01*
X-41351Y655828D01*
X-47345Y659638D01*
X-53593Y663041D01*
X-61467Y666648D01*
X-68834Y669340D01*
X-76352Y671271D01*
X-84632Y672795D01*
X-90830Y673455D01*
G37*
G36*
X-109372Y624789D02*
G01*
X-128727Y605485D01*
X-109372Y586181D01*
G37*
G36*
X-109372Y561848D02*
G01*
X-128727Y542493D01*
X-109372Y523189D01*
G37*
G36*
X186690Y984351D02*
G01*
X177800Y983996D01*
X168554Y983081D01*
X161950Y981913D01*
X158597Y980795D01*
X156768Y979830D01*
X155956Y978611D01*
X155549Y976528D01*
X155549Y974039D01*
X156565Y970280D01*
X159054Y963828D01*
X172008Y933805D01*
X172008Y916940D01*
X171805Y913536D01*
X171399Y911809D01*
X170688Y911250D01*
X169468Y911707D01*
X168757Y914095D01*
X168351Y919226D01*
X168249Y940257D01*
X164338Y945642D01*
X162255Y949604D01*
X160985Y953160D01*
X159054Y957478D01*
X157073Y961288D01*
X155803Y964234D01*
X155549Y965453D01*
X154787Y966622D01*
X154076Y966469D01*
X152908Y964539D01*
X144678Y946556D01*
X141325Y940816D01*
X140716Y938377D01*
X140462Y934059D01*
X140411Y913282D01*
X137109Y912164D01*
X133858Y910336D01*
X130911Y907389D01*
X128371Y903478D01*
X126578Y899464D01*
X316687Y899464D01*
X316738Y907237D01*
X317550Y920851D01*
X317957Y923137D01*
X318414Y924204D01*
X319125Y924458D01*
X326796Y923493D01*
X326796Y922680D01*
X337108Y922375D01*
X338785Y921054D01*
X339394Y917498D01*
X339445Y899464D01*
X330200Y899464D01*
X330200Y922680D01*
X326796Y922680D01*
X326796Y899464D01*
X126578Y899464D01*
X124663Y893368D01*
X123647Y887526D01*
X123291Y881481D01*
X123647Y875284D01*
X124460Y870051D01*
X125780Y864616D01*
X125476Y863092D01*
X124155Y861060D01*
X116484Y852119D01*
X106172Y851611D01*
X119278Y851611D01*
X127508Y860653D01*
X129692Y856538D01*
X131572Y854202D01*
X134366Y851560D01*
X134467Y850341D01*
X132740Y849782D01*
X129235Y849833D01*
X121615Y850950D01*
X119278Y851611D01*
X106172Y851611D01*
X104089Y850696D01*
X103022Y848207D01*
X101904Y841197D01*
X101955Y840079D01*
X102412Y839622D01*
X104394Y839368D01*
X104902Y838708D01*
X105003Y837234D01*
X104444Y831494D01*
X103632Y829259D01*
X101955Y826871D01*
X96436Y821131D01*
X112572Y821131D01*
X114249Y823518D01*
X114808Y824026D01*
X115112Y823874D01*
X114503Y822807D01*
X112572Y821131D01*
X96436Y821131D01*
X89211Y814374D01*
X105968Y814374D01*
X106273Y815086D01*
X109067Y818489D01*
X109931Y819200D01*
X109677Y818489D01*
X105968Y814374D01*
X89211Y814374D01*
X77571Y804316D01*
X63286Y792937D01*
X83820Y792937D01*
X87528Y797102D01*
X103784Y812901D01*
X102506Y811377D01*
X151485Y811377D01*
X151739Y812139D01*
X151942Y812241D01*
X152146Y811580D01*
X152095Y810209D01*
X151841Y809904D01*
X151485Y811377D01*
X102506Y811377D01*
X96316Y804621D01*
X87139Y795477D01*
X149910Y795477D01*
X149961Y799744D01*
X150317Y802843D01*
X151180Y807110D01*
X151130Y802843D01*
X150593Y798525D01*
X159105Y798525D01*
X159461Y802436D01*
X161036Y798626D01*
X162966Y795324D01*
X162814Y795070D01*
X161747Y795121D01*
X160477Y795528D01*
X159512Y796442D01*
X159105Y798525D01*
X150593Y798525D01*
X149910Y795477D01*
X87139Y795477D01*
X84023Y792784D01*
X83820Y792937D01*
X63286Y792937D01*
X55117Y787603D01*
X54152Y786638D01*
X53695Y785774D01*
X53797Y784860D01*
X54965Y784453D01*
X57912Y784402D01*
X110388Y787806D01*
X157937Y791464D01*
X161290Y792073D01*
X162560Y792683D01*
X163017Y793242D01*
X163728Y793292D01*
X169773Y790397D01*
X173583Y790295D01*
X177292Y791514D01*
X180492Y794054D01*
X182575Y797052D01*
X184302Y800760D01*
X185521Y804722D01*
X185978Y808278D01*
X185978Y810615D01*
X189941Y805281D01*
X215900Y809396D01*
X226466Y811377D01*
X229616Y807466D01*
X233273Y804265D01*
X237083Y803046D01*
X240944Y803554D01*
X244551Y805688D01*
X247751Y809193D01*
X250291Y813968D01*
X251967Y819810D01*
X252577Y826516D01*
X252628Y829513D01*
X252984Y831138D01*
X253949Y832002D01*
X257251Y833018D01*
X265836Y834644D01*
X266395Y830326D01*
X267817Y824280D01*
X270306Y818946D01*
X273608Y814933D01*
X277215Y812850D01*
X281686Y813104D01*
X285851Y815848D01*
X289306Y820572D01*
X291592Y826871D01*
X292557Y831291D01*
X294386Y826312D01*
X296418Y822858D01*
X298958Y819810D01*
X300329Y818845D01*
X301802Y818337D01*
X303631Y818235D01*
X308203Y819810D01*
X311861Y824230D01*
X314299Y830986D01*
X315315Y839622D01*
X315417Y843330D01*
X316382Y845261D01*
X319379Y846429D01*
X332028Y849071D01*
X335127Y850442D01*
X336042Y852982D01*
X336092Y865632D01*
X342849Y865632D01*
X343154Y904290D01*
X343509Y911606D01*
X343662Y921918D01*
X349402Y921003D01*
X350621Y921207D01*
X351485Y922223D01*
X352958Y925576D01*
X353618Y927963D01*
X317855Y934415D01*
X311556Y934974D01*
X303530Y935177D01*
X279857Y934923D01*
X273354Y935075D01*
X270611Y935583D01*
X267817Y938936D01*
X264261Y941324D01*
X260096Y943152D01*
X256540Y943914D01*
X253441Y943406D01*
X249936Y942086D01*
X246634Y940206D01*
X244094Y938072D01*
X243281Y936853D01*
X242824Y935228D01*
X242378Y926185D01*
X270306Y926185D01*
X270814Y927100D01*
X271983Y927506D01*
X272897Y927303D01*
X273405Y926592D01*
X273659Y921969D01*
X273253Y917448D01*
X272948Y917397D01*
X271272Y921512D01*
X270306Y926185D01*
X242378Y926185D01*
X242062Y923188D01*
X241452Y921105D01*
X238537Y915924D01*
X279603Y915924D01*
X279806Y926947D01*
X280162Y928014D01*
X280619Y928268D01*
X292883Y927506D01*
X307390Y927506D01*
X307390Y903325D01*
X300685Y903325D01*
X300685Y927506D01*
X292883Y927506D01*
X294741Y927404D01*
X294741Y915924D01*
X238537Y915924D01*
X238353Y915619D01*
X237185Y921969D01*
X236575Y924255D01*
X234797Y927455D01*
X230632Y932637D01*
X226567Y928014D01*
X225602Y927252D01*
X224942Y927150D01*
X220827Y931214D01*
X216408Y933043D01*
X211734Y933094D01*
X207619Y931164D01*
X205435Y929284D01*
X204266Y927506D01*
X203809Y924966D01*
X203606Y918260D01*
X202895Y913587D01*
X202387Y911961D01*
X201574Y910437D01*
X200660Y909574D01*
X199237Y909218D01*
X197053Y909116D01*
X193243Y909574D01*
X191211Y911301D01*
X190449Y915162D01*
X191211Y930859D01*
X204978Y962152D01*
X207568Y968654D01*
X208483Y972362D01*
X208381Y975207D01*
X207822Y979474D01*
X192278Y983996D01*
G37*
D10*
X2286Y808067D02*
G01*
X2286Y747455D01*
X2286Y808067D02*
G01*
X-35237Y808067D01*
X2286Y779205D02*
G01*
X-20805Y779205D01*
X2286Y747455D02*
G01*
X-35237Y747455D01*
X-94696Y799409D02*
G01*
X-88922Y805182D01*
X-80263Y808067D01*
X-68719Y808067D01*
X-60058Y805182D01*
X-54287Y799409D01*
X-54287Y793635D01*
X-57172Y787864D01*
X-60058Y784976D01*
X-65831Y782091D01*
X-83149Y776317D01*
X-88922Y773432D01*
X-91808Y770547D01*
X-94696Y764773D01*
X-94696Y756114D01*
X-88922Y750341D01*
X-80263Y747455D01*
X-68719Y747455D01*
X-60058Y750341D01*
X-54287Y756114D01*
X-113746Y808067D02*
G01*
X-113746Y747455D01*
X-113746Y808067D02*
G01*
X-139722Y808067D01*
X-148381Y805182D01*
X-151269Y802297D01*
X-154155Y796523D01*
X-154155Y787864D01*
X-151269Y782091D01*
X-148381Y779205D01*
X-139722Y776317D01*
X-113746Y776317D01*
X-178978Y808067D02*
G01*
X-210728Y808067D01*
X-193408Y784976D01*
X-202069Y784976D01*
X-207840Y782091D01*
X-210728Y779205D01*
X-213613Y770547D01*
X-213613Y764773D01*
X-210728Y756114D01*
X-204955Y750341D01*
X-196296Y747455D01*
X-187637Y747455D01*
X-178978Y750341D01*
X-176090Y753226D01*
X-173205Y759000D01*
X-235549Y793635D02*
G01*
X-235549Y796523D01*
X-238437Y802297D01*
X-241322Y805182D01*
X-247096Y808067D01*
X-258640Y808067D01*
X-264413Y805182D01*
X-267299Y802297D01*
X-270187Y796523D01*
X-270187Y790750D01*
X-267299Y784976D01*
X-261528Y776317D01*
X-232663Y747455D01*
X-273072Y747455D01*
X-332531Y799409D02*
G01*
X-326758Y805182D01*
X-318099Y808067D01*
X-306555Y808067D01*
X-297896Y805182D01*
X-292122Y799409D01*
X-292122Y793635D01*
X-295008Y787864D01*
X-297896Y784976D01*
X-303669Y782091D01*
X-320987Y776317D01*
X-326758Y773432D01*
X-329646Y770547D01*
X-332531Y764773D01*
X-332531Y756114D01*
X-326758Y750341D01*
X-318099Y747455D01*
X-306555Y747455D01*
X-297896Y750341D01*
X-292122Y756114D01*
X-360240Y808067D02*
G01*
X-360240Y759000D01*
X-363128Y750341D01*
X-368899Y747455D01*
X-374672Y747455D01*
X-351581Y787864D02*
G01*
X-371787Y787864D01*
X-428358Y787864D02*
G01*
X-428358Y747455D01*
X-428358Y779205D02*
G01*
X-422587Y784976D01*
X-416813Y787864D01*
X-408155Y787864D01*
X-402381Y784976D01*
X-396608Y779205D01*
X-393722Y770547D01*
X-393722Y764773D01*
X-396608Y756114D01*
X-402381Y750341D01*
X-408155Y747455D01*
X-416813Y747455D01*
X-422587Y750341D01*
X-428358Y756114D01*
X-456069Y808067D02*
G01*
X-456069Y759000D01*
X-458955Y750341D01*
X-464728Y747455D01*
X-470499Y747455D01*
X-447408Y787864D02*
G01*
X-467613Y787864D01*
X-533999Y808067D02*
G01*
X-533999Y747455D01*
X-533999Y808067D02*
G01*
X-559978Y808067D01*
X-568637Y805182D01*
X-571522Y802297D01*
X-574408Y796523D01*
X-574408Y790750D01*
X-571522Y784976D01*
X-568637Y782091D01*
X-559978Y779205D01*
X-533999Y779205D01*
X-554205Y779205D02*
G01*
X-574408Y747455D01*
X-599231Y808067D02*
G01*
X-630981Y808067D01*
X-613663Y784976D01*
X-622322Y784976D01*
X-628096Y782091D01*
X-630981Y779205D01*
X-633869Y770547D01*
X-633869Y764773D01*
X-630981Y756114D01*
X-625208Y750341D01*
X-616549Y747455D01*
X-607890Y747455D01*
X-599231Y750341D01*
X-596346Y753226D01*
X-593458Y759000D01*
X-655805Y761885D02*
G01*
X-652919Y759000D01*
X-655805Y756114D01*
X-658690Y759000D01*
X-655805Y761885D01*
X-712378Y808067D02*
G01*
X-683513Y808067D01*
X-680628Y782091D01*
X-683513Y784976D01*
X-692172Y787864D01*
X-700831Y787864D01*
X-709490Y784976D01*
X-715263Y779205D01*
X-718149Y770547D01*
X-718149Y764773D01*
X-715263Y756114D01*
X-709490Y750341D01*
X-700831Y747455D01*
X-692172Y747455D01*
X-683513Y750341D01*
X-680628Y753226D01*
X-677740Y759000D01*
D11*
X12263Y1005387D02*
G01*
X12263Y862131D01*
X12263Y1005387D02*
G01*
X-49204Y1005387D01*
X-69524Y998529D01*
X-76382Y991671D01*
X-83240Y978209D01*
X-83240Y964493D01*
X-76382Y950777D01*
X-69524Y943919D01*
X-49204Y937061D01*
X12263Y937061D02*
G01*
X-49204Y937061D01*
X-69524Y930457D01*
X-76382Y923599D01*
X-83240Y909883D01*
X-83240Y889563D01*
X-76382Y875847D01*
X-69524Y868989D01*
X-49204Y862131D01*
X12263Y862131D01*
X-128198Y957635D02*
G01*
X-128198Y889563D01*
X-135056Y868989D01*
X-148772Y862131D01*
X-169092Y862131D01*
X-182808Y868989D01*
X-203128Y889563D01*
X-203128Y957635D02*
G01*
X-203128Y862131D01*
X-248086Y957635D02*
G01*
X-248086Y862131D01*
X-248086Y916741D02*
G01*
X-254944Y937061D01*
X-268660Y950777D01*
X-282376Y957635D01*
X-302696Y957635D01*
X-347654Y1005387D02*
G01*
X-347654Y862131D01*
X-415980Y957635D02*
G01*
X-347654Y889563D01*
X-375086Y916741D02*
G01*
X-422838Y862131D01*
X-467796Y916741D02*
G01*
X-549584Y916741D01*
X-549584Y930457D01*
X-542726Y943919D01*
X-535868Y950777D01*
X-522406Y957635D01*
X-501832Y957635D01*
X-488116Y950777D01*
X-474654Y937061D01*
X-467796Y916741D01*
X-467796Y903025D01*
X-474654Y882705D01*
X-488116Y868989D01*
X-501832Y862131D01*
X-522406Y862131D01*
X-535868Y868989D01*
X-549584Y882705D01*
X-594542Y1005387D02*
G01*
X-594542Y862131D01*
X-594542Y862131D02*
G01*
X-676330Y862131D01*
X-803076Y957635D02*
G01*
X-803076Y862131D01*
X-803076Y937061D02*
G01*
X-789614Y950777D01*
X-775898Y957635D01*
X-755578Y957635D01*
X-741862Y950777D01*
X-728146Y937061D01*
X-721288Y916741D01*
X-721288Y903025D01*
X-728146Y882705D01*
X-741862Y868989D01*
X-755578Y862131D01*
X-775898Y862131D01*
X-789614Y868989D01*
X-803076Y882705D01*
X-848288Y1005387D02*
G01*
X-848288Y862131D01*
X-848288Y937061D02*
G01*
X-861750Y950777D01*
X-875466Y957635D01*
X-896040Y957635D01*
X-909502Y950777D01*
X-923218Y937061D01*
X-930076Y916741D01*
X-930076Y903025D01*
X-923218Y882705D01*
X-909502Y868989D01*
X-896040Y862131D01*
X-875466Y862131D01*
X-861750Y868989D01*
X-848288Y882705D01*
M02*
