G04 Layer: TopLayer*
G04 EasyEDA v6.5.14, 2022-08-24 17:06:53*
G04 77cd11f6e3b44a54979dfea80d6f7020,401f954c81374b6587e5d63e119e93f9,10*
G04 Gerber Generator version 0.2*
G04 Scale: 100 percent, Rotated: No, Reflected: No *
G04 Dimensions in millimeters *
G04 leading zeros omitted , absolute positions ,4 integer and 5 decimal *
%FSLAX45Y45*%
%MOMM*%

%ADD10C,0.2540*%
%ADD11C,0.7500*%
%ADD12R,0.7000X1.1000*%
%ADD13R,0.8000X0.8000*%
%ADD14R,0.4200X0.7000*%
%ADD15R,0.8000X1.0000*%
%ADD16R,0.5500X1.0000*%
%ADD17R,1.3500X0.4000*%
%ADD18R,1.0000X1.0000*%
%ADD19O,0.2800096X0.7999984*%
%ADD20O,0.7999984X0.2800096*%
%ADD21R,2.7000X2.7000*%
%ADD22R,0.2794X0.6500*%
%ADD23R,3.0000X2.6000*%
%ADD24R,2.0000X1.3500*%
%ADD25R,0.5000X0.8000*%
%ADD26R,0.8000X0.5000*%
%ADD27R,1.2000X1.4000*%
%ADD28R,2.0000X1.0000*%
%ADD29O,0.2800096X0.9999979999999999*%
%ADD30O,0.9999979999999999X0.2800096*%
%ADD31R,5.3000X5.3000*%
%ADD32O,1.9999959999999999X1.1999976*%
%ADD33R,1.5748X1.7000*%
%ADD34C,1.7000*%
%ADD35C,1.5748*%
%ADD36R,1.5748X1.5748*%
%ADD37C,0.6110*%
%ADD38C,0.6100*%
%ADD39C,0.6200*%
%ADD40C,1.0000*%
%ADD41C,0.0189*%

%LPD*%
G36*
X-1271879Y676605D02*
G01*
X-1275740Y678383D01*
X-1278585Y681532D01*
X-1279855Y685546D01*
X-1280668Y693623D01*
X-1282700Y700328D01*
X-1283106Y703275D01*
X-1283106Y735634D01*
X-1282446Y739292D01*
X-1280515Y742442D01*
X-1277518Y744677D01*
X-1273962Y745744D01*
X-1267409Y745896D01*
X-1267409Y786028D01*
X-1320139Y786028D01*
X-1324356Y786942D01*
X-1327759Y789482D01*
X-1329842Y793242D01*
X-1331976Y800150D01*
X-1334617Y805129D01*
X-1335684Y808228D01*
X-1335684Y811580D01*
X-1334617Y814679D01*
X-1331976Y819658D01*
X-1329690Y827125D01*
X-1328928Y834898D01*
X-1329690Y842670D01*
X-1331976Y850137D01*
X-1334617Y855065D01*
X-1335684Y858215D01*
X-1335684Y861517D01*
X-1334617Y864666D01*
X-1331976Y869645D01*
X-1329690Y877112D01*
X-1328928Y884885D01*
X-1329690Y892657D01*
X-1331976Y900125D01*
X-1334617Y905103D01*
X-1335684Y908253D01*
X-1335684Y911555D01*
X-1334617Y914704D01*
X-1331976Y919632D01*
X-1329893Y926490D01*
X-1327810Y930249D01*
X-1324356Y932789D01*
X-1320190Y933703D01*
X-1267409Y933703D01*
X-1267409Y985621D01*
X-1266494Y989787D01*
X-1263954Y993241D01*
X-1260195Y995324D01*
X-1254506Y997051D01*
X-1249578Y999693D01*
X-1246428Y1000760D01*
X-1243126Y1000760D01*
X-1239977Y999693D01*
X-1234998Y997051D01*
X-1227531Y994765D01*
X-1219758Y994003D01*
X-1211986Y994765D01*
X-1204518Y997051D01*
X-1199540Y999693D01*
X-1196441Y1000760D01*
X-1193088Y1000760D01*
X-1189990Y999693D01*
X-1185011Y997051D01*
X-1177544Y994765D01*
X-1169771Y994003D01*
X-1161999Y994765D01*
X-1154531Y997051D01*
X-1149553Y999693D01*
X-1146403Y1000760D01*
X-1143101Y1000760D01*
X-1139952Y999693D01*
X-1135024Y997051D01*
X-1126896Y994562D01*
X-1123137Y992479D01*
X-1120597Y989076D01*
X-1119682Y984859D01*
X-1119682Y933703D01*
X-1069441Y933703D01*
X-1065225Y932789D01*
X-1061770Y930249D01*
X-1059688Y926490D01*
X-1057605Y919632D01*
X-1054963Y914653D01*
X-1053896Y911555D01*
X-1053896Y908202D01*
X-1054963Y905103D01*
X-1057605Y900125D01*
X-1059891Y892657D01*
X-1060653Y884885D01*
X-1059891Y877112D01*
X-1057605Y869645D01*
X-1054963Y864717D01*
X-1053896Y861568D01*
X-1053896Y858266D01*
X-1054963Y855116D01*
X-1057605Y850137D01*
X-1059891Y842670D01*
X-1060653Y834898D01*
X-1059891Y827125D01*
X-1057605Y819658D01*
X-1054963Y814679D01*
X-1053896Y811530D01*
X-1053896Y808228D01*
X-1054963Y805078D01*
X-1057605Y800150D01*
X-1059688Y793242D01*
X-1061770Y789482D01*
X-1065225Y786942D01*
X-1069441Y786028D01*
X-1119682Y786028D01*
X-1119682Y734872D01*
X-1120597Y730656D01*
X-1123137Y727252D01*
X-1126896Y725170D01*
X-1135024Y722680D01*
X-1139952Y720039D01*
X-1143101Y718972D01*
X-1146403Y718972D01*
X-1149553Y720039D01*
X-1154531Y722680D01*
X-1161999Y724966D01*
X-1169771Y725728D01*
X-1177544Y724966D01*
X-1185011Y722680D01*
X-1189990Y720039D01*
X-1193088Y718972D01*
X-1196441Y718972D01*
X-1199540Y720039D01*
X-1204518Y722680D01*
X-1211986Y724966D01*
X-1219758Y725728D01*
X-1227531Y724966D01*
X-1234998Y722680D01*
X-1241907Y719023D01*
X-1247952Y714044D01*
X-1249375Y712266D01*
X-1252575Y709676D01*
X-1256436Y708660D01*
X-1256436Y703122D01*
X-1256842Y700176D01*
X-1258824Y693623D01*
X-1259636Y685546D01*
X-1260906Y681532D01*
X-1263751Y678383D01*
X-1267612Y676605D01*
G37*

%LPD*%
G36*
X-1271219Y600303D02*
G01*
X-1275588Y600506D01*
X-1279499Y602538D01*
X-1282192Y606044D01*
X-1283106Y610311D01*
X-1283106Y616458D01*
X-1282700Y619404D01*
X-1280668Y626110D01*
X-1279855Y634187D01*
X-1278585Y638200D01*
X-1275740Y641350D01*
X-1271879Y643128D01*
X-1267612Y643128D01*
X-1263751Y641350D01*
X-1260906Y638200D01*
X-1259636Y634187D01*
X-1258316Y622808D01*
X-1258316Y612902D01*
X-1259027Y609142D01*
X-1261059Y605891D01*
X-1264158Y603656D01*
X-1267155Y602030D01*
G37*

%LPD*%
G36*
X-592175Y407263D02*
G01*
X-596544Y407416D01*
X-600456Y409448D01*
X-603148Y412953D01*
X-604113Y417271D01*
X-604113Y501904D01*
X-604824Y508254D01*
X-606704Y513689D01*
X-609803Y518617D01*
X-613867Y522681D01*
X-618794Y525780D01*
X-624230Y527710D01*
X-630580Y528421D01*
X-829411Y528421D01*
X-835761Y527710D01*
X-841197Y525780D01*
X-846124Y522681D01*
X-850188Y518617D01*
X-853287Y513689D01*
X-855218Y508254D01*
X-855929Y501904D01*
X-855929Y483768D01*
X-856691Y479856D01*
X-858875Y476605D01*
X-862177Y474370D01*
X-866089Y473608D01*
X-891082Y473608D01*
X-894130Y474065D01*
X-896924Y475437D01*
X-901801Y478840D01*
X-910691Y483006D01*
X-920191Y485546D01*
X-927404Y486206D01*
X-930960Y487172D01*
X-933958Y489356D01*
X-935939Y492455D01*
X-936701Y496011D01*
X-936142Y499668D01*
X-934516Y504240D01*
X-933805Y510590D01*
X-933805Y542086D01*
X-933043Y545998D01*
X-930859Y549300D01*
X-919327Y560781D01*
X-915619Y563168D01*
X-900226Y564489D01*
X-890727Y567029D01*
X-881837Y571195D01*
X-873760Y576783D01*
X-866800Y583742D01*
X-861212Y591820D01*
X-857046Y600710D01*
X-854506Y610209D01*
X-853643Y619963D01*
X-854506Y629767D01*
X-857046Y639267D01*
X-861212Y648157D01*
X-866800Y656234D01*
X-873760Y663194D01*
X-881837Y668782D01*
X-890727Y672947D01*
X-900226Y675487D01*
X-909980Y676351D01*
X-919784Y675487D01*
X-925271Y674014D01*
X-928776Y673709D01*
X-932180Y674624D01*
X-935075Y676656D01*
X-937107Y679551D01*
X-941120Y688187D01*
X-943762Y691997D01*
X-945337Y695401D01*
X-945540Y699211D01*
X-944321Y702767D01*
X-940612Y706729D01*
X-935634Y712774D01*
X-931976Y719632D01*
X-929690Y727100D01*
X-928522Y739394D01*
X-926388Y743051D01*
X-922985Y745490D01*
X-918870Y746353D01*
X-868781Y746353D01*
X-864869Y745591D01*
X-861568Y743407D01*
X-859383Y740105D01*
X-858621Y736193D01*
X-858621Y700481D01*
X-857808Y692454D01*
X-855624Y685241D01*
X-852068Y678586D01*
X-846937Y672338D01*
X-807669Y633069D01*
X-801420Y627938D01*
X-794766Y624382D01*
X-787501Y622198D01*
X-779526Y621385D01*
X-620522Y621385D01*
X-612495Y622198D01*
X-605231Y624382D01*
X-598576Y627938D01*
X-592328Y633069D01*
X-543052Y682345D01*
X-537921Y688594D01*
X-534365Y695248D01*
X-532180Y702462D01*
X-531368Y710488D01*
X-531368Y783386D01*
X-530656Y787146D01*
X-528574Y790397D01*
X-525424Y792632D01*
X-521665Y793546D01*
X-517855Y792988D01*
X-515721Y792226D01*
X-509371Y791514D01*
X-466293Y791514D01*
X-466293Y844803D01*
X-521208Y844803D01*
X-525119Y845566D01*
X-528421Y847801D01*
X-530606Y851052D01*
X-531368Y854964D01*
X-531368Y914857D01*
X-530606Y918718D01*
X-528421Y922019D01*
X-525119Y924204D01*
X-521208Y925017D01*
X-466293Y925017D01*
X-466293Y953922D01*
X-465531Y957834D01*
X-463346Y961136D01*
X-460044Y963320D01*
X-456133Y964082D01*
X-445566Y964082D01*
X-439216Y964793D01*
X-433781Y966724D01*
X-428853Y969771D01*
X-427177Y971499D01*
X-423875Y973683D01*
X-419963Y974496D01*
X-416102Y973683D01*
X-412800Y971499D01*
X-411124Y969771D01*
X-406196Y966724D01*
X-400761Y964793D01*
X-394411Y964082D01*
X-363778Y964082D01*
X-359867Y963320D01*
X-356565Y961136D01*
X-354380Y957834D01*
X-353618Y953922D01*
X-353618Y925017D01*
X-283819Y925017D01*
X-279908Y924204D01*
X-276606Y922019D01*
X-244297Y889660D01*
X-242062Y886409D01*
X-241300Y882497D01*
X-241300Y503834D01*
X-242163Y499770D01*
X-244551Y496417D01*
X-248107Y494233D01*
X-254050Y492201D01*
X-258927Y489102D01*
X-263042Y485038D01*
X-265277Y481431D01*
X-268325Y478332D01*
X-272389Y476758D01*
X-276707Y477062D01*
X-280517Y479145D01*
X-283108Y482600D01*
X-284022Y486816D01*
X-284022Y501802D01*
X-284784Y508152D01*
X-286664Y513588D01*
X-289763Y518515D01*
X-293827Y522579D01*
X-298754Y525678D01*
X-304190Y527558D01*
X-310540Y528269D01*
X-509371Y528269D01*
X-515721Y527558D01*
X-521157Y525678D01*
X-526084Y522579D01*
X-530148Y518515D01*
X-533247Y513588D01*
X-535127Y508152D01*
X-535838Y501802D01*
X-535838Y442925D01*
X-536651Y439064D01*
X-538835Y435762D01*
X-555396Y419201D01*
X-558292Y417169D01*
X-561695Y416255D01*
X-569772Y415543D01*
X-579272Y413004D01*
G37*

%LPC*%
G36*
X-353618Y791514D02*
G01*
X-310540Y791514D01*
X-304190Y792226D01*
X-298754Y794105D01*
X-293827Y797204D01*
X-289763Y801268D01*
X-286664Y806196D01*
X-284784Y811631D01*
X-284022Y817981D01*
X-284022Y844803D01*
X-353618Y844803D01*
G37*

%LPD*%
G36*
X-2378100Y389128D02*
G01*
X-2381250Y390194D01*
X-2386228Y392836D01*
X-2393696Y395122D01*
X-2406599Y396240D01*
X-2410256Y398373D01*
X-2412695Y401777D01*
X-2413558Y405892D01*
X-2413558Y531164D01*
X-2539187Y531164D01*
X-2543302Y532028D01*
X-2546705Y534517D01*
X-2548839Y538124D01*
X-2549296Y542340D01*
X-2548839Y546811D01*
X-2549652Y554583D01*
X-2551887Y562102D01*
X-2554579Y567080D01*
X-2555595Y570179D01*
X-2555595Y573481D01*
X-2554579Y576630D01*
X-2551887Y581609D01*
X-2549652Y589076D01*
X-2548839Y596849D01*
X-2549652Y604621D01*
X-2551887Y612140D01*
X-2554579Y617118D01*
X-2555595Y620217D01*
X-2555595Y623519D01*
X-2554579Y626668D01*
X-2551887Y631647D01*
X-2549652Y639114D01*
X-2548839Y646887D01*
X-2549652Y654659D01*
X-2551887Y662178D01*
X-2554478Y667004D01*
X-2555544Y670153D01*
X-2555544Y673455D01*
X-2554478Y676605D01*
X-2551887Y681431D01*
X-2549652Y688898D01*
X-2548839Y696671D01*
X-2549652Y704443D01*
X-2551887Y711962D01*
X-2554579Y716940D01*
X-2555595Y720039D01*
X-2555595Y723341D01*
X-2554579Y726490D01*
X-2551887Y731469D01*
X-2549652Y738936D01*
X-2548839Y746709D01*
X-2549652Y754481D01*
X-2551887Y762000D01*
X-2554579Y766978D01*
X-2555595Y770077D01*
X-2555595Y773379D01*
X-2554579Y776528D01*
X-2551887Y781507D01*
X-2549652Y788974D01*
X-2548483Y801878D01*
X-2546350Y805535D01*
X-2542946Y807974D01*
X-2538831Y808888D01*
X-2413558Y808888D01*
X-2413558Y934008D01*
X-2412898Y937666D01*
X-2410917Y940866D01*
X-2407920Y943102D01*
X-2404313Y944118D01*
X-2395169Y944930D01*
X-2387752Y947166D01*
X-2382774Y949858D01*
X-2379624Y950925D01*
X-2376322Y950925D01*
X-2373172Y949858D01*
X-2368194Y947166D01*
X-2360726Y944930D01*
X-2352954Y944168D01*
X-2345182Y944930D01*
X-2337714Y947166D01*
X-2332736Y949858D01*
X-2329586Y950925D01*
X-2326284Y950925D01*
X-2323134Y949858D01*
X-2318156Y947166D01*
X-2310688Y944930D01*
X-2302916Y944168D01*
X-2295144Y944930D01*
X-2287676Y947166D01*
X-2282799Y949807D01*
X-2279700Y950823D01*
X-2276348Y950823D01*
X-2273249Y949807D01*
X-2268372Y947166D01*
X-2260904Y944930D01*
X-2253132Y944168D01*
X-2245360Y944930D01*
X-2237892Y947166D01*
X-2232914Y949858D01*
X-2229764Y950925D01*
X-2226462Y950925D01*
X-2223312Y949858D01*
X-2218334Y947166D01*
X-2210866Y944930D01*
X-2203094Y944168D01*
X-2195322Y944930D01*
X-2187854Y947166D01*
X-2182876Y949858D01*
X-2179726Y950925D01*
X-2176424Y950925D01*
X-2173274Y949858D01*
X-2168296Y947166D01*
X-2160828Y944930D01*
X-2153056Y944168D01*
X-2147011Y944727D01*
X-2142845Y944270D01*
X-2139188Y942187D01*
X-2136749Y938733D01*
X-2135886Y934618D01*
X-2135886Y808888D01*
X-2010511Y808888D01*
X-2006396Y807974D01*
X-2002993Y805535D01*
X-2000859Y801878D01*
X-2000402Y797712D01*
X-2000605Y795731D01*
X-1999792Y787958D01*
X-1997557Y780491D01*
X-1994865Y775512D01*
X-1993849Y772363D01*
X-1993849Y769061D01*
X-1994865Y765962D01*
X-1997557Y760984D01*
X-1999792Y753465D01*
X-2000605Y745693D01*
X-1999792Y737920D01*
X-1997557Y730453D01*
X-1994865Y725474D01*
X-1993849Y722325D01*
X-1993849Y719023D01*
X-1994865Y715924D01*
X-1997557Y710946D01*
X-1999792Y703427D01*
X-2000605Y695655D01*
X-1999792Y687882D01*
X-1997557Y680415D01*
X-1994966Y675589D01*
X-1993900Y672439D01*
X-1993900Y669137D01*
X-1994966Y665988D01*
X-1997557Y661162D01*
X-1999792Y653643D01*
X-2000605Y645871D01*
X-1999792Y638098D01*
X-1997557Y630631D01*
X-1994865Y625652D01*
X-1993849Y622503D01*
X-1993849Y619201D01*
X-1994865Y616102D01*
X-1997557Y611124D01*
X-1999792Y603605D01*
X-2000605Y595833D01*
X-1999792Y588060D01*
X-1997557Y580593D01*
X-1994865Y575614D01*
X-1993849Y572465D01*
X-1993849Y569163D01*
X-1994865Y566064D01*
X-1997557Y561086D01*
X-1999792Y553567D01*
X-2000605Y545795D01*
X-2000250Y542340D01*
X-2000707Y538124D01*
X-2002840Y534517D01*
X-2006244Y532028D01*
X-2010359Y531164D01*
X-2135886Y531164D01*
X-2135886Y405536D01*
X-2136749Y401421D01*
X-2139188Y398018D01*
X-2142845Y395884D01*
X-2147011Y395427D01*
X-2151532Y395884D01*
X-2159304Y395122D01*
X-2166772Y392836D01*
X-2171750Y390194D01*
X-2174900Y389128D01*
X-2178202Y389128D01*
X-2181352Y390194D01*
X-2186330Y392836D01*
X-2193798Y395122D01*
X-2201570Y395884D01*
X-2209342Y395122D01*
X-2216810Y392836D01*
X-2221788Y390194D01*
X-2224938Y389128D01*
X-2228240Y389128D01*
X-2231390Y390194D01*
X-2236368Y392836D01*
X-2243836Y395122D01*
X-2251608Y395884D01*
X-2259380Y395122D01*
X-2266848Y392836D01*
X-2271725Y390245D01*
X-2274824Y389178D01*
X-2278176Y389178D01*
X-2281275Y390245D01*
X-2286152Y392836D01*
X-2293620Y395122D01*
X-2301392Y395884D01*
X-2309164Y395122D01*
X-2316632Y392836D01*
X-2321610Y390194D01*
X-2324760Y389128D01*
X-2328062Y389128D01*
X-2331212Y390194D01*
X-2336190Y392836D01*
X-2343658Y395122D01*
X-2351430Y395884D01*
X-2359202Y395122D01*
X-2366670Y392836D01*
X-2371648Y390194D01*
X-2374798Y389128D01*
G37*

%LPD*%
G36*
X216611Y38608D02*
G01*
X212699Y39370D01*
X209397Y41605D01*
X207213Y44856D01*
X206451Y48768D01*
X206451Y53644D01*
X186334Y53644D01*
X182473Y54406D01*
X179171Y56641D01*
X176987Y59943D01*
X176174Y63804D01*
X176174Y96164D01*
X176987Y100076D01*
X179171Y103378D01*
X182473Y105562D01*
X186334Y106324D01*
X206451Y106324D01*
X206451Y151231D01*
X207213Y155143D01*
X209397Y158394D01*
X212699Y160629D01*
X216611Y161391D01*
X229514Y161391D01*
X232968Y161747D01*
X237185Y161290D01*
X240995Y158851D01*
X242620Y162204D01*
X245871Y164998D01*
X251409Y167944D01*
X257657Y173075D01*
X316941Y232359D01*
X322072Y238556D01*
X325628Y245262D01*
X327812Y252475D01*
X328574Y259994D01*
X327812Y267512D01*
X325628Y274777D01*
X324002Y278434D01*
X323697Y280924D01*
X323697Y322427D01*
X324561Y326491D01*
X326948Y329895D01*
X334619Y334416D01*
X337718Y335686D01*
X341071Y335889D01*
X344322Y335026D01*
X353009Y330962D01*
X362508Y328422D01*
X372313Y327558D01*
X382066Y328422D01*
X391566Y330962D01*
X400507Y335127D01*
X408533Y340766D01*
X418541Y350570D01*
X422452Y351993D01*
X453440Y356311D01*
X458012Y356412D01*
X461873Y355600D01*
X465175Y353415D01*
X467410Y350113D01*
X468172Y346252D01*
X467410Y342341D01*
X465175Y339039D01*
X346303Y220167D01*
X341223Y213969D01*
X337667Y207264D01*
X335432Y200050D01*
X334670Y192024D01*
X334670Y48768D01*
X333908Y44856D01*
X331673Y41605D01*
X328371Y39370D01*
X324510Y38608D01*
X286359Y38608D01*
X282448Y39370D01*
X279196Y41605D01*
X276961Y44856D01*
X276199Y48768D01*
X276199Y53644D01*
X244144Y53644D01*
X244144Y48768D01*
X243382Y44856D01*
X241147Y41605D01*
X237845Y39370D01*
X233984Y38608D01*
G37*

%LPC*%
G36*
X244144Y106324D02*
G01*
X276199Y106324D01*
X276199Y119430D01*
X275488Y125730D01*
X273558Y131216D01*
X270510Y136093D01*
X266395Y140208D01*
X261518Y143306D01*
X256032Y145186D01*
X249529Y145948D01*
X245516Y147269D01*
X244144Y148539D01*
G37*

%LPD*%
G36*
X-2171090Y-764082D02*
G01*
X-2174951Y-763320D01*
X-2178202Y-761136D01*
X-2180437Y-757885D01*
X-2181250Y-754024D01*
X-2189988Y68986D01*
X-2190953Y70002D01*
X-2239873Y70002D01*
X-2244039Y70916D01*
X-2247493Y73456D01*
X-2249576Y77216D01*
X-2249932Y81534D01*
X-2248458Y85547D01*
X-2246426Y88798D01*
X-2244496Y94234D01*
X-2243785Y100584D01*
X-2243785Y113639D01*
X-2275890Y113639D01*
X-2275890Y80162D01*
X-2276652Y76250D01*
X-2278837Y72999D01*
X-2282139Y70764D01*
X-2286050Y70002D01*
X-2303424Y70002D01*
X-2307285Y70764D01*
X-2310587Y72999D01*
X-2312771Y76250D01*
X-2313584Y80162D01*
X-2313584Y113639D01*
X-2323084Y113639D01*
X-2327351Y114604D01*
X-2330856Y117246D01*
X-2332888Y121107D01*
X-2333091Y125476D01*
X-2331567Y134772D01*
X-2331567Y145237D01*
X-2333091Y154533D01*
X-2332888Y158902D01*
X-2330856Y162763D01*
X-2327351Y165404D01*
X-2323084Y166370D01*
X-2313584Y166370D01*
X-2313584Y205892D01*
X-2319121Y205892D01*
X-2325471Y205181D01*
X-2330907Y203301D01*
X-2336393Y199847D01*
X-2340152Y198424D01*
X-2344216Y198577D01*
X-2347823Y200253D01*
X-2350566Y203250D01*
X-2351887Y207060D01*
X-2351633Y211074D01*
X-2349195Y220217D01*
X-2348331Y229971D01*
X-2348738Y234950D01*
X-2348484Y238353D01*
X-2347061Y241503D01*
X-2344674Y243992D01*
X-2341575Y245567D01*
X-2336190Y247192D01*
X-2331212Y249834D01*
X-2328062Y250901D01*
X-2324760Y250901D01*
X-2321610Y249834D01*
X-2316632Y247192D01*
X-2309164Y244906D01*
X-2301392Y244144D01*
X-2293620Y244906D01*
X-2286152Y247192D01*
X-2281275Y249783D01*
X-2278176Y250850D01*
X-2274824Y250850D01*
X-2271725Y249783D01*
X-2266848Y247192D01*
X-2259380Y244906D01*
X-2251608Y244144D01*
X-2243836Y244906D01*
X-2236368Y247192D01*
X-2231390Y249834D01*
X-2228240Y250901D01*
X-2224938Y250901D01*
X-2221788Y249834D01*
X-2216810Y247192D01*
X-2209342Y244906D01*
X-2197100Y243738D01*
X-2193493Y241604D01*
X-2191004Y238201D01*
X-2190140Y234086D01*
X-2190140Y217322D01*
X-2189327Y209296D01*
X-2187143Y202082D01*
X-2183587Y195427D01*
X-2178456Y189179D01*
X-2133600Y144272D01*
X-2131364Y140970D01*
X-2130602Y137109D01*
X-2130602Y105562D01*
X-2129891Y99263D01*
X-2127961Y93776D01*
X-2124913Y88900D01*
X-2123186Y87172D01*
X-2121001Y83870D01*
X-2120239Y80010D01*
X-2121001Y76098D01*
X-2123186Y72796D01*
X-2124913Y71120D01*
X-2127961Y66192D01*
X-2129891Y60756D01*
X-2130602Y54406D01*
X-2130602Y48869D01*
X-2091029Y48869D01*
X-2091029Y68935D01*
X-2090267Y72796D01*
X-2088083Y76098D01*
X-2084781Y78333D01*
X-2080869Y79095D01*
X-2048510Y79095D01*
X-2044598Y78333D01*
X-2041347Y76098D01*
X-2039112Y72796D01*
X-2038350Y68935D01*
X-2038350Y48869D01*
X-2000757Y48869D01*
X-1996897Y48056D01*
X-1993595Y45872D01*
X-1991410Y42570D01*
X-1990598Y38709D01*
X-1990598Y22910D01*
X-1991410Y19050D01*
X-1993595Y15747D01*
X-1995170Y14122D01*
X-1998472Y11938D01*
X-2002383Y11125D01*
X-2038350Y11125D01*
X-2038350Y-7924D01*
X-2039061Y-11684D01*
X-2041143Y-14884D01*
X-2044192Y-17119D01*
X-2052878Y-21183D01*
X-2060956Y-26822D01*
X-2067915Y-33782D01*
X-2073503Y-41808D01*
X-2077669Y-50698D01*
X-2080209Y-60198D01*
X-2081072Y-70002D01*
X-2080209Y-79806D01*
X-2077669Y-89306D01*
X-2073503Y-98196D01*
X-2067915Y-106222D01*
X-2060956Y-113182D01*
X-2052878Y-118821D01*
X-2043988Y-122986D01*
X-2034489Y-125526D01*
X-2024684Y-126390D01*
X-2014931Y-125526D01*
X-2005431Y-122986D01*
X-1996541Y-118821D01*
X-1988464Y-113182D01*
X-1981504Y-106222D01*
X-1975916Y-98196D01*
X-1971751Y-89306D01*
X-1969211Y-79806D01*
X-1968500Y-71729D01*
X-1967585Y-68326D01*
X-1965553Y-65430D01*
X-1948078Y-47955D01*
X-1944878Y-45770D01*
X-1941169Y-44958D01*
X-1937410Y-45567D01*
X-1934108Y-47548D01*
X-1931771Y-50546D01*
X-1930755Y-54254D01*
X-1930247Y-59791D01*
X-1927707Y-69291D01*
X-1923542Y-78232D01*
X-1917903Y-86258D01*
X-1916379Y-87833D01*
X-1914194Y-91135D01*
X-1913382Y-94996D01*
X-1914194Y-98907D01*
X-1916379Y-102209D01*
X-1917903Y-103733D01*
X-1923542Y-111810D01*
X-1927707Y-120700D01*
X-1930247Y-130200D01*
X-1931111Y-140004D01*
X-1930247Y-149809D01*
X-1927707Y-159308D01*
X-1923542Y-168198D01*
X-1917903Y-176276D01*
X-1910943Y-183235D01*
X-1902917Y-188874D01*
X-1893976Y-193040D01*
X-1884476Y-195580D01*
X-1874672Y-196443D01*
X-1864918Y-195580D01*
X-1855419Y-193040D01*
X-1846478Y-188874D01*
X-1838452Y-183235D01*
X-1836775Y-181559D01*
X-1833473Y-179374D01*
X-1829612Y-178612D01*
X-1709826Y-178612D01*
X-1705914Y-179374D01*
X-1702612Y-181559D01*
X-1700987Y-183235D01*
X-1692910Y-188874D01*
X-1684020Y-193040D01*
X-1674520Y-195580D01*
X-1664716Y-196443D01*
X-1654911Y-195580D01*
X-1645412Y-193040D01*
X-1636522Y-188874D01*
X-1628444Y-183235D01*
X-1621485Y-176276D01*
X-1615846Y-168198D01*
X-1611680Y-159308D01*
X-1609140Y-149809D01*
X-1608277Y-140004D01*
X-1609140Y-130200D01*
X-1611680Y-120700D01*
X-1615846Y-111810D01*
X-1621485Y-103733D01*
X-1628546Y-96723D01*
X-1630527Y-93827D01*
X-1631442Y-90424D01*
X-1631137Y-86868D01*
X-1629664Y-83718D01*
X-1625854Y-78232D01*
X-1621688Y-69291D01*
X-1619148Y-59791D01*
X-1618284Y-50038D01*
X-1619148Y-40233D01*
X-1621688Y-30733D01*
X-1625854Y-21793D01*
X-1631492Y-13766D01*
X-1638452Y-6807D01*
X-1646478Y-1168D01*
X-1655419Y2997D01*
X-1664919Y5537D01*
X-1674672Y6400D01*
X-1684477Y5537D01*
X-1693976Y2997D01*
X-1702917Y-1168D01*
X-1710943Y-6807D01*
X-1712569Y-8432D01*
X-1715871Y-10617D01*
X-1719783Y-11379D01*
X-1829612Y-11379D01*
X-1833524Y-10617D01*
X-1836826Y-8432D01*
X-1838452Y-6807D01*
X-1846478Y-1168D01*
X-1852930Y1879D01*
X-1856028Y4114D01*
X-1858060Y7315D01*
X-1858822Y11074D01*
X-1858822Y54457D01*
X-1859534Y60756D01*
X-1861413Y66243D01*
X-1864512Y71120D01*
X-1866188Y72847D01*
X-1868424Y76149D01*
X-1869186Y80010D01*
X-1868424Y83921D01*
X-1866188Y87223D01*
X-1864512Y88900D01*
X-1859025Y98145D01*
X-1855622Y100533D01*
X-1851558Y101396D01*
X-1815185Y101396D01*
X-1807210Y102209D01*
X-1799945Y104394D01*
X-1793290Y107950D01*
X-1787042Y113080D01*
X-1717751Y182372D01*
X-1712671Y188569D01*
X-1709064Y195224D01*
X-1706880Y202488D01*
X-1706118Y210515D01*
X-1706118Y297535D01*
X-1705406Y301244D01*
X-1703425Y304393D01*
X-1700428Y306679D01*
X-1696821Y307644D01*
X-1687931Y308457D01*
X-1678432Y310997D01*
X-1669491Y315163D01*
X-1661464Y320802D01*
X-1654505Y327761D01*
X-1648866Y335788D01*
X-1645107Y343865D01*
X-1642770Y347014D01*
X-1639468Y349046D01*
X-1635607Y349707D01*
X-1631797Y348894D01*
X-1628597Y346659D01*
X-1626463Y343408D01*
X-1625701Y339547D01*
X-1625701Y310591D01*
X-1624990Y304241D01*
X-1623110Y298805D01*
X-1620012Y293878D01*
X-1615948Y289814D01*
X-1611020Y286715D01*
X-1605584Y284835D01*
X-1599234Y284124D01*
X-1564538Y284124D01*
X-1560626Y283311D01*
X-1557375Y281127D01*
X-1555140Y277825D01*
X-1554378Y273964D01*
X-1555140Y270052D01*
X-1563522Y258165D01*
X-1567688Y249275D01*
X-1570228Y239775D01*
X-1571091Y229971D01*
X-1570228Y220217D01*
X-1567688Y210718D01*
X-1563522Y201828D01*
X-1556156Y191211D01*
X-1554683Y187248D01*
X-1554886Y183032D01*
X-1556816Y179273D01*
X-1560118Y176631D01*
X-1564182Y175514D01*
X-1568348Y176225D01*
X-1571904Y178511D01*
X-1573580Y180187D01*
X-1578508Y183286D01*
X-1583944Y185216D01*
X-1590294Y185928D01*
X-1595882Y185928D01*
X-1595882Y146354D01*
X-1575765Y146354D01*
X-1571904Y145592D01*
X-1568602Y143357D01*
X-1566418Y140055D01*
X-1565605Y136194D01*
X-1565605Y103784D01*
X-1566418Y99923D01*
X-1568602Y96621D01*
X-1571904Y94437D01*
X-1575765Y93624D01*
X-1595882Y93624D01*
X-1595882Y54102D01*
X-1590294Y54102D01*
X-1583944Y54813D01*
X-1578508Y56692D01*
X-1573580Y59791D01*
X-1571904Y61518D01*
X-1568602Y63703D01*
X-1564690Y64465D01*
X-1560830Y63703D01*
X-1557528Y61518D01*
X-1555851Y59791D01*
X-1550924Y56692D01*
X-1545488Y54813D01*
X-1539138Y54102D01*
X-1491284Y54102D01*
X-1487068Y53187D01*
X-1483563Y50546D01*
X-1482344Y48209D01*
X-1482445Y50038D01*
X-1480921Y54102D01*
X-1477822Y57150D01*
X-1475130Y58826D01*
X-1471574Y60248D01*
X-1467815Y60248D01*
X-1464310Y58826D01*
X-1460957Y56540D01*
X-1453743Y54406D01*
X-1450086Y52324D01*
X-1447546Y48920D01*
X-1446682Y44754D01*
X-1446682Y27076D01*
X-1447241Y23723D01*
X-1449171Y18237D01*
X-1449882Y11887D01*
X-1449882Y-43942D01*
X-1450543Y-47548D01*
X-1452473Y-50698D01*
X-1455369Y-52984D01*
X-1458874Y-54051D01*
X-1462024Y-54406D01*
X-1466240Y-54000D01*
X-1469948Y-51866D01*
X-1472438Y-48463D01*
X-1473352Y-44297D01*
X-1473352Y-42621D01*
X-1499870Y-42621D01*
X-1499870Y-51968D01*
X-1499158Y-58267D01*
X-1497279Y-63754D01*
X-1494231Y-68580D01*
X-1488998Y-73710D01*
X-1486712Y-77012D01*
X-1485900Y-80975D01*
X-1485900Y-339090D01*
X-1486712Y-343052D01*
X-1488998Y-346354D01*
X-1494231Y-351485D01*
X-1497228Y-355193D01*
X-1500225Y-356870D01*
X-1503578Y-357428D01*
X-1770227Y-357428D01*
X-1778203Y-358190D01*
X-1785467Y-360426D01*
X-1792122Y-363982D01*
X-1798370Y-369062D01*
X-1939747Y-510489D01*
X-1943049Y-512673D01*
X-1946960Y-513435D01*
X-1950821Y-512673D01*
X-1954123Y-510489D01*
X-1956307Y-507187D01*
X-1957120Y-503275D01*
X-1957120Y-476758D01*
X-1956358Y-472948D01*
X-1954275Y-469747D01*
X-1950466Y-465734D01*
X-1945081Y-457758D01*
X-1941068Y-448970D01*
X-1938680Y-439623D01*
X-1937816Y-430022D01*
X-1938680Y-420420D01*
X-1941068Y-411073D01*
X-1945081Y-402285D01*
X-1950466Y-394309D01*
X-1957120Y-387350D01*
X-1964893Y-381609D01*
X-1973529Y-377240D01*
X-1982724Y-374446D01*
X-1992274Y-373176D01*
X-2001926Y-373634D01*
X-2011375Y-375666D01*
X-2020316Y-379222D01*
X-2028545Y-384302D01*
X-2035759Y-390652D01*
X-2041855Y-398170D01*
X-2046528Y-406603D01*
X-2049729Y-415696D01*
X-2051354Y-425196D01*
X-2051354Y-434848D01*
X-2049729Y-444347D01*
X-2046528Y-453440D01*
X-2041855Y-461873D01*
X-2036572Y-468376D01*
X-2034895Y-471373D01*
X-2034336Y-474776D01*
X-2034336Y-526288D01*
X-2034997Y-529996D01*
X-2036978Y-533196D01*
X-2039975Y-535432D01*
X-2048002Y-539394D01*
X-2059381Y-547014D01*
X-2069693Y-556006D01*
X-2078736Y-566318D01*
X-2086305Y-577697D01*
X-2092350Y-589940D01*
X-2096770Y-602894D01*
X-2099462Y-616356D01*
X-2100326Y-630021D01*
X-2099462Y-643636D01*
X-2096770Y-657098D01*
X-2092350Y-670052D01*
X-2086305Y-682294D01*
X-2078736Y-693674D01*
X-2069693Y-703986D01*
X-2059381Y-712978D01*
X-2048002Y-720598D01*
X-2035759Y-726643D01*
X-2022805Y-731062D01*
X-2009343Y-733704D01*
X-1995728Y-734618D01*
X-1982063Y-733704D01*
X-1968652Y-731062D01*
X-1955647Y-726643D01*
X-1943404Y-720598D01*
X-1932025Y-712978D01*
X-1921713Y-703986D01*
X-1912721Y-693674D01*
X-1905101Y-682294D01*
X-1899056Y-670052D01*
X-1894636Y-657098D01*
X-1891995Y-643636D01*
X-1891080Y-630021D01*
X-1891995Y-616356D01*
X-1894636Y-602894D01*
X-1899056Y-589940D01*
X-1900478Y-585063D01*
X-1899818Y-580948D01*
X-1897532Y-577443D01*
X-1757680Y-437591D01*
X-1754378Y-435406D01*
X-1750517Y-434644D01*
X-1625396Y-434644D01*
X-1621536Y-435406D01*
X-1618234Y-437591D01*
X-1615998Y-440893D01*
X-1615236Y-444804D01*
X-1615998Y-448665D01*
X-1618234Y-451967D01*
X-1695653Y-529386D01*
X-1698752Y-531520D01*
X-1702358Y-532384D01*
X-1706067Y-531825D01*
X-1714652Y-528929D01*
X-1728063Y-526288D01*
X-1741728Y-525373D01*
X-1755343Y-526288D01*
X-1768805Y-528929D01*
X-1781759Y-533349D01*
X-1794002Y-539394D01*
X-1805381Y-547014D01*
X-1815693Y-556006D01*
X-1824736Y-566318D01*
X-1832305Y-577697D01*
X-1838350Y-589940D01*
X-1842770Y-602894D01*
X-1845462Y-616356D01*
X-1846325Y-630021D01*
X-1845462Y-643636D01*
X-1842770Y-657098D01*
X-1838350Y-670052D01*
X-1832305Y-682294D01*
X-1824736Y-693674D01*
X-1815693Y-703986D01*
X-1805381Y-712978D01*
X-1794002Y-720598D01*
X-1781759Y-726643D01*
X-1768805Y-731062D01*
X-1755343Y-733704D01*
X-1741728Y-734618D01*
X-1728063Y-733704D01*
X-1714652Y-731062D01*
X-1701647Y-726643D01*
X-1689404Y-720598D01*
X-1678025Y-712978D01*
X-1667713Y-703986D01*
X-1658721Y-693674D01*
X-1651101Y-682294D01*
X-1645056Y-670052D01*
X-1640636Y-657098D01*
X-1637995Y-643636D01*
X-1637080Y-630021D01*
X-1637995Y-616356D01*
X-1640636Y-602894D01*
X-1643532Y-594461D01*
X-1644040Y-590753D01*
X-1643176Y-587146D01*
X-1641093Y-584047D01*
X-1568653Y-511606D01*
X-1565351Y-509371D01*
X-1561439Y-508609D01*
X-1515821Y-508609D01*
X-1511655Y-509524D01*
X-1508252Y-512013D01*
X-1506169Y-515721D01*
X-1505712Y-519938D01*
X-1507083Y-523951D01*
X-1509928Y-527050D01*
X-1514805Y-528929D01*
X-1527759Y-533349D01*
X-1540002Y-539394D01*
X-1551381Y-547014D01*
X-1561693Y-556006D01*
X-1570736Y-566318D01*
X-1578305Y-577697D01*
X-1584350Y-589940D01*
X-1588770Y-602894D01*
X-1591462Y-616356D01*
X-1592326Y-630021D01*
X-1591462Y-643636D01*
X-1588770Y-657098D01*
X-1584350Y-670052D01*
X-1578305Y-682294D01*
X-1570736Y-693674D01*
X-1561693Y-703986D01*
X-1551381Y-712978D01*
X-1540002Y-720598D01*
X-1527759Y-726643D01*
X-1514805Y-731062D01*
X-1501343Y-733704D01*
X-1487728Y-734618D01*
X-1474063Y-733704D01*
X-1460652Y-731062D01*
X-1447647Y-726643D01*
X-1435404Y-720598D01*
X-1424025Y-712978D01*
X-1413713Y-703986D01*
X-1404721Y-693674D01*
X-1397101Y-682294D01*
X-1391056Y-670052D01*
X-1386636Y-657098D01*
X-1383995Y-643636D01*
X-1383080Y-630021D01*
X-1383995Y-616356D01*
X-1386636Y-602894D01*
X-1389532Y-594461D01*
X-1390040Y-590753D01*
X-1389176Y-587095D01*
X-1387094Y-583996D01*
X-1362405Y-559308D01*
X-1358950Y-557022D01*
X-1354836Y-556361D01*
X-1350772Y-557377D01*
X-1347520Y-559917D01*
X-1345488Y-563575D01*
X-1343304Y-570738D01*
X-1339545Y-577799D01*
X-1338681Y-580136D01*
X-1338376Y-582574D01*
X-1338376Y-708152D01*
X-1337665Y-714502D01*
X-1335735Y-719937D01*
X-1332636Y-724865D01*
X-1328572Y-728929D01*
X-1323644Y-732028D01*
X-1318209Y-733907D01*
X-1311859Y-734669D01*
X-1155547Y-734669D01*
X-1149197Y-733907D01*
X-1143762Y-732028D01*
X-1138834Y-728929D01*
X-1134770Y-724865D01*
X-1131671Y-719937D01*
X-1129792Y-714502D01*
X-1129080Y-708152D01*
X-1129080Y-678738D01*
X-1128268Y-674878D01*
X-1126083Y-671576D01*
X-1122781Y-669391D01*
X-1118920Y-668578D01*
X-1085189Y-668578D01*
X-1077163Y-667816D01*
X-1069949Y-665632D01*
X-1063294Y-662025D01*
X-1059078Y-658622D01*
X-1056487Y-657047D01*
X-1053541Y-656336D01*
X-1044905Y-655574D01*
X-1035405Y-653034D01*
X-1026515Y-648868D01*
X-1018438Y-643229D01*
X-1011478Y-636270D01*
X-1005840Y-628243D01*
X-1001674Y-619302D01*
X-999134Y-609803D01*
X-998270Y-600049D01*
X-999134Y-590245D01*
X-1001674Y-580745D01*
X-1005840Y-571804D01*
X-1006703Y-570585D01*
X-1008380Y-566521D01*
X-1008176Y-562152D01*
X-1006144Y-558241D01*
X-1002690Y-555548D01*
X-998372Y-554583D01*
X-977290Y-554583D01*
X-973836Y-555193D01*
X-970838Y-556920D01*
X-968552Y-559562D01*
X-967333Y-562762D01*
X-965657Y-570992D01*
X-961288Y-583946D01*
X-955243Y-596239D01*
X-947623Y-607618D01*
X-938580Y-617931D01*
X-928319Y-626922D01*
X-916940Y-634542D01*
X-904646Y-640588D01*
X-891692Y-645007D01*
X-878281Y-647649D01*
X-864616Y-648563D01*
X-850950Y-647649D01*
X-837539Y-645007D01*
X-824585Y-640588D01*
X-812292Y-634542D01*
X-800912Y-626922D01*
X-790651Y-617931D01*
X-781608Y-607618D01*
X-773988Y-596239D01*
X-767943Y-583946D01*
X-763574Y-570992D01*
X-760882Y-557580D01*
X-759968Y-543915D01*
X-760882Y-530250D01*
X-763574Y-516839D01*
X-767943Y-503885D01*
X-773988Y-491642D01*
X-781608Y-480263D01*
X-790651Y-469950D01*
X-800912Y-460908D01*
X-812292Y-453339D01*
X-824585Y-447293D01*
X-837539Y-442874D01*
X-850950Y-440182D01*
X-864616Y-439318D01*
X-878281Y-440182D01*
X-891692Y-442874D01*
X-904646Y-447293D01*
X-916940Y-453339D01*
X-928319Y-460908D01*
X-938580Y-469950D01*
X-942086Y-473913D01*
X-945540Y-476504D01*
X-949706Y-477367D01*
X-1019962Y-477367D01*
X-1023823Y-476605D01*
X-1027125Y-474421D01*
X-1029360Y-471119D01*
X-1030122Y-467207D01*
X-1029360Y-463346D01*
X-1027125Y-460044D01*
X-941222Y-374142D01*
X-938377Y-372160D01*
X-935024Y-371195D01*
X-931570Y-371449D01*
X-928420Y-372872D01*
X-916940Y-380542D01*
X-904646Y-386588D01*
X-891692Y-391007D01*
X-878281Y-393649D01*
X-864616Y-394563D01*
X-850950Y-393649D01*
X-837539Y-391007D01*
X-824585Y-386588D01*
X-812292Y-380542D01*
X-800912Y-372922D01*
X-790651Y-363931D01*
X-781608Y-353618D01*
X-773988Y-342239D01*
X-767943Y-329946D01*
X-763574Y-316992D01*
X-760882Y-303580D01*
X-759968Y-289915D01*
X-760882Y-276250D01*
X-763574Y-262839D01*
X-767943Y-249885D01*
X-773988Y-237642D01*
X-781608Y-226263D01*
X-790651Y-215950D01*
X-800912Y-206908D01*
X-812292Y-199339D01*
X-824585Y-193294D01*
X-837539Y-188874D01*
X-850950Y-186182D01*
X-864616Y-185318D01*
X-878281Y-186182D01*
X-891692Y-188874D01*
X-904646Y-193294D01*
X-916940Y-199339D01*
X-928319Y-206908D01*
X-938580Y-215950D01*
X-947623Y-226263D01*
X-955243Y-237642D01*
X-961288Y-249885D01*
X-965657Y-262839D01*
X-968349Y-276250D01*
X-969213Y-289356D01*
X-970076Y-292862D01*
X-972159Y-295859D01*
X-1100734Y-424434D01*
X-1103985Y-426618D01*
X-1107897Y-427380D01*
X-1109929Y-427380D01*
X-1113840Y-426618D01*
X-1117142Y-424434D01*
X-1119327Y-421132D01*
X-1120089Y-417220D01*
X-1119327Y-413359D01*
X-1117142Y-410057D01*
X-1037742Y-330657D01*
X-1032662Y-324459D01*
X-1029106Y-317804D01*
X-1026871Y-310540D01*
X-1026109Y-302514D01*
X-1026109Y-100177D01*
X-1025347Y-96316D01*
X-1023112Y-93014D01*
X-1007719Y-77571D01*
X-1004417Y-75387D01*
X-1000506Y-74625D01*
X-979424Y-74625D01*
X-975563Y-75387D01*
X-972261Y-77571D01*
X-970026Y-80873D01*
X-969264Y-84785D01*
X-969264Y-114096D01*
X-968552Y-120446D01*
X-966622Y-125882D01*
X-963574Y-130759D01*
X-959459Y-134874D01*
X-954582Y-137972D01*
X-949096Y-139852D01*
X-942797Y-140563D01*
X-786434Y-140563D01*
X-780135Y-139852D01*
X-774649Y-137972D01*
X-769772Y-134874D01*
X-765657Y-130759D01*
X-762609Y-125882D01*
X-760679Y-120446D01*
X-759968Y-114096D01*
X-759968Y42214D01*
X-760679Y48564D01*
X-762609Y54000D01*
X-765657Y58928D01*
X-769772Y62991D01*
X-774649Y66090D01*
X-780135Y68021D01*
X-786434Y68732D01*
X-942797Y68732D01*
X-949096Y68021D01*
X-954582Y66090D01*
X-959459Y62991D01*
X-963574Y58928D01*
X-966622Y54000D01*
X-968552Y48564D01*
X-969264Y42214D01*
X-969264Y12750D01*
X-970026Y8890D01*
X-972261Y5588D01*
X-975563Y3403D01*
X-979424Y2590D01*
X-1020216Y2590D01*
X-1028242Y1828D01*
X-1035456Y-355D01*
X-1042111Y-3962D01*
X-1048359Y-9042D01*
X-1091641Y-52324D01*
X-1096772Y-58572D01*
X-1100328Y-65227D01*
X-1102512Y-72491D01*
X-1103325Y-80467D01*
X-1103325Y-282854D01*
X-1104087Y-286715D01*
X-1106322Y-290017D01*
X-1116736Y-300482D01*
X-1120038Y-302666D01*
X-1123950Y-303428D01*
X-1127810Y-302666D01*
X-1131112Y-300482D01*
X-1133348Y-297180D01*
X-1134110Y-293268D01*
X-1134110Y-80975D01*
X-1133297Y-77012D01*
X-1131062Y-73710D01*
X-1125778Y-68580D01*
X-1122730Y-63754D01*
X-1120851Y-58267D01*
X-1120140Y-51968D01*
X-1120140Y-42621D01*
X-1146657Y-42621D01*
X-1146657Y-44297D01*
X-1147470Y-48310D01*
X-1149858Y-51663D01*
X-1153363Y-53848D01*
X-1157376Y-54457D01*
X-1163726Y-54102D01*
X-1167434Y-53136D01*
X-1170584Y-50901D01*
X-1172616Y-47701D01*
X-1173327Y-42621D01*
X-1196644Y-42621D01*
X-1197406Y-47853D01*
X-1199642Y-51104D01*
X-1202944Y-53340D01*
X-1206804Y-54102D01*
X-1209954Y-54102D01*
X-1213866Y-53340D01*
X-1217168Y-51104D01*
X-1219352Y-47853D01*
X-1220114Y-43942D01*
X-1220063Y-24739D01*
X-1219098Y-15494D01*
X-1219098Y43942D01*
X-1218336Y47802D01*
X-1216101Y51104D01*
X-1212850Y53340D01*
X-1208938Y54102D01*
X-1206804Y54102D01*
X-1202944Y53340D01*
X-1199642Y51104D01*
X-1197406Y47802D01*
X-1196644Y43942D01*
X-1196644Y2590D01*
X-1173327Y2590D01*
X-1173327Y38404D01*
X-1177340Y39674D01*
X-1180490Y42418D01*
X-1182319Y46177D01*
X-1182420Y50342D01*
X-1180846Y54254D01*
X-1177848Y57150D01*
X-1173632Y59791D01*
X-1171905Y61518D01*
X-1168603Y63703D01*
X-1164742Y64465D01*
X-1160830Y63703D01*
X-1157528Y61518D01*
X-1155852Y59791D01*
X-1151432Y57048D01*
X-1148892Y54762D01*
X-1147216Y51765D01*
X-1146657Y48412D01*
X-1146657Y2590D01*
X-1120140Y2590D01*
X-1120140Y11887D01*
X-1120851Y18237D01*
X-1122730Y23672D01*
X-1125829Y28600D01*
X-1129893Y32664D01*
X-1134110Y35356D01*
X-1137208Y38354D01*
X-1138783Y42418D01*
X-1138478Y46736D01*
X-1136446Y50546D01*
X-1132941Y53187D01*
X-1128725Y54102D01*
X-1090269Y54102D01*
X-1083970Y54813D01*
X-1078484Y56743D01*
X-1073607Y59791D01*
X-1070051Y63398D01*
X-1067155Y65379D01*
X-1063752Y66294D01*
X-1060196Y65989D01*
X-1054506Y64465D01*
X-1044702Y63601D01*
X-1034897Y64465D01*
X-1025398Y67005D01*
X-1016508Y71170D01*
X-1008481Y76809D01*
X-1001521Y83769D01*
X-995883Y91795D01*
X-991717Y100685D01*
X-989177Y110185D01*
X-988314Y119989D01*
X-989177Y129794D01*
X-991717Y139293D01*
X-995883Y148183D01*
X-1001521Y156210D01*
X-1008481Y163169D01*
X-1016508Y168808D01*
X-1025398Y172974D01*
X-1034897Y175514D01*
X-1044702Y176377D01*
X-1054506Y175514D01*
X-1060196Y173990D01*
X-1063701Y173685D01*
X-1067104Y174599D01*
X-1070000Y176580D01*
X-1073607Y180187D01*
X-1078484Y183286D01*
X-1083970Y185216D01*
X-1090269Y185928D01*
X-1139139Y185928D01*
X-1145489Y185216D01*
X-1150924Y183286D01*
X-1153515Y181660D01*
X-1157732Y180187D01*
X-1162202Y180644D01*
X-1166012Y182981D01*
X-1168450Y186690D01*
X-1169060Y191160D01*
X-1168298Y199999D01*
X-1169162Y209804D01*
X-1171702Y219303D01*
X-1175867Y228193D01*
X-1181506Y236270D01*
X-1188466Y243230D01*
X-1196492Y248869D01*
X-1205433Y253034D01*
X-1214932Y255574D01*
X-1224686Y256438D01*
X-1234490Y255574D01*
X-1243990Y253034D01*
X-1252931Y248869D01*
X-1260957Y243230D01*
X-1263243Y240944D01*
X-1266952Y238607D01*
X-1271320Y238048D01*
X-1275486Y239369D01*
X-1278737Y242316D01*
X-1281480Y246227D01*
X-1288440Y253187D01*
X-1296517Y258825D01*
X-1305407Y262991D01*
X-1314907Y265531D01*
X-1324711Y266395D01*
X-1334516Y265531D01*
X-1344015Y262991D01*
X-1352905Y258825D01*
X-1360982Y253187D01*
X-1367942Y246227D01*
X-1373581Y238201D01*
X-1377746Y229260D01*
X-1380286Y219760D01*
X-1381150Y209956D01*
X-1380286Y200202D01*
X-1379423Y196951D01*
X-1379220Y192582D01*
X-1380845Y188518D01*
X-1384096Y185572D01*
X-1388211Y184200D01*
X-1392580Y184708D01*
X-1393952Y185216D01*
X-1400251Y185928D01*
X-1449120Y185928D01*
X-1456588Y185064D01*
X-1460855Y185470D01*
X-1464513Y187604D01*
X-1467053Y191109D01*
X-1467866Y195275D01*
X-1466951Y199440D01*
X-1461719Y210718D01*
X-1459179Y220217D01*
X-1458315Y229971D01*
X-1459179Y239775D01*
X-1461719Y249275D01*
X-1465884Y258165D01*
X-1471523Y266242D01*
X-1478483Y273202D01*
X-1486509Y278790D01*
X-1493520Y282092D01*
X-1496923Y284683D01*
X-1499006Y288442D01*
X-1499311Y292709D01*
X-1497838Y296722D01*
X-1496517Y298805D01*
X-1494637Y304241D01*
X-1493926Y310591D01*
X-1493926Y389432D01*
X-1494637Y395782D01*
X-1496517Y401218D01*
X-1499616Y406146D01*
X-1503680Y410209D01*
X-1508607Y413308D01*
X-1514043Y415188D01*
X-1520393Y415899D01*
X-1570837Y415899D01*
X-1574698Y416712D01*
X-1578000Y418896D01*
X-1608480Y449376D01*
X-1610512Y452272D01*
X-1611426Y455676D01*
X-1612138Y463804D01*
X-1614678Y473303D01*
X-1618843Y482193D01*
X-1624482Y490270D01*
X-1625752Y491490D01*
X-1627987Y494893D01*
X-1628698Y498906D01*
X-1627784Y502869D01*
X-1625396Y506171D01*
X-1620520Y508762D01*
X-1617167Y509320D01*
X-1613814Y508762D01*
X-1611426Y507898D01*
X-1605127Y507187D01*
X-1564233Y507187D01*
X-1557934Y507898D01*
X-1555546Y508762D01*
X-1552194Y509320D01*
X-1548841Y508762D01*
X-1546453Y507898D01*
X-1540103Y507187D01*
X-1506067Y507187D01*
X-1501241Y506171D01*
X-1491894Y505358D01*
X-1488490Y504443D01*
X-1485595Y502412D01*
X-1483969Y500786D01*
X-1475892Y495147D01*
X-1467002Y490982D01*
X-1457502Y488442D01*
X-1447698Y487578D01*
X-1437894Y488442D01*
X-1428394Y490982D01*
X-1419504Y495147D01*
X-1411427Y500786D01*
X-1404467Y507746D01*
X-1398828Y515772D01*
X-1394663Y524713D01*
X-1392123Y534212D01*
X-1391259Y543966D01*
X-1392123Y553770D01*
X-1394663Y563270D01*
X-1398828Y572211D01*
X-1404467Y580237D01*
X-1411427Y587197D01*
X-1419504Y592836D01*
X-1428394Y597001D01*
X-1437894Y599541D01*
X-1447698Y600405D01*
X-1457502Y599541D01*
X-1460601Y598728D01*
X-1464919Y598525D01*
X-1468932Y600151D01*
X-1471930Y603300D01*
X-1473301Y607415D01*
X-1473504Y608888D01*
X-1475384Y614324D01*
X-1478483Y619252D01*
X-1482598Y623316D01*
X-1485290Y625043D01*
X-1488338Y627989D01*
X-1489913Y632002D01*
X-1489710Y636270D01*
X-1487728Y640080D01*
X-1485595Y642670D01*
X-1482039Y649325D01*
X-1479854Y656539D01*
X-1479092Y665581D01*
X-1479804Y695756D01*
X-1479448Y698703D01*
X-1478229Y701395D01*
X-1475435Y705866D01*
X-1473149Y712470D01*
X-1471168Y715873D01*
X-1468069Y718210D01*
X-1464310Y719277D01*
X-1460449Y718820D01*
X-1457045Y716940D01*
X-1453946Y712774D01*
X-1448968Y706729D01*
X-1442923Y701751D01*
X-1436065Y698093D01*
X-1428597Y695807D01*
X-1420317Y694994D01*
X-1369822Y694994D01*
X-1365910Y694232D01*
X-1362659Y691997D01*
X-1360424Y688695D01*
X-1359662Y684834D01*
X-1359662Y634390D01*
X-1358849Y626110D01*
X-1356563Y618591D01*
X-1352905Y611733D01*
X-1347927Y605688D01*
X-1341882Y600710D01*
X-1335024Y597052D01*
X-1327505Y594766D01*
X-1319733Y594004D01*
X-1311960Y594766D01*
X-1304493Y597052D01*
X-1299565Y599694D01*
X-1296416Y600760D01*
X-1293114Y600760D01*
X-1288694Y598982D01*
X-1285443Y596239D01*
X-1283614Y592429D01*
X-1283512Y588162D01*
X-1285189Y584200D01*
X-1286560Y582218D01*
X-1290726Y573278D01*
X-1293266Y563778D01*
X-1294130Y553974D01*
X-1293266Y544220D01*
X-1290726Y534720D01*
X-1286560Y525780D01*
X-1280922Y517753D01*
X-1273962Y510793D01*
X-1265936Y505155D01*
X-1256995Y500989D01*
X-1247495Y498449D01*
X-1237691Y497585D01*
X-1227937Y498449D01*
X-1226515Y498805D01*
X-1222146Y499008D01*
X-1218082Y497332D01*
X-1215085Y494080D01*
X-1213764Y489864D01*
X-1213256Y484225D01*
X-1210716Y474726D01*
X-1206550Y465785D01*
X-1200912Y457758D01*
X-1193952Y450799D01*
X-1185926Y445160D01*
X-1176985Y440994D01*
X-1167485Y438454D01*
X-1157681Y437591D01*
X-1147927Y438454D01*
X-1138428Y440994D01*
X-1129487Y445160D01*
X-1121460Y450799D01*
X-1117955Y454253D01*
X-1114653Y456488D01*
X-1110742Y457250D01*
X-1106881Y456488D01*
X-1103579Y454253D01*
X-1101394Y450951D01*
X-1100582Y447090D01*
X-1100582Y424840D01*
X-1101344Y421081D01*
X-1103376Y417880D01*
X-1106474Y415645D01*
X-1110132Y414731D01*
X-1120292Y415899D01*
X-1125829Y415899D01*
X-1125829Y376377D01*
X-1083614Y376377D01*
X-1079754Y375564D01*
X-1076452Y373380D01*
X-1074216Y370078D01*
X-1073454Y366217D01*
X-1073454Y358851D01*
X-1061059Y358851D01*
X-1061059Y378917D01*
X-1060297Y382828D01*
X-1058062Y386130D01*
X-1054760Y388315D01*
X-1050899Y389077D01*
X-1018489Y389077D01*
X-1014628Y388315D01*
X-1011326Y386130D01*
X-1009142Y382828D01*
X-1008329Y378917D01*
X-1008329Y358851D01*
X-968806Y358851D01*
X-968806Y364439D01*
X-969314Y369265D01*
X-968908Y373532D01*
X-966774Y377240D01*
X-963320Y379730D01*
X-959103Y380542D01*
X-954938Y379628D01*
X-949299Y376986D01*
X-939800Y374446D01*
X-929995Y373583D01*
X-920191Y374446D01*
X-910691Y376986D01*
X-901801Y381152D01*
X-893724Y386791D01*
X-887069Y393395D01*
X-883767Y395630D01*
X-879906Y396392D01*
X-866089Y396392D01*
X-862177Y395630D01*
X-858875Y393395D01*
X-856691Y390144D01*
X-855929Y386232D01*
X-855929Y368046D01*
X-855218Y361746D01*
X-853287Y356260D01*
X-850188Y351383D01*
X-846124Y347268D01*
X-841197Y344220D01*
X-835761Y342290D01*
X-829411Y341579D01*
X-630580Y341579D01*
X-620217Y343001D01*
X-616610Y342188D01*
X-613511Y340156D01*
X-611327Y337108D01*
X-608838Y331774D01*
X-603199Y323748D01*
X-596239Y316788D01*
X-588213Y311150D01*
X-579272Y306984D01*
X-569772Y304444D01*
X-559968Y303580D01*
X-550214Y304444D01*
X-540715Y306984D01*
X-531774Y311150D01*
X-523748Y316788D01*
X-516788Y323748D01*
X-511149Y331774D01*
X-509371Y335584D01*
X-507136Y338683D01*
X-503885Y340766D01*
X-500126Y341477D01*
X-412242Y341477D01*
X-408025Y340563D01*
X-404520Y337921D01*
X-402488Y334111D01*
X-402183Y329793D01*
X-403758Y325729D01*
X-406857Y322732D01*
X-410819Y320192D01*
X-414934Y316128D01*
X-417982Y311200D01*
X-419912Y305765D01*
X-420624Y299415D01*
X-420624Y160578D01*
X-419912Y154228D01*
X-417982Y148793D01*
X-414934Y143916D01*
X-410819Y139801D01*
X-405942Y136702D01*
X-400456Y134823D01*
X-394157Y134112D01*
X-297586Y134112D01*
X-293725Y133299D01*
X-290423Y131114D01*
X-245770Y86512D01*
X-243636Y83362D01*
X-242824Y79705D01*
X-243382Y75946D01*
X-245211Y70764D01*
X-245922Y64465D01*
X-245922Y15595D01*
X-245211Y9245D01*
X-243281Y3810D01*
X-240182Y-1117D01*
X-238506Y-2794D01*
X-236321Y-6096D01*
X-235508Y-10007D01*
X-236321Y-13868D01*
X-238506Y-17170D01*
X-240182Y-18897D01*
X-243281Y-23774D01*
X-245211Y-29260D01*
X-245922Y-35560D01*
X-245922Y-84429D01*
X-245211Y-90728D01*
X-243281Y-96215D01*
X-240182Y-101092D01*
X-236118Y-105206D01*
X-231190Y-108254D01*
X-225755Y-110185D01*
X-219405Y-110896D01*
X-198577Y-110896D01*
X-194665Y-111658D01*
X-191363Y-113893D01*
X-189179Y-117144D01*
X-188417Y-121056D01*
X-188417Y-135128D01*
X-189280Y-139192D01*
X-191668Y-142595D01*
X-195224Y-144729D01*
X-201066Y-146761D01*
X-205994Y-149860D01*
X-210058Y-153924D01*
X-213156Y-158851D01*
X-215036Y-164287D01*
X-215747Y-170637D01*
X-215747Y-249478D01*
X-215036Y-255828D01*
X-213156Y-261264D01*
X-210058Y-266192D01*
X-205994Y-270256D01*
X-201066Y-273354D01*
X-195224Y-275386D01*
X-191668Y-277520D01*
X-189280Y-280924D01*
X-188417Y-284988D01*
X-188417Y-314960D01*
X-189280Y-319024D01*
X-191668Y-322427D01*
X-195224Y-324561D01*
X-201066Y-326593D01*
X-205994Y-329692D01*
X-210058Y-333756D01*
X-213156Y-338683D01*
X-215036Y-344119D01*
X-215747Y-350469D01*
X-215747Y-429310D01*
X-215036Y-435660D01*
X-213156Y-441096D01*
X-210058Y-446024D01*
X-205994Y-450088D01*
X-201066Y-453186D01*
X-195630Y-455066D01*
X-189280Y-455777D01*
X-110439Y-455777D01*
X-104089Y-455066D01*
X-98653Y-453186D01*
X-93726Y-450088D01*
X-89662Y-446024D01*
X-86563Y-441096D01*
X-84683Y-435660D01*
X-83972Y-429310D01*
X-83972Y-350469D01*
X-84683Y-344119D01*
X-86563Y-338683D01*
X-89662Y-333756D01*
X-93726Y-329692D01*
X-98653Y-326593D01*
X-104394Y-324612D01*
X-107950Y-322427D01*
X-110337Y-319074D01*
X-111201Y-315010D01*
X-111201Y-284937D01*
X-110337Y-280873D01*
X-107950Y-277520D01*
X-104394Y-275336D01*
X-98653Y-273354D01*
X-93726Y-270256D01*
X-89662Y-266192D01*
X-86563Y-261264D01*
X-84683Y-255828D01*
X-83972Y-249478D01*
X-83972Y-170637D01*
X-84683Y-164287D01*
X-86563Y-158851D01*
X-89662Y-153924D01*
X-93726Y-149860D01*
X-98653Y-146761D01*
X-104394Y-144780D01*
X-107950Y-142646D01*
X-110337Y-139242D01*
X-111201Y-135178D01*
X-111201Y-114096D01*
X-110286Y-109931D01*
X-107696Y-106476D01*
X-103936Y-104394D01*
X-99669Y-104038D01*
X-95605Y-105511D01*
X-91236Y-108305D01*
X-85750Y-110185D01*
X-79451Y-110896D01*
X-66344Y-110896D01*
X-66344Y-78841D01*
X-103936Y-78841D01*
X-107797Y-78079D01*
X-111099Y-75895D01*
X-113334Y-72593D01*
X-114096Y-68681D01*
X-114096Y-51308D01*
X-113334Y-47396D01*
X-111099Y-44145D01*
X-107797Y-41910D01*
X-103936Y-41148D01*
X-66344Y-41148D01*
X-66344Y-21082D01*
X-65582Y-17170D01*
X-63398Y-13868D01*
X-60096Y-11684D01*
X-56184Y-10922D01*
X-47904Y-10922D01*
X-43992Y-11684D01*
X-40690Y-13868D01*
X-27635Y-26924D01*
X-21437Y-32054D01*
X-19050Y-33324D01*
X-16459Y-35306D01*
X-14630Y-37998D01*
X-13716Y-41148D01*
X29362Y-41148D01*
X32461Y-39268D01*
X36068Y-38608D01*
X112623Y-38608D01*
X116535Y-39370D01*
X119837Y-41605D01*
X122021Y-44856D01*
X122783Y-48768D01*
X122021Y-52679D01*
X119837Y-55930D01*
X34594Y-141173D01*
X31292Y-143357D01*
X27432Y-144170D01*
X-19100Y-144170D01*
X-25450Y-144881D01*
X-30886Y-146761D01*
X-35814Y-149860D01*
X-39878Y-153924D01*
X-42976Y-158851D01*
X-44856Y-164287D01*
X-45567Y-170637D01*
X-45567Y-249478D01*
X-44856Y-255828D01*
X-42976Y-261264D01*
X-39878Y-266192D01*
X-35814Y-270256D01*
X-30886Y-273354D01*
X-25450Y-275234D01*
X-19100Y-275945D01*
X59740Y-275945D01*
X66090Y-275234D01*
X71526Y-273354D01*
X76454Y-270256D01*
X80518Y-266192D01*
X83616Y-261264D01*
X85496Y-255828D01*
X86207Y-249478D01*
X86207Y-202946D01*
X87020Y-199085D01*
X89204Y-195783D01*
X114554Y-170434D01*
X117957Y-168198D01*
X121970Y-167436D01*
X125933Y-168351D01*
X129235Y-170738D01*
X131318Y-174244D01*
X132029Y-176225D01*
X135077Y-181102D01*
X136804Y-182778D01*
X138988Y-186080D01*
X139750Y-189992D01*
X138988Y-193852D01*
X136804Y-197154D01*
X135077Y-198882D01*
X132029Y-203758D01*
X130098Y-209245D01*
X129387Y-215544D01*
X129387Y-221132D01*
X168960Y-221132D01*
X168960Y-201066D01*
X169722Y-197154D01*
X171907Y-193852D01*
X175209Y-191668D01*
X179120Y-190906D01*
X211480Y-190906D01*
X215392Y-191668D01*
X218643Y-193852D01*
X220878Y-197154D01*
X221640Y-201066D01*
X221640Y-221132D01*
X261213Y-221132D01*
X261213Y-215544D01*
X260502Y-209245D01*
X258571Y-203758D01*
X255473Y-198882D01*
X253796Y-197154D01*
X251612Y-193852D01*
X250799Y-189992D01*
X251612Y-186080D01*
X253796Y-182778D01*
X255016Y-181559D01*
X258317Y-179374D01*
X262229Y-178612D01*
X266649Y-178612D01*
X270306Y-179273D01*
X273507Y-181254D01*
X275742Y-184200D01*
X276758Y-187756D01*
X277571Y-195732D01*
X279450Y-201117D01*
X282549Y-206044D01*
X286613Y-210108D01*
X291541Y-213207D01*
X296976Y-215138D01*
X303326Y-215849D01*
X357174Y-215849D01*
X363474Y-215138D01*
X368960Y-213207D01*
X372313Y-211074D01*
X375869Y-209702D01*
X379628Y-209702D01*
X383133Y-211074D01*
X386537Y-213207D01*
X391972Y-215138D01*
X398322Y-215849D01*
X452170Y-215849D01*
X458470Y-215138D01*
X463956Y-213207D01*
X467309Y-211074D01*
X470814Y-209702D01*
X474624Y-209702D01*
X478129Y-211074D01*
X481482Y-213207D01*
X486968Y-215138D01*
X493268Y-215849D01*
X547166Y-215849D01*
X553466Y-215138D01*
X558952Y-213207D01*
X563829Y-210108D01*
X567944Y-206044D01*
X570992Y-201117D01*
X572922Y-195681D01*
X573633Y-189331D01*
X573633Y-90474D01*
X572922Y-84175D01*
X570992Y-78689D01*
X567944Y-73812D01*
X563829Y-69697D01*
X557987Y-66040D01*
X556107Y-64516D01*
X552500Y-59080D01*
X547217Y-52628D01*
X467664Y26924D01*
X461416Y32054D01*
X454761Y35610D01*
X447497Y37795D01*
X439521Y38608D01*
X422046Y38608D01*
X418134Y39370D01*
X414832Y41605D01*
X412648Y44856D01*
X411886Y48768D01*
X411886Y172313D01*
X412648Y176225D01*
X414832Y179527D01*
X516483Y281127D01*
X519734Y283311D01*
X523646Y284073D01*
X548741Y284073D01*
X553008Y283159D01*
X556463Y280466D01*
X558546Y276606D01*
X558749Y272237D01*
X557479Y264922D01*
X557479Y255066D01*
X559155Y245262D01*
X561238Y239471D01*
X561797Y235661D01*
X560882Y231902D01*
X559003Y229209D01*
X561340Y229514D01*
X565302Y228396D01*
X568502Y225755D01*
X573481Y219608D01*
X580948Y213055D01*
X589381Y207873D01*
X598576Y204165D01*
X605129Y202742D01*
X608330Y201472D01*
X610920Y199237D01*
X612597Y196240D01*
X613156Y192836D01*
X613156Y181356D01*
X657707Y181356D01*
X657707Y199440D01*
X656996Y205740D01*
X655624Y209651D01*
X655066Y213309D01*
X655878Y216916D01*
X657910Y220014D01*
X661060Y223316D01*
X666597Y231546D01*
X670661Y240538D01*
X673201Y250139D01*
X674014Y259994D01*
X673201Y269849D01*
X670661Y279450D01*
X666597Y288442D01*
X662025Y295249D01*
X660704Y298043D01*
X660298Y301193D01*
X660857Y304241D01*
X661568Y310591D01*
X661568Y349453D01*
X660857Y355752D01*
X659638Y359156D01*
X659079Y362508D01*
X659638Y365861D01*
X660857Y369265D01*
X661568Y375564D01*
X661568Y414426D01*
X660857Y420725D01*
X659638Y424129D01*
X659079Y427482D01*
X659638Y430834D01*
X660857Y434238D01*
X661568Y440588D01*
X661568Y479450D01*
X660857Y485749D01*
X659638Y489153D01*
X659079Y492506D01*
X659638Y495858D01*
X660857Y499262D01*
X661568Y505561D01*
X661568Y544423D01*
X660857Y550773D01*
X659638Y554126D01*
X659079Y557479D01*
X659638Y560832D01*
X660857Y564235D01*
X661568Y570585D01*
X661568Y573633D01*
X605028Y573633D01*
X601827Y571601D01*
X598068Y570890D01*
X538226Y570890D01*
X534466Y571601D01*
X531266Y573633D01*
X474726Y573633D01*
X474726Y570585D01*
X475437Y564235D01*
X476656Y560832D01*
X477215Y557479D01*
X476656Y554126D01*
X475437Y550773D01*
X474726Y544423D01*
X474726Y508812D01*
X473913Y504799D01*
X471627Y501446D01*
X468172Y499262D01*
X464159Y498652D01*
X418947Y500634D01*
X415290Y501446D01*
X412191Y503580D01*
X408533Y507238D01*
X400507Y512876D01*
X391566Y517042D01*
X382066Y519582D01*
X372313Y520446D01*
X362508Y519582D01*
X353009Y517042D01*
X344068Y512876D01*
X336042Y507238D01*
X329082Y500278D01*
X325983Y495858D01*
X323697Y493522D01*
X320852Y492048D01*
X317652Y491490D01*
X250647Y491490D01*
X244348Y490778D01*
X240842Y489559D01*
X237490Y489000D01*
X234137Y489559D01*
X230632Y490778D01*
X224332Y491490D01*
X213766Y491490D01*
X213766Y444449D01*
X217932Y443687D01*
X221183Y441451D01*
X223418Y438200D01*
X224180Y434289D01*
X224180Y386892D01*
X223418Y383032D01*
X221183Y379730D01*
X217932Y377545D01*
X213766Y376732D01*
X213766Y329692D01*
X224332Y329692D01*
X230632Y330403D01*
X232968Y331216D01*
X236778Y331774D01*
X240538Y330860D01*
X243687Y328625D01*
X245770Y325424D01*
X246481Y321614D01*
X246481Y275285D01*
X245719Y271424D01*
X243484Y268122D01*
X216966Y241604D01*
X213664Y239369D01*
X209804Y238607D01*
X174091Y238607D01*
X170180Y239369D01*
X166878Y241604D01*
X164693Y244856D01*
X163931Y248767D01*
X163931Y319532D01*
X164439Y322834D01*
X166065Y325780D01*
X166065Y380441D01*
X164490Y382981D01*
X163779Y385927D01*
X163118Y392582D01*
X160934Y399796D01*
X157022Y407162D01*
X156108Y409448D01*
X155803Y411937D01*
X155803Y434289D01*
X156565Y438200D01*
X158800Y441451D01*
X162052Y443687D01*
X166065Y444449D01*
X166065Y491490D01*
X155448Y491490D01*
X149148Y490778D01*
X145745Y489610D01*
X142392Y489051D01*
X139039Y489610D01*
X135636Y490778D01*
X129336Y491490D01*
X60452Y491490D01*
X54152Y490778D01*
X50088Y489356D01*
X47091Y488797D01*
X44094Y489153D01*
X41300Y490372D01*
X38404Y492201D01*
X32969Y494080D01*
X26619Y494792D01*
X-52222Y494792D01*
X-58470Y494080D01*
X-65430Y491540D01*
X-69291Y490931D01*
X-73050Y491794D01*
X-76250Y494030D01*
X-78333Y497281D01*
X-79095Y501091D01*
X-79095Y562813D01*
X-78435Y566470D01*
X-76454Y569671D01*
X-73507Y571906D01*
X-69951Y572922D01*
X-61976Y573735D01*
X-56591Y575614D01*
X-51714Y578713D01*
X-47599Y582777D01*
X-44500Y587705D01*
X-42621Y593140D01*
X-41910Y599490D01*
X-41910Y698347D01*
X-42621Y704646D01*
X-44500Y710133D01*
X-47599Y715010D01*
X-51714Y719124D01*
X-56591Y722172D01*
X-62077Y724103D01*
X-68376Y724814D01*
X-147218Y724814D01*
X-152806Y724204D01*
X-157022Y724611D01*
X-160680Y726694D01*
X-163220Y730148D01*
X-164084Y734263D01*
X-164084Y902208D01*
X-164896Y910234D01*
X-167081Y917448D01*
X-170637Y924102D01*
X-175768Y930351D01*
X-302361Y1056944D01*
X-308610Y1062075D01*
X-314147Y1065072D01*
X-316738Y1067054D01*
X-318566Y1069746D01*
X-319481Y1072896D01*
X-319786Y1075740D01*
X-321716Y1081227D01*
X-324764Y1086104D01*
X-328879Y1090218D01*
X-333756Y1093266D01*
X-339242Y1095197D01*
X-345541Y1095908D01*
X-394411Y1095908D01*
X-400761Y1095197D01*
X-406196Y1093266D01*
X-411124Y1090218D01*
X-412800Y1088491D01*
X-416102Y1086307D01*
X-419963Y1085545D01*
X-423875Y1086307D01*
X-427177Y1088491D01*
X-428853Y1090218D01*
X-433781Y1093266D01*
X-439216Y1095197D01*
X-445566Y1095908D01*
X-494436Y1095908D01*
X-500735Y1095197D01*
X-506222Y1093266D01*
X-511098Y1090218D01*
X-515213Y1086104D01*
X-518261Y1081227D01*
X-520293Y1075385D01*
X-522427Y1071829D01*
X-525830Y1069441D01*
X-529894Y1068578D01*
X-630072Y1068578D01*
X-634136Y1069441D01*
X-637540Y1071829D01*
X-639673Y1075385D01*
X-641705Y1081227D01*
X-644804Y1086104D01*
X-648868Y1090218D01*
X-653796Y1093266D01*
X-659231Y1095197D01*
X-665581Y1095908D01*
X-714400Y1095908D01*
X-720750Y1095197D01*
X-726186Y1093266D01*
X-731113Y1090218D01*
X-732790Y1088491D01*
X-736092Y1086307D01*
X-740003Y1085545D01*
X-743864Y1086307D01*
X-747166Y1088491D01*
X-748893Y1090218D01*
X-753770Y1093266D01*
X-759256Y1095197D01*
X-765556Y1095908D01*
X-771144Y1095908D01*
X-771144Y1056335D01*
X-751078Y1056335D01*
X-747166Y1055573D01*
X-743864Y1053388D01*
X-741680Y1050086D01*
X-740918Y1046175D01*
X-740918Y1013815D01*
X-741680Y1009903D01*
X-743864Y1006602D01*
X-747166Y1004417D01*
X-751078Y1003655D01*
X-771144Y1003655D01*
X-771144Y998728D01*
X-750874Y998728D01*
X-747268Y998067D01*
X-744118Y996137D01*
X-741883Y993241D01*
X-740816Y989736D01*
X-740206Y984250D01*
X-738276Y978763D01*
X-735177Y973886D01*
X-731113Y969771D01*
X-726186Y966724D01*
X-720750Y964793D01*
X-714400Y964082D01*
X-683818Y964082D01*
X-679907Y963320D01*
X-676605Y961136D01*
X-674420Y957834D01*
X-673658Y953922D01*
X-673658Y925118D01*
X-618744Y925118D01*
X-614883Y924356D01*
X-611581Y922121D01*
X-609396Y918819D01*
X-608584Y914958D01*
X-608584Y855065D01*
X-609396Y851204D01*
X-611581Y847902D01*
X-614883Y845667D01*
X-618744Y844905D01*
X-673658Y844905D01*
X-673658Y791616D01*
X-630580Y791616D01*
X-624230Y792327D01*
X-622147Y793038D01*
X-618337Y793597D01*
X-614578Y792734D01*
X-611428Y790498D01*
X-609346Y787247D01*
X-608584Y783488D01*
X-608584Y730199D01*
X-609396Y726338D01*
X-611581Y723036D01*
X-633018Y701598D01*
X-636320Y699363D01*
X-640181Y698601D01*
X-759815Y698601D01*
X-763676Y699363D01*
X-766978Y701598D01*
X-778408Y713028D01*
X-780643Y716330D01*
X-781405Y720191D01*
X-781405Y759510D01*
X-782167Y767537D01*
X-784504Y775106D01*
X-785469Y777290D01*
X-786333Y781456D01*
X-786333Y844905D01*
X-843483Y844905D01*
X-847801Y845870D01*
X-851255Y848563D01*
X-853287Y852424D01*
X-853490Y856843D01*
X-847039Y870712D01*
X-844499Y880211D01*
X-843635Y889965D01*
X-844499Y899769D01*
X-848614Y914603D01*
X-847953Y918616D01*
X-845769Y922019D01*
X-842416Y924306D01*
X-838453Y925118D01*
X-786333Y925118D01*
X-786333Y943762D01*
X-798677Y943762D01*
X-802589Y944524D01*
X-805840Y946759D01*
X-808075Y950061D01*
X-808837Y953922D01*
X-808837Y1003655D01*
X-840892Y1003655D01*
X-840892Y990549D01*
X-840079Y983284D01*
X-840384Y979525D01*
X-842010Y976121D01*
X-846124Y972718D01*
X-850188Y968603D01*
X-853287Y963726D01*
X-855218Y958240D01*
X-855929Y951941D01*
X-855929Y947166D01*
X-856843Y942898D01*
X-859485Y939444D01*
X-863396Y937412D01*
X-867765Y937158D01*
X-871829Y938784D01*
X-880719Y942949D01*
X-890219Y945489D01*
X-899972Y946353D01*
X-909777Y945489D01*
X-919480Y942898D01*
X-923391Y942644D01*
X-927049Y943813D01*
X-930046Y946353D01*
X-934618Y955090D01*
X-935685Y958240D01*
X-935685Y961542D01*
X-934618Y964692D01*
X-931976Y969619D01*
X-929690Y977087D01*
X-928928Y984859D01*
X-929690Y992682D01*
X-931976Y1000150D01*
X-935634Y1007008D01*
X-940612Y1013053D01*
X-946658Y1018032D01*
X-953516Y1021689D01*
X-960983Y1023975D01*
X-969264Y1024788D01*
X-1019708Y1024788D01*
X-1023619Y1025550D01*
X-1026871Y1027785D01*
X-1029106Y1031087D01*
X-1029868Y1034948D01*
X-1029868Y1085342D01*
X-1030681Y1093622D01*
X-1032967Y1101140D01*
X-1036624Y1107998D01*
X-1041603Y1114044D01*
X-1047648Y1119022D01*
X-1054506Y1122680D01*
X-1062024Y1124966D01*
X-1069797Y1125728D01*
X-1077569Y1124966D01*
X-1085037Y1122680D01*
X-1089964Y1120038D01*
X-1093114Y1118971D01*
X-1096416Y1118971D01*
X-1099566Y1120038D01*
X-1104493Y1122680D01*
X-1111961Y1124966D01*
X-1119733Y1125728D01*
X-1127506Y1124966D01*
X-1135024Y1122680D01*
X-1139952Y1120038D01*
X-1143101Y1118971D01*
X-1146403Y1118971D01*
X-1149553Y1120038D01*
X-1154531Y1122680D01*
X-1161999Y1124966D01*
X-1169771Y1125728D01*
X-1177544Y1124966D01*
X-1185011Y1122680D01*
X-1189990Y1120038D01*
X-1193088Y1118971D01*
X-1196441Y1118971D01*
X-1199540Y1120038D01*
X-1204518Y1122680D01*
X-1211986Y1124966D01*
X-1219758Y1125728D01*
X-1227531Y1124966D01*
X-1234998Y1122680D01*
X-1239977Y1120038D01*
X-1243126Y1118971D01*
X-1246428Y1118971D01*
X-1249578Y1120038D01*
X-1254506Y1122680D01*
X-1262024Y1124966D01*
X-1269796Y1125728D01*
X-1277569Y1124966D01*
X-1285036Y1122680D01*
X-1289608Y1120241D01*
X-1292707Y1119174D01*
X-1296009Y1119174D01*
X-1299159Y1120241D01*
X-1303731Y1122680D01*
X-1311198Y1124966D01*
X-1318971Y1125728D01*
X-1326743Y1124966D01*
X-1334211Y1122680D01*
X-1341120Y1119022D01*
X-1347165Y1114044D01*
X-1352092Y1107998D01*
X-1355801Y1101140D01*
X-1358087Y1093622D01*
X-1358900Y1085342D01*
X-1358900Y1034948D01*
X-1359662Y1031087D01*
X-1361846Y1027785D01*
X-1365148Y1025550D01*
X-1369060Y1024788D01*
X-1375765Y1024788D01*
X-1379220Y1025398D01*
X-1382217Y1027074D01*
X-1388262Y1032052D01*
X-1394968Y1035608D01*
X-1402181Y1037793D01*
X-1410208Y1038606D01*
X-1564132Y1038606D01*
X-1572158Y1037793D01*
X-1579372Y1035608D01*
X-1586077Y1032052D01*
X-1592275Y1026921D01*
X-1604111Y1015085D01*
X-1607413Y1012901D01*
X-1611325Y1012139D01*
X-1615186Y1012901D01*
X-1623517Y1018286D01*
X-1628952Y1020216D01*
X-1635302Y1020927D01*
X-1648358Y1020927D01*
X-1648358Y988872D01*
X-1633474Y988872D01*
X-1629562Y988110D01*
X-1626311Y985875D01*
X-1624076Y982573D01*
X-1623314Y978712D01*
X-1623314Y961339D01*
X-1624076Y957427D01*
X-1626311Y954125D01*
X-1629562Y951941D01*
X-1633474Y951179D01*
X-1648358Y951179D01*
X-1648358Y931062D01*
X-1649120Y927201D01*
X-1651355Y923899D01*
X-1654657Y921715D01*
X-1658518Y920902D01*
X-1690928Y920902D01*
X-1694789Y921715D01*
X-1698091Y923899D01*
X-1700275Y927201D01*
X-1701088Y931062D01*
X-1701088Y951179D01*
X-1716074Y951179D01*
X-1720342Y952093D01*
X-1723847Y954786D01*
X-1725879Y958697D01*
X-1726082Y963066D01*
X-1724406Y967130D01*
X-1721154Y971803D01*
X-1716836Y981354D01*
X-1714804Y985215D01*
X-1711299Y987907D01*
X-1706981Y988872D01*
X-1701088Y988872D01*
X-1701088Y1020927D01*
X-1711248Y1020927D01*
X-1715007Y1021638D01*
X-1718259Y1023670D01*
X-1721154Y1028192D01*
X-1726793Y1036269D01*
X-1733753Y1043228D01*
X-1741779Y1048867D01*
X-1750720Y1053033D01*
X-1760220Y1055573D01*
X-1769973Y1056436D01*
X-1779778Y1055573D01*
X-1789277Y1053033D01*
X-1798218Y1048867D01*
X-1806244Y1043228D01*
X-1813204Y1036269D01*
X-1818843Y1028192D01*
X-1823008Y1019302D01*
X-1825548Y1009802D01*
X-1826412Y999998D01*
X-1825548Y990193D01*
X-1823008Y980694D01*
X-1818843Y971803D01*
X-1813204Y963726D01*
X-1811578Y962101D01*
X-1809394Y958799D01*
X-1808581Y954887D01*
X-1808581Y927709D01*
X-1809394Y923848D01*
X-1811578Y920546D01*
X-1814880Y918362D01*
X-1818741Y917549D01*
X-1822653Y918362D01*
X-1825955Y920546D01*
X-1828139Y922731D01*
X-1834337Y927862D01*
X-1841042Y931418D01*
X-1845157Y933297D01*
X-1847545Y935786D01*
X-1848967Y938987D01*
X-1849221Y942441D01*
X-1848866Y945845D01*
X-1849628Y953617D01*
X-1851914Y961136D01*
X-1855571Y967994D01*
X-1860550Y974039D01*
X-1866595Y979017D01*
X-1873453Y982675D01*
X-1880971Y984961D01*
X-1889201Y985774D01*
X-1952853Y985774D01*
X-1956765Y986536D01*
X-1960067Y988720D01*
X-1962251Y992022D01*
X-1963013Y995934D01*
X-1963013Y1055522D01*
X-1963826Y1063802D01*
X-1966112Y1071270D01*
X-1969820Y1078179D01*
X-1974748Y1084224D01*
X-1980793Y1089152D01*
X-1987702Y1092860D01*
X-1995170Y1095095D01*
X-2002942Y1095857D01*
X-2010714Y1095095D01*
X-2018182Y1092860D01*
X-2023160Y1090168D01*
X-2026310Y1089101D01*
X-2029612Y1089101D01*
X-2032762Y1090168D01*
X-2037740Y1092860D01*
X-2045207Y1095095D01*
X-2052980Y1095857D01*
X-2060752Y1095095D01*
X-2068220Y1092860D01*
X-2073198Y1090168D01*
X-2076348Y1089101D01*
X-2079650Y1089101D01*
X-2082800Y1090168D01*
X-2087778Y1092860D01*
X-2095246Y1095095D01*
X-2103018Y1095857D01*
X-2110790Y1095095D01*
X-2118258Y1092860D01*
X-2123236Y1090168D01*
X-2126386Y1089101D01*
X-2129688Y1089101D01*
X-2132838Y1090168D01*
X-2137816Y1092860D01*
X-2145284Y1095095D01*
X-2153056Y1095857D01*
X-2160828Y1095095D01*
X-2168296Y1092860D01*
X-2173274Y1090168D01*
X-2176424Y1089101D01*
X-2179726Y1089101D01*
X-2182876Y1090168D01*
X-2187854Y1092860D01*
X-2195322Y1095095D01*
X-2203094Y1095857D01*
X-2210866Y1095095D01*
X-2218334Y1092860D01*
X-2223312Y1090168D01*
X-2226462Y1089101D01*
X-2229764Y1089101D01*
X-2232914Y1090168D01*
X-2237892Y1092860D01*
X-2245360Y1095095D01*
X-2253132Y1095857D01*
X-2260904Y1095095D01*
X-2268372Y1092860D01*
X-2273249Y1090269D01*
X-2276348Y1089202D01*
X-2279700Y1089202D01*
X-2282799Y1090269D01*
X-2287676Y1092860D01*
X-2295144Y1095095D01*
X-2302916Y1095857D01*
X-2310688Y1095095D01*
X-2318156Y1092860D01*
X-2323134Y1090168D01*
X-2326284Y1089101D01*
X-2329586Y1089101D01*
X-2332736Y1090168D01*
X-2337714Y1092860D01*
X-2345182Y1095095D01*
X-2352954Y1095857D01*
X-2360726Y1095095D01*
X-2368194Y1092860D01*
X-2373172Y1090168D01*
X-2376322Y1089101D01*
X-2379624Y1089101D01*
X-2382774Y1090168D01*
X-2387752Y1092860D01*
X-2395220Y1095095D01*
X-2402992Y1095857D01*
X-2410764Y1095095D01*
X-2418232Y1092860D01*
X-2423210Y1090168D01*
X-2426360Y1089101D01*
X-2429662Y1089101D01*
X-2432812Y1090168D01*
X-2437790Y1092860D01*
X-2445258Y1095095D01*
X-2453030Y1095857D01*
X-2460802Y1095095D01*
X-2468270Y1092860D01*
X-2473248Y1090168D01*
X-2476398Y1089101D01*
X-2479700Y1089101D01*
X-2482850Y1090168D01*
X-2487828Y1092860D01*
X-2495296Y1095095D01*
X-2503068Y1095857D01*
X-2510840Y1095095D01*
X-2518308Y1092860D01*
X-2523286Y1090168D01*
X-2526436Y1089101D01*
X-2529738Y1089101D01*
X-2532888Y1090168D01*
X-2537866Y1092860D01*
X-2545334Y1095095D01*
X-2553106Y1095857D01*
X-2560878Y1095095D01*
X-2568346Y1092860D01*
X-2575255Y1089152D01*
X-2581300Y1084224D01*
X-2586228Y1078179D01*
X-2589936Y1071270D01*
X-2592222Y1063802D01*
X-2592425Y1061720D01*
X-2593746Y1057554D01*
X-2596743Y1054354D01*
X-2600756Y1052677D01*
X-2605125Y1052880D01*
X-2614930Y1055522D01*
X-2624683Y1056386D01*
X-2634488Y1055522D01*
X-2643987Y1052982D01*
X-2652877Y1048816D01*
X-2660954Y1043178D01*
X-2667914Y1036218D01*
X-2673502Y1028192D01*
X-2677668Y1019302D01*
X-2680208Y1009802D01*
X-2681071Y999998D01*
X-2679903Y986129D01*
X-2681071Y982421D01*
X-2683510Y979474D01*
X-2688894Y975055D01*
X-2691434Y972007D01*
X-2694736Y969365D01*
X-2698800Y968298D01*
X-2702915Y968959D01*
X-2706471Y971245D01*
X-2708452Y973226D01*
X-2716479Y978865D01*
X-2725420Y983030D01*
X-2734919Y985570D01*
X-2744724Y986434D01*
X-2754477Y985570D01*
X-2763977Y983030D01*
X-2772918Y978865D01*
X-2780944Y973226D01*
X-2787904Y966266D01*
X-2793542Y958189D01*
X-2797708Y949299D01*
X-2800248Y939800D01*
X-2801112Y929995D01*
X-2800248Y920191D01*
X-2797708Y910691D01*
X-2793542Y901801D01*
X-2787904Y893724D01*
X-2780944Y886764D01*
X-2776016Y883310D01*
X-2773324Y880516D01*
X-2771902Y876909D01*
X-2771902Y873048D01*
X-2773324Y869442D01*
X-2776016Y866648D01*
X-2780944Y863193D01*
X-2787904Y856234D01*
X-2793542Y848207D01*
X-2797708Y839266D01*
X-2800248Y829767D01*
X-2801112Y819962D01*
X-2800248Y810209D01*
X-2797708Y800709D01*
X-2793542Y791768D01*
X-2789377Y785825D01*
X-2787751Y782066D01*
X-2787751Y777951D01*
X-2789377Y774192D01*
X-2793542Y768197D01*
X-2797708Y759307D01*
X-2800248Y749808D01*
X-2801112Y740003D01*
X-2800248Y730199D01*
X-2797708Y720699D01*
X-2795270Y715416D01*
X-2794304Y711403D01*
X-2795016Y707339D01*
X-2797251Y703935D01*
X-2800908Y700278D01*
X-2806547Y692200D01*
X-2810713Y683310D01*
X-2813253Y673811D01*
X-2814116Y664006D01*
X-2813253Y654202D01*
X-2810713Y644702D01*
X-2806547Y635812D01*
X-2800908Y627735D01*
X-2793949Y620776D01*
X-2785922Y615137D01*
X-2781706Y613156D01*
X-2778607Y610920D01*
X-2776524Y607720D01*
X-2775813Y603961D01*
X-2776524Y600202D01*
X-2778607Y597001D01*
X-2781706Y594766D01*
X-2785872Y592785D01*
X-2793949Y587197D01*
X-2800908Y580237D01*
X-2806496Y572160D01*
X-2810662Y563270D01*
X-2813202Y553770D01*
X-2814066Y543966D01*
X-2813202Y534212D01*
X-2810662Y524713D01*
X-2806496Y515823D01*
X-2800908Y507746D01*
X-2793949Y500786D01*
X-2785872Y495198D01*
X-2776982Y491032D01*
X-2767482Y488492D01*
X-2757678Y487629D01*
X-2747924Y488492D01*
X-2744774Y489305D01*
X-2741269Y489610D01*
X-2737866Y488696D01*
X-2734970Y486714D01*
X-2718054Y469747D01*
X-2711805Y464667D01*
X-2710637Y464058D01*
X-2707233Y461060D01*
X-2705455Y456946D01*
X-2705658Y452424D01*
X-2707741Y448462D01*
X-2711348Y445770D01*
X-2711348Y412851D01*
X-2706065Y411988D01*
X-2702661Y409498D01*
X-2700528Y405892D01*
X-2700070Y401726D01*
X-2700578Y396697D01*
X-2699207Y384505D01*
X-2700172Y380898D01*
X-2702458Y377850D01*
X-2705608Y375869D01*
X-2709316Y375158D01*
X-2711348Y375158D01*
X-2711348Y355092D01*
X-2712161Y351180D01*
X-2714345Y347878D01*
X-2717647Y345694D01*
X-2721508Y344932D01*
X-2753918Y344932D01*
X-2757779Y345694D01*
X-2761081Y347878D01*
X-2763316Y351180D01*
X-2764078Y355092D01*
X-2764078Y375158D01*
X-2803601Y375158D01*
X-2803601Y369570D01*
X-2802890Y363270D01*
X-2801010Y357784D01*
X-2797911Y352907D01*
X-2796235Y351180D01*
X-2794000Y347878D01*
X-2793238Y344017D01*
X-2794000Y340106D01*
X-2796235Y336804D01*
X-2797911Y335127D01*
X-2801010Y330200D01*
X-2802890Y324764D01*
X-2803601Y318414D01*
X-2803601Y269595D01*
X-2802890Y263245D01*
X-2801010Y257810D01*
X-2797911Y252882D01*
X-2794254Y248615D01*
X-2793238Y245719D01*
X-2793136Y242722D01*
X-2793644Y238455D01*
X-2793644Y189585D01*
X-2792933Y183235D01*
X-2791002Y177800D01*
X-2787904Y172872D01*
X-2786227Y171196D01*
X-2783992Y167894D01*
X-2783230Y163982D01*
X-2783992Y160121D01*
X-2786227Y156819D01*
X-2787904Y155143D01*
X-2791002Y150215D01*
X-2792933Y144780D01*
X-2793644Y138430D01*
X-2793644Y132842D01*
X-2754071Y132842D01*
X-2754071Y152958D01*
X-2753309Y156819D01*
X-2751074Y160121D01*
X-2747772Y162306D01*
X-2743911Y163118D01*
X-2711500Y163118D01*
X-2707640Y162306D01*
X-2704338Y160121D01*
X-2702153Y156819D01*
X-2701340Y152958D01*
X-2701340Y132842D01*
X-2661818Y132842D01*
X-2661818Y138430D01*
X-2662529Y144780D01*
X-2664409Y150215D01*
X-2667508Y155143D01*
X-2669235Y156819D01*
X-2671419Y160121D01*
X-2672181Y163982D01*
X-2671419Y167894D01*
X-2669235Y171196D01*
X-2667508Y172872D01*
X-2664409Y177800D01*
X-2662529Y183235D01*
X-2661818Y189585D01*
X-2661818Y238455D01*
X-2662529Y244906D01*
X-2662174Y248869D01*
X-2660345Y252425D01*
X-2657246Y254965D01*
X-2645968Y258368D01*
X-2639314Y261924D01*
X-2633065Y267055D01*
X-2629255Y270865D01*
X-2626410Y272846D01*
X-2622956Y273761D01*
X-2614930Y274472D01*
X-2610764Y275590D01*
X-2606700Y275844D01*
X-2602839Y274472D01*
X-2599842Y271729D01*
X-2598216Y267970D01*
X-2598115Y263906D01*
X-2599994Y258978D01*
X-2600045Y249224D01*
X-2600604Y244398D01*
X-2600604Y195580D01*
X-2599994Y189585D01*
X-2599994Y150368D01*
X-2600299Y147218D01*
X-2601214Y143967D01*
X-2603195Y141173D01*
X-2646273Y98145D01*
X-2649575Y95910D01*
X-2653436Y95148D01*
X-2701340Y95148D01*
X-2701340Y90170D01*
X-2702153Y86258D01*
X-2704338Y82956D01*
X-2707640Y80772D01*
X-2711500Y80010D01*
X-2743911Y80010D01*
X-2747772Y80772D01*
X-2751074Y82956D01*
X-2753309Y86258D01*
X-2754071Y90170D01*
X-2754071Y95148D01*
X-2793644Y95148D01*
X-2793644Y90170D01*
X-2794406Y86258D01*
X-2796590Y82956D01*
X-2799892Y80772D01*
X-2803804Y80010D01*
X-2848660Y80010D01*
X-2852521Y80772D01*
X-2855823Y82956D01*
X-2858008Y86258D01*
X-2858820Y90170D01*
X-2858820Y1083970D01*
X-2857906Y1097534D01*
X-2855722Y1109268D01*
X-2852064Y1120698D01*
X-2847086Y1131570D01*
X-2840837Y1141730D01*
X-2833420Y1151128D01*
X-2824886Y1159510D01*
X-2815437Y1166825D01*
X-2805176Y1172972D01*
X-2794254Y1177798D01*
X-2782824Y1181303D01*
X-2771038Y1183386D01*
X-2758643Y1184097D01*
X889253Y1184097D01*
X902817Y1183233D01*
X914603Y1180998D01*
X925982Y1177340D01*
X936853Y1172362D01*
X947013Y1166114D01*
X956411Y1158697D01*
X964793Y1150213D01*
X972108Y1140714D01*
X978255Y1130452D01*
X983081Y1119530D01*
X986586Y1108100D01*
X988669Y1096314D01*
X989380Y1083970D01*
X989380Y-663956D01*
X988517Y-677519D01*
X986282Y-689305D01*
X982624Y-700684D01*
X977696Y-711555D01*
X971448Y-721766D01*
X963980Y-731113D01*
X955497Y-739495D01*
X946048Y-746810D01*
X935736Y-752957D01*
X924814Y-757783D01*
X913384Y-761288D01*
X901598Y-763371D01*
X889253Y-764082D01*
G37*

%LPC*%
G36*
X274167Y-675894D02*
G01*
X279755Y-675894D01*
X286054Y-675182D01*
X291541Y-673303D01*
X296418Y-670204D01*
X298094Y-668528D01*
X301396Y-666292D01*
X305308Y-665530D01*
X309168Y-666292D01*
X312470Y-668528D01*
X314198Y-670204D01*
X319074Y-673303D01*
X324561Y-675182D01*
X330860Y-675894D01*
X336448Y-675894D01*
X336448Y-636320D01*
X274167Y-636371D01*
G37*
G36*
X130860Y-675894D02*
G01*
X179730Y-675894D01*
X186029Y-675182D01*
X191516Y-673303D01*
X196392Y-670204D01*
X198120Y-668477D01*
X201422Y-666292D01*
X205282Y-665530D01*
X209194Y-666292D01*
X212496Y-668477D01*
X214172Y-670204D01*
X219100Y-673303D01*
X224536Y-675182D01*
X230886Y-675894D01*
X236474Y-675894D01*
X236474Y-636371D01*
X216357Y-636371D01*
X212496Y-635558D01*
X209194Y-633374D01*
X207010Y-630072D01*
X206197Y-626211D01*
X206197Y-593801D01*
X207010Y-589940D01*
X209194Y-586638D01*
X212496Y-584403D01*
X216357Y-583641D01*
X236474Y-583641D01*
X236474Y-544068D01*
X230886Y-544068D01*
X224536Y-544779D01*
X219100Y-546709D01*
X214172Y-549808D01*
X212496Y-551484D01*
X209194Y-553720D01*
X205282Y-554482D01*
X201422Y-553720D01*
X198120Y-551484D01*
X196392Y-549808D01*
X191516Y-546709D01*
X186029Y-544779D01*
X179730Y-544068D01*
X130860Y-544068D01*
X124561Y-544779D01*
X119075Y-546709D01*
X114198Y-549808D01*
X110083Y-553872D01*
X107035Y-558800D01*
X105968Y-561746D01*
X103885Y-565251D01*
X100634Y-567639D01*
X96723Y-568553D01*
X92710Y-567893D01*
X89306Y-565708D01*
X87020Y-562356D01*
X86207Y-558393D01*
X86207Y-540461D01*
X85496Y-534111D01*
X83616Y-528675D01*
X80518Y-523748D01*
X76454Y-519684D01*
X71526Y-516585D01*
X66090Y-514705D01*
X59740Y-513994D01*
X-19100Y-513994D01*
X-25450Y-514705D01*
X-30886Y-516585D01*
X-35814Y-519684D01*
X-39878Y-523748D01*
X-42976Y-528675D01*
X-44856Y-534111D01*
X-45567Y-540461D01*
X-45567Y-619302D01*
X-44856Y-625652D01*
X-42976Y-631088D01*
X-39878Y-636016D01*
X-35814Y-640080D01*
X-30886Y-643178D01*
X-25450Y-645058D01*
X-19100Y-645769D01*
X34645Y-645769D01*
X37592Y-646226D01*
X42824Y-647801D01*
X50850Y-648614D01*
X95402Y-648614D01*
X99466Y-649478D01*
X102870Y-651865D01*
X105003Y-655421D01*
X107035Y-661212D01*
X110083Y-666089D01*
X114198Y-670204D01*
X119075Y-673303D01*
X124561Y-675182D01*
G37*
G36*
X374142Y-675894D02*
G01*
X379730Y-675894D01*
X386029Y-675182D01*
X391515Y-673303D01*
X396392Y-670204D01*
X398119Y-668477D01*
X401421Y-666292D01*
X405282Y-665530D01*
X409194Y-666292D01*
X412496Y-668477D01*
X414172Y-670204D01*
X419100Y-673303D01*
X424535Y-675182D01*
X430885Y-675894D01*
X479704Y-675894D01*
X486054Y-675182D01*
X491490Y-673303D01*
X496417Y-670204D01*
X500481Y-666089D01*
X503580Y-661212D01*
X505510Y-655726D01*
X506222Y-649427D01*
X506222Y-617880D01*
X506984Y-614019D01*
X509168Y-610717D01*
X537921Y-581964D01*
X541324Y-579729D01*
X545388Y-578967D01*
X549402Y-579932D01*
X556006Y-583031D01*
X565505Y-585571D01*
X575310Y-586435D01*
X585063Y-585571D01*
X594563Y-583031D01*
X603504Y-578866D01*
X611530Y-573227D01*
X622300Y-562406D01*
X626313Y-561035D01*
X630529Y-561441D01*
X634238Y-563575D01*
X636778Y-566978D01*
X637641Y-571144D01*
X637641Y-577443D01*
X638352Y-583742D01*
X640283Y-589229D01*
X643331Y-594106D01*
X647446Y-598220D01*
X652322Y-601268D01*
X657809Y-603199D01*
X664108Y-603910D01*
X820470Y-603910D01*
X826769Y-603199D01*
X832256Y-601268D01*
X837133Y-598220D01*
X841248Y-594106D01*
X844296Y-589229D01*
X846226Y-583742D01*
X846937Y-577443D01*
X846937Y-408584D01*
X846226Y-402234D01*
X844296Y-396798D01*
X841248Y-391871D01*
X837133Y-387807D01*
X832256Y-384708D01*
X826769Y-382778D01*
X820470Y-382066D01*
X676351Y-382066D01*
X668782Y-381406D01*
X583793Y-381406D01*
X580136Y-380695D01*
X576935Y-378764D01*
X574700Y-375767D01*
X573684Y-372211D01*
X572871Y-364134D01*
X570992Y-358749D01*
X567944Y-353822D01*
X563829Y-349758D01*
X558952Y-346659D01*
X553466Y-344728D01*
X547166Y-344017D01*
X493268Y-344017D01*
X486968Y-344728D01*
X481482Y-346659D01*
X478129Y-348792D01*
X474624Y-350164D01*
X470814Y-350164D01*
X467309Y-348792D01*
X463956Y-346659D01*
X458470Y-344728D01*
X452170Y-344017D01*
X445312Y-344017D01*
X445312Y-388569D01*
X456641Y-388569D01*
X460552Y-389382D01*
X463854Y-391566D01*
X466039Y-394868D01*
X466801Y-398729D01*
X466801Y-441147D01*
X466039Y-445008D01*
X463854Y-448309D01*
X460552Y-450494D01*
X456641Y-451307D01*
X445312Y-451307D01*
X445312Y-495858D01*
X452170Y-495858D01*
X458470Y-495147D01*
X463956Y-493217D01*
X466140Y-491845D01*
X470154Y-490372D01*
X474472Y-490728D01*
X478231Y-492810D01*
X480771Y-496265D01*
X481685Y-500481D01*
X481685Y-524764D01*
X480923Y-528675D01*
X478688Y-531977D01*
X469544Y-541121D01*
X466293Y-543306D01*
X462381Y-544068D01*
X430885Y-544068D01*
X424535Y-544779D01*
X419100Y-546709D01*
X414172Y-549808D01*
X412496Y-551484D01*
X409194Y-553669D01*
X405282Y-554482D01*
X401421Y-553669D01*
X398119Y-551484D01*
X396392Y-549808D01*
X391515Y-546709D01*
X386029Y-544779D01*
X379730Y-544068D01*
X374142Y-544068D01*
X374142Y-583641D01*
X394208Y-583641D01*
X398119Y-584403D01*
X401421Y-586638D01*
X403606Y-589940D01*
X404368Y-593801D01*
X404368Y-626160D01*
X403606Y-630072D01*
X401421Y-633374D01*
X398119Y-635558D01*
X394208Y-636320D01*
X374142Y-636320D01*
G37*
G36*
X-189280Y-645769D02*
G01*
X-110439Y-645769D01*
X-104089Y-645058D01*
X-98653Y-643178D01*
X-93726Y-640080D01*
X-89662Y-636016D01*
X-86563Y-631088D01*
X-84683Y-625652D01*
X-83972Y-619302D01*
X-83972Y-540461D01*
X-84683Y-534111D01*
X-86563Y-528675D01*
X-89662Y-523748D01*
X-93726Y-519684D01*
X-98653Y-516585D01*
X-104089Y-514705D01*
X-110439Y-513994D01*
X-157022Y-513994D01*
X-160934Y-513181D01*
X-164236Y-510997D01*
X-192176Y-483057D01*
X-198374Y-477926D01*
X-205028Y-474370D01*
X-212293Y-472185D01*
X-220319Y-471424D01*
X-294894Y-471424D01*
X-298805Y-470611D01*
X-302107Y-468426D01*
X-303733Y-466801D01*
X-311810Y-461162D01*
X-320700Y-456996D01*
X-330200Y-454456D01*
X-340004Y-453593D01*
X-349808Y-454456D01*
X-359308Y-456996D01*
X-368198Y-461162D01*
X-376275Y-466801D01*
X-383235Y-473760D01*
X-388874Y-481787D01*
X-393039Y-490728D01*
X-395579Y-500227D01*
X-396443Y-510032D01*
X-395579Y-519785D01*
X-393039Y-529285D01*
X-388874Y-538226D01*
X-383235Y-546252D01*
X-376275Y-553212D01*
X-368198Y-558850D01*
X-359308Y-563016D01*
X-349808Y-565556D01*
X-340004Y-566420D01*
X-330200Y-565556D01*
X-320700Y-563016D01*
X-311810Y-558850D01*
X-303733Y-553212D01*
X-302107Y-551586D01*
X-298805Y-549402D01*
X-294894Y-548640D01*
X-240029Y-548640D01*
X-236118Y-549402D01*
X-232816Y-551586D01*
X-218744Y-565658D01*
X-216560Y-568960D01*
X-215747Y-572871D01*
X-215747Y-619302D01*
X-215036Y-625652D01*
X-213156Y-631088D01*
X-210058Y-636016D01*
X-205994Y-640080D01*
X-201066Y-643178D01*
X-195630Y-645058D01*
G37*
G36*
X274167Y-583641D02*
G01*
X336448Y-583641D01*
X336448Y-544068D01*
X330860Y-544068D01*
X324561Y-544779D01*
X319074Y-546709D01*
X314198Y-549808D01*
X312470Y-551484D01*
X309168Y-553669D01*
X305308Y-554482D01*
X301396Y-553669D01*
X298094Y-551484D01*
X296418Y-549808D01*
X291541Y-546709D01*
X286054Y-544779D01*
X279755Y-544068D01*
X274167Y-544068D01*
G37*
G36*
X303326Y-495858D02*
G01*
X357174Y-495858D01*
X363474Y-495147D01*
X368960Y-493217D01*
X372313Y-491083D01*
X375869Y-489712D01*
X379628Y-489712D01*
X383133Y-491083D01*
X386537Y-493217D01*
X391972Y-495147D01*
X398322Y-495858D01*
X405130Y-495858D01*
X405130Y-451307D01*
X393801Y-451307D01*
X389940Y-450494D01*
X386638Y-448309D01*
X384403Y-445008D01*
X383641Y-441147D01*
X383641Y-398729D01*
X384403Y-394868D01*
X386638Y-391566D01*
X389940Y-389382D01*
X393801Y-388569D01*
X405130Y-388569D01*
X405130Y-344017D01*
X398322Y-344017D01*
X391972Y-344728D01*
X386537Y-346659D01*
X383133Y-348792D01*
X379628Y-350164D01*
X375869Y-350164D01*
X372313Y-348792D01*
X368960Y-346659D01*
X363474Y-344728D01*
X357174Y-344017D01*
X303326Y-344017D01*
X296976Y-344728D01*
X291541Y-346659D01*
X286613Y-349758D01*
X282549Y-353822D01*
X279450Y-358749D01*
X277571Y-364134D01*
X276758Y-372211D01*
X275742Y-375767D01*
X273507Y-378764D01*
X270306Y-380695D01*
X266649Y-381406D01*
X96367Y-381406D01*
X92506Y-380644D01*
X89204Y-378409D01*
X87020Y-375107D01*
X86207Y-371246D01*
X86207Y-350469D01*
X85496Y-344119D01*
X83616Y-338683D01*
X80518Y-333756D01*
X76454Y-329692D01*
X71526Y-326593D01*
X66090Y-324713D01*
X59740Y-324002D01*
X-19100Y-324002D01*
X-25450Y-324713D01*
X-30886Y-326593D01*
X-35814Y-329692D01*
X-39878Y-333756D01*
X-42976Y-338683D01*
X-44856Y-344119D01*
X-45567Y-350469D01*
X-45567Y-429310D01*
X-44856Y-435660D01*
X-42976Y-441096D01*
X-39878Y-446024D01*
X-35814Y-450088D01*
X-30886Y-453186D01*
X-25450Y-455066D01*
X-19100Y-455777D01*
X34696Y-455777D01*
X37642Y-456234D01*
X42875Y-457809D01*
X50850Y-458622D01*
X266649Y-458622D01*
X270306Y-459282D01*
X273507Y-461264D01*
X275742Y-464210D01*
X276758Y-467766D01*
X277571Y-475742D01*
X279450Y-481177D01*
X282549Y-486054D01*
X286613Y-490169D01*
X291541Y-493217D01*
X296976Y-495147D01*
G37*
G36*
X791159Y-338480D02*
G01*
X802792Y-331927D01*
X814171Y-323443D01*
X824382Y-313537D01*
X833221Y-302412D01*
X840587Y-290271D01*
X841705Y-287832D01*
X791159Y-287832D01*
G37*
G36*
X693420Y-338480D02*
G01*
X693420Y-287832D01*
X642924Y-287832D01*
X643991Y-290271D01*
X651357Y-302412D01*
X660196Y-313537D01*
X670407Y-323443D01*
X681786Y-331927D01*
G37*
G36*
X155854Y-290880D02*
G01*
X168960Y-290880D01*
X168960Y-258825D01*
X129387Y-258825D01*
X129387Y-264414D01*
X130098Y-270713D01*
X132029Y-276199D01*
X135077Y-281076D01*
X139192Y-285191D01*
X144068Y-288290D01*
X149555Y-290169D01*
G37*
G36*
X221640Y-290880D02*
G01*
X234696Y-290880D01*
X241046Y-290169D01*
X246481Y-288290D01*
X251409Y-285191D01*
X255473Y-281076D01*
X258571Y-276199D01*
X260502Y-270713D01*
X261213Y-264414D01*
X261213Y-258825D01*
X221640Y-258825D01*
G37*
G36*
X642975Y-190144D02*
G01*
X693420Y-190144D01*
X693420Y-139700D01*
X687882Y-142392D01*
X675995Y-150114D01*
X665175Y-159359D01*
X655624Y-169875D01*
X647446Y-181508D01*
G37*
G36*
X791159Y-190144D02*
G01*
X841603Y-190144D01*
X837133Y-181508D01*
X829005Y-169875D01*
X819454Y-159359D01*
X808634Y-150114D01*
X796696Y-142392D01*
X791159Y-139700D01*
G37*
G36*
X-13665Y-110896D02*
G01*
X-558Y-110896D01*
X5740Y-110185D01*
X11226Y-108305D01*
X16103Y-105206D01*
X20218Y-101092D01*
X23266Y-96215D01*
X25196Y-90728D01*
X25908Y-84429D01*
X25908Y-78841D01*
X-13665Y-78841D01*
G37*
G36*
X-2104136Y-20929D02*
G01*
X-2091029Y-20929D01*
X-2091029Y11125D01*
X-2130602Y11125D01*
X-2130602Y5588D01*
X-2129891Y-762D01*
X-2127961Y-6197D01*
X-2124913Y-11125D01*
X-2120798Y-15189D01*
X-2115921Y-18288D01*
X-2110435Y-20218D01*
G37*
G36*
X-1499870Y2590D02*
G01*
X-1473352Y2590D01*
X-1473352Y38608D01*
X-1476654Y39319D01*
X-1480108Y41910D01*
X-1481378Y44246D01*
X-1481226Y42418D01*
X-1482801Y38354D01*
X-1485900Y35306D01*
X-1490065Y32664D01*
X-1494180Y28600D01*
X-1497279Y23672D01*
X-1499158Y18237D01*
X-1499870Y11887D01*
G37*
G36*
X-1639163Y54102D02*
G01*
X-1633575Y54102D01*
X-1633575Y93624D01*
X-1665630Y93624D01*
X-1665630Y80568D01*
X-1664919Y74269D01*
X-1662988Y68783D01*
X-1659940Y63906D01*
X-1655825Y59791D01*
X-1650949Y56692D01*
X-1645462Y54813D01*
G37*
G36*
X613156Y74117D02*
G01*
X631240Y74117D01*
X637540Y74828D01*
X643026Y76708D01*
X647903Y79806D01*
X652018Y83870D01*
X655116Y88798D01*
X656996Y94234D01*
X657707Y100584D01*
X657707Y118668D01*
X613156Y118668D01*
G37*
G36*
X532384Y74117D02*
G01*
X550468Y74117D01*
X550468Y118668D01*
X505917Y118668D01*
X505917Y100584D01*
X506628Y94234D01*
X508508Y88798D01*
X511606Y83870D01*
X515721Y79806D01*
X520598Y76708D01*
X526034Y74828D01*
G37*
G36*
X888187Y93370D02*
G01*
X896061Y95097D01*
X907542Y99364D01*
X918260Y105257D01*
X928065Y112572D01*
X936752Y121259D01*
X944118Y131064D01*
X949604Y141173D01*
X888187Y141173D01*
G37*
G36*
X775512Y93370D02*
G01*
X775512Y141173D01*
X714095Y141173D01*
X719582Y131064D01*
X726948Y121259D01*
X735584Y112572D01*
X745439Y105257D01*
X756158Y99364D01*
X767638Y95097D01*
G37*
G36*
X-1665630Y146354D02*
G01*
X-1633575Y146354D01*
X-1633575Y185928D01*
X-1639163Y185928D01*
X-1645462Y185216D01*
X-1650949Y183286D01*
X-1655825Y180187D01*
X-1659940Y176123D01*
X-1662988Y171196D01*
X-1664919Y165760D01*
X-1665630Y159410D01*
G37*
G36*
X-2275890Y166370D02*
G01*
X-2243785Y166370D01*
X-2243785Y179425D01*
X-2244496Y185724D01*
X-2246426Y191211D01*
X-2249525Y196088D01*
X-2253589Y200202D01*
X-2258517Y203301D01*
X-2263952Y205181D01*
X-2270302Y205892D01*
X-2275890Y205892D01*
G37*
G36*
X505917Y181356D02*
G01*
X550468Y181356D01*
X550468Y219405D01*
X551281Y223418D01*
X553262Y226212D01*
X551637Y225907D01*
X532384Y225907D01*
X526034Y225196D01*
X520598Y223316D01*
X515721Y220217D01*
X511606Y216103D01*
X508508Y211226D01*
X506628Y205740D01*
X505917Y199440D01*
G37*
G36*
X714095Y213867D02*
G01*
X775512Y213867D01*
X775512Y261620D01*
X767638Y259892D01*
X756158Y255625D01*
X745439Y249732D01*
X735584Y242417D01*
X726948Y233730D01*
X719582Y223926D01*
G37*
G36*
X888187Y213867D02*
G01*
X949604Y213867D01*
X944118Y223926D01*
X936752Y233730D01*
X928065Y242417D01*
X918260Y249732D01*
X907542Y255625D01*
X896061Y259892D01*
X888187Y261620D01*
G37*
G36*
X-1125829Y284073D02*
G01*
X-1120292Y284073D01*
X-1113942Y284784D01*
X-1108506Y286715D01*
X-1103579Y289814D01*
X-1101293Y292049D01*
X-1098550Y294030D01*
X-1095248Y294995D01*
X-1091895Y294792D01*
X-1088745Y293471D01*
X-1085900Y291693D01*
X-1080465Y289814D01*
X-1074115Y289102D01*
X-1061059Y289102D01*
X-1061059Y321157D01*
X-1110742Y321157D01*
X-1114348Y321818D01*
X-1117447Y323646D01*
X-1125829Y323646D01*
G37*
G36*
X-1269136Y284073D02*
G01*
X-1220266Y284073D01*
X-1213967Y284784D01*
X-1208481Y286715D01*
X-1203604Y289814D01*
X-1201877Y291490D01*
X-1198575Y293725D01*
X-1194714Y294487D01*
X-1190802Y293725D01*
X-1187500Y291490D01*
X-1185824Y289814D01*
X-1180896Y286715D01*
X-1175461Y284784D01*
X-1169111Y284073D01*
X-1163523Y284073D01*
X-1163523Y323646D01*
X-1183640Y323646D01*
X-1187500Y324408D01*
X-1190802Y326644D01*
X-1193038Y329946D01*
X-1193800Y333806D01*
X-1193800Y366217D01*
X-1193038Y370078D01*
X-1190802Y373380D01*
X-1187500Y375564D01*
X-1183640Y376377D01*
X-1163523Y376377D01*
X-1163523Y415899D01*
X-1169111Y415899D01*
X-1175461Y415188D01*
X-1180896Y413308D01*
X-1185824Y410209D01*
X-1187500Y408482D01*
X-1190802Y406298D01*
X-1194714Y405536D01*
X-1198575Y406298D01*
X-1201877Y408482D01*
X-1203604Y410209D01*
X-1208481Y413308D01*
X-1213967Y415188D01*
X-1220266Y415899D01*
X-1269136Y415899D01*
X-1275435Y415188D01*
X-1280922Y413308D01*
X-1285798Y410209D01*
X-1289913Y406095D01*
X-1292961Y401218D01*
X-1294993Y395427D01*
X-1297178Y391871D01*
X-1300530Y389432D01*
X-1304594Y388620D01*
X-1314704Y388620D01*
X-1318768Y389432D01*
X-1322171Y391871D01*
X-1324305Y395427D01*
X-1326337Y401218D01*
X-1329436Y406146D01*
X-1333500Y410209D01*
X-1338427Y413308D01*
X-1343863Y415188D01*
X-1350213Y415899D01*
X-1429054Y415899D01*
X-1435404Y415188D01*
X-1440840Y413308D01*
X-1445768Y410209D01*
X-1449832Y406146D01*
X-1452930Y401218D01*
X-1454810Y395782D01*
X-1455521Y389432D01*
X-1455521Y310591D01*
X-1454810Y304241D01*
X-1452930Y298805D01*
X-1449832Y293878D01*
X-1445768Y289814D01*
X-1440840Y286715D01*
X-1435404Y284835D01*
X-1429054Y284124D01*
X-1350213Y284124D01*
X-1343863Y284835D01*
X-1338427Y286715D01*
X-1333500Y289814D01*
X-1329436Y293878D01*
X-1326337Y298805D01*
X-1324305Y304596D01*
X-1322171Y308152D01*
X-1318818Y310540D01*
X-1314754Y311404D01*
X-1304594Y311404D01*
X-1300530Y310540D01*
X-1297127Y308152D01*
X-1294993Y304596D01*
X-1292961Y298805D01*
X-1289913Y293878D01*
X-1285798Y289814D01*
X-1280922Y286715D01*
X-1275435Y284784D01*
G37*
G36*
X-1008329Y289102D02*
G01*
X-995273Y289102D01*
X-988923Y289814D01*
X-983487Y291693D01*
X-978611Y294792D01*
X-974496Y298907D01*
X-971397Y303784D01*
X-969518Y309270D01*
X-968806Y315569D01*
X-968806Y321157D01*
X-1008329Y321157D01*
G37*
G36*
X-2803601Y412851D02*
G01*
X-2764078Y412851D01*
X-2764078Y444906D01*
X-2777134Y444906D01*
X-2783484Y444195D01*
X-2788920Y442315D01*
X-2793847Y439216D01*
X-2797911Y435101D01*
X-2801010Y430225D01*
X-2802890Y424738D01*
X-2803601Y418439D01*
G37*
G36*
X250647Y588467D02*
G01*
X319532Y588467D01*
X325831Y589178D01*
X331317Y591108D01*
X336194Y594207D01*
X340309Y598271D01*
X343357Y603199D01*
X345287Y608634D01*
X345998Y614984D01*
X345998Y723798D01*
X345287Y730148D01*
X343357Y735584D01*
X340309Y740511D01*
X336194Y744575D01*
X331317Y747674D01*
X325831Y749604D01*
X319532Y750316D01*
X250088Y750316D01*
X245973Y751179D01*
X242570Y753668D01*
X240436Y757275D01*
X239979Y761492D01*
X240893Y770534D01*
X240893Y783640D01*
X208838Y783640D01*
X208838Y744118D01*
X215442Y744118D01*
X219252Y743407D01*
X222453Y741324D01*
X224739Y738174D01*
X225602Y734466D01*
X224891Y730148D01*
X224180Y723798D01*
X224180Y614984D01*
X224891Y608634D01*
X226821Y603199D01*
X229870Y598271D01*
X233984Y594207D01*
X238861Y591108D01*
X244348Y589178D01*
G37*
G36*
X60655Y588467D02*
G01*
X129489Y588467D01*
X135839Y589178D01*
X141274Y591108D01*
X146202Y594207D01*
X150266Y598271D01*
X153365Y603199D01*
X155295Y608634D01*
X156006Y614984D01*
X156006Y723798D01*
X154990Y732231D01*
X155194Y736600D01*
X157226Y740511D01*
X160731Y743153D01*
X164998Y744067D01*
X171145Y744067D01*
X171145Y783640D01*
X151079Y783640D01*
X147167Y784402D01*
X143865Y786638D01*
X141681Y789940D01*
X140919Y793800D01*
X140919Y826160D01*
X141681Y830071D01*
X143865Y833374D01*
X147167Y835558D01*
X151079Y836320D01*
X171145Y836320D01*
X171145Y875893D01*
X165557Y875893D01*
X159258Y875182D01*
X153771Y873302D01*
X148894Y870203D01*
X147167Y868476D01*
X143865Y866292D01*
X140004Y865530D01*
X136093Y866292D01*
X132791Y868476D01*
X131114Y870203D01*
X126187Y873302D01*
X120751Y875182D01*
X114401Y875893D01*
X65582Y875893D01*
X59232Y875182D01*
X53797Y873302D01*
X48869Y870203D01*
X44856Y866140D01*
X40995Y859840D01*
X38201Y856792D01*
X34391Y855167D01*
X30276Y855167D01*
X26466Y856792D01*
X23520Y858875D01*
X14579Y863041D01*
X5080Y865581D01*
X-4673Y866444D01*
X-14478Y865581D01*
X-23977Y863041D01*
X-32918Y858875D01*
X-40944Y853236D01*
X-47904Y846277D01*
X-53543Y838200D01*
X-57708Y829310D01*
X-60248Y819810D01*
X-61112Y810006D01*
X-60248Y800201D01*
X-57708Y790702D01*
X-53543Y781812D01*
X-47904Y773734D01*
X-40944Y766775D01*
X-32918Y761136D01*
X-23977Y756970D01*
X-14478Y754430D01*
X-4673Y753567D01*
X5080Y754430D01*
X14579Y756970D01*
X23520Y761136D01*
X26466Y763219D01*
X30276Y764844D01*
X34442Y764844D01*
X38252Y763168D01*
X41046Y760120D01*
X43891Y755345D01*
X45262Y751128D01*
X44704Y746709D01*
X42316Y742950D01*
X39878Y740511D01*
X36779Y735584D01*
X34899Y730148D01*
X34188Y723798D01*
X34188Y614984D01*
X34899Y608634D01*
X36779Y603199D01*
X39878Y598271D01*
X43992Y594207D01*
X48869Y591108D01*
X54356Y589178D01*
G37*
G36*
X618134Y601675D02*
G01*
X627938Y602945D01*
X637641Y605891D01*
X640638Y606348D01*
X661568Y606348D01*
X661568Y609447D01*
X660857Y615746D01*
X660298Y618845D01*
X660704Y621944D01*
X662025Y624738D01*
X666597Y631545D01*
X670661Y640537D01*
X673201Y650138D01*
X674014Y659993D01*
X673201Y669848D01*
X670661Y679450D01*
X666597Y688441D01*
X661060Y696671D01*
X657910Y699973D01*
X655878Y703072D01*
X655066Y706678D01*
X655624Y710336D01*
X656996Y714248D01*
X657707Y720547D01*
X657707Y738632D01*
X613156Y738632D01*
X613156Y727151D01*
X612597Y723747D01*
X610920Y720750D01*
X608330Y718515D01*
X605129Y717245D01*
X598576Y715822D01*
X589381Y712114D01*
X580948Y706932D01*
X573481Y700379D01*
X568502Y694232D01*
X565302Y691591D01*
X561340Y690473D01*
X559003Y690778D01*
X560882Y688136D01*
X561797Y684377D01*
X561238Y680567D01*
X559155Y674725D01*
X557479Y664921D01*
X557479Y655066D01*
X559155Y645261D01*
X562457Y635965D01*
X567283Y627329D01*
X573481Y619607D01*
X580948Y613054D01*
X589381Y607872D01*
X598576Y604164D01*
X608228Y602081D01*
G37*
G36*
X474726Y606348D02*
G01*
X528066Y606348D01*
X528066Y635914D01*
X501192Y635914D01*
X494893Y635203D01*
X489458Y633272D01*
X484530Y630224D01*
X480466Y626110D01*
X477367Y621233D01*
X475437Y615746D01*
X474726Y609447D01*
G37*
G36*
X888187Y658368D02*
G01*
X896061Y660095D01*
X907542Y664362D01*
X918260Y670255D01*
X928065Y677570D01*
X936752Y686257D01*
X944118Y696061D01*
X949604Y706170D01*
X888187Y706170D01*
G37*
G36*
X775512Y658368D02*
G01*
X775512Y706170D01*
X714095Y706170D01*
X719582Y696061D01*
X726948Y686257D01*
X735584Y677570D01*
X745439Y670255D01*
X756158Y664362D01*
X767638Y660095D01*
G37*
G36*
X553262Y693775D02*
G01*
X551281Y696569D01*
X550468Y700582D01*
X550468Y738632D01*
X505917Y738632D01*
X505917Y720547D01*
X506628Y714248D01*
X508508Y708761D01*
X511606Y703884D01*
X515721Y699770D01*
X520598Y696722D01*
X526034Y694791D01*
X532384Y694080D01*
X551637Y694080D01*
G37*
G36*
X714095Y778865D02*
G01*
X775512Y778865D01*
X775512Y826617D01*
X767638Y824890D01*
X756158Y820623D01*
X745439Y814730D01*
X735584Y807415D01*
X726948Y798728D01*
X719582Y788924D01*
G37*
G36*
X888187Y778865D02*
G01*
X949604Y778865D01*
X944118Y788924D01*
X936752Y798728D01*
X928065Y807415D01*
X918260Y814730D01*
X907542Y820623D01*
X896061Y824890D01*
X888187Y826617D01*
G37*
G36*
X505917Y801370D02*
G01*
X550468Y801370D01*
X550468Y845921D01*
X532384Y845921D01*
X526034Y845210D01*
X520598Y843280D01*
X515721Y840181D01*
X511606Y836117D01*
X508508Y831189D01*
X506628Y825753D01*
X505917Y819403D01*
G37*
G36*
X613156Y801370D02*
G01*
X657707Y801370D01*
X657707Y819403D01*
X656996Y825753D01*
X655116Y831189D01*
X652018Y836117D01*
X647903Y840181D01*
X643026Y843280D01*
X637540Y845210D01*
X631240Y845921D01*
X613156Y845921D01*
G37*
G36*
X208838Y836320D02*
G01*
X240893Y836320D01*
X240893Y849426D01*
X240182Y855726D01*
X238302Y861212D01*
X235204Y866089D01*
X231089Y870203D01*
X226212Y873302D01*
X220725Y875182D01*
X214426Y875893D01*
X208838Y875893D01*
G37*
G36*
X-840892Y1056335D02*
G01*
X-808837Y1056335D01*
X-808837Y1095908D01*
X-814425Y1095908D01*
X-820724Y1095197D01*
X-826211Y1093266D01*
X-831087Y1090218D01*
X-835202Y1086104D01*
X-838250Y1081227D01*
X-840181Y1075740D01*
X-840892Y1069441D01*
G37*

%LPD*%
D10*
X-984704Y550009D02*
G01*
X-914725Y619988D01*
X-910005Y619988D01*
X-994714Y834997D02*
G01*
X-934996Y834997D01*
X-899998Y869995D01*
X-899998Y889990D01*
X206562Y400314D02*
G01*
X192300Y386049D01*
X192300Y293987D01*
X567499Y589996D02*
G01*
X508647Y589996D01*
X295300Y803343D01*
X295300Y810006D01*
X-1394713Y934999D02*
G01*
X-1474998Y934999D01*
X-1479999Y940000D01*
X-1804695Y790016D02*
G01*
X-1804695Y794694D01*
X-1840001Y830000D01*
X-1840001Y880000D01*
X-1855782Y895781D01*
X-1924735Y895781D01*
X-1769998Y870000D02*
G01*
X-1769998Y999995D01*
X-1769996Y999997D01*
X-1394713Y884986D02*
G01*
X-1459991Y884986D01*
X-1484977Y860000D01*
X-1489999Y860000D01*
X-2624709Y796721D02*
G01*
X-2721432Y796721D01*
X-2744698Y819988D01*
X-2624709Y746683D02*
G01*
X-2738018Y746683D01*
X-2744698Y740003D01*
X-1394713Y985012D02*
G01*
X-1409700Y999997D01*
X-1564639Y999997D01*
X-1584705Y979931D01*
X-1584705Y750062D01*
X-580009Y1029995D02*
G01*
X-570001Y1019987D01*
X-570001Y710001D01*
X-620001Y660001D01*
X-780000Y660001D01*
X-820000Y700001D01*
X-820000Y760001D01*
X-844986Y784987D01*
X-994714Y784987D01*
X-730001Y760001D02*
G01*
X-730003Y885007D01*
X-409999Y760001D02*
G01*
X-409996Y885007D01*
X-1069599Y660031D02*
G01*
X-1067826Y614055D01*
X-1084841Y597039D01*
X-1084841Y550047D01*
X-1034712Y440019D02*
G01*
X-1084717Y490019D01*
X-1084717Y550009D01*
X-1119631Y660031D02*
G01*
X-1119631Y625993D01*
X-1084841Y590943D01*
X-1084841Y550047D01*
X-690001Y1030010D02*
G01*
X-689983Y1029995D01*
X-580009Y1029995D01*
X-469993Y1030010D02*
G01*
X-470011Y1029995D01*
X-580009Y1029995D01*
X-789988Y1030023D02*
G01*
X-789988Y945004D01*
X-729995Y885012D01*
X-202699Y414004D02*
G01*
X-202699Y902700D01*
X-330019Y1030020D01*
X-370001Y1030020D01*
X330301Y-420001D02*
G01*
X50375Y-420001D01*
X20378Y-390004D01*
X-149809Y-210007D02*
G01*
X-149809Y-390001D01*
X-149804Y-390006D01*
X-179992Y-59992D02*
G01*
X-149801Y-90182D01*
X-149801Y-210002D01*
X20370Y-210007D02*
G01*
X180380Y-49997D01*
X395292Y-49997D01*
X425292Y-80004D01*
X425292Y-139994D01*
X-39997Y40002D02*
G01*
X5Y0D01*
X439999Y0D01*
X520293Y-80294D01*
X520293Y-139992D01*
X-107698Y654009D02*
G01*
X-117706Y644006D01*
X-117706Y244000D01*
X-117706Y197690D01*
X-110007Y189992D01*
X59994Y-70002D02*
G01*
X49992Y-59999D01*
X-39994Y-59999D01*
X-39997Y40002D02*
G01*
X-179992Y40007D01*
X-334695Y229997D02*
G01*
X-179992Y75293D01*
X-179992Y40007D01*
X575310Y-530097D02*
G01*
X520192Y-531113D01*
X330301Y-139992D02*
G01*
X195298Y-139992D01*
X195298Y-239991D02*
G01*
X195290Y-340001D01*
X425289Y-510001D02*
G01*
X355287Y-580003D01*
X355287Y-609991D01*
X355287Y-609991D02*
G01*
X255297Y-610001D01*
X425297Y-420001D02*
G01*
X425289Y-510001D01*
X455287Y-609991D02*
G01*
X520293Y-544984D01*
X520293Y-420001D01*
X742289Y-492988D02*
G01*
X669302Y-420001D01*
X520293Y-420001D01*
X90017Y809980D02*
G01*
X-4688Y809980D01*
X-4709Y810000D01*
X90017Y809980D02*
G01*
X99570Y800427D01*
X99570Y673709D01*
X-2624841Y696605D02*
G01*
X-2688081Y696605D01*
X-2744698Y660006D01*
X-2748691Y663994D01*
X-2757708Y663994D01*
X-1741683Y-630036D02*
G01*
X-1581655Y-470014D01*
X-1407701Y-470014D01*
X-1407701Y-396029D01*
D11*
X-2534714Y120002D02*
G01*
X-2514709Y139999D01*
X-2394717Y139999D01*
X-2534714Y120002D02*
G01*
X-2687609Y-32895D01*
X-2687609Y-151902D01*
D10*
X-1674698Y-50002D02*
G01*
X-1874697Y-50002D01*
X-1664713Y-139994D02*
G01*
X-1874710Y-139994D01*
X-1924629Y445810D02*
G01*
X-1850514Y445810D01*
X-1834700Y429991D01*
X-1834700Y360006D01*
X-1214694Y120020D02*
G01*
X-1224716Y130035D01*
X-1224716Y200009D01*
X-1324716Y120020D02*
G01*
X-1324716Y209991D01*
X-1307701Y-16014D02*
G01*
X-1307701Y102997D01*
X-1324703Y120007D01*
X-1154704Y-10D02*
G01*
X-1170716Y-16014D01*
X-1207698Y-16014D01*
X-1157706Y-16014D02*
G01*
X-1090721Y-16014D01*
X-1074722Y-10D01*
X-1307701Y-396029D02*
G01*
X-1307701Y-555993D01*
X-1233708Y-629986D01*
X-1357706Y-396029D02*
G01*
X-1357706Y-500016D01*
X-1487708Y-630011D01*
X-1157706Y-396029D02*
G01*
X-1064714Y-303029D01*
X-1064714Y-79997D01*
X-1020709Y-36001D01*
X-864712Y-36001D01*
X-1457705Y-16014D02*
G01*
X-1473743Y10D01*
X-1524716Y10D01*
X-2214707Y140012D02*
G01*
X-2294704Y140012D01*
X-2501536Y319989D02*
G01*
X-2501536Y253184D01*
X-2534714Y220002D01*
X-1054704Y-599998D02*
G01*
X-1084694Y-629986D01*
X-1233708Y-629986D01*
X-2624716Y846767D02*
G01*
X-2681470Y846767D01*
X-2714708Y880005D01*
X-2714708Y900003D01*
X-2744711Y930005D01*
X-1257706Y-16014D02*
G01*
X-1257706Y77010D01*
X-1214694Y120020D01*
X-2551567Y319989D02*
G01*
X-2561589Y330004D01*
X-2624716Y330004D01*
X-2624703Y946866D02*
G01*
X-2624703Y1000015D01*
X-1044709Y120002D02*
G01*
X-1114681Y120002D01*
X-1424703Y120007D02*
G01*
X-1514695Y120007D01*
X-1514695Y120007D02*
G01*
X-1514695Y230009D01*
X-2401463Y319989D02*
G01*
X-2451493Y319989D01*
X-2401450Y319989D02*
G01*
X-2404699Y316745D01*
X-2404699Y230004D01*
X-1924715Y695657D02*
G01*
X-1809051Y695657D01*
X-1804700Y700008D01*
X-2051555Y319920D02*
G01*
X-2051555Y226705D01*
X-2044857Y220002D01*
X-1864713Y220002D01*
X-1995708Y-630011D02*
G01*
X-1995708Y-430959D01*
X-1994728Y-429981D01*
X-1995708Y-630011D02*
G01*
X-1995708Y-621032D01*
X-1770705Y-396029D01*
X-1457705Y-396029D01*
X-1614708Y230004D02*
G01*
X-1614708Y120002D01*
X-2624716Y330004D02*
G01*
X-2660733Y293987D01*
X-2737716Y293987D01*
X-2737716Y293987D02*
G01*
X-2727705Y283979D01*
X-2727705Y214005D01*
X-2737716Y393987D02*
G01*
X-2737716Y444007D01*
X-2757708Y463991D01*
X-2151529Y319971D02*
G01*
X-2151529Y216832D01*
X-2064715Y130004D01*
X-2064715Y130004D02*
G01*
X-1924715Y130004D01*
X-2064715Y30005D02*
G01*
X-2104699Y30005D01*
X-2214707Y140012D01*
X-1924715Y30005D02*
G01*
X-2024705Y-69984D01*
X-1394701Y784997D02*
G01*
X-1399700Y780006D01*
X-1514708Y780006D01*
X-1519692Y775025D01*
X-1519692Y750016D01*
X-1519692Y570026D02*
G01*
X-1493659Y544001D01*
X-1447698Y544001D01*
X-1674710Y869983D02*
G01*
X-1649694Y844974D01*
X-1649694Y750016D01*
X-1674710Y969982D02*
G01*
X-1674710Y1049997D01*
X-1649694Y750016D02*
G01*
X-1744708Y750016D01*
X-1744708Y210004D01*
X-1814708Y140007D01*
X-1914720Y140007D01*
X-1924715Y130009D01*
X-1144709Y349996D02*
G01*
X-1134724Y340019D01*
X-1034712Y340019D01*
X-1034798Y339989D02*
G01*
X-993399Y339989D01*
X742284Y-239003D02*
G01*
X742284Y-50012D01*
X745286Y-50012D01*
X-149804Y-580011D02*
G01*
X-219809Y-510006D01*
X-340004Y-510006D01*
X110037Y400314D02*
G01*
X125298Y385053D01*
X125298Y199999D01*
X110035Y400314D02*
G01*
X100350Y410006D01*
X-39720Y410006D01*
X295302Y810006D02*
G01*
X190042Y810006D01*
X190017Y809980D01*
X5298Y229991D02*
G01*
X-39720Y274993D01*
X-39720Y409999D01*
X5300Y229991D02*
G01*
X35293Y199999D01*
X125298Y199999D01*
X125298Y199999D02*
G01*
X125298Y80004D01*
X125280Y79984D01*
X295290Y80004D02*
G01*
X225280Y79984D01*
X-994714Y735009D02*
G01*
X-1069723Y660006D01*
X-1137714Y244000D02*
G01*
X-1144709Y250995D01*
X-1144709Y349996D01*
X-989990Y659993D02*
G01*
X-994714Y664718D01*
X-994714Y735009D01*
X-929998Y429999D02*
G01*
X-924996Y435000D01*
X-729995Y435000D01*
X-1744708Y360984D02*
G01*
X-1741695Y363999D01*
X-1697702Y363999D01*
X-559993Y359994D02*
G01*
X-484985Y435002D01*
X-410004Y435002D01*
X-1244709Y349996D02*
G01*
X-1389618Y350004D01*
X-1407701Y-16014D02*
G01*
X-1407701Y102997D01*
X-1424703Y120007D01*
X20368Y-580011D02*
G01*
X50363Y-610006D01*
X155295Y-610006D01*
X-39710Y410006D02*
G01*
X-35714Y414004D01*
X-12710Y414004D01*
X-334711Y229997D02*
G01*
X-202702Y362016D01*
X-202702Y414004D01*
X-1924740Y495741D02*
G01*
X-1923006Y494007D01*
X-1807712Y494007D01*
X-1667715Y454009D02*
G01*
X-1563710Y350004D01*
X-1559801Y350004D01*
X-1584693Y750016D02*
G01*
X-1584693Y707024D01*
X-1649694Y642023D01*
X-1649694Y570026D01*
X-1519681Y749947D02*
G01*
X-1517660Y664093D01*
X-1537726Y644024D01*
X-1567690Y644024D01*
X-1584705Y627009D01*
X-1584705Y570113D01*
X-1257706Y-396029D02*
G01*
X-1257706Y-475993D01*
X-1217709Y-515995D01*
X-902477Y-515995D01*
X-864552Y-553915D01*
X-1207698Y-396029D02*
G01*
X-1207698Y-446003D01*
X-1187706Y-465996D01*
X-1087694Y-465996D01*
X-921616Y-299915D01*
X-864552Y-299915D01*
X-1163683Y647026D02*
G01*
X-1163683Y494012D01*
X-1157706Y494012D01*
X-1219705Y660006D02*
G01*
X-1219705Y554009D01*
X-1237701Y554009D01*
X-2644698Y160004D02*
G01*
X-2681706Y160004D01*
X-2727705Y114005D01*
X-2757708Y544007D02*
G01*
X-2727705Y574001D01*
X-2727705Y594006D01*
X-2674848Y646871D01*
X-2624716Y646871D01*
X-2624581Y496704D02*
G01*
X-2690375Y496704D01*
X-2737617Y543951D01*
X-2757683Y543951D01*
X567499Y459999D02*
G01*
X464187Y459999D01*
X372285Y463991D01*
X567499Y395000D02*
G01*
X451487Y395000D01*
X372285Y384004D01*
X567499Y330001D02*
G01*
X510748Y330001D01*
X373270Y192524D01*
X373270Y0D01*
X125298Y199999D02*
G01*
X229999Y199999D01*
X289999Y259999D01*
X285087Y264911D01*
X285087Y410601D01*
X-1269723Y660006D02*
G01*
X-1269723Y614893D01*
X-1310614Y574001D01*
X-1317708Y574001D01*
X-1317708Y563994D01*
X-1269720Y659993D02*
G01*
X-1269720Y783717D01*
X-1193444Y859993D01*
D12*
G01*
X94894Y410590D03*
G01*
X189890Y410590D03*
G01*
X285089Y410590D03*
G01*
X285089Y669391D03*
G01*
X95097Y669391D03*
D13*
G01*
X-149859Y-389889D03*
G01*
X20320Y-389889D03*
G01*
X-149859Y-210057D03*
G01*
X20320Y-210057D03*
G01*
X-1559813Y350012D03*
G01*
X-1389634Y350012D03*
G01*
X-149859Y-579881D03*
G01*
X20320Y-579881D03*
D14*
G01*
X-1584705Y568121D03*
G01*
X-1519707Y568121D03*
G01*
X-1519707Y752119D03*
G01*
X-1584705Y752119D03*
G01*
X-1649704Y752119D03*
G01*
X-1649704Y568121D03*
D15*
G01*
X-12801Y418896D03*
G01*
X-107797Y648893D03*
G01*
X-202818Y418896D03*
D16*
G01*
X520217Y-419938D03*
G01*
X425221Y-419938D03*
G01*
X330225Y-419938D03*
G01*
X330225Y-139928D03*
G01*
X425221Y-139928D03*
G01*
X520217Y-139928D03*
D17*
G01*
X568147Y329996D03*
G01*
X568147Y394995D03*
G01*
X568147Y459994D03*
G01*
X568147Y524992D03*
G01*
X568147Y589991D03*
D18*
G01*
X581799Y769998D03*
G01*
X581799Y149999D03*
D19*
G01*
X-1319784Y659866D03*
G01*
X-1269796Y659866D03*
G01*
X-1219784Y659866D03*
G01*
X-1169797Y659866D03*
G01*
X-1119784Y659866D03*
G01*
X-1069797Y659866D03*
D20*
G01*
X-994790Y734872D03*
G01*
X-994790Y784860D03*
G01*
X-994790Y834872D03*
G01*
X-994790Y884859D03*
G01*
X-994790Y934872D03*
G01*
X-994790Y984859D03*
D19*
G01*
X-1069797Y1059865D03*
G01*
X-1119784Y1059865D03*
G01*
X-1169797Y1059865D03*
G01*
X-1219784Y1059865D03*
G01*
X-1269796Y1059865D03*
G01*
X-1318996Y1059865D03*
D20*
G01*
X-1394790Y984859D03*
G01*
X-1394790Y934872D03*
G01*
X-1394790Y884859D03*
G01*
X-1394790Y834872D03*
G01*
X-1394790Y784860D03*
G01*
X-1394790Y734872D03*
D21*
G01*
X-1193545Y859866D03*
D22*
G01*
X-1159992Y-20015D03*
G01*
X-1209979Y-20015D03*
G01*
X-1259992Y-20015D03*
G01*
X-1309979Y-20015D03*
G01*
X-1359992Y-20015D03*
G01*
X-1409979Y-20015D03*
G01*
X-1459991Y-20015D03*
G01*
X-1459991Y-400024D03*
G01*
X-1409979Y-400024D03*
G01*
X-1359992Y-400024D03*
G01*
X-1309979Y-400024D03*
G01*
X-1259992Y-400024D03*
D23*
G01*
X-1310004Y-210007D03*
D22*
G01*
X-1209979Y-400024D03*
G01*
X-1159992Y-400024D03*
D24*
G01*
X-409955Y434898D03*
G01*
X-409955Y884885D03*
D25*
G01*
X-470001Y1029995D03*
G01*
X-370001Y1029995D03*
G01*
X-789990Y1029995D03*
G01*
X-689990Y1029995D03*
D26*
G01*
X195300Y-240004D03*
G01*
X195300Y-140004D03*
G01*
X-180009Y-59994D03*
G01*
X-180009Y40005D03*
D24*
G01*
X-729995Y435000D03*
G01*
X-729995Y885012D03*
D25*
G01*
X-984707Y550011D03*
G01*
X-1084706Y550011D03*
G01*
X-1244701Y350012D03*
G01*
X-1144701Y350012D03*
D26*
G01*
X-40004Y39979D03*
G01*
X-40004Y-60020D03*
D25*
G01*
X455269Y-610006D03*
G01*
X355269Y-610006D03*
D26*
G01*
X-2727705Y213995D03*
G01*
X-2727705Y113995D03*
D25*
G01*
X125298Y79984D03*
G01*
X225297Y79984D03*
G01*
X90017Y809980D03*
G01*
X190017Y809980D03*
D27*
G01*
X5283Y229997D03*
G01*
X-334695Y229997D03*
D26*
G01*
X-1674723Y970000D03*
G01*
X-1674723Y870000D03*
D25*
G01*
X-2394711Y140004D03*
G01*
X-2294712Y140004D03*
D26*
G01*
X-2534691Y219989D03*
G01*
X-2534691Y119989D03*
D28*
G01*
X-2687599Y-151892D03*
G01*
X-2687599Y-671906D03*
D25*
G01*
X-1424711Y119989D03*
G01*
X-1324711Y119989D03*
G01*
X-1114704Y119989D03*
G01*
X-1214704Y119989D03*
D26*
G01*
X-1924710Y29997D03*
G01*
X-1924710Y129997D03*
D25*
G01*
X155295Y-610006D03*
G01*
X255295Y-610006D03*
G01*
X-1614703Y119989D03*
G01*
X-1514703Y119989D03*
D26*
G01*
X-2737713Y393979D03*
G01*
X-2737713Y293979D03*
G01*
X-2064689Y30022D03*
G01*
X-2064689Y130022D03*
D29*
G01*
X-2551582Y319963D03*
G01*
X-2501544Y319963D03*
G01*
X-2451506Y319963D03*
G01*
X-2401468Y319963D03*
G01*
X-2351430Y319963D03*
G01*
X-2301417Y319963D03*
G01*
X-2251633Y319963D03*
G01*
X-2201570Y319963D03*
G01*
X-2151532Y319963D03*
G01*
X-2101519Y319963D03*
G01*
X-2051456Y319963D03*
G01*
X-2001418Y319963D03*
D30*
G01*
X-1924735Y395655D03*
G01*
X-1924735Y445693D03*
G01*
X-1924735Y495731D03*
G01*
X-1924735Y545769D03*
G01*
X-1924735Y595807D03*
G01*
X-1924735Y645845D03*
G01*
X-1924735Y695629D03*
G01*
X-1924735Y745667D03*
G01*
X-1924735Y795705D03*
G01*
X-1924735Y845743D03*
G01*
X-1924735Y895781D03*
G01*
X-1924735Y945819D03*
D29*
G01*
X-2002967Y1019962D03*
G01*
X-2052980Y1019962D03*
G01*
X-2103018Y1019962D03*
G01*
X-2153056Y1019962D03*
G01*
X-2203119Y1019962D03*
G01*
X-2253132Y1019962D03*
G01*
X-2302916Y1019962D03*
G01*
X-2352954Y1019962D03*
G01*
X-2402992Y1019962D03*
G01*
X-2453030Y1019962D03*
G01*
X-2503068Y1019962D03*
G01*
X-2553106Y1019962D03*
D30*
G01*
X-2624709Y946835D03*
G01*
X-2624709Y896797D03*
G01*
X-2624709Y846759D03*
G01*
X-2624709Y796721D03*
G01*
X-2624709Y746683D03*
G01*
X-2624709Y696645D03*
G01*
X-2624709Y646861D03*
G01*
X-2624709Y596823D03*
G01*
X-2624709Y546785D03*
G01*
X-2624709Y496747D03*
G01*
X-2624709Y446709D03*
G01*
X-2624709Y396671D03*
D31*
G01*
X-2274722Y670001D03*
D26*
G01*
X-1034694Y340004D03*
G01*
X-1034694Y440004D03*
D32*
G01*
X831850Y177495D03*
G01*
X831850Y742492D03*
D33*
G01*
X742289Y-492988D03*
D34*
G01*
X742289Y-238988D03*
D35*
G01*
X-864615Y-543940D03*
G01*
X-864615Y-289940D03*
D36*
G01*
X-864615Y-35940D03*
G01*
X-1233703Y-629996D03*
D35*
G01*
X-1487703Y-630021D03*
G01*
X-1741703Y-630021D03*
G01*
X-1995703Y-630021D03*
D37*
G01*
X59994Y-70002D03*
G01*
X575284Y-529996D03*
D38*
G01*
X195300Y-340004D03*
D37*
G01*
X-110007Y189992D03*
G01*
X-1667713Y453999D03*
G01*
X-1807718Y494004D03*
G01*
X-559993Y359994D03*
G01*
X-1697710Y364007D03*
G01*
X-929995Y429996D03*
G01*
X-1317701Y564006D03*
G01*
X-1237716Y553999D03*
G01*
X-1157706Y494004D03*
G01*
X372287Y383997D03*
G01*
X372287Y464007D03*
G01*
X295300Y810006D03*
G01*
X-1137716Y243992D03*
G01*
X-989990Y659993D03*
G01*
X-340004Y-510006D03*
G01*
X295300Y80010D03*
G01*
X-4698Y810006D03*
G01*
X192303Y294005D03*
G01*
X745286Y-50012D03*
G01*
X-1674698Y1050010D03*
G01*
X-1804695Y790016D03*
G01*
X-729995Y759993D03*
G01*
X-1447698Y543991D03*
G01*
X-1489989Y859993D03*
G01*
X-1480007Y940003D03*
D38*
G01*
X-2024710Y-70002D03*
G01*
X-2757703Y464007D03*
G01*
X-1614703Y229997D03*
G01*
X-1864715Y220014D03*
D39*
G01*
X-1994712Y-430021D03*
D38*
G01*
X-2274722Y670001D03*
D37*
G01*
X-2744698Y740003D03*
G01*
X-2744698Y819988D03*
D38*
G01*
X-2404694Y229997D03*
G01*
X-2624709Y329996D03*
D40*
G01*
X-2214702Y140004D03*
D38*
G01*
X-1524711Y0D03*
G01*
X-1514703Y229997D03*
G01*
X-2644698Y159994D03*
G01*
X-2624709Y999997D03*
G01*
X-2757703Y543991D03*
G01*
X425297Y-510006D03*
G01*
X-1804695Y699998D03*
D37*
G01*
X-1054709Y-600024D03*
D38*
G01*
X-1834692Y359994D03*
G01*
X-1074699Y0D03*
D37*
G01*
X-1324711Y209981D03*
G01*
X-1224711Y199999D03*
G01*
X-1664715Y-140004D03*
G01*
X-1674698Y-50012D03*
G01*
X-1874697Y-50012D03*
G01*
X-1874697Y-140004D03*
G01*
X-2757703Y664006D03*
G01*
X-2744698Y929995D03*
D38*
G01*
X-1044702Y119989D03*
D37*
G01*
X-410006Y759993D03*
D38*
G01*
X-899998Y889990D03*
G01*
X-910005Y619988D03*
D37*
G01*
X-1769998Y870000D03*
G01*
X-1769998Y999997D03*
M02*
