G04 Layer: TopSolderMaskLayer*
G04 EasyEDA v6.5.14, 2022-08-24 17:06:53*
G04 77cd11f6e3b44a54979dfea80d6f7020,401f954c81374b6587e5d63e119e93f9,10*
G04 Gerber Generator version 0.2*
G04 Scale: 100 percent, Rotated: No, Reflected: No *
G04 Dimensions in millimeters *
G04 leading zeros omitted , absolute positions ,4 integer and 5 decimal *
%FSLAX45Y45*%
%MOMM*%

%AMMACRO1*1,1,$1,$2,$3*1,1,$1,$4,$5*1,1,$1,0-$2,0-$3*1,1,$1,0-$4,0-$5*20,1,$1,$2,$3,$4,$5,0*20,1,$1,$4,$5,0-$2,0-$3,0*20,1,$1,0-$2,0-$3,0-$4,0-$5,0*20,1,$1,0-$4,0-$5,$2,$3,0*4,1,4,$2,$3,$4,$5,0-$2,0-$3,0-$4,0-$5,$2,$3,0*%
%ADD10MACRO1,0.1016X0.35X0.55X0.35X-0.55*%
%ADD11MACRO1,0.1016X-0.35X-0.55X-0.35X0.55*%
%ADD12MACRO1,0.1016X0.4X0.4X0.4X-0.4*%
%ADD13MACRO1,0.1016X-0.21X-0.35X-0.21X0.35*%
%ADD14MACRO1,0.1016X-0.4X-0.5X-0.4X0.5*%
%ADD15R,0.9016X1.1016*%
%ADD16MACRO1,0.1016X0.275X0.5X0.275X-0.5*%
%ADD17R,1.4516X0.5016*%
%ADD18MACRO1,0.1016X-0.675X-0.2X-0.675X0.2*%
%ADD19MACRO1,0.102X-0.5X-0.5X-0.5X0.5*%
%ADD20O,1.9999959999999999X1.1999976*%
%ADD21O,0.2800096X0.7999984*%
%ADD22O,0.7999984X0.2800096*%
%ADD23MACRO1,0.1X-1.35X1.35X1.35X1.35*%
%ADD24MACRO1,0.2032X0.1397X-0.325X-0.1397X-0.325*%
%ADD25MACRO1,0.2032X1.5X-1.3X-1.5X-1.3*%
%ADD26MACRO1,0.2032X-1X-0.675X-1X0.675*%
%ADD27MACRO1,0.2032X0.25X-0.4X-0.25X-0.4*%
%ADD28MACRO1,0.2032X0.4X0.25X0.4X-0.25*%
%ADD29MACRO1,0.2032X-0.25X0.4X0.25X0.4*%
%ADD30MACRO1,0.2032X-0.7874X-0.85X-0.7874X0.85*%
%ADD31C,1.9032*%
%ADD32MACRO1,0.2032X0.6X-0.7X-0.6X-0.7*%
%ADD33C,1.7780*%
%ADD34MACRO1,0.2032X0.7874X0.7874X0.7874X-0.7874*%
%ADD35MACRO1,0.2032X-0.4X-0.25X-0.4X0.25*%
%ADD36MACRO1,0.2032X1X0.5X1X-0.5*%
%ADD37O,0.2800096X0.9999979999999999*%
%ADD38O,0.9999979999999999X0.2800096*%
%ADD39MACRO1,0.2032X-2.65X-2.65X-2.65X2.65*%
%ADD40MACRO1,0.2032X0.7874X-0.7874X-0.7874X-0.7874*%
%ADD41R,1.0032X0.7032*%

%LPD*%
D10*
G01*
X94891Y410601D03*
G01*
X189887Y410601D03*
G01*
X285087Y410601D03*
D11*
G01*
X285087Y669401D03*
G01*
X95095Y669401D03*
D12*
G01*
X-149860Y-389889D03*
G01*
X20320Y-389889D03*
G01*
X-149860Y-210057D03*
G01*
X20320Y-210057D03*
G01*
X-1559813Y350012D03*
G01*
X-1389633Y350012D03*
G01*
X-149860Y-579881D03*
G01*
X20320Y-579881D03*
D13*
G01*
X-1584705Y568128D03*
G01*
X-1519707Y568128D03*
G01*
X-1519707Y752113D03*
G01*
X-1584705Y752113D03*
G01*
X-1649704Y752113D03*
G01*
X-1649704Y568128D03*
D14*
G01*
X-12806Y418901D03*
G01*
X-107802Y648903D03*
D15*
G01*
X-202818Y418896D03*
D16*
G01*
X520225Y-419935D03*
G01*
X425229Y-419935D03*
G01*
X330233Y-419935D03*
G01*
X330233Y-139926D03*
G01*
X425229Y-139926D03*
G01*
X520225Y-139926D03*
D17*
G01*
X568147Y329996D03*
D18*
G01*
X568147Y394997D03*
G01*
X568147Y459999D03*
G01*
X568147Y525000D03*
G01*
X568147Y589998D03*
D19*
G01*
X581799Y769998D03*
G01*
X581799Y149999D03*
D20*
G01*
X831850Y177495D03*
G01*
X831850Y742492D03*
D21*
G01*
X-1319784Y659866D03*
G01*
X-1269796Y659866D03*
G01*
X-1219784Y659866D03*
G01*
X-1169797Y659866D03*
G01*
X-1119784Y659866D03*
G01*
X-1069797Y659866D03*
D22*
G01*
X-994790Y734872D03*
G01*
X-994790Y784860D03*
G01*
X-994790Y834872D03*
G01*
X-994790Y884859D03*
G01*
X-994790Y934872D03*
G01*
X-994790Y984859D03*
D21*
G01*
X-1069797Y1059865D03*
G01*
X-1119784Y1059865D03*
G01*
X-1169797Y1059865D03*
G01*
X-1219784Y1059865D03*
G01*
X-1269796Y1059865D03*
G01*
X-1318996Y1059865D03*
D22*
G01*
X-1394790Y984859D03*
G01*
X-1394790Y934872D03*
G01*
X-1394790Y884859D03*
G01*
X-1394790Y834872D03*
G01*
X-1394790Y784860D03*
G01*
X-1394790Y734872D03*
D23*
G01*
X-1193546Y859866D03*
D24*
G01*
X-1160000Y-20007D03*
G01*
X-1209987Y-20007D03*
G01*
X-1260000Y-20007D03*
G01*
X-1309987Y-20007D03*
G01*
X-1359999Y-20007D03*
G01*
X-1409987Y-20007D03*
G01*
X-1459999Y-20007D03*
G01*
X-1459999Y-400016D03*
G01*
X-1409987Y-400016D03*
G01*
X-1359999Y-400016D03*
G01*
X-1309987Y-400016D03*
G01*
X-1260000Y-400016D03*
D25*
G01*
X-1309999Y-210012D03*
D24*
G01*
X-1209987Y-400016D03*
G01*
X-1160000Y-400016D03*
D26*
G01*
X-409955Y434891D03*
G01*
X-409955Y884892D03*
D27*
G01*
X-470000Y1030000D03*
G01*
X-370000Y1030000D03*
G01*
X-790002Y1030000D03*
G01*
X-690002Y1030000D03*
D28*
G01*
X195290Y-240000D03*
G01*
X195290Y-140000D03*
G01*
X-179999Y-60001D03*
G01*
X-179999Y39998D03*
D26*
G01*
X-730001Y435000D03*
G01*
X-730001Y885002D03*
D29*
G01*
X-984705Y550001D03*
G01*
X-1084705Y550001D03*
D27*
G01*
X-1244710Y350001D03*
G01*
X-1144710Y350001D03*
D28*
G01*
X-40007Y39991D03*
G01*
X-40007Y-60008D03*
D27*
G01*
X455281Y-609993D03*
G01*
X355281Y-609993D03*
D30*
G01*
X742294Y-492997D03*
D31*
G01*
X742289Y-238988D03*
D28*
G01*
X-2727716Y213991D03*
G01*
X-2727716Y113991D03*
D29*
G01*
X125302Y79994D03*
G01*
X225301Y79994D03*
G01*
X90008Y809993D03*
G01*
X190008Y809993D03*
D32*
G01*
X5290Y230002D03*
G01*
X-334708Y230002D03*
D28*
G01*
X-1674715Y969994D03*
G01*
X-1674715Y869994D03*
D33*
G01*
X-864615Y-543940D03*
G01*
X-864615Y-289940D03*
D34*
G01*
X-864618Y-35933D03*
D29*
G01*
X-2394703Y139994D03*
G01*
X-2294703Y139994D03*
D35*
G01*
X-2534704Y219998D03*
G01*
X-2534704Y119998D03*
D36*
G01*
X-2687607Y-151897D03*
G01*
X-2687607Y-671896D03*
D27*
G01*
X-1424712Y120002D03*
G01*
X-1324712Y120002D03*
D29*
G01*
X-1114708Y120002D03*
G01*
X-1214708Y120002D03*
D28*
G01*
X-1924707Y30001D03*
G01*
X-1924707Y130001D03*
D27*
G01*
X155289Y-610001D03*
G01*
X255289Y-610001D03*
D29*
G01*
X-1614702Y119994D03*
G01*
X-1514702Y119994D03*
D28*
G01*
X-2737716Y393990D03*
G01*
X-2737716Y293991D03*
D35*
G01*
X-2064699Y30011D03*
G01*
X-2064699Y130011D03*
D37*
G01*
X-2551582Y319963D03*
G01*
X-2501544Y319963D03*
G01*
X-2451506Y319963D03*
G01*
X-2401468Y319963D03*
G01*
X-2351430Y319963D03*
G01*
X-2301417Y319963D03*
G01*
X-2251633Y319963D03*
G01*
X-2201570Y319963D03*
G01*
X-2151532Y319963D03*
G01*
X-2101519Y319963D03*
G01*
X-2051456Y319963D03*
G01*
X-2001418Y319963D03*
D38*
G01*
X-1924735Y395655D03*
G01*
X-1924735Y445693D03*
G01*
X-1924735Y495731D03*
G01*
X-1924735Y545769D03*
G01*
X-1924735Y595807D03*
G01*
X-1924735Y645845D03*
G01*
X-1924735Y695629D03*
G01*
X-1924735Y745667D03*
G01*
X-1924735Y795705D03*
G01*
X-1924735Y845743D03*
G01*
X-1924735Y895781D03*
G01*
X-1924735Y945819D03*
D37*
G01*
X-2002967Y1019962D03*
G01*
X-2052980Y1019962D03*
G01*
X-2103018Y1019962D03*
G01*
X-2153056Y1019962D03*
G01*
X-2203119Y1019962D03*
G01*
X-2253132Y1019962D03*
G01*
X-2302916Y1019962D03*
G01*
X-2352954Y1019962D03*
G01*
X-2402992Y1019962D03*
G01*
X-2453030Y1019962D03*
G01*
X-2503068Y1019962D03*
G01*
X-2553106Y1019962D03*
D38*
G01*
X-2624709Y946835D03*
G01*
X-2624709Y896797D03*
G01*
X-2624709Y846759D03*
G01*
X-2624709Y796721D03*
G01*
X-2624709Y746683D03*
G01*
X-2624709Y696645D03*
G01*
X-2624709Y646861D03*
G01*
X-2624709Y596823D03*
G01*
X-2624709Y546785D03*
G01*
X-2624709Y496747D03*
G01*
X-2624709Y446709D03*
G01*
X-2624709Y396671D03*
D39*
G01*
X-2274722Y670013D03*
D40*
G01*
X-1233708Y-629998D03*
D33*
G01*
X-1487703Y-630021D03*
G01*
X-1741703Y-630021D03*
G01*
X-1995703Y-630021D03*
D41*
G01*
X-1034694Y340004D03*
D35*
G01*
X-1034699Y440010D03*
M02*
