M48
METRIC,LZ,000.000
;FILE_FORMAT=3:3
;TYPE=PLATED
;Layer: PTH_Through
;EasyEDA v6.5.14, 2022-08-24 11:35:25
;453cab0d859b422d838698a6d57dd674,401f954c81374b6587e5d63e119e93f9,10
;Gerber Generator version 0.2
;Holesize 1 = 0.305 mm
T01C0.305
;Holesize 2 = 0.306 mm
T02C0.306
;Holesize 3 = 0.600 mm
T03C0.600
;Holesize 4 = 0.800 mm
T04C0.800
;Holesize 5 = 0.889 mm
T05C0.889
;Holesize 6 = 1.000 mm
T06C1.000
;Holesize 7 = 1.101 mm
T07C1.101
%
G05
G90
T01
X000600Y-000700
X005753Y-005300
X-001100Y001900
X-016677Y004540
X-018077Y004940
X-005600Y003600
X-016977Y003640
X-009300Y004300
X-013177Y005640
X-012377Y005540
X-011577Y004940
X003723Y003840
X003723Y004640
X002953Y008100
X-011377Y002440
X-009900Y006600
X-003400Y-005100
X002953Y000800
X-000047Y008100
X001923Y002940
X007453Y-000500
X-016747Y010500
X-018047Y007900
X-007300Y007600
X-014477Y005440
X-014900Y008600
X-014800Y009400
X-019947Y-004300
X-027447Y007400
X-027447Y008200
X-010547Y-006000
X-013247Y002100
X-012247Y002000
X-016647Y-001400
X-016747Y-000500
X-018747Y-000500
X-018747Y-001400
X-027577Y006640
X-027447Y009300
X-004100Y007600
X-009100Y008900
X-009100Y006200
X-017700Y008700
X-017700Y010000
T02
X001953Y-003400
X-020247Y-000700
X-027577Y004640
X-016147Y002300
X-018647Y002200
X-022747Y006700
X-024047Y002300
X-026247Y003300
X-015247Y000000
X-015147Y002300
X-026447Y001600
X-026247Y010000
X-027577Y005440
X004253Y-005100
X-018047Y007000
X-018347Y003600
X-010747Y000000
X-010447Y001200
T03
X-022147Y001400
T04
X005350Y007025G85X005550Y007025
X005350Y002175G85X005550Y002175
T05
X-008646Y-005439
X-008646Y-002899
X-008646Y-000359
X-012337Y-006300
X-014877Y-006300
X-017417Y-006300
X-019957Y-006300
T06
X008000Y001000G85X008700Y001000
X008000Y008200G85X008700Y008200
T07
X007423Y-004930
X007423Y-002390
M30
