G04 Layer: InnerLayer1*
G04 EasyEDA v6.5.14, 2022-08-24 11:35:25*
G04 453cab0d859b422d838698a6d57dd674,401f954c81374b6587e5d63e119e93f9,10*
G04 Gerber Generator version 0.2*
G04 Scale: 100 percent, Rotated: No, Reflected: No *
G04 Dimensions in millimeters *
G04 leading zeros omitted , absolute positions ,4 integer and 5 decimal *
%FSLAX45Y45*%
%MOMM*%

%ADD10O,1.3999972X1.1999976*%
%ADD11O,2.4999949999999997X1.7999964*%
%ADD12R,1.5748X1.7000*%
%ADD13C,1.7000*%
%ADD14C,1.5748*%
%ADD15R,1.5748X1.5748*%
%ADD16C,0.6110*%
%ADD17C,0.6100*%
%ADD18C,0.6200*%
%ADD19C,1.0000*%
%ADD20C,0.0138*%

%LPD*%
G36*
X-2171090Y-764336D02*
G01*
X-2174951Y-763574D01*
X-2178202Y-761390D01*
X-2180437Y-758139D01*
X-2181250Y-754278D01*
X-2189988Y68986D01*
X-2190953Y70002D01*
X-2339848Y70002D01*
X-2343708Y70764D01*
X-2347010Y72999D01*
X-2349246Y76250D01*
X-2350008Y80162D01*
X-2350008Y188976D01*
X-2354326Y193395D01*
X-2355850Y196646D01*
X-2356205Y200202D01*
X-2355291Y203657D01*
X-2351938Y210820D01*
X-2349449Y220268D01*
X-2348585Y229971D01*
X-2349449Y239725D01*
X-2351938Y249174D01*
X-2356104Y258064D01*
X-2361692Y266090D01*
X-2368600Y272999D01*
X-2376627Y278587D01*
X-2385517Y282752D01*
X-2394966Y285242D01*
X-2404668Y286105D01*
X-2414422Y285242D01*
X-2423871Y282752D01*
X-2432761Y278587D01*
X-2440787Y272999D01*
X-2447696Y266090D01*
X-2453284Y258064D01*
X-2457450Y249174D01*
X-2460040Y239471D01*
X-2461920Y235762D01*
X-2465070Y233121D01*
X-2469083Y231952D01*
X-2473198Y232511D01*
X-2476754Y234645D01*
X-2479141Y238048D01*
X-2480005Y242112D01*
X-2480005Y258978D01*
X-2480716Y260705D01*
X-2489301Y269290D01*
X-2490978Y270002D01*
X-2581097Y270002D01*
X-2585008Y270764D01*
X-2588310Y272999D01*
X-2590495Y276250D01*
X-2591257Y280162D01*
X-2590495Y284022D01*
X-2588310Y287324D01*
X-2581706Y293928D01*
X-2576118Y301955D01*
X-2571953Y310794D01*
X-2569464Y320243D01*
X-2568600Y329996D01*
X-2569464Y339750D01*
X-2571953Y349199D01*
X-2576118Y358038D01*
X-2581706Y366064D01*
X-2588615Y372973D01*
X-2596642Y378612D01*
X-2605532Y382727D01*
X-2614980Y385267D01*
X-2624683Y386130D01*
X-2634437Y385267D01*
X-2643886Y382727D01*
X-2652776Y378612D01*
X-2660802Y372973D01*
X-2667711Y366064D01*
X-2673299Y358038D01*
X-2677464Y349199D01*
X-2679954Y339750D01*
X-2680817Y329996D01*
X-2679954Y320243D01*
X-2677464Y310794D01*
X-2673299Y301955D01*
X-2667711Y293928D01*
X-2660802Y287020D01*
X-2652776Y281381D01*
X-2643886Y277266D01*
X-2634437Y274726D01*
X-2624683Y273862D01*
X-2614980Y274726D01*
X-2610510Y275945D01*
X-2606446Y276148D01*
X-2602636Y274777D01*
X-2599639Y272034D01*
X-2597962Y268325D01*
X-2597912Y264210D01*
X-2599994Y258978D01*
X-2599994Y90170D01*
X-2600756Y86258D01*
X-2602992Y82956D01*
X-2606294Y80772D01*
X-2610154Y80010D01*
X-2848914Y80010D01*
X-2852775Y80772D01*
X-2856077Y82956D01*
X-2858262Y86258D01*
X-2859074Y90170D01*
X-2859074Y1083970D01*
X-2858160Y1097584D01*
X-2855925Y1109370D01*
X-2852318Y1120749D01*
X-2847340Y1131671D01*
X-2841040Y1141882D01*
X-2833624Y1151280D01*
X-2825089Y1159713D01*
X-2815590Y1167028D01*
X-2805277Y1173175D01*
X-2794355Y1178052D01*
X-2782874Y1181506D01*
X-2771089Y1183589D01*
X-2758643Y1184351D01*
X889253Y1184351D01*
X902868Y1183487D01*
X914653Y1181252D01*
X926084Y1177594D01*
X936955Y1172616D01*
X947166Y1166368D01*
X956564Y1158900D01*
X964996Y1150366D01*
X972312Y1140866D01*
X978458Y1130604D01*
X983335Y1119632D01*
X986840Y1108151D01*
X988923Y1096365D01*
X989634Y1083970D01*
X989634Y881481D01*
X988669Y877163D01*
X985926Y873658D01*
X982014Y871677D01*
X977595Y871524D01*
X973480Y873302D01*
X970584Y876604D01*
X967638Y881938D01*
X959103Y893724D01*
X949147Y904290D01*
X937971Y913536D01*
X925728Y921308D01*
X912571Y927506D01*
X898753Y931976D01*
X884478Y934719D01*
X869696Y935634D01*
X800303Y935634D01*
X785520Y934719D01*
X771245Y931976D01*
X757428Y927506D01*
X744270Y921308D01*
X732028Y913536D01*
X720852Y904290D01*
X710895Y893724D01*
X702360Y881938D01*
X695350Y869238D01*
X690016Y855726D01*
X686409Y841654D01*
X684580Y827278D01*
X684580Y812749D01*
X686409Y798322D01*
X690016Y784250D01*
X695350Y770788D01*
X702360Y758037D01*
X710895Y746302D01*
X720852Y735685D01*
X732028Y726440D01*
X744270Y718667D01*
X757428Y712470D01*
X771245Y707999D01*
X785520Y705256D01*
X800303Y704342D01*
X869696Y704342D01*
X884478Y705256D01*
X898753Y707999D01*
X912571Y712470D01*
X925728Y718667D01*
X937971Y726440D01*
X949147Y735685D01*
X959103Y746302D01*
X967638Y758037D01*
X970584Y763371D01*
X973480Y766724D01*
X977595Y768451D01*
X982014Y768350D01*
X985926Y766318D01*
X988669Y762812D01*
X989634Y758494D01*
X989634Y161493D01*
X988669Y157175D01*
X985926Y153670D01*
X982014Y151688D01*
X977595Y151536D01*
X973480Y153263D01*
X970584Y156616D01*
X967638Y161950D01*
X959103Y173685D01*
X949147Y184302D01*
X937971Y193548D01*
X925728Y201320D01*
X912571Y207517D01*
X898753Y211988D01*
X884478Y214731D01*
X869696Y215646D01*
X800303Y215646D01*
X785520Y214731D01*
X771245Y211988D01*
X757428Y207517D01*
X744270Y201320D01*
X732028Y193548D01*
X720852Y184302D01*
X710895Y173685D01*
X702360Y161950D01*
X695350Y149250D01*
X690016Y135737D01*
X686409Y121666D01*
X684580Y107238D01*
X684580Y92760D01*
X686409Y78333D01*
X690016Y64262D01*
X695350Y50749D01*
X702360Y38049D01*
X710895Y26314D01*
X720852Y15697D01*
X732028Y6451D01*
X744270Y-1320D01*
X757428Y-7518D01*
X771245Y-11988D01*
X785520Y-14732D01*
X800303Y-15646D01*
X869696Y-15646D01*
X884478Y-14732D01*
X898753Y-11988D01*
X912571Y-7518D01*
X925728Y-1320D01*
X937971Y6451D01*
X949147Y15697D01*
X959103Y26314D01*
X967638Y38049D01*
X970584Y43383D01*
X973480Y46736D01*
X977595Y48463D01*
X982014Y48310D01*
X985926Y46329D01*
X988669Y42824D01*
X989634Y38506D01*
X989634Y-663956D01*
X988771Y-677570D01*
X986536Y-689356D01*
X982878Y-700786D01*
X977900Y-711657D01*
X971651Y-721918D01*
X964184Y-731266D01*
X955649Y-739698D01*
X946150Y-747064D01*
X935888Y-753160D01*
X924915Y-758037D01*
X913434Y-761542D01*
X901649Y-763625D01*
X889253Y-764336D01*
G37*

%LPC*%
G36*
X-1311859Y-734415D02*
G01*
X-1155547Y-734415D01*
X-1149299Y-733704D01*
X-1143863Y-731774D01*
X-1139037Y-728726D01*
X-1134973Y-724712D01*
X-1131925Y-719836D01*
X-1129995Y-714451D01*
X-1129334Y-708152D01*
X-1129334Y-614934D01*
X-1128471Y-610870D01*
X-1126083Y-607517D01*
X-1122527Y-605383D01*
X-1118412Y-604824D01*
X-1114399Y-605993D01*
X-1111199Y-608634D01*
X-1109319Y-612343D01*
X-1107490Y-619252D01*
X-1103376Y-628091D01*
X-1097737Y-636117D01*
X-1090828Y-643026D01*
X-1082802Y-648665D01*
X-1073912Y-652780D01*
X-1064463Y-655320D01*
X-1054709Y-656183D01*
X-1044956Y-655320D01*
X-1035507Y-652780D01*
X-1026617Y-648665D01*
X-1018590Y-643026D01*
X-1011682Y-636117D01*
X-1006043Y-628091D01*
X-1001928Y-619252D01*
X-999388Y-609752D01*
X-998524Y-600049D01*
X-999388Y-590296D01*
X-1001928Y-580796D01*
X-1006043Y-571957D01*
X-1011682Y-563930D01*
X-1018590Y-557022D01*
X-1026617Y-551383D01*
X-1035507Y-547268D01*
X-1044956Y-544728D01*
X-1054709Y-543864D01*
X-1064463Y-544728D01*
X-1073912Y-547268D01*
X-1082802Y-551383D01*
X-1090828Y-557022D01*
X-1097737Y-563930D01*
X-1103376Y-571957D01*
X-1107490Y-580796D01*
X-1109319Y-587705D01*
X-1111199Y-591413D01*
X-1114399Y-594055D01*
X-1118412Y-595223D01*
X-1122527Y-594664D01*
X-1126083Y-592531D01*
X-1128471Y-589178D01*
X-1129334Y-585114D01*
X-1129334Y-551840D01*
X-1129995Y-545541D01*
X-1131925Y-540156D01*
X-1134973Y-535279D01*
X-1139037Y-531266D01*
X-1143863Y-528218D01*
X-1149299Y-526288D01*
X-1155547Y-525627D01*
X-1311859Y-525627D01*
X-1318158Y-526288D01*
X-1323543Y-528218D01*
X-1328420Y-531266D01*
X-1332433Y-535279D01*
X-1335481Y-540156D01*
X-1337411Y-545541D01*
X-1338122Y-551840D01*
X-1338122Y-708152D01*
X-1337411Y-714451D01*
X-1335481Y-719836D01*
X-1332433Y-724712D01*
X-1328420Y-728726D01*
X-1323543Y-731774D01*
X-1318158Y-733704D01*
G37*
G36*
X-1741728Y-734364D02*
G01*
X-1728063Y-733450D01*
X-1714703Y-730808D01*
X-1701749Y-726440D01*
X-1689506Y-720394D01*
X-1678178Y-712825D01*
X-1667916Y-703783D01*
X-1658924Y-693521D01*
X-1651304Y-682193D01*
X-1645259Y-669950D01*
X-1640890Y-656996D01*
X-1638249Y-643636D01*
X-1637334Y-630021D01*
X-1638249Y-616356D01*
X-1640890Y-602996D01*
X-1645259Y-590042D01*
X-1651304Y-577799D01*
X-1658924Y-566470D01*
X-1667916Y-556209D01*
X-1678178Y-547217D01*
X-1689506Y-539597D01*
X-1701749Y-533552D01*
X-1714703Y-529183D01*
X-1728063Y-526542D01*
X-1741728Y-525627D01*
X-1755343Y-526542D01*
X-1768703Y-529183D01*
X-1781657Y-533552D01*
X-1793900Y-539597D01*
X-1805228Y-547217D01*
X-1815490Y-556209D01*
X-1824532Y-566470D01*
X-1832102Y-577799D01*
X-1838147Y-590042D01*
X-1842516Y-602996D01*
X-1845208Y-616356D01*
X-1846072Y-630021D01*
X-1845208Y-643636D01*
X-1842516Y-656996D01*
X-1838147Y-669950D01*
X-1832102Y-682193D01*
X-1824532Y-693521D01*
X-1815490Y-703783D01*
X-1805228Y-712825D01*
X-1793900Y-720394D01*
X-1781657Y-726440D01*
X-1768703Y-730808D01*
X-1755343Y-733450D01*
G37*
G36*
X-1487728Y-734364D02*
G01*
X-1474063Y-733450D01*
X-1460703Y-730808D01*
X-1447749Y-726440D01*
X-1435506Y-720394D01*
X-1424178Y-712825D01*
X-1413916Y-703783D01*
X-1404924Y-693521D01*
X-1397304Y-682193D01*
X-1391259Y-669950D01*
X-1386890Y-656996D01*
X-1384249Y-643636D01*
X-1383334Y-630021D01*
X-1384249Y-616356D01*
X-1386890Y-602996D01*
X-1391259Y-590042D01*
X-1397304Y-577799D01*
X-1404924Y-566470D01*
X-1413916Y-556209D01*
X-1424178Y-547217D01*
X-1435506Y-539597D01*
X-1447749Y-533552D01*
X-1460703Y-529183D01*
X-1474063Y-526542D01*
X-1487728Y-525627D01*
X-1501343Y-526542D01*
X-1514703Y-529183D01*
X-1527657Y-533552D01*
X-1539900Y-539597D01*
X-1551228Y-547217D01*
X-1561490Y-556209D01*
X-1570532Y-566470D01*
X-1578102Y-577799D01*
X-1584147Y-590042D01*
X-1588516Y-602996D01*
X-1591208Y-616356D01*
X-1592072Y-630021D01*
X-1591208Y-643636D01*
X-1588516Y-656996D01*
X-1584147Y-669950D01*
X-1578102Y-682193D01*
X-1570532Y-693521D01*
X-1561490Y-703783D01*
X-1551228Y-712825D01*
X-1539900Y-720394D01*
X-1527657Y-726440D01*
X-1514703Y-730808D01*
X-1501343Y-733450D01*
G37*
G36*
X-1995728Y-734364D02*
G01*
X-1982063Y-733450D01*
X-1968703Y-730808D01*
X-1955749Y-726440D01*
X-1943506Y-720394D01*
X-1932178Y-712825D01*
X-1921916Y-703783D01*
X-1912924Y-693521D01*
X-1905304Y-682193D01*
X-1899259Y-669950D01*
X-1894890Y-656996D01*
X-1892249Y-643636D01*
X-1891334Y-630021D01*
X-1892249Y-616356D01*
X-1894890Y-602996D01*
X-1899259Y-590042D01*
X-1905304Y-577799D01*
X-1912924Y-566470D01*
X-1921916Y-556209D01*
X-1932178Y-547217D01*
X-1943506Y-539597D01*
X-1955749Y-533552D01*
X-1968703Y-529183D01*
X-1982063Y-526542D01*
X-1995728Y-525627D01*
X-2009343Y-526542D01*
X-2022703Y-529183D01*
X-2035657Y-533552D01*
X-2047900Y-539597D01*
X-2059228Y-547217D01*
X-2069490Y-556209D01*
X-2078532Y-566470D01*
X-2086102Y-577799D01*
X-2092147Y-590042D01*
X-2096516Y-602996D01*
X-2099208Y-616356D01*
X-2100072Y-630021D01*
X-2099208Y-643636D01*
X-2096516Y-656996D01*
X-2092147Y-669950D01*
X-2086102Y-682193D01*
X-2078532Y-693521D01*
X-2069490Y-703783D01*
X-2059228Y-712825D01*
X-2047900Y-720394D01*
X-2035657Y-726440D01*
X-2022703Y-730808D01*
X-2009343Y-733450D01*
G37*
G36*
X-864616Y-648309D02*
G01*
X-851001Y-647395D01*
X-837590Y-644753D01*
X-824687Y-640334D01*
X-812444Y-634339D01*
X-801065Y-626719D01*
X-790803Y-617728D01*
X-781812Y-607466D01*
X-774242Y-596138D01*
X-768197Y-583895D01*
X-763778Y-570941D01*
X-761136Y-557530D01*
X-760222Y-543915D01*
X-761136Y-530301D01*
X-763778Y-516940D01*
X-768197Y-503986D01*
X-774242Y-491743D01*
X-781812Y-480415D01*
X-790803Y-470154D01*
X-801065Y-461111D01*
X-812444Y-453542D01*
X-824687Y-447497D01*
X-837590Y-443128D01*
X-851001Y-440435D01*
X-864616Y-439572D01*
X-878230Y-440435D01*
X-891641Y-443128D01*
X-904544Y-447497D01*
X-916787Y-453542D01*
X-928166Y-461111D01*
X-938428Y-470154D01*
X-947419Y-480415D01*
X-954989Y-491743D01*
X-961034Y-503986D01*
X-965453Y-516940D01*
X-968095Y-530301D01*
X-969010Y-543915D01*
X-968095Y-557530D01*
X-965453Y-570941D01*
X-961034Y-583895D01*
X-954989Y-596138D01*
X-947419Y-607466D01*
X-938428Y-617728D01*
X-928166Y-626719D01*
X-916787Y-634339D01*
X-904544Y-640334D01*
X-891641Y-644753D01*
X-878230Y-647395D01*
G37*
G36*
X664108Y-603656D02*
G01*
X820470Y-603656D01*
X826719Y-602945D01*
X832154Y-601065D01*
X836980Y-598017D01*
X841044Y-593953D01*
X844092Y-589076D01*
X845972Y-583692D01*
X846683Y-577443D01*
X846683Y-408584D01*
X845972Y-402285D01*
X844092Y-396900D01*
X841044Y-392023D01*
X836980Y-388010D01*
X832154Y-384962D01*
X826719Y-383032D01*
X820470Y-382320D01*
X664108Y-382320D01*
X657860Y-383032D01*
X652475Y-384962D01*
X647598Y-388010D01*
X643534Y-392023D01*
X640486Y-396900D01*
X638606Y-402285D01*
X637895Y-408584D01*
X637895Y-489661D01*
X637032Y-493826D01*
X634492Y-497230D01*
X630783Y-499313D01*
X626567Y-499719D01*
X622554Y-498348D01*
X619404Y-495452D01*
X618286Y-493877D01*
X611378Y-486968D01*
X603351Y-481330D01*
X594512Y-477215D01*
X585012Y-474675D01*
X575310Y-473811D01*
X565556Y-474675D01*
X556056Y-477215D01*
X547217Y-481330D01*
X539191Y-486968D01*
X532282Y-493877D01*
X526643Y-501904D01*
X522528Y-510793D01*
X519988Y-520242D01*
X519125Y-529996D01*
X519988Y-539750D01*
X522528Y-549198D01*
X526643Y-558088D01*
X532282Y-566115D01*
X539191Y-573024D01*
X547217Y-578662D01*
X556056Y-582777D01*
X565556Y-585317D01*
X575310Y-586181D01*
X585012Y-585317D01*
X594512Y-582777D01*
X603351Y-578662D01*
X611378Y-573024D01*
X618286Y-566115D01*
X619404Y-564540D01*
X622554Y-561644D01*
X626567Y-560273D01*
X630783Y-560679D01*
X634492Y-562762D01*
X637032Y-566166D01*
X637895Y-570331D01*
X637895Y-577443D01*
X638606Y-583692D01*
X640486Y-589076D01*
X643534Y-593953D01*
X647598Y-598017D01*
X652475Y-601065D01*
X657860Y-602945D01*
G37*
G36*
X-340004Y-566166D02*
G01*
X-330250Y-565302D01*
X-320802Y-562762D01*
X-311912Y-558647D01*
X-303885Y-553008D01*
X-296976Y-546100D01*
X-291338Y-538073D01*
X-287223Y-529234D01*
X-284683Y-519734D01*
X-283819Y-510032D01*
X-284683Y-500278D01*
X-287223Y-490778D01*
X-291338Y-481939D01*
X-296976Y-473913D01*
X-303885Y-467004D01*
X-311912Y-461365D01*
X-320802Y-457250D01*
X-330250Y-454710D01*
X-340004Y-453847D01*
X-349758Y-454710D01*
X-359206Y-457250D01*
X-368096Y-461365D01*
X-376123Y-467004D01*
X-383032Y-473913D01*
X-388670Y-481939D01*
X-392785Y-490778D01*
X-395325Y-500278D01*
X-396189Y-510032D01*
X-395325Y-519734D01*
X-392785Y-529234D01*
X-388670Y-538073D01*
X-383032Y-546100D01*
X-376123Y-553008D01*
X-368096Y-558647D01*
X-359206Y-562762D01*
X-349758Y-565302D01*
G37*
G36*
X-1992325Y-486613D02*
G01*
X-1982774Y-485393D01*
X-1973580Y-482549D01*
X-1965045Y-478231D01*
X-1957324Y-472541D01*
X-1950669Y-465582D01*
X-1945284Y-457657D01*
X-1941322Y-448868D01*
X-1938934Y-439572D01*
X-1938070Y-430022D01*
X-1938934Y-420471D01*
X-1941322Y-411175D01*
X-1945284Y-402386D01*
X-1950669Y-394462D01*
X-1957324Y-387502D01*
X-1965045Y-381812D01*
X-1973580Y-377494D01*
X-1982774Y-374650D01*
X-1992325Y-373430D01*
X-2001926Y-373888D01*
X-2011273Y-375869D01*
X-2020214Y-379476D01*
X-2028393Y-384505D01*
X-2035606Y-390855D01*
X-2041601Y-398322D01*
X-2046325Y-406704D01*
X-2049525Y-415747D01*
X-2051151Y-425196D01*
X-2051151Y-434848D01*
X-2049525Y-444296D01*
X-2046325Y-453339D01*
X-2041601Y-461721D01*
X-2035606Y-469188D01*
X-2028393Y-475538D01*
X-2020214Y-480568D01*
X-2011273Y-484174D01*
X-2001926Y-486206D01*
G37*
G36*
X-864616Y-394309D02*
G01*
X-851001Y-393395D01*
X-837590Y-390753D01*
X-824687Y-386334D01*
X-812444Y-380339D01*
X-801065Y-372719D01*
X-790803Y-363728D01*
X-781812Y-353466D01*
X-774242Y-342138D01*
X-768197Y-329895D01*
X-763778Y-316941D01*
X-761136Y-303530D01*
X-760222Y-289915D01*
X-761136Y-276301D01*
X-763778Y-262940D01*
X-768197Y-249986D01*
X-774242Y-237744D01*
X-781812Y-226415D01*
X-790803Y-216154D01*
X-801065Y-207111D01*
X-812444Y-199542D01*
X-824687Y-193497D01*
X-837590Y-189128D01*
X-851001Y-186436D01*
X-864616Y-185572D01*
X-878230Y-186436D01*
X-891641Y-189128D01*
X-904544Y-193497D01*
X-916787Y-199542D01*
X-928166Y-207111D01*
X-938428Y-216154D01*
X-947419Y-226415D01*
X-954989Y-237744D01*
X-961034Y-249986D01*
X-965453Y-262940D01*
X-968095Y-276301D01*
X-969010Y-289915D01*
X-968095Y-303530D01*
X-965453Y-316941D01*
X-961034Y-329895D01*
X-954989Y-342138D01*
X-947419Y-353466D01*
X-938428Y-363728D01*
X-928166Y-372719D01*
X-916787Y-380339D01*
X-904544Y-386334D01*
X-891641Y-390753D01*
X-878230Y-393395D01*
G37*
G36*
X791159Y-338175D02*
G01*
X802640Y-331724D01*
X814019Y-323240D01*
X824179Y-313385D01*
X833018Y-302310D01*
X840384Y-290169D01*
X841400Y-287832D01*
X791159Y-287832D01*
G37*
G36*
X693420Y-338175D02*
G01*
X693420Y-287832D01*
X643178Y-287832D01*
X644194Y-290169D01*
X651560Y-302310D01*
X660400Y-313385D01*
X670560Y-323240D01*
X681939Y-331724D01*
G37*
G36*
X-1874672Y-196189D02*
G01*
X-1864969Y-195326D01*
X-1855470Y-192786D01*
X-1846630Y-188671D01*
X-1838604Y-183032D01*
X-1831695Y-176123D01*
X-1826056Y-168097D01*
X-1821942Y-159207D01*
X-1819402Y-149758D01*
X-1818538Y-140004D01*
X-1819402Y-130251D01*
X-1821942Y-120802D01*
X-1826056Y-111912D01*
X-1831695Y-103885D01*
X-1833372Y-102209D01*
X-1835607Y-98907D01*
X-1836369Y-94996D01*
X-1835607Y-91135D01*
X-1833372Y-87833D01*
X-1831695Y-86106D01*
X-1826056Y-78079D01*
X-1821942Y-69240D01*
X-1819402Y-59740D01*
X-1818538Y-50038D01*
X-1819402Y-40284D01*
X-1821942Y-30784D01*
X-1826056Y-21945D01*
X-1831695Y-13919D01*
X-1838604Y-7010D01*
X-1846630Y-1371D01*
X-1855470Y2743D01*
X-1864969Y5283D01*
X-1874672Y6146D01*
X-1884425Y5283D01*
X-1893925Y2743D01*
X-1902764Y-1371D01*
X-1910791Y-7010D01*
X-1917700Y-13919D01*
X-1923338Y-21945D01*
X-1927453Y-30784D01*
X-1929993Y-40284D01*
X-1930857Y-50038D01*
X-1929993Y-59740D01*
X-1927453Y-69240D01*
X-1923338Y-78079D01*
X-1917700Y-86106D01*
X-1916023Y-87833D01*
X-1913788Y-91135D01*
X-1913026Y-94996D01*
X-1913788Y-98907D01*
X-1916023Y-102209D01*
X-1917700Y-103885D01*
X-1923338Y-111912D01*
X-1927453Y-120802D01*
X-1929993Y-130251D01*
X-1930857Y-140004D01*
X-1929993Y-149758D01*
X-1927453Y-159207D01*
X-1923338Y-168097D01*
X-1917700Y-176123D01*
X-1910791Y-183032D01*
X-1902764Y-188671D01*
X-1893925Y-192786D01*
X-1884425Y-195326D01*
G37*
G36*
X-1664716Y-196189D02*
G01*
X-1654962Y-195326D01*
X-1645513Y-192786D01*
X-1636623Y-188671D01*
X-1628597Y-183032D01*
X-1621688Y-176123D01*
X-1616049Y-168097D01*
X-1611934Y-159207D01*
X-1609394Y-149758D01*
X-1608531Y-140004D01*
X-1609394Y-130251D01*
X-1611934Y-120802D01*
X-1616049Y-111912D01*
X-1621688Y-103885D01*
X-1628851Y-96723D01*
X-1630883Y-93827D01*
X-1631797Y-90424D01*
X-1631492Y-86918D01*
X-1630019Y-83718D01*
X-1626057Y-78079D01*
X-1621942Y-69240D01*
X-1619402Y-59740D01*
X-1618538Y-50038D01*
X-1619402Y-40284D01*
X-1621942Y-30784D01*
X-1626057Y-21945D01*
X-1631696Y-13919D01*
X-1638604Y-7010D01*
X-1646631Y-1371D01*
X-1655470Y2743D01*
X-1664970Y5283D01*
X-1674672Y6146D01*
X-1684426Y5283D01*
X-1693925Y2743D01*
X-1702765Y-1371D01*
X-1710791Y-7010D01*
X-1717700Y-13919D01*
X-1723339Y-21945D01*
X-1727454Y-30784D01*
X-1729993Y-40284D01*
X-1730857Y-50038D01*
X-1729993Y-59740D01*
X-1727454Y-69240D01*
X-1723339Y-78079D01*
X-1717700Y-86106D01*
X-1710537Y-93268D01*
X-1708556Y-96164D01*
X-1707642Y-99568D01*
X-1707946Y-103073D01*
X-1709420Y-106273D01*
X-1713382Y-111912D01*
X-1717497Y-120802D01*
X-1720037Y-130251D01*
X-1720900Y-140004D01*
X-1720037Y-149758D01*
X-1717497Y-159207D01*
X-1713382Y-168097D01*
X-1707743Y-176123D01*
X-1700834Y-183032D01*
X-1692808Y-188671D01*
X-1683918Y-192786D01*
X-1674469Y-195326D01*
G37*
G36*
X791159Y-190144D02*
G01*
X841349Y-190144D01*
X836879Y-181660D01*
X828802Y-170027D01*
X819251Y-159512D01*
X808482Y-150317D01*
X796594Y-142595D01*
X791159Y-140004D01*
G37*
G36*
X643229Y-190144D02*
G01*
X693420Y-190144D01*
X693420Y-140004D01*
X687984Y-142595D01*
X676148Y-150317D01*
X665327Y-159512D01*
X655777Y-170027D01*
X647700Y-181660D01*
G37*
G36*
X-942797Y-140309D02*
G01*
X-786434Y-140309D01*
X-780186Y-139598D01*
X-774750Y-137718D01*
X-769924Y-134670D01*
X-765860Y-130606D01*
X-762812Y-125780D01*
X-760933Y-120345D01*
X-760222Y-114096D01*
X-760222Y42214D01*
X-760933Y48514D01*
X-762812Y53898D01*
X-765860Y58775D01*
X-769924Y62839D01*
X-774750Y65887D01*
X-780186Y67767D01*
X-786434Y68478D01*
X-942797Y68478D01*
X-949045Y67767D01*
X-954481Y65887D01*
X-959307Y62839D01*
X-963371Y58775D01*
X-966419Y53898D01*
X-968298Y48514D01*
X-969010Y42214D01*
X-969010Y-114096D01*
X-968298Y-120345D01*
X-966419Y-125780D01*
X-963371Y-130606D01*
X-959307Y-134670D01*
X-954481Y-137718D01*
X-949045Y-139598D01*
G37*
G36*
X-2024684Y-126136D02*
G01*
X-2014982Y-125272D01*
X-2005533Y-122732D01*
X-1996643Y-118618D01*
X-1988616Y-112979D01*
X-1981707Y-106070D01*
X-1976120Y-98044D01*
X-1971954Y-89204D01*
X-1969465Y-79756D01*
X-1968601Y-70002D01*
X-1969465Y-60248D01*
X-1971954Y-50800D01*
X-1976120Y-41960D01*
X-1981707Y-33934D01*
X-1988616Y-27025D01*
X-1996643Y-21386D01*
X-2005533Y-17272D01*
X-2014982Y-14732D01*
X-2024684Y-13868D01*
X-2034438Y-14732D01*
X-2043887Y-17272D01*
X-2052777Y-21386D01*
X-2060803Y-27025D01*
X-2067712Y-33934D01*
X-2073300Y-41960D01*
X-2077466Y-50800D01*
X-2079955Y-60248D01*
X-2080818Y-70002D01*
X-2079955Y-79756D01*
X-2077466Y-89204D01*
X-2073300Y-98044D01*
X-2067712Y-106070D01*
X-2060803Y-112979D01*
X-2052777Y-118618D01*
X-2043887Y-122732D01*
X-2034438Y-125272D01*
G37*
G36*
X-1044702Y63855D02*
G01*
X-1034948Y64719D01*
X-1025499Y67259D01*
X-1016660Y71374D01*
X-1008634Y77012D01*
X-1001725Y83921D01*
X-996086Y91948D01*
X-991971Y100787D01*
X-989431Y110235D01*
X-988568Y119989D01*
X-989431Y129743D01*
X-991971Y139192D01*
X-996086Y148031D01*
X-1001725Y156057D01*
X-1008634Y162966D01*
X-1016660Y168605D01*
X-1025499Y172720D01*
X-1034948Y175260D01*
X-1044702Y176123D01*
X-1054455Y175260D01*
X-1063904Y172720D01*
X-1072743Y168605D01*
X-1080770Y162966D01*
X-1087678Y156057D01*
X-1093317Y148031D01*
X-1097432Y139192D01*
X-1099972Y129743D01*
X-1100836Y119989D01*
X-1099972Y110235D01*
X-1097432Y100787D01*
X-1093317Y91948D01*
X-1087678Y83921D01*
X-1080770Y77012D01*
X-1072743Y71374D01*
X-1063904Y67259D01*
X-1054455Y64719D01*
G37*
G36*
X535381Y131826D02*
G01*
X554634Y131826D01*
X567182Y132740D01*
X579120Y135331D01*
X590550Y139598D01*
X601319Y145440D01*
X611073Y152806D01*
X619709Y161442D01*
X627024Y171196D01*
X632866Y181914D01*
X637184Y193395D01*
X639775Y205333D01*
X640638Y217474D01*
X639775Y229666D01*
X637184Y241604D01*
X632866Y253085D01*
X627024Y263804D01*
X619709Y273558D01*
X611073Y282194D01*
X601319Y289560D01*
X590550Y295402D01*
X579120Y299669D01*
X567182Y302260D01*
X554634Y303174D01*
X535381Y303174D01*
X522833Y302260D01*
X510895Y299669D01*
X499414Y295402D01*
X488696Y289560D01*
X478942Y282194D01*
X470306Y273558D01*
X462940Y263804D01*
X457098Y253085D01*
X452831Y241604D01*
X450240Y229666D01*
X449376Y217474D01*
X450240Y205333D01*
X452831Y193395D01*
X457098Y181914D01*
X462940Y171196D01*
X470306Y161442D01*
X478942Y152806D01*
X488696Y145440D01*
X499414Y139598D01*
X510895Y135331D01*
X522833Y132740D01*
G37*
G36*
X-109982Y133807D02*
G01*
X-100279Y134670D01*
X-90779Y137210D01*
X-81940Y141325D01*
X-73914Y146964D01*
X-67005Y153873D01*
X-61366Y161899D01*
X-57251Y170789D01*
X-54711Y180238D01*
X-53848Y189992D01*
X-54711Y199745D01*
X-57251Y209194D01*
X-61366Y218084D01*
X-67005Y226110D01*
X-73914Y233019D01*
X-81940Y238658D01*
X-90779Y242773D01*
X-100279Y245313D01*
X-109982Y246176D01*
X-119735Y245313D01*
X-129235Y242773D01*
X-138074Y238658D01*
X-146100Y233019D01*
X-153009Y226110D01*
X-158648Y218084D01*
X-162763Y209194D01*
X-165303Y199745D01*
X-166166Y189992D01*
X-165303Y180238D01*
X-162763Y170789D01*
X-158648Y161899D01*
X-153009Y153873D01*
X-146100Y146964D01*
X-138074Y141325D01*
X-129235Y137210D01*
X-119735Y134670D01*
G37*
G36*
X-1224686Y143814D02*
G01*
X-1214983Y144678D01*
X-1205484Y147218D01*
X-1196644Y151333D01*
X-1188618Y156972D01*
X-1181709Y163880D01*
X-1176070Y171907D01*
X-1171956Y180797D01*
X-1169416Y190246D01*
X-1168552Y199999D01*
X-1169416Y209753D01*
X-1171956Y219202D01*
X-1176070Y228092D01*
X-1181709Y236118D01*
X-1188618Y243027D01*
X-1196644Y248666D01*
X-1205484Y252780D01*
X-1214983Y255320D01*
X-1224686Y256184D01*
X-1234440Y255320D01*
X-1243939Y252780D01*
X-1252778Y248666D01*
X-1260805Y243027D01*
X-1263243Y240588D01*
X-1267002Y238201D01*
X-1271320Y237642D01*
X-1275537Y238963D01*
X-1278788Y241909D01*
X-1281684Y246075D01*
X-1288592Y252984D01*
X-1296619Y258622D01*
X-1305509Y262737D01*
X-1314958Y265277D01*
X-1324711Y266141D01*
X-1334465Y265277D01*
X-1343914Y262737D01*
X-1352804Y258622D01*
X-1360830Y252984D01*
X-1367739Y246075D01*
X-1373378Y238048D01*
X-1377492Y229209D01*
X-1380032Y219710D01*
X-1380896Y209956D01*
X-1380032Y200253D01*
X-1377492Y190754D01*
X-1373378Y181914D01*
X-1367739Y173888D01*
X-1360830Y166979D01*
X-1352804Y161340D01*
X-1343914Y157226D01*
X-1334465Y154686D01*
X-1324711Y153822D01*
X-1314958Y154686D01*
X-1305509Y157226D01*
X-1296619Y161340D01*
X-1288592Y166979D01*
X-1286154Y169418D01*
X-1282446Y171754D01*
X-1278077Y172364D01*
X-1273911Y171043D01*
X-1270660Y168046D01*
X-1267714Y163880D01*
X-1260805Y156972D01*
X-1252778Y151333D01*
X-1243939Y147218D01*
X-1234440Y144678D01*
G37*
G36*
X-1864715Y163880D02*
G01*
X-1854962Y164744D01*
X-1845513Y167284D01*
X-1836674Y171399D01*
X-1828647Y177038D01*
X-1821738Y183946D01*
X-1816100Y191973D01*
X-1811985Y200812D01*
X-1809445Y210261D01*
X-1808581Y220014D01*
X-1809445Y229768D01*
X-1811985Y239217D01*
X-1816100Y248056D01*
X-1821738Y256082D01*
X-1828647Y262991D01*
X-1836674Y268630D01*
X-1845513Y272745D01*
X-1854962Y275285D01*
X-1864715Y276148D01*
X-1874469Y275285D01*
X-1883918Y272745D01*
X-1892757Y268630D01*
X-1900783Y262991D01*
X-1907692Y256082D01*
X-1913331Y248056D01*
X-1917446Y239217D01*
X-1919986Y229768D01*
X-1920849Y220014D01*
X-1919986Y210261D01*
X-1917446Y200812D01*
X-1913331Y191973D01*
X-1907692Y183946D01*
X-1900783Y177038D01*
X-1892757Y171399D01*
X-1883918Y167284D01*
X-1874469Y164744D01*
G37*
G36*
X-1514703Y173888D02*
G01*
X-1504950Y174752D01*
X-1495501Y177241D01*
X-1486662Y181406D01*
X-1478635Y186994D01*
X-1471726Y193903D01*
X-1466088Y201930D01*
X-1461973Y210820D01*
X-1459433Y220268D01*
X-1458569Y229971D01*
X-1459433Y239725D01*
X-1461973Y249174D01*
X-1466088Y258064D01*
X-1471726Y266090D01*
X-1478635Y272999D01*
X-1486662Y278587D01*
X-1495501Y282752D01*
X-1504950Y285242D01*
X-1514703Y286105D01*
X-1524457Y285242D01*
X-1533906Y282752D01*
X-1542745Y278587D01*
X-1550771Y272999D01*
X-1557680Y266090D01*
X-1563319Y258064D01*
X-1567434Y249174D01*
X-1569974Y239725D01*
X-1570837Y229971D01*
X-1569974Y220268D01*
X-1567434Y210820D01*
X-1563319Y201930D01*
X-1557680Y193903D01*
X-1550771Y186994D01*
X-1542745Y181406D01*
X-1533906Y177241D01*
X-1524457Y174752D01*
G37*
G36*
X-559968Y303834D02*
G01*
X-550265Y304698D01*
X-540766Y307238D01*
X-531926Y311353D01*
X-523900Y316992D01*
X-516991Y323900D01*
X-511352Y331927D01*
X-507238Y340766D01*
X-504698Y350266D01*
X-503834Y359968D01*
X-504698Y369722D01*
X-507238Y379222D01*
X-511352Y388061D01*
X-516991Y396087D01*
X-523900Y402996D01*
X-531926Y408635D01*
X-540766Y412750D01*
X-550265Y415290D01*
X-559968Y416153D01*
X-569722Y415290D01*
X-579221Y412750D01*
X-588060Y408635D01*
X-596087Y402996D01*
X-602996Y396087D01*
X-608634Y388061D01*
X-612749Y379222D01*
X-615289Y369722D01*
X-616153Y359968D01*
X-615289Y350266D01*
X-612749Y340766D01*
X-608634Y331927D01*
X-602996Y323900D01*
X-596087Y316992D01*
X-588060Y311353D01*
X-579221Y307238D01*
X-569722Y304698D01*
G37*
G36*
X-1834692Y303885D02*
G01*
X-1824939Y304749D01*
X-1815490Y307238D01*
X-1806651Y311404D01*
X-1798624Y316992D01*
X-1791716Y323900D01*
X-1786077Y331927D01*
X-1781962Y340817D01*
X-1779422Y350266D01*
X-1778558Y359968D01*
X-1779422Y369722D01*
X-1781962Y379171D01*
X-1786077Y388061D01*
X-1791716Y396087D01*
X-1798624Y402996D01*
X-1806651Y408584D01*
X-1815490Y412750D01*
X-1824939Y415239D01*
X-1834692Y416102D01*
X-1844446Y415239D01*
X-1853895Y412750D01*
X-1862734Y408584D01*
X-1870760Y402996D01*
X-1877669Y396087D01*
X-1883308Y388061D01*
X-1887423Y379171D01*
X-1889963Y369722D01*
X-1890826Y359968D01*
X-1889963Y350266D01*
X-1887423Y340817D01*
X-1883308Y331927D01*
X-1877669Y323900D01*
X-1870760Y316992D01*
X-1862734Y311404D01*
X-1853895Y307238D01*
X-1844446Y304749D01*
G37*
G36*
X-1697685Y307848D02*
G01*
X-1687982Y308711D01*
X-1678482Y311251D01*
X-1669643Y315366D01*
X-1661617Y321005D01*
X-1654708Y327914D01*
X-1649069Y335940D01*
X-1644954Y344779D01*
X-1642414Y354279D01*
X-1641551Y363982D01*
X-1642414Y373735D01*
X-1644954Y383235D01*
X-1648155Y390144D01*
X-1649120Y394004D01*
X-1648510Y397916D01*
X-1646478Y401320D01*
X-1643278Y403656D01*
X-1639620Y405333D01*
X-1631594Y410972D01*
X-1624685Y417880D01*
X-1619046Y425907D01*
X-1614932Y434797D01*
X-1612392Y444246D01*
X-1611528Y453999D01*
X-1612392Y463753D01*
X-1614932Y473201D01*
X-1619046Y482092D01*
X-1624685Y490118D01*
X-1631594Y497027D01*
X-1639620Y502666D01*
X-1648510Y506780D01*
X-1657959Y509320D01*
X-1667713Y510184D01*
X-1677466Y509320D01*
X-1686915Y506780D01*
X-1695805Y502666D01*
X-1703832Y497027D01*
X-1710740Y490118D01*
X-1716379Y482092D01*
X-1720494Y473201D01*
X-1723034Y463753D01*
X-1723898Y453999D01*
X-1723034Y444246D01*
X-1720494Y434797D01*
X-1717243Y427837D01*
X-1716328Y423976D01*
X-1716938Y420065D01*
X-1718970Y416661D01*
X-1722170Y414324D01*
X-1725777Y412648D01*
X-1733804Y407009D01*
X-1740712Y400100D01*
X-1746351Y392074D01*
X-1750466Y383235D01*
X-1753006Y373735D01*
X-1753870Y363982D01*
X-1753006Y354279D01*
X-1750466Y344779D01*
X-1746351Y335940D01*
X-1740712Y327914D01*
X-1733804Y321005D01*
X-1725777Y315366D01*
X-1716938Y311251D01*
X-1707438Y308711D01*
G37*
G36*
X372313Y327812D02*
G01*
X382016Y328676D01*
X391515Y331216D01*
X400354Y335330D01*
X408381Y340969D01*
X415290Y347878D01*
X420928Y355904D01*
X425043Y364794D01*
X427583Y374243D01*
X428447Y383997D01*
X427583Y393750D01*
X425043Y403199D01*
X420928Y412089D01*
X416661Y418185D01*
X415035Y421944D01*
X415035Y426059D01*
X416661Y429818D01*
X420928Y435914D01*
X425043Y444804D01*
X427583Y454253D01*
X428447Y464007D01*
X427583Y473760D01*
X425043Y483209D01*
X420928Y492099D01*
X415290Y500126D01*
X408381Y507034D01*
X400354Y512673D01*
X391515Y516788D01*
X382016Y519328D01*
X372313Y520192D01*
X362559Y519328D01*
X353060Y516788D01*
X344220Y512673D01*
X336194Y507034D01*
X329285Y500126D01*
X323646Y492099D01*
X319532Y483209D01*
X316992Y473760D01*
X316128Y464007D01*
X316992Y454253D01*
X319532Y444804D01*
X323646Y435914D01*
X327914Y429818D01*
X329539Y426059D01*
X329539Y421944D01*
X327914Y418185D01*
X323646Y412089D01*
X319532Y403199D01*
X316992Y393750D01*
X316128Y383997D01*
X316992Y374243D01*
X319532Y364794D01*
X323646Y355904D01*
X329285Y347878D01*
X336194Y340969D01*
X344220Y335330D01*
X353060Y331216D01*
X362559Y328676D01*
G37*
G36*
X-929995Y373837D02*
G01*
X-920242Y374700D01*
X-910793Y377240D01*
X-901903Y381355D01*
X-893876Y386994D01*
X-886968Y393903D01*
X-881329Y401929D01*
X-877214Y410768D01*
X-874674Y420268D01*
X-873810Y429971D01*
X-874674Y439724D01*
X-877214Y449224D01*
X-881329Y458063D01*
X-886968Y466090D01*
X-893876Y472998D01*
X-901903Y478637D01*
X-910793Y482752D01*
X-920242Y485292D01*
X-929995Y486156D01*
X-939749Y485292D01*
X-949198Y482752D01*
X-958087Y478637D01*
X-966114Y472998D01*
X-973023Y466090D01*
X-978662Y458063D01*
X-982776Y449224D01*
X-985316Y439724D01*
X-986180Y429971D01*
X-985316Y420268D01*
X-982776Y410768D01*
X-978662Y401929D01*
X-973023Y393903D01*
X-966114Y386994D01*
X-958087Y381355D01*
X-949198Y377240D01*
X-939749Y374700D01*
G37*
G36*
X-1807718Y437845D02*
G01*
X-1797964Y438708D01*
X-1788515Y441248D01*
X-1779625Y445363D01*
X-1771599Y451002D01*
X-1764690Y457911D01*
X-1759051Y465937D01*
X-1754936Y474776D01*
X-1752396Y484276D01*
X-1751533Y493979D01*
X-1752396Y503732D01*
X-1754936Y513232D01*
X-1759051Y522071D01*
X-1764690Y530098D01*
X-1771599Y537006D01*
X-1779625Y542645D01*
X-1788515Y546760D01*
X-1797964Y549300D01*
X-1807718Y550164D01*
X-1817471Y549300D01*
X-1826920Y546760D01*
X-1835810Y542645D01*
X-1843836Y537006D01*
X-1850745Y530098D01*
X-1856384Y522071D01*
X-1860499Y513232D01*
X-1863039Y503732D01*
X-1863902Y493979D01*
X-1863039Y484276D01*
X-1860499Y474776D01*
X-1856384Y465937D01*
X-1850745Y457911D01*
X-1843836Y451002D01*
X-1835810Y445363D01*
X-1826920Y441248D01*
X-1817471Y438708D01*
G37*
G36*
X-1157681Y437845D02*
G01*
X-1147978Y438708D01*
X-1138478Y441248D01*
X-1129639Y445363D01*
X-1121613Y451002D01*
X-1114704Y457911D01*
X-1109065Y465937D01*
X-1104950Y474776D01*
X-1102410Y484276D01*
X-1101547Y493979D01*
X-1102410Y503732D01*
X-1104950Y513232D01*
X-1109065Y522071D01*
X-1114704Y530098D01*
X-1121613Y537006D01*
X-1129639Y542645D01*
X-1138478Y546760D01*
X-1147978Y549300D01*
X-1157681Y550164D01*
X-1167434Y549300D01*
X-1169111Y548894D01*
X-1173530Y548690D01*
X-1177594Y550367D01*
X-1180541Y553618D01*
X-1181862Y557784D01*
X-1182420Y563727D01*
X-1184960Y573227D01*
X-1189075Y582066D01*
X-1194714Y590092D01*
X-1201623Y597001D01*
X-1209649Y602640D01*
X-1218488Y606755D01*
X-1227988Y609295D01*
X-1237691Y610158D01*
X-1247444Y609295D01*
X-1256944Y606755D01*
X-1265783Y602640D01*
X-1273810Y597001D01*
X-1280718Y590092D01*
X-1286357Y582066D01*
X-1290472Y573227D01*
X-1293012Y563727D01*
X-1293876Y553974D01*
X-1293012Y544271D01*
X-1290472Y534771D01*
X-1286357Y525932D01*
X-1280718Y517906D01*
X-1273810Y510997D01*
X-1265783Y505358D01*
X-1256944Y501243D01*
X-1247444Y498703D01*
X-1237691Y497840D01*
X-1227988Y498703D01*
X-1226312Y499109D01*
X-1221892Y499313D01*
X-1217828Y497636D01*
X-1214882Y494385D01*
X-1213561Y490220D01*
X-1213002Y484276D01*
X-1210462Y474776D01*
X-1206347Y465937D01*
X-1200708Y457911D01*
X-1193800Y451002D01*
X-1185773Y445363D01*
X-1176934Y441248D01*
X-1167434Y438708D01*
G37*
G36*
X-1447698Y487832D02*
G01*
X-1437944Y488696D01*
X-1428496Y491235D01*
X-1419606Y495350D01*
X-1411579Y500989D01*
X-1404670Y507898D01*
X-1399032Y515924D01*
X-1394917Y524764D01*
X-1392377Y534263D01*
X-1391513Y543966D01*
X-1392377Y553720D01*
X-1394917Y563219D01*
X-1399032Y572058D01*
X-1404670Y580085D01*
X-1411579Y586994D01*
X-1419606Y592632D01*
X-1428496Y596747D01*
X-1437944Y599287D01*
X-1447698Y600151D01*
X-1457452Y599287D01*
X-1466900Y596747D01*
X-1475790Y592632D01*
X-1483817Y586994D01*
X-1490726Y580085D01*
X-1496364Y572058D01*
X-1500479Y563219D01*
X-1503019Y553720D01*
X-1503883Y543966D01*
X-1503019Y534263D01*
X-1500479Y524764D01*
X-1496364Y515924D01*
X-1490726Y507898D01*
X-1483817Y500989D01*
X-1475790Y495350D01*
X-1466900Y491235D01*
X-1457452Y488696D01*
G37*
G36*
X-2757678Y487883D02*
G01*
X-2747975Y488746D01*
X-2738526Y491235D01*
X-2729636Y495401D01*
X-2721610Y500989D01*
X-2714701Y507898D01*
X-2709113Y515924D01*
X-2704947Y524814D01*
X-2702458Y534263D01*
X-2701594Y543966D01*
X-2702458Y553720D01*
X-2704947Y563168D01*
X-2709113Y572058D01*
X-2714701Y580085D01*
X-2721610Y586994D01*
X-2729636Y592582D01*
X-2734310Y594766D01*
X-2737408Y597001D01*
X-2739440Y600202D01*
X-2740152Y603961D01*
X-2739440Y607720D01*
X-2737408Y610920D01*
X-2734310Y613156D01*
X-2729636Y615340D01*
X-2721610Y620979D01*
X-2714701Y627888D01*
X-2709062Y635914D01*
X-2704947Y644804D01*
X-2702407Y654253D01*
X-2701544Y664006D01*
X-2702407Y673760D01*
X-2704947Y683209D01*
X-2707436Y688644D01*
X-2708402Y692658D01*
X-2707690Y696722D01*
X-2705455Y700125D01*
X-2701696Y703884D01*
X-2696057Y711911D01*
X-2691942Y720801D01*
X-2689402Y730250D01*
X-2688539Y740003D01*
X-2689402Y749757D01*
X-2691942Y759206D01*
X-2696057Y768096D01*
X-2700324Y774192D01*
X-2701950Y777951D01*
X-2701950Y782066D01*
X-2700324Y785825D01*
X-2696057Y791921D01*
X-2691942Y800760D01*
X-2689402Y810260D01*
X-2688539Y819962D01*
X-2689402Y829716D01*
X-2691942Y839216D01*
X-2696057Y848055D01*
X-2701696Y856081D01*
X-2708605Y862990D01*
X-2713837Y866648D01*
X-2716530Y869442D01*
X-2717952Y873048D01*
X-2717952Y876909D01*
X-2716530Y880516D01*
X-2713837Y883310D01*
X-2708605Y886968D01*
X-2701696Y893876D01*
X-2696057Y901903D01*
X-2691942Y910793D01*
X-2689402Y920242D01*
X-2688539Y929995D01*
X-2689402Y939749D01*
X-2691942Y949198D01*
X-2696057Y958087D01*
X-2701696Y966114D01*
X-2708605Y973023D01*
X-2716631Y978662D01*
X-2725470Y982776D01*
X-2734970Y985316D01*
X-2744724Y986180D01*
X-2754426Y985316D01*
X-2763926Y982776D01*
X-2772765Y978662D01*
X-2780792Y973023D01*
X-2787700Y966114D01*
X-2793339Y958087D01*
X-2797454Y949198D01*
X-2799994Y939749D01*
X-2800858Y929995D01*
X-2799994Y920242D01*
X-2797454Y910793D01*
X-2793339Y901903D01*
X-2787700Y893876D01*
X-2780792Y886968D01*
X-2775559Y883310D01*
X-2772867Y880516D01*
X-2771444Y876909D01*
X-2771444Y873048D01*
X-2772867Y869442D01*
X-2775559Y866648D01*
X-2780792Y862990D01*
X-2787700Y856081D01*
X-2793339Y848055D01*
X-2797454Y839216D01*
X-2799994Y829716D01*
X-2800858Y819962D01*
X-2799994Y810260D01*
X-2797454Y800760D01*
X-2793339Y791921D01*
X-2789072Y785825D01*
X-2787446Y782066D01*
X-2787446Y777951D01*
X-2789072Y774192D01*
X-2793339Y768096D01*
X-2797454Y759206D01*
X-2799994Y749757D01*
X-2800858Y740003D01*
X-2799994Y730250D01*
X-2797454Y720801D01*
X-2794965Y715365D01*
X-2794000Y711352D01*
X-2794711Y707288D01*
X-2796946Y703884D01*
X-2800705Y700125D01*
X-2806344Y692099D01*
X-2810459Y683209D01*
X-2812999Y673760D01*
X-2813862Y664006D01*
X-2812999Y654253D01*
X-2810459Y644804D01*
X-2806344Y635914D01*
X-2800705Y627888D01*
X-2793796Y620979D01*
X-2785770Y615340D01*
X-2781096Y613156D01*
X-2777998Y610920D01*
X-2775966Y607720D01*
X-2775254Y603961D01*
X-2775966Y600202D01*
X-2777998Y597001D01*
X-2781096Y594766D01*
X-2785770Y592582D01*
X-2793796Y586994D01*
X-2800705Y580085D01*
X-2806293Y572058D01*
X-2810459Y563168D01*
X-2812948Y553720D01*
X-2813812Y543966D01*
X-2812948Y534263D01*
X-2810459Y524814D01*
X-2806293Y515924D01*
X-2800705Y507898D01*
X-2793796Y500989D01*
X-2785770Y495401D01*
X-2776880Y491235D01*
X-2767431Y488746D01*
G37*
G36*
X-909980Y563880D02*
G01*
X-900277Y564743D01*
X-890828Y567232D01*
X-881938Y571398D01*
X-873912Y576986D01*
X-867003Y583895D01*
X-861415Y591921D01*
X-857250Y600811D01*
X-854760Y610260D01*
X-853897Y619963D01*
X-854760Y629716D01*
X-857250Y639165D01*
X-861415Y648055D01*
X-867003Y656082D01*
X-873912Y662990D01*
X-881938Y668578D01*
X-890828Y672744D01*
X-900277Y675233D01*
X-909980Y676097D01*
X-919734Y675233D01*
X-925423Y673760D01*
X-928928Y673455D01*
X-932332Y674319D01*
X-935228Y676351D01*
X-937260Y679246D01*
X-941324Y688086D01*
X-946962Y696112D01*
X-953871Y703021D01*
X-961898Y708660D01*
X-970787Y712774D01*
X-980236Y715314D01*
X-989990Y716178D01*
X-999744Y715314D01*
X-1009192Y712774D01*
X-1018082Y708660D01*
X-1026109Y703021D01*
X-1033018Y696112D01*
X-1038656Y688086D01*
X-1042771Y679196D01*
X-1045311Y669747D01*
X-1046175Y659993D01*
X-1045311Y650240D01*
X-1042771Y640791D01*
X-1038656Y631901D01*
X-1033018Y623874D01*
X-1026109Y616966D01*
X-1018082Y611327D01*
X-1009192Y607212D01*
X-999744Y604672D01*
X-989990Y603808D01*
X-980236Y604672D01*
X-974547Y606196D01*
X-970991Y606501D01*
X-967587Y605586D01*
X-964692Y603605D01*
X-962710Y600710D01*
X-958596Y591921D01*
X-953008Y583895D01*
X-946099Y576986D01*
X-938072Y571398D01*
X-929182Y567232D01*
X-919734Y564743D01*
G37*
G36*
X535381Y616864D02*
G01*
X554634Y616864D01*
X567182Y617728D01*
X579120Y620318D01*
X590550Y624586D01*
X601319Y630478D01*
X611073Y637794D01*
X619709Y646430D01*
X627024Y656183D01*
X632866Y666902D01*
X637184Y678383D01*
X639775Y690321D01*
X640638Y702513D01*
X639775Y714705D01*
X637184Y726643D01*
X632866Y738073D01*
X627024Y748792D01*
X619709Y758596D01*
X611073Y767232D01*
X601319Y774547D01*
X590550Y780389D01*
X579120Y784656D01*
X567182Y787247D01*
X554634Y788162D01*
X535381Y788162D01*
X522833Y787247D01*
X510895Y784656D01*
X499414Y780389D01*
X488696Y774547D01*
X478942Y767232D01*
X470306Y758596D01*
X462940Y748792D01*
X457098Y738073D01*
X452831Y726643D01*
X450240Y714705D01*
X449376Y702513D01*
X450240Y690321D01*
X452831Y678383D01*
X457098Y666902D01*
X462940Y656183D01*
X470306Y646430D01*
X478942Y637794D01*
X488696Y630478D01*
X499414Y624586D01*
X510895Y620318D01*
X522833Y617728D01*
G37*
G36*
X-1804670Y643890D02*
G01*
X-1794967Y644753D01*
X-1785518Y647242D01*
X-1776628Y651408D01*
X-1768602Y656996D01*
X-1761693Y663905D01*
X-1756105Y671931D01*
X-1751939Y680821D01*
X-1749450Y690270D01*
X-1748586Y699973D01*
X-1749450Y709726D01*
X-1751939Y719175D01*
X-1756105Y728065D01*
X-1761693Y736092D01*
X-1763420Y737768D01*
X-1765604Y741070D01*
X-1766417Y744982D01*
X-1765604Y748842D01*
X-1763420Y752144D01*
X-1761693Y753922D01*
X-1756054Y761949D01*
X-1751939Y770788D01*
X-1749399Y780288D01*
X-1748536Y789990D01*
X-1749399Y799744D01*
X-1751482Y807618D01*
X-1751787Y811123D01*
X-1750872Y814578D01*
X-1748840Y817422D01*
X-1745945Y819454D01*
X-1741932Y821334D01*
X-1733905Y826973D01*
X-1726996Y833882D01*
X-1721357Y841908D01*
X-1717243Y850798D01*
X-1714703Y860247D01*
X-1713839Y870000D01*
X-1714703Y879754D01*
X-1717243Y889203D01*
X-1721357Y898093D01*
X-1726996Y906119D01*
X-1733905Y913028D01*
X-1741932Y918667D01*
X-1750771Y922782D01*
X-1759762Y925169D01*
X-1763674Y927201D01*
X-1766366Y930706D01*
X-1767281Y934974D01*
X-1766366Y939292D01*
X-1763674Y942797D01*
X-1759762Y944829D01*
X-1750771Y947216D01*
X-1741932Y951331D01*
X-1733905Y956970D01*
X-1726996Y963879D01*
X-1721357Y971905D01*
X-1717243Y980795D01*
X-1714703Y990244D01*
X-1713839Y999998D01*
X-1714703Y1009751D01*
X-1717243Y1019200D01*
X-1721357Y1028090D01*
X-1726996Y1036116D01*
X-1733905Y1043025D01*
X-1741932Y1048664D01*
X-1750771Y1052779D01*
X-1760270Y1055319D01*
X-1769973Y1056182D01*
X-1779727Y1055319D01*
X-1789226Y1052779D01*
X-1798066Y1048664D01*
X-1806092Y1043025D01*
X-1813001Y1036116D01*
X-1818639Y1028090D01*
X-1822754Y1019200D01*
X-1825294Y1009751D01*
X-1826158Y999998D01*
X-1825294Y990244D01*
X-1822754Y980795D01*
X-1818639Y971905D01*
X-1813001Y963879D01*
X-1806092Y956970D01*
X-1798066Y951331D01*
X-1789226Y947216D01*
X-1780235Y944829D01*
X-1776323Y942797D01*
X-1773631Y939292D01*
X-1772716Y934974D01*
X-1773631Y930706D01*
X-1776323Y927201D01*
X-1780235Y925169D01*
X-1789226Y922782D01*
X-1798066Y918667D01*
X-1806092Y913028D01*
X-1813001Y906119D01*
X-1818639Y898093D01*
X-1822754Y889203D01*
X-1825294Y879754D01*
X-1826158Y870000D01*
X-1825294Y860247D01*
X-1823212Y852373D01*
X-1822907Y848868D01*
X-1823821Y845464D01*
X-1825853Y842568D01*
X-1828749Y840536D01*
X-1832762Y838657D01*
X-1840788Y833018D01*
X-1847697Y826109D01*
X-1853336Y818083D01*
X-1857451Y809244D01*
X-1859991Y799744D01*
X-1860854Y789990D01*
X-1859991Y780288D01*
X-1857451Y770788D01*
X-1853336Y761949D01*
X-1847697Y753922D01*
X-1845970Y752144D01*
X-1843786Y748842D01*
X-1842973Y744982D01*
X-1843786Y741070D01*
X-1845970Y737768D01*
X-1847697Y736092D01*
X-1853285Y728065D01*
X-1857451Y719175D01*
X-1859940Y709726D01*
X-1860804Y699973D01*
X-1859940Y690270D01*
X-1857451Y680821D01*
X-1853285Y671931D01*
X-1847697Y663905D01*
X-1840788Y656996D01*
X-1832762Y651408D01*
X-1823872Y647242D01*
X-1814423Y644753D01*
G37*
G36*
X-4673Y753821D02*
G01*
X5029Y754684D01*
X14528Y757224D01*
X23368Y761339D01*
X31394Y766978D01*
X38303Y773887D01*
X43942Y781913D01*
X48056Y790803D01*
X50596Y800252D01*
X51460Y810006D01*
X50596Y819759D01*
X48056Y829208D01*
X43942Y838098D01*
X38303Y846124D01*
X31394Y853033D01*
X23368Y858672D01*
X14528Y862787D01*
X5029Y865327D01*
X-4673Y866190D01*
X-14427Y865327D01*
X-23926Y862787D01*
X-32766Y858672D01*
X-40792Y853033D01*
X-47701Y846124D01*
X-53340Y838098D01*
X-57454Y829208D01*
X-59994Y819759D01*
X-60858Y810006D01*
X-59994Y800252D01*
X-57454Y790803D01*
X-53340Y781913D01*
X-47701Y773887D01*
X-40792Y766978D01*
X-32766Y761339D01*
X-23926Y757224D01*
X-14427Y754684D01*
G37*
G36*
X-1489964Y803808D02*
G01*
X-1480261Y804672D01*
X-1470761Y807212D01*
X-1461922Y811326D01*
X-1453896Y816965D01*
X-1446987Y823874D01*
X-1441348Y831900D01*
X-1437233Y840790D01*
X-1434693Y850239D01*
X-1433830Y859993D01*
X-1434693Y869746D01*
X-1437182Y879144D01*
X-1442008Y889304D01*
X-1443024Y893318D01*
X-1442313Y897382D01*
X-1440027Y900836D01*
X-1436979Y903884D01*
X-1431340Y911910D01*
X-1427226Y920800D01*
X-1424686Y930249D01*
X-1423822Y940003D01*
X-1424686Y949756D01*
X-1427226Y959205D01*
X-1431340Y968095D01*
X-1436979Y976121D01*
X-1443888Y983030D01*
X-1451914Y988669D01*
X-1460804Y992784D01*
X-1470253Y995324D01*
X-1480007Y996187D01*
X-1489760Y995324D01*
X-1499209Y992784D01*
X-1508099Y988669D01*
X-1516126Y983030D01*
X-1523034Y976121D01*
X-1528673Y968095D01*
X-1532788Y959205D01*
X-1535328Y949756D01*
X-1536192Y940003D01*
X-1535328Y930249D01*
X-1532788Y920851D01*
X-1527962Y910691D01*
X-1526997Y906678D01*
X-1527708Y902614D01*
X-1529943Y899160D01*
X-1532991Y896112D01*
X-1538630Y888085D01*
X-1542745Y879195D01*
X-1545285Y869746D01*
X-1546148Y859993D01*
X-1545285Y850239D01*
X-1542745Y840790D01*
X-1538630Y831900D01*
X-1532991Y823874D01*
X-1526082Y816965D01*
X-1518056Y811326D01*
X-1509217Y807212D01*
X-1499717Y804672D01*
G37*
G36*
X-909980Y833882D02*
G01*
X-900277Y834745D01*
X-890828Y837234D01*
X-881938Y841400D01*
X-873912Y846988D01*
X-867003Y853897D01*
X-861415Y861923D01*
X-857250Y870813D01*
X-854760Y880262D01*
X-853897Y889965D01*
X-854760Y899718D01*
X-857250Y909167D01*
X-861415Y918057D01*
X-867003Y926084D01*
X-873912Y932992D01*
X-881938Y938580D01*
X-890828Y942746D01*
X-900277Y945235D01*
X-909980Y946099D01*
X-919734Y945235D01*
X-929182Y942746D01*
X-938072Y938580D01*
X-946099Y932992D01*
X-953008Y926084D01*
X-958596Y918057D01*
X-962761Y909167D01*
X-965250Y899718D01*
X-966114Y889965D01*
X-965250Y880262D01*
X-962761Y870813D01*
X-958596Y861923D01*
X-953008Y853897D01*
X-946099Y846988D01*
X-938072Y841400D01*
X-929182Y837234D01*
X-919734Y834745D01*
G37*
G36*
X-2624683Y943864D02*
G01*
X-2614980Y944727D01*
X-2605532Y947267D01*
X-2596642Y951382D01*
X-2588615Y957021D01*
X-2581706Y963930D01*
X-2576118Y971956D01*
X-2571953Y980795D01*
X-2569464Y990244D01*
X-2568600Y999998D01*
X-2569464Y1009751D01*
X-2571953Y1019200D01*
X-2576118Y1028039D01*
X-2581706Y1036066D01*
X-2588615Y1042974D01*
X-2596642Y1048613D01*
X-2605532Y1052728D01*
X-2614980Y1055268D01*
X-2624683Y1056132D01*
X-2634437Y1055268D01*
X-2643886Y1052728D01*
X-2652776Y1048613D01*
X-2660802Y1042974D01*
X-2667711Y1036066D01*
X-2673299Y1028039D01*
X-2677464Y1019200D01*
X-2679954Y1009751D01*
X-2680817Y999998D01*
X-2679954Y990244D01*
X-2677464Y980795D01*
X-2673299Y971956D01*
X-2667711Y963930D01*
X-2660802Y957021D01*
X-2652776Y951382D01*
X-2643886Y947267D01*
X-2634437Y944727D01*
G37*

%LPD*%
D10*
G01*
X545007Y702487D03*
G01*
X545007Y217500D03*
D11*
G01*
X835025Y99999D03*
G01*
X835025Y819988D03*
D12*
G01*
X742289Y-492988D03*
D13*
G01*
X742289Y-238988D03*
D14*
G01*
X-864615Y-543940D03*
G01*
X-864615Y-289940D03*
D15*
G01*
X-864615Y-35940D03*
G01*
X-1233703Y-629996D03*
D14*
G01*
X-1487703Y-630021D03*
G01*
X-1741703Y-630021D03*
G01*
X-1995703Y-630021D03*
D16*
G01*
X59994Y-70002D03*
G01*
X575284Y-529996D03*
D17*
G01*
X195300Y-340004D03*
D16*
G01*
X-110007Y189992D03*
G01*
X-1667713Y453999D03*
G01*
X-1807718Y494004D03*
G01*
X-559993Y359994D03*
G01*
X-1697710Y364007D03*
G01*
X-929995Y429996D03*
G01*
X-1317701Y564006D03*
G01*
X-1237716Y553999D03*
G01*
X-1157706Y494004D03*
G01*
X372287Y383997D03*
G01*
X372287Y464007D03*
G01*
X295300Y810006D03*
G01*
X-1137716Y243992D03*
G01*
X-989990Y659993D03*
G01*
X-340004Y-510006D03*
G01*
X295300Y80010D03*
G01*
X-4698Y810006D03*
G01*
X192303Y294005D03*
G01*
X745286Y-50012D03*
G01*
X-1674698Y1050010D03*
G01*
X-1804695Y790016D03*
G01*
X-729995Y759993D03*
G01*
X-1447698Y543991D03*
G01*
X-1489989Y859993D03*
G01*
X-1480007Y940003D03*
D17*
G01*
X-2024710Y-70002D03*
G01*
X-2757703Y464007D03*
G01*
X-1614703Y229997D03*
G01*
X-1864715Y220014D03*
D18*
G01*
X-1994712Y-430021D03*
D17*
G01*
X-2274722Y670001D03*
D16*
G01*
X-2744698Y740003D03*
G01*
X-2744698Y819988D03*
D17*
G01*
X-2404694Y229997D03*
G01*
X-2624709Y329996D03*
D19*
G01*
X-2214702Y140004D03*
D17*
G01*
X-1524711Y0D03*
G01*
X-1514703Y229997D03*
G01*
X-2644698Y159994D03*
G01*
X-2624709Y999997D03*
G01*
X-2757703Y543991D03*
G01*
X425297Y-510006D03*
G01*
X-1804695Y699998D03*
D16*
G01*
X-1054709Y-600024D03*
D17*
G01*
X-1834692Y359994D03*
G01*
X-1074699Y0D03*
D16*
G01*
X-1324711Y209981D03*
G01*
X-1224711Y199999D03*
G01*
X-1664715Y-140004D03*
G01*
X-1674698Y-50012D03*
G01*
X-1874697Y-50012D03*
G01*
X-1874697Y-140004D03*
G01*
X-2757703Y664006D03*
G01*
X-2744698Y929995D03*
D17*
G01*
X-1044702Y119989D03*
D16*
G01*
X-410006Y759993D03*
D17*
G01*
X-910005Y889990D03*
G01*
X-910005Y619988D03*
D16*
G01*
X-1769998Y870000D03*
G01*
X-1769998Y999997D03*
M02*
