G04 Layer: TopSolderMaskLayer*
G04 EasyEDA v6.5.14, 2022-08-24 11:35:25*
G04 453cab0d859b422d838698a6d57dd674,401f954c81374b6587e5d63e119e93f9,10*
G04 Gerber Generator version 0.2*
G04 Scale: 100 percent, Rotated: No, Reflected: No *
G04 Dimensions in millimeters *
G04 leading zeros omitted , absolute positions ,4 integer and 5 decimal *
%FSLAX45Y45*%
%MOMM*%

%AMMACRO1*1,1,$1,$2,$3*1,1,$1,$4,$5*1,1,$1,0-$2,0-$3*1,1,$1,0-$4,0-$5*20,1,$1,$2,$3,$4,$5,0*20,1,$1,$4,$5,0-$2,0-$3,0*20,1,$1,0-$2,0-$3,0-$4,0-$5,0*20,1,$1,0-$4,0-$5,$2,$3,0*4,1,4,$2,$3,$4,$5,0-$2,0-$3,0-$4,0-$5,$2,$3,0*%
%ADD10MACRO1,0.2032X0.1397X-0.325X-0.1397X-0.325*%
%ADD11MACRO1,0.2032X1.5X-1.3X-1.5X-1.3*%
%ADD12MACRO1,0.2032X-0.675X-0.2X-0.675X0.2*%
%ADD13O,1.3999972X1.1999976*%
%ADD14O,2.4999949999999997X1.7999964*%
%ADD15MACRO1,0.2032X-1X-0.675X-1X0.675*%
%ADD16MACRO1,0.2032X0.25X-0.4X-0.25X-0.4*%
%ADD17MACRO1,0.2032X-0.275X-0.5X-0.275X0.5*%
%ADD18MACRO1,0.2032X0.4X0.25X0.4X-0.25*%
%ADD19MACRO1,0.2032X0.5461X0.4953X0.5461X-0.4953*%
%ADD20MACRO1,0.2032X-0.25X0.4X0.25X0.4*%
%ADD21O,0.2800096X0.6999986*%
%ADD22O,0.6999986X0.2800096*%
%ADD23MACRO1,0.2032X-1.4X-1.4X-1.4X1.4*%
%ADD24MACRO1,0.2032X-0.7874X-0.85X-0.7874X0.85*%
%ADD25C,1.9032*%
%ADD26MACRO1,0.2032X0.6X-0.7X-0.6X-0.7*%
%ADD27MACRO1,0.2032X-0.2X0.45X0.2X0.45*%
%ADD28MACRO1,0.2032X-0.3111X-0.5524X0.3111X-0.5524*%
%ADD29C,1.7780*%
%ADD30MACRO1,0.2032X0.7874X0.7874X0.7874X-0.7874*%
%ADD31MACRO1,0.2032X-0.4X-0.25X-0.4X0.25*%
%ADD32MACRO1,0.2032X1X0.5X1X-0.5*%
%ADD33O,0.2800096X0.9999979999999999*%
%ADD34O,0.9999979999999999X0.2800096*%
%ADD35MACRO1,0.2032X-2.65X-2.65X-2.65X2.65*%
%ADD36MACRO1,0.2032X0.7874X-0.7874X-0.7874X-0.7874*%
%ADD37R,1.0032X0.7032*%
%ADD38MACRO1,0.2032X-0.3X-0.65X-0.3X0.65*%

%LPD*%
D10*
G01*
X-1160000Y-20007D03*
G01*
X-1209987Y-20007D03*
G01*
X-1260000Y-20007D03*
G01*
X-1309987Y-20007D03*
G01*
X-1359999Y-20007D03*
G01*
X-1409987Y-20007D03*
G01*
X-1459999Y-20007D03*
G01*
X-1459999Y-400016D03*
G01*
X-1409987Y-400016D03*
G01*
X-1359999Y-400016D03*
G01*
X-1309987Y-400016D03*
G01*
X-1260000Y-400016D03*
D11*
G01*
X-1309999Y-210012D03*
D10*
G01*
X-1209987Y-400016D03*
G01*
X-1160000Y-400016D03*
D12*
G01*
X567499Y329999D03*
G01*
X567499Y394997D03*
G01*
X567499Y459999D03*
G01*
X567499Y525000D03*
G01*
X567499Y589998D03*
D13*
G01*
X545007Y702487D03*
G01*
X545007Y217500D03*
D14*
G01*
X835025Y99999D03*
G01*
X835025Y819988D03*
D15*
G01*
X-409955Y434891D03*
G01*
X-409955Y884892D03*
D16*
G01*
X-470000Y1030000D03*
G01*
X-370000Y1030000D03*
G01*
X-790002Y1030000D03*
G01*
X-690002Y1030000D03*
D17*
G01*
X520285Y-420004D03*
G01*
X425289Y-420004D03*
G01*
X330293Y-420004D03*
G01*
X330293Y-139994D03*
G01*
X425289Y-139994D03*
G01*
X520285Y-139994D03*
D18*
G01*
X195290Y-240000D03*
G01*
X195290Y-140000D03*
G01*
X-179999Y-60001D03*
G01*
X-179999Y39998D03*
D16*
G01*
X125289Y199999D03*
G01*
X225289Y199999D03*
D15*
G01*
X-730001Y435000D03*
G01*
X-730001Y885002D03*
D19*
G01*
X-149799Y-390001D03*
G01*
X20380Y-390001D03*
D20*
G01*
X-984705Y550001D03*
G01*
X-1084705Y550001D03*
D21*
G01*
X-1319707Y659993D03*
G01*
X-1269720Y659993D03*
G01*
X-1219707Y659993D03*
G01*
X-1169720Y659993D03*
G01*
X-1119708Y659993D03*
G01*
X-1069720Y659993D03*
D22*
G01*
X-994714Y734999D03*
G01*
X-994714Y784987D03*
G01*
X-994714Y834999D03*
G01*
X-994714Y884986D03*
G01*
X-994714Y934999D03*
G01*
X-994714Y984986D03*
D21*
G01*
X-1069720Y1059992D03*
G01*
X-1119708Y1059992D03*
G01*
X-1169720Y1059992D03*
G01*
X-1219707Y1059992D03*
G01*
X-1269720Y1059992D03*
G01*
X-1319707Y1059992D03*
D22*
G01*
X-1394713Y984986D03*
G01*
X-1394713Y934999D03*
G01*
X-1394713Y884986D03*
G01*
X-1394713Y834999D03*
G01*
X-1394713Y784987D03*
G01*
X-1394713Y734999D03*
D23*
G01*
X-1193439Y860003D03*
D16*
G01*
X-1244710Y350001D03*
G01*
X-1144710Y350001D03*
D19*
G01*
X-149799Y-209999D03*
G01*
X20380Y-209999D03*
G01*
X-1559798Y350001D03*
G01*
X-1389618Y350001D03*
D18*
G01*
X-40007Y39991D03*
G01*
X-40007Y-60008D03*
D16*
G01*
X455281Y-609993D03*
G01*
X355281Y-609993D03*
D24*
G01*
X742294Y-492997D03*
D25*
G01*
X742289Y-238988D03*
D19*
G01*
X-149799Y-580001D03*
G01*
X20380Y-580001D03*
D18*
G01*
X-2727716Y213991D03*
G01*
X-2727716Y113991D03*
D20*
G01*
X125302Y79994D03*
G01*
X225301Y79994D03*
G01*
X95299Y809993D03*
G01*
X195299Y809993D03*
D26*
G01*
X5290Y230002D03*
G01*
X-334708Y230002D03*
D27*
G01*
X-1584698Y570019D03*
G01*
X-1519699Y570019D03*
G01*
X-1519699Y750003D03*
G01*
X-1584698Y750003D03*
G01*
X-1649696Y750003D03*
G01*
X-1649696Y570019D03*
D28*
G01*
X287538Y394301D03*
G01*
X193558Y394301D03*
G01*
X97043Y394301D03*
G01*
X99578Y673701D03*
G01*
X287538Y673701D03*
D18*
G01*
X-1674715Y969994D03*
G01*
X-1674715Y869994D03*
D29*
G01*
X-864615Y-543940D03*
G01*
X-864615Y-289940D03*
D30*
G01*
X-864618Y-35933D03*
D20*
G01*
X-2394703Y139994D03*
G01*
X-2294703Y139994D03*
D31*
G01*
X-2534704Y219998D03*
G01*
X-2534704Y119998D03*
D32*
G01*
X-2687607Y-151897D03*
G01*
X-2687607Y-671896D03*
D16*
G01*
X-1424712Y120002D03*
G01*
X-1324712Y120002D03*
D20*
G01*
X-1114708Y120002D03*
G01*
X-1214708Y120002D03*
D18*
G01*
X-1924707Y30001D03*
G01*
X-1924707Y130001D03*
D16*
G01*
X155289Y-610001D03*
G01*
X255289Y-610001D03*
D20*
G01*
X-1614702Y119994D03*
G01*
X-1514702Y119994D03*
D18*
G01*
X-2737716Y393990D03*
G01*
X-2737716Y293991D03*
D31*
G01*
X-2064699Y30011D03*
G01*
X-2064699Y130011D03*
D33*
G01*
X-2551582Y319963D03*
G01*
X-2501544Y319963D03*
G01*
X-2451506Y319963D03*
G01*
X-2401468Y319963D03*
G01*
X-2351430Y319963D03*
G01*
X-2301417Y319963D03*
G01*
X-2251633Y319963D03*
G01*
X-2201570Y319963D03*
G01*
X-2151532Y319963D03*
G01*
X-2101519Y319963D03*
G01*
X-2051456Y319963D03*
G01*
X-2001418Y319963D03*
D34*
G01*
X-1924735Y395655D03*
G01*
X-1924735Y445693D03*
G01*
X-1924735Y495731D03*
G01*
X-1924735Y545769D03*
G01*
X-1924735Y595807D03*
G01*
X-1924735Y645845D03*
G01*
X-1924735Y695629D03*
G01*
X-1924735Y745667D03*
G01*
X-1924735Y795705D03*
G01*
X-1924735Y845743D03*
G01*
X-1924735Y895781D03*
G01*
X-1924735Y945819D03*
D33*
G01*
X-2002967Y1019962D03*
G01*
X-2052980Y1019962D03*
G01*
X-2103018Y1019962D03*
G01*
X-2153056Y1019962D03*
G01*
X-2203119Y1019962D03*
G01*
X-2253132Y1019962D03*
G01*
X-2302916Y1019962D03*
G01*
X-2352954Y1019962D03*
G01*
X-2402992Y1019962D03*
G01*
X-2453030Y1019962D03*
G01*
X-2503068Y1019962D03*
G01*
X-2553106Y1019962D03*
D34*
G01*
X-2624709Y946835D03*
G01*
X-2624709Y896797D03*
G01*
X-2624709Y846759D03*
G01*
X-2624709Y796721D03*
G01*
X-2624709Y746683D03*
G01*
X-2624709Y696645D03*
G01*
X-2624709Y646861D03*
G01*
X-2624709Y596823D03*
G01*
X-2624709Y546785D03*
G01*
X-2624709Y496747D03*
G01*
X-2624709Y446709D03*
G01*
X-2624709Y396671D03*
D35*
G01*
X-2274722Y670013D03*
D36*
G01*
X-1233708Y-629998D03*
D29*
G01*
X-1487703Y-630021D03*
G01*
X-1741703Y-630021D03*
G01*
X-1995703Y-630021D03*
D37*
G01*
X-1034694Y340004D03*
D31*
G01*
X-1034699Y440010D03*
D38*
G01*
X-12705Y414003D03*
G01*
X-107706Y654003D03*
G01*
X-202707Y414003D03*
M02*
