G04 Layer: TopPasteMaskLayer*
G04 EasyEDA v6.5.14, 2022-08-24 11:35:25*
G04 453cab0d859b422d838698a6d57dd674,401f954c81374b6587e5d63e119e93f9,10*
G04 Gerber Generator version 0.2*
G04 Scale: 100 percent, Rotated: No, Reflected: No *
G04 Dimensions in millimeters *
G04 leading zeros omitted , absolute positions ,4 integer and 5 decimal *
%FSLAX45Y45*%
%MOMM*%

%AMMACRO1*21,1,$1,$2,0,0,$3*%
%ADD10R,0.2794X0.6500*%
%ADD11R,3.0000X2.6000*%
%ADD12R,1.3500X0.4000*%
%ADD13R,2.0000X1.3500*%
%ADD14R,0.5000X0.8000*%
%ADD15R,0.5500X1.0000*%
%ADD16R,0.8000X0.5000*%
%ADD17R,1.0922X0.9906*%
%ADD18O,0.2800096X0.6999986*%
%ADD19O,0.6999986X0.2800096*%
%ADD20R,2.8000X2.8000*%
%ADD21R,1.2000X1.4000*%
%ADD22R,0.4000X0.9000*%
%ADD23MACRO1,0.6223X1.1049X0.0000*%
%ADD24R,2.0000X1.0000*%
%ADD25O,0.2800096X0.9999979999999999*%
%ADD26O,0.9999979999999999X0.2800096*%
%ADD27R,5.3000X5.3000*%
%ADD28R,0.6000X1.3000*%

%LPD*%
D10*
G01*
X-1159992Y-20015D03*
G01*
X-1209979Y-20015D03*
G01*
X-1259992Y-20015D03*
G01*
X-1309979Y-20015D03*
G01*
X-1359992Y-20015D03*
G01*
X-1409979Y-20015D03*
G01*
X-1459991Y-20015D03*
G01*
X-1459991Y-400024D03*
G01*
X-1409979Y-400024D03*
G01*
X-1359992Y-400024D03*
G01*
X-1309979Y-400024D03*
G01*
X-1259992Y-400024D03*
D11*
G01*
X-1310004Y-210007D03*
D10*
G01*
X-1209979Y-400024D03*
G01*
X-1159992Y-400024D03*
D12*
G01*
X567512Y329996D03*
G01*
X567512Y394995D03*
G01*
X567512Y459994D03*
G01*
X567512Y524992D03*
G01*
X567512Y589991D03*
D13*
G01*
X-409955Y434898D03*
G01*
X-409955Y884885D03*
D14*
G01*
X-470001Y1029995D03*
G01*
X-370001Y1029995D03*
G01*
X-789990Y1029995D03*
G01*
X-689990Y1029995D03*
D15*
G01*
X520293Y-420014D03*
G01*
X425297Y-420014D03*
G01*
X330301Y-420014D03*
G01*
X330301Y-140004D03*
G01*
X425297Y-140004D03*
G01*
X520293Y-140004D03*
D16*
G01*
X195300Y-240004D03*
G01*
X195300Y-140004D03*
G01*
X-180009Y-59994D03*
G01*
X-180009Y40005D03*
D14*
G01*
X125298Y199999D03*
G01*
X225297Y199999D03*
D13*
G01*
X-729995Y435000D03*
G01*
X-729995Y885012D03*
D17*
G01*
X-149809Y-389991D03*
G01*
X20370Y-389991D03*
D14*
G01*
X-984707Y550011D03*
G01*
X-1084706Y550011D03*
D18*
G01*
X-1319707Y659993D03*
G01*
X-1269720Y659993D03*
G01*
X-1219707Y659993D03*
G01*
X-1169720Y659993D03*
G01*
X-1119708Y659993D03*
G01*
X-1069720Y659993D03*
D19*
G01*
X-994714Y734999D03*
G01*
X-994714Y784987D03*
G01*
X-994714Y834999D03*
G01*
X-994714Y884986D03*
G01*
X-994714Y934999D03*
G01*
X-994714Y984986D03*
D18*
G01*
X-1069720Y1059992D03*
G01*
X-1119708Y1059992D03*
G01*
X-1169720Y1059992D03*
G01*
X-1219707Y1059992D03*
G01*
X-1269720Y1059992D03*
G01*
X-1319707Y1059992D03*
D19*
G01*
X-1394713Y984986D03*
G01*
X-1394713Y934999D03*
G01*
X-1394713Y884986D03*
G01*
X-1394713Y834999D03*
G01*
X-1394713Y784987D03*
G01*
X-1394713Y734999D03*
D20*
G01*
X-1193444Y859993D03*
D14*
G01*
X-1244701Y350012D03*
G01*
X-1144701Y350012D03*
D17*
G01*
X-149809Y-210007D03*
G01*
X20370Y-210007D03*
G01*
X-1559788Y350012D03*
G01*
X-1389608Y350012D03*
D16*
G01*
X-40004Y39979D03*
G01*
X-40004Y-60020D03*
D14*
G01*
X455269Y-610006D03*
G01*
X355269Y-610006D03*
D17*
G01*
X-149809Y-580009D03*
G01*
X20370Y-580009D03*
D16*
G01*
X-2727705Y213995D03*
G01*
X-2727705Y113995D03*
D14*
G01*
X125298Y79984D03*
G01*
X225297Y79984D03*
G01*
X95300Y809980D03*
G01*
X195300Y809980D03*
D21*
G01*
X5283Y229997D03*
G01*
X-334695Y229997D03*
D22*
G01*
X-1584705Y570026D03*
G01*
X-1519707Y570026D03*
G01*
X-1519707Y750011D03*
G01*
X-1584705Y750011D03*
G01*
X-1649704Y750011D03*
G01*
X-1649704Y570026D03*
D23*
G01*
X287538Y394301D03*
G01*
X193558Y394301D03*
G01*
X97043Y394301D03*
G01*
X99578Y673701D03*
G01*
X287538Y673701D03*
D16*
G01*
X-1674723Y970000D03*
G01*
X-1674723Y870000D03*
D14*
G01*
X-2394711Y140004D03*
G01*
X-2294712Y140004D03*
D16*
G01*
X-2534691Y219989D03*
G01*
X-2534691Y119989D03*
D24*
G01*
X-2687599Y-151892D03*
G01*
X-2687599Y-671906D03*
D14*
G01*
X-1424711Y119989D03*
G01*
X-1324711Y119989D03*
G01*
X-1114704Y119989D03*
G01*
X-1214704Y119989D03*
D16*
G01*
X-1924710Y29997D03*
G01*
X-1924710Y129997D03*
D14*
G01*
X155295Y-610006D03*
G01*
X255295Y-610006D03*
G01*
X-1614703Y119989D03*
G01*
X-1514703Y119989D03*
D16*
G01*
X-2737713Y393979D03*
G01*
X-2737713Y293979D03*
G01*
X-2064689Y30022D03*
G01*
X-2064689Y130022D03*
D25*
G01*
X-2551582Y319963D03*
G01*
X-2501544Y319963D03*
G01*
X-2451506Y319963D03*
G01*
X-2401468Y319963D03*
G01*
X-2351430Y319963D03*
G01*
X-2301417Y319963D03*
G01*
X-2251633Y319963D03*
G01*
X-2201570Y319963D03*
G01*
X-2151532Y319963D03*
G01*
X-2101519Y319963D03*
G01*
X-2051456Y319963D03*
G01*
X-2001418Y319963D03*
D26*
G01*
X-1924735Y395655D03*
G01*
X-1924735Y445693D03*
G01*
X-1924735Y495731D03*
G01*
X-1924735Y545769D03*
G01*
X-1924735Y595807D03*
G01*
X-1924735Y645845D03*
G01*
X-1924735Y695629D03*
G01*
X-1924735Y745667D03*
G01*
X-1924735Y795705D03*
G01*
X-1924735Y845743D03*
G01*
X-1924735Y895781D03*
G01*
X-1924735Y945819D03*
D25*
G01*
X-2002967Y1019962D03*
G01*
X-2052980Y1019962D03*
G01*
X-2103018Y1019962D03*
G01*
X-2153056Y1019962D03*
G01*
X-2203119Y1019962D03*
G01*
X-2253132Y1019962D03*
G01*
X-2302916Y1019962D03*
G01*
X-2352954Y1019962D03*
G01*
X-2402992Y1019962D03*
G01*
X-2453030Y1019962D03*
G01*
X-2503068Y1019962D03*
G01*
X-2553106Y1019962D03*
D26*
G01*
X-2624709Y946835D03*
G01*
X-2624709Y896797D03*
G01*
X-2624709Y846759D03*
G01*
X-2624709Y796721D03*
G01*
X-2624709Y746683D03*
G01*
X-2624709Y696645D03*
G01*
X-2624709Y646861D03*
G01*
X-2624709Y596823D03*
G01*
X-2624709Y546785D03*
G01*
X-2624709Y496747D03*
G01*
X-2624709Y446709D03*
G01*
X-2624709Y396671D03*
D27*
G01*
X-2274722Y670001D03*
D16*
G01*
X-1034694Y340004D03*
G01*
X-1034694Y440004D03*
D28*
G01*
X-12700Y413994D03*
G01*
X-107695Y653999D03*
G01*
X-202717Y413994D03*
M02*
